<svg xmlns="http://www.w3.org/2000/svg" viewBox="0 0 815.58 994.94"><defs><style>.cls-1{fill:none;stroke:#593422;stroke-linejoin:round;stroke-width:16px;}.cls-2{fill:#0c0c0a;}.cls-3{fill:#b49b7b;}.cls-4{fill:#a88b6b;}.cls-5{fill:#3b352b;}.cls-6{fill:#a08261;}.cls-7{fill:#534331;}.cls-8{fill:#000103;}</style></defs><g id="Layer_2" data-name="Layer 2"><path class="cls-1" d="M430.1,316.75V236.29s-10.06.81-16.25,14.13V239.77l-10.44,2.7s3.86-8.12,11.21-9.67c0,0,0-4.64-11.21-1.93,0,0,3.48-6.58,13.34-8.12,0,0,.54-8.9,3.07-13.54l4.09,6.19s5.8-10.83,9.28-10.83c0,0-3.87,10.05,0,13.92,0,0,7.35-4.25,19-1.16,0,0-11.22,4.64-12,9.28,0,0,5-1.54,12,3.87,0,0-10.45-3.09-16.25,3.48l-1.16,82.79H430.1" transform="translate(-263.11 -8.18)"/><polyline class="cls-1" points="183.75 308.57 177.04 295.29 186.07 299.41 186.07 286.26 195.1 297.41 206.44 286.26 203.35 299.67 211.34 296.06 207.47 308.57 183.75 308.57"/><polygon class="cls-1" points="227.85 308.57 219.08 294.51 230.69 294.51 228.88 280.84 240.23 292.71 251.06 282.39 249 294.7 262.28 294.7 253.12 308.57 227.85 308.57"/><polygon class="cls-1" points="317.46 308.57 310.63 284.65 332.81 301.22 335.13 276.46 366.96 301.22 381.26 280.84 389.03 303.8 414.04 286.52 413.01 308.57 317.46 308.57"/><polygon class="cls-1" points="482.12 308.57 494.5 289.87 509.2 299.22 511.52 273.88 545.56 308.57 482.12 308.57"/><polygon class="cls-1" points="558.72 308.57 566.2 286.77 574.96 301.99 583.22 285.74 590.18 300.44 597.14 291.22 597.14 308.57 558.72 308.57"/><path class="cls-1" d="M877.79,314.81,864.45,296l15.4,6.44s-4.75-19.08-4.57-17.53,14.89,14.5,14.89,14.5l18.05-17.34-1,17.34,8.25-3.93-9.8,9.86,17.57,2.52-14.73,8.9h-29.4Z" transform="translate(-263.11 -8.18)"/><path class="cls-1" d="M861.8,315.59s4.13-43.33,9-48.23c0,0-6.19-5.67-16.25-1.8,0,0,5.41-9,11.35-9.29,0,0-1.29-3.09-12.64-3.09,0,0,9.8-8.26,17.54-4.13,0,0,1.8-8.77,9-13.41,0,0-2.84,11.26,0,14.78,0,0,9-5,20.12,3.53,0,0-14.19-2.58-16.51,1,0,0,19.09,8,12.12,23.73,0,0-9.28-15.73-14.18-11.86l-4.77,2.06a17,17,0,0,0-5.8,11.6l-6.38,36.24Z" transform="translate(-263.11 -8.18)"/><path class="cls-1" d="M370.14,479.34S374,462.19,330.3,451a58.28,58.28,0,0,1-22.51-25.15s-14.24-13.92-28.94,10.83c0,0-2.32-12.38,16.24-22.43,0,0-17.79-1.94-24,5.8,0,0,5-17,28.63-12,0,0-13.54-11.61-10.45-20.89,0,0,12.63,15.86,18.5,15.86,0,0-3.55-8.12,0-15.86,0,0,2.39,13.15,9.35,15.86,0,0,6.58-12.38,25.53-3.48,0,0-17,1.55-15.86,10.06a22,22,0,0,1,20.12,4.64s-12,.77-15.09,4.25c0,0,12,8.13,11.61,16.64,0,0-16.94-14.32-22.78-9.29,0,0,5,19.73,17.36,22.83s45.65,16.24,42.17,30.68Z" transform="translate(-263.11 -8.18)"/><polygon class="cls-1" points="58.67 471.16 44.68 460.98 62.67 460.98 48.62 449.76 67.57 454.79 71.86 444.07 79.18 457.62 90.39 439.7 95.04 460.59 109.89 450.15 103.16 471.16 58.67 471.16"/><polygon class="cls-1" points="122.11 471.16 111.12 458.07 122.11 462.52 122.11 447.82 133.72 459.5 144.55 447.82 144.55 461.75 153.84 455.43 152.29 471.16 122.11 471.16"/><polygon class="cls-1" points="193.64 471.16 184.78 455.43 207.16 461.75 226.56 442.02 231.97 465.62 242.42 459.5 240.49 471.16 193.64 471.16"/><polygon class="cls-1" points="276.56 471.16 265.24 463.3 278.78 463.3 268.53 447.82 287.29 455.43 296.96 425.07 303.15 448.12 311.12 433.13 311.12 455.43 326.04 450.53 316.28 463.3 330.62 462.14 327.71 471.16 276.56 471.16"/><polygon class="cls-1" points="373.92 471.16 364.75 460.59 376.97 462.91 368.76 450.15 381.26 455.18 381.26 438.54 395.99 452.47 404.89 436.61 407.21 471.16 373.92 471.16"/><polygon class="cls-1" points="538.55 471.16 521.35 452.08 538.55 459.04 537.65 440.09 551.5 455.63 561.63 443.57 561.63 459.43 561.63 472.97 538.55 471.16"/><polygon class="cls-1" points="651.89 471.16 641.24 450.53 653.62 453.63 643.17 443.57 664.06 451.69 644.72 426.16 669.87 445.89 690.8 426.16 690.8 451.69 708.55 442.8 704.68 458.66 702.17 471.16 651.89 471.16"/><path class="cls-1" d="M967.79,479.34s5.8-17.92,27.85-25.27c0,0,23.21-7.35,29.79-19.73,0,0-13.93-7.73-28.82,13.93,0,0,4.06-11.22,16.83-19.73,0,0-12.77-6.19-19-2.32s2.71-9.67,20.12-6.19c0,0,4.25-8.9-14.32-8.9,0,0,3.49-13.54,25.15,3.1,0,0,5.93-15.86,18.44-17.8,0,0-8,13.16-10.71,17.41,0,0,26.7-4.25,33.27,9.28,0,0-30.17-3.86-29.78,4.26,0,0,25.14-1.16,24.37,20.89,0,0-17.12-16.89-26.16-10.38,0,0-27.1,20.05-32.58,24.69l-22.11,16.76Z" transform="translate(-263.11 -8.18)"/><polygon class="cls-1" points="780.76 471.16 791.72 468.71 778.18 464.85 784.95 459.43 771.75 460.98 773.54 452.47 763.48 459.43 756.9 450.92 746.46 461.04 734.85 453.24 720.15 463.3 713.96 470.65 780.76 471.16"/><polygon class="cls-1" points="44.68 715.13 17.28 705.45 33.92 705.45 28.5 692.3 40.88 700.42 39.33 683.02 56.74 699.07 54.42 715.13 44.68 715.13"/><path class="cls-1" d="M365.5,721.76s-8.51-16.64-7.35-16.25S373,713.63,373,713.63l6.42-16.24,8.51,12.18,3.62-13.73,9.92,8.9v15.47Z" transform="translate(-263.11 -8.18)"/><polygon class="cls-1" points="183.62 713.58 186.15 693.08 188.65 703.33 196 685.73 197.55 700.62 206.83 699.65 202.19 708.16 209.54 708.55 206.06 715.13 183.62 713.58"/><polygon class="cls-1" points="267.56 710.86 263.31 696.56 278.01 703.71 291.93 685.73 291.93 694.62 302.6 681.47 302.6 710.86 267.56 710.86"/><polygon class="cls-1" points="431.19 707.39 425.78 694.24 437.38 700.81 437.38 679.15 447.05 693.27 458.93 675.67 462.14 698.49 471.42 689.21 467.17 715.13 433.13 715.13 431.19 707.39"/><polygon class="cls-1" points="517.46 715.13 507.4 696.16 519 705.65 513.2 687.66 522.48 696.16 522.48 672.19 536.02 693.66 549.33 672.19 549.33 712.8 517.46 715.13"/><polygon class="cls-1" points="602.56 710.86 595.59 703.91 607.04 707.38 599.55 695.4 612.23 695.4 607.04 682.24 623.83 695.4 636.21 684.18 633.09 710.86 602.56 710.86"/><path class="cls-1" d="M940.71,683.85c3.48-2.71,13.2-6.58,13.2-6.58l-13.2,27.46L973.59,691l-27.18,23.41,24.86-3.48-5.8,12.38H944.58Z" transform="translate(-263.11 -8.18)"/><path class="cls-1" d="M1023.88,719s-3.48-17.39,0-17.2,8.51,11,8.51,11l8.12-11V719l11.61-10.82,3.48,15.09-8.12,11.21Z" transform="translate(-263.11 -8.18)"/><rect class="cls-1" x="344.41" y="8" width="124.82" height="12.38"/><polygon class="cls-1" points="478.51 95.68 337.19 95.68 350.6 20.38 464.07 20.38 478.51 95.68"/><rect class="cls-1" x="300.78" y="95.68" width="208.64" height="20.69"/><polygon class="cls-1" points="524.93 242.24 288.71 242.24 311.13 116.37 500.79 116.37 524.93 242.24"/><rect class="cls-1" x="259.83" y="242.24" width="295.02" height="18.49"/><polygon class="cls-1" points="524.93 260.73 524.93 265.24 530.22 265.24 530.22 308.57 549.56 308.57 549.56 265.24 554.85 265.24 554.85 260.73 524.93 260.73"/><polygon class="cls-1" points="492.83 260.73 492.83 265.24 498.11 265.24 498.11 308.57 517.46 308.57 517.46 265.24 522.74 265.24 522.74 260.73 492.83 260.73"/><polygon class="cls-1" points="459.95 260.73 459.95 265.24 465.23 265.24 465.23 308.57 484.57 308.57 484.57 265.24 489.86 265.24 489.86 260.73 459.95 260.73"/><polygon class="cls-1" points="426.68 260.73 426.68 265.24 431.96 265.24 431.96 308.57 451.31 308.57 451.31 265.24 456.59 265.24 456.59 260.73 426.68 260.73"/><polygon class="cls-1" points="392.38 260.73 392.38 265.24 397.67 265.24 397.67 308.57 417.01 308.57 417.01 265.24 422.3 265.24 422.3 260.73 392.38 260.73"/><polygon class="cls-1" points="360.53 260.73 360.53 265.24 365.82 265.24 365.82 308.57 385.16 308.57 385.16 265.24 390.45 265.24 390.45 260.73 360.53 260.73"/><polygon class="cls-1" points="326.1 260.73 326.1 265.24 331.39 265.24 331.39 308.57 350.73 308.57 350.73 265.24 356.02 265.24 356.02 260.73 326.1 260.73"/><polygon class="cls-1" points="292.83 260.73 292.83 265.24 298.12 265.24 298.12 308.57 317.46 308.57 317.46 265.24 322.75 265.24 322.75 260.73 292.83 260.73"/><polygon class="cls-1" points="259.83 260.73 259.83 265.24 265.11 265.24 265.11 308.57 284.45 308.57 284.45 265.24 289.74 265.24 289.74 260.73 259.83 260.73"/><rect class="cls-1" x="148.42" y="308.57" width="517.58" height="15.86"/><polygon class="cls-1" points="153.84 324.43 157.7 339.9 656.71 339.9 662.13 324.43 153.84 324.43"/><polygon class="cls-1" points="153.84 339.9 153.84 344.28 662.13 343.77 662.13 339.9 153.84 339.9"/><polygon class="cls-1" points="153.84 344.28 153.84 352.54 204.64 352.54 204.64 344.23 153.84 344.28"/><polygon class="cls-1" points="156.72 352.54 156.72 360.6 161.87 360.6 161.87 471.16 196.43 471.16 196.43 360.79 201.59 360.79 201.59 352.54 156.72 352.54"/><polygon class="cls-1" points="211.34 344.28 211.34 352.54 262.28 352.54 262.28 344.23 211.34 344.28"/><polygon class="cls-1" points="214.35 352.54 214.35 360.6 219.51 360.6 219.51 471.16 254.07 471.16 254.07 360.79 259.22 360.79 259.22 352.54 214.35 352.54"/><polygon class="cls-1" points="268.53 344.28 268.53 352.54 319.33 352.54 319.33 344.23 268.53 344.28"/><polygon class="cls-1" points="271.41 352.54 271.41 360.6 276.56 360.6 276.56 471.16 311.12 471.16 311.12 360.79 316.28 360.79 316.28 352.54 271.41 352.54"/><polygon class="cls-1" points="326.04 344.28 326.04 352.54 376.97 352.54 376.97 344.23 326.04 344.28"/><polygon class="cls-1" points="329.04 352.54 329.04 360.6 334.2 360.6 334.2 471.16 368.76 471.16 368.76 360.79 373.92 360.79 373.92 352.54 329.04 352.54"/><polygon class="cls-1" points="381.26 344.28 381.26 352.54 432.06 352.54 432.06 344.23 381.26 344.28"/><polygon class="cls-1" points="384.14 352.54 384.14 360.6 389.3 360.6 389.3 471.16 423.85 471.16 423.85 360.79 429.01 360.79 429.01 352.54 384.14 352.54"/><polygon class="cls-1" points="438.77 344.28 438.77 352.54 489.7 352.54 489.7 344.23 438.77 344.28"/><polygon class="cls-1" points="441.78 352.54 441.78 360.6 446.94 360.6 446.94 471.16 481.49 471.16 481.49 360.79 486.65 360.79 486.65 352.54 441.78 352.54"/><polygon class="cls-1" points="495.95 344.28 495.95 352.54 546.75 352.54 546.75 344.23 495.95 344.28"/><polygon class="cls-1" points="498.83 352.54 498.83 360.6 503.99 360.6 503.99 471.16 538.55 471.16 538.55 360.79 543.7 360.79 543.7 352.54 498.83 352.54"/><polygon class="cls-1" points="553.46 344.28 553.46 352.54 604.39 352.54 604.39 344.23 553.46 344.28"/><polygon class="cls-1" points="556.47 352.54 556.47 360.6 561.63 360.6 561.63 471.16 596.18 471.16 596.18 360.79 601.34 360.79 601.34 352.54 556.47 352.54"/><polygon class="cls-1" points="609.16 344.28 609.16 352.54 660.1 352.54 660.1 344.23 609.16 344.28"/><polygon class="cls-1" points="612.17 352.54 612.17 360.6 617.33 360.6 617.33 471.16 651.89 471.16 651.89 360.79 657.04 360.79 657.04 352.54 612.17 352.54"/><polygon class="cls-1" points="40.49 526.48 40.49 538.47 114.32 538.47 114.32 526.4 40.49 526.48"/><polygon class="cls-1" points="44.68 538.47 44.68 550.18 52.17 550.18 52.17 710.86 102.39 710.86 102.39 550.46 109.89 550.46 109.89 538.47 44.68 538.47"/><polygon class="cls-1" points="124.06 526.48 124.06 538.47 198.08 538.47 198.08 526.4 124.06 526.48"/><polygon class="cls-1" points="128.44 538.47 128.44 550.18 135.93 550.18 135.93 710.86 186.15 710.86 186.15 550.46 193.64 550.46 193.64 538.47 128.44 538.47"/><polygon class="cls-1" points="207.16 526.48 207.16 538.47 280.99 538.47 280.99 526.4 207.16 526.48"/><polygon class="cls-1" points="211.35 538.47 211.35 550.18 218.84 550.18 218.84 710.86 269.06 710.86 269.06 550.46 276.55 550.46 276.55 538.47 211.35 538.47"/><polygon class="cls-1" points="290.73 526.48 290.73 538.47 364.75 538.47 364.75 526.4 290.73 526.48"/><polygon class="cls-1" points="295.1 538.47 295.1 550.18 302.6 550.18 302.6 710.86 352.82 710.86 352.82 550.46 360.31 550.46 360.31 538.47 295.1 538.47"/><polygon class="cls-1" points="370.98 526.48 370.98 538.47 444.81 538.47 444.81 526.4 370.98 526.48"/><polygon class="cls-1" points="375.17 538.47 375.17 550.18 382.66 550.18 382.66 710.86 432.88 710.86 432.88 550.46 440.37 550.46 440.37 538.47 375.17 538.47"/><polygon class="cls-1" points="454.55 526.48 454.55 538.47 528.57 538.47 528.57 526.4 454.55 526.48"/><polygon class="cls-1" points="458.93 538.47 458.93 550.18 466.42 550.18 466.42 710.86 516.64 710.86 516.64 550.46 524.13 550.46 524.13 538.47 458.93 538.47"/><polygon class="cls-1" points="537.65 526.48 537.65 538.47 611.48 538.47 611.48 526.4 537.65 526.48"/><polygon class="cls-1" points="541.83 538.47 541.83 550.18 549.33 550.18 549.33 710.86 599.55 710.86 599.55 550.46 607.04 550.46 607.04 538.47 541.83 538.47"/><polygon class="cls-1" points="621.22 526.48 621.22 538.47 695.23 538.47 695.23 526.4 621.22 526.48"/><polygon class="cls-1" points="625.59 538.47 625.59 550.18 633.09 550.18 633.09 710.86 683.3 710.86 683.3 550.46 690.8 550.46 690.8 538.47 625.59 538.47"/><polygon class="cls-1" points="702.17 526.48 702.17 538.47 776.18 538.47 776.18 526.4 702.17 526.48"/><polygon class="cls-1" points="706.54 538.47 706.54 550.18 714.03 550.18 714.03 710.86 764.25 710.86 764.25 550.46 771.75 550.46 771.75 538.47 706.54 538.47"/><rect class="cls-1" x="41.14" y="471.16" width="739.62" height="14.44"/><polygon class="cls-1" points="41.14 485.61 54.03 504.69 771.75 504.69 780.76 485.61 41.14 485.61"/><rect class="cls-1" x="41.14" y="516.29" width="732.4" height="9.28"/><rect class="cls-1" x="54.03" y="504.69" width="717.71" height="11.6"/><polygon class="cls-1" points="807.58 734.21 11.22 734.21 52.17 710.86 764.25 710.86 807.58 734.21"/><rect class="cls-1" x="19.48" y="734.21" width="781.91" height="31.98"/><polygon class="cls-1" points="11.22 766.19 807.58 766.19 807.58 778.57 791.07 784.75 791.07 968.37 807.58 978.68 807.58 986.94 11.22 986.94 11.22 978.68 28.76 965.27 29.79 784.75 11.22 780.63 11.22 766.19"/><path class="cls-2" d="M430.1,316.75V236.29s-10.06.81-16.25,14.13V239.77l-10.44,2.7s3.86-8.12,11.21-9.67c0,0,0-4.64-11.21-1.93,0,0,3.48-6.58,13.34-8.12,0,0,.54-8.9,3.07-13.54l4.09,6.19s5.8-10.83,9.28-10.83c0,0-3.87,10.05,0,13.92,0,0,7.35-4.25,19-1.16,0,0-11.22,4.64-12,9.28,0,0,5-1.54,12,3.87,0,0-10.45-3.09-16.25,3.48l-1.16,82.79H430.1" transform="translate(-263.11 -8.18)"/><polyline class="cls-2" points="183.75 308.57 177.04 295.29 186.07 299.41 186.07 286.26 195.1 297.41 206.44 286.26 203.35 299.67 211.34 296.06 207.47 308.57 183.75 308.57"/><polygon class="cls-2" points="227.85 308.57 219.08 294.51 230.69 294.51 228.88 280.84 240.23 292.71 251.06 282.39 249 294.7 262.28 294.7 253.12 308.57 227.85 308.57"/><polygon class="cls-2" points="317.46 308.57 310.63 284.65 332.81 301.22 335.13 276.46 366.96 301.22 381.26 280.84 389.03 303.8 414.04 286.52 413.01 308.57 317.46 308.57"/><polygon class="cls-2" points="482.12 308.57 494.5 289.87 509.2 299.22 511.52 273.88 545.56 308.57 482.12 308.57"/><polygon class="cls-2" points="558.72 308.57 566.2 286.77 574.96 301.99 583.22 285.74 590.18 300.44 597.14 291.22 597.14 308.57 558.72 308.57"/><path class="cls-2" d="M877.79,314.81,864.45,296l15.4,6.44s-4.75-19.08-4.57-17.53,14.89,14.5,14.89,14.5l18.05-17.34-1,17.34,8.25-3.93-9.8,9.86,17.57,2.52-14.73,8.9h-29.4Z" transform="translate(-263.11 -8.18)"/><path class="cls-2" d="M861.8,315.59s4.13-43.33,9-48.23c0,0-6.19-5.67-16.25-1.8,0,0,5.41-9,11.35-9.29,0,0-1.29-3.09-12.64-3.09,0,0,9.8-8.26,17.54-4.13,0,0,1.8-8.77,9-13.41,0,0-2.84,11.26,0,14.78,0,0,9-5,20.12,3.53,0,0-14.19-2.58-16.51,1,0,0,19.09,8,12.12,23.73,0,0-9.28-15.73-14.18-11.86l-4.77,2.06a17,17,0,0,0-5.8,11.6l-6.38,36.24Z" transform="translate(-263.11 -8.18)"/><path d="M370.14,479.34S374,462.19,330.3,451a58.28,58.28,0,0,1-22.51-25.15s-14.24-13.92-28.94,10.83c0,0-2.32-12.38,16.24-22.43,0,0-17.79-1.94-24,5.8,0,0,5-17,28.63-12,0,0-13.54-11.61-10.45-20.89,0,0,12.63,15.86,18.5,15.86,0,0-3.55-8.12,0-15.86,0,0,2.39,13.15,9.35,15.86,0,0,6.58-12.38,25.53-3.48,0,0-17,1.55-15.86,10.06a22,22,0,0,1,20.12,4.64s-12,.77-15.09,4.25c0,0,12,8.13,11.61,16.64,0,0-16.94-14.32-22.78-9.29,0,0,5,19.73,17.36,22.83s45.65,16.24,42.17,30.68Z" transform="translate(-263.11 -8.18)"/><polygon points="58.67 471.16 44.68 460.98 62.67 460.98 48.62 449.76 67.57 454.79 71.86 444.07 79.18 457.62 90.39 439.7 95.04 460.59 109.89 450.15 103.16 471.16 58.67 471.16"/><polygon points="122.11 471.16 111.12 458.07 122.11 462.52 122.11 447.82 133.72 459.5 144.55 447.82 144.55 461.75 153.84 455.43 152.29 471.16 122.11 471.16"/><polygon points="193.64 471.16 184.78 455.43 207.16 461.75 226.56 442.02 231.97 465.62 242.42 459.5 240.49 471.16 193.64 471.16"/><polygon points="276.56 471.16 265.24 463.3 278.78 463.3 268.53 447.82 287.29 455.43 296.96 425.07 303.15 448.12 311.12 433.13 311.12 455.43 326.04 450.53 316.28 463.3 330.62 462.14 327.71 471.16 276.56 471.16"/><polygon points="373.92 471.16 364.75 460.59 376.97 462.91 368.76 450.15 381.26 455.18 381.26 438.54 395.99 452.47 404.89 436.61 407.21 471.16 373.92 471.16"/><polygon points="538.55 471.16 521.35 452.08 538.55 459.04 537.65 440.09 551.5 455.63 561.63 443.57 561.63 459.43 561.63 472.97 538.55 471.16"/><polygon points="651.89 471.16 641.24 450.53 653.62 453.63 643.17 443.57 664.06 451.69 644.72 426.16 669.87 445.89 690.8 426.16 690.8 451.69 708.55 442.8 704.68 458.66 702.17 471.16 651.89 471.16"/><path d="M967.79,479.34s5.8-17.92,27.85-25.27c0,0,23.21-7.35,29.79-19.73,0,0-13.93-7.73-28.82,13.93,0,0,4.06-11.22,16.83-19.73,0,0-12.77-6.19-19-2.32s2.71-9.67,20.12-6.19c0,0,4.25-8.9-14.32-8.9,0,0,3.49-13.54,25.15,3.1,0,0,5.93-15.86,18.44-17.8,0,0-8,13.16-10.71,17.41,0,0,26.7-4.25,33.27,9.28,0,0-30.17-3.86-29.78,4.26,0,0,25.14-1.16,24.37,20.89,0,0-17.12-16.89-26.16-10.38,0,0-27.1,20.05-32.58,24.69l-22.11,16.76Z" transform="translate(-263.11 -8.18)"/><polygon points="780.76 471.16 791.72 468.71 778.18 464.85 784.95 459.43 771.75 460.98 773.54 452.47 763.48 459.43 756.9 450.92 746.46 461.04 734.85 453.24 720.15 463.3 713.96 470.65 780.76 471.16"/><polygon points="44.68 715.13 17.28 705.45 33.92 705.45 28.5 692.3 40.88 700.42 39.33 683.02 56.74 699.07 54.42 715.13 44.68 715.13"/><path d="M365.5,721.76s-8.51-16.64-7.35-16.25S373,713.63,373,713.63l6.42-16.24,8.51,12.18,3.62-13.73,9.92,8.9v15.47Z" transform="translate(-263.11 -8.18)"/><polygon points="183.62 713.58 186.15 693.08 188.65 703.33 196 685.73 197.55 700.62 206.83 699.65 202.19 708.16 209.54 708.55 206.06 715.13 183.62 713.58"/><polygon points="267.56 710.86 263.31 696.56 278.01 703.71 291.93 685.73 291.93 694.62 302.6 681.47 302.6 710.86 267.56 710.86"/><polygon points="431.19 707.39 425.78 694.24 437.38 700.81 437.38 679.15 447.05 693.27 458.93 675.67 462.14 698.49 471.42 689.21 467.17 715.13 433.13 715.13 431.19 707.39"/><polygon points="517.46 715.13 507.4 696.16 519 705.65 513.2 687.66 522.48 696.16 522.48 672.19 536.02 693.66 549.33 672.19 549.33 712.8 517.46 715.13"/><polygon points="602.56 710.86 595.59 703.91 607.04 707.38 599.55 695.4 612.23 695.4 607.04 682.24 623.83 695.4 636.21 684.18 633.09 710.86 602.56 710.86"/><path d="M940.71,683.85c3.48-2.71,13.2-6.58,13.2-6.58l-13.2,27.46L973.59,691l-27.18,23.41,24.86-3.48-5.8,12.38H944.58Z" transform="translate(-263.11 -8.18)"/><path d="M1023.88,719s-3.48-17.39,0-17.2,8.51,11,8.51,11l8.12-11V719l11.61-10.82,3.48,15.09-8.12,11.21Z" transform="translate(-263.11 -8.18)"/><rect class="cls-3" x="344.41" y="8" width="124.82" height="12.38"/><polygon class="cls-4" points="478.51 95.68 337.19 95.68 350.6 20.38 464.07 20.38 478.51 95.68"/><rect class="cls-3" x="300.78" y="95.68" width="208.64" height="20.69"/><polygon class="cls-4" points="524.93 242.24 288.71 242.24 311.13 116.37 500.79 116.37 524.93 242.24"/><rect class="cls-5" x="259.83" y="242.24" width="295.02" height="18.49"/><polygon class="cls-6" points="524.93 260.73 524.93 265.24 530.22 265.24 530.22 308.57 549.56 308.57 549.56 265.24 554.85 265.24 554.85 260.73 524.93 260.73"/><polygon class="cls-6" points="492.83 260.73 492.83 265.24 498.11 265.24 498.11 308.57 517.46 308.57 517.46 265.24 522.74 265.24 522.74 260.73 492.83 260.73"/><polygon class="cls-6" points="459.95 260.73 459.95 265.24 465.23 265.24 465.23 308.57 484.57 308.57 484.57 265.24 489.86 265.24 489.86 260.73 459.95 260.73"/><polygon class="cls-6" points="426.68 260.73 426.68 265.24 431.96 265.24 431.96 308.57 451.31 308.57 451.31 265.24 456.59 265.24 456.59 260.73 426.68 260.73"/><polygon class="cls-6" points="392.38 260.73 392.38 265.24 397.67 265.24 397.67 308.57 417.01 308.57 417.01 265.24 422.3 265.24 422.3 260.73 392.38 260.73"/><polygon class="cls-6" points="360.53 260.73 360.53 265.24 365.82 265.24 365.82 308.57 385.16 308.57 385.16 265.24 390.45 265.24 390.45 260.73 360.53 260.73"/><polygon class="cls-6" points="326.1 260.73 326.1 265.24 331.39 265.24 331.39 308.57 350.73 308.57 350.73 265.24 356.02 265.24 356.02 260.73 326.1 260.73"/><polygon class="cls-6" points="292.83 260.73 292.83 265.24 298.12 265.24 298.12 308.57 317.46 308.57 317.46 265.24 322.75 265.24 322.75 260.73 292.83 260.73"/><polygon class="cls-6" points="259.83 260.73 259.83 265.24 265.11 265.24 265.11 308.57 284.45 308.57 284.45 265.24 289.74 265.24 289.74 260.73 259.83 260.73"/><rect class="cls-5" x="148.42" y="308.57" width="517.58" height="15.86"/><polygon class="cls-7" points="153.84 324.43 157.7 339.9 656.71 339.9 662.13 324.43 153.84 324.43"/><polygon class="cls-6" points="153.84 339.9 153.84 344.28 662.13 343.77 662.13 339.9 153.84 339.9"/><polygon class="cls-7" points="153.84 344.28 153.84 352.54 204.64 352.54 204.64 344.23 153.84 344.28"/><polygon class="cls-6" points="156.72 352.54 156.72 360.6 161.87 360.6 161.87 471.16 196.43 471.16 196.43 360.79 201.59 360.79 201.59 352.54 156.72 352.54"/><polygon class="cls-7" points="211.34 344.28 211.34 352.54 262.28 352.54 262.28 344.23 211.34 344.28"/><polygon class="cls-6" points="214.35 352.54 214.35 360.6 219.51 360.6 219.51 471.16 254.07 471.16 254.07 360.79 259.22 360.79 259.22 352.54 214.35 352.54"/><polygon class="cls-7" points="268.53 344.28 268.53 352.54 319.33 352.54 319.33 344.23 268.53 344.28"/><polygon class="cls-6" points="271.41 352.54 271.41 360.6 276.56 360.6 276.56 471.16 311.12 471.16 311.12 360.79 316.28 360.79 316.28 352.54 271.41 352.54"/><polygon class="cls-7" points="326.04 344.28 326.04 352.54 376.97 352.54 376.97 344.23 326.04 344.28"/><polygon class="cls-6" points="329.04 352.54 329.04 360.6 334.2 360.6 334.2 471.16 368.76 471.16 368.76 360.79 373.92 360.79 373.92 352.54 329.04 352.54"/><polygon class="cls-7" points="381.26 344.28 381.26 352.54 432.06 352.54 432.06 344.23 381.26 344.28"/><polygon class="cls-6" points="384.14 352.54 384.14 360.6 389.3 360.6 389.3 471.16 423.85 471.16 423.85 360.79 429.01 360.79 429.01 352.54 384.14 352.54"/><polygon class="cls-7" points="438.77 344.28 438.77 352.54 489.7 352.54 489.7 344.23 438.77 344.28"/><polygon class="cls-6" points="441.78 352.54 441.78 360.6 446.94 360.6 446.94 471.16 481.49 471.16 481.49 360.79 486.65 360.79 486.65 352.54 441.78 352.54"/><polygon class="cls-7" points="495.95 344.28 495.95 352.54 546.75 352.54 546.75 344.23 495.95 344.28"/><polygon class="cls-6" points="498.83 352.54 498.83 360.6 503.99 360.6 503.99 471.16 538.55 471.16 538.55 360.79 543.7 360.79 543.7 352.54 498.83 352.54"/><polygon class="cls-7" points="553.46 344.28 553.46 352.54 604.39 352.54 604.39 344.23 553.46 344.28"/><polygon class="cls-6" points="556.47 352.54 556.47 360.6 561.63 360.6 561.63 471.16 596.18 471.16 596.18 360.79 601.34 360.79 601.34 352.54 556.47 352.54"/><polygon class="cls-7" points="609.16 344.28 609.16 352.54 660.1 352.54 660.1 344.23 609.16 344.28"/><polygon class="cls-6" points="612.17 352.54 612.17 360.6 617.33 360.6 617.33 471.16 651.89 471.16 651.89 360.79 657.04 360.79 657.04 352.54 612.17 352.54"/><polygon class="cls-7" points="40.49 526.48 40.49 538.47 114.32 538.47 114.32 526.4 40.49 526.48"/><polygon class="cls-6" points="44.68 538.47 44.68 550.18 52.17 550.18 52.17 710.86 102.39 710.86 102.39 550.46 109.89 550.46 109.89 538.47 44.68 538.47"/><polygon class="cls-7" points="124.06 526.48 124.06 538.47 198.08 538.47 198.08 526.4 124.06 526.48"/><polygon class="cls-6" points="128.44 538.47 128.44 550.18 135.93 550.18 135.93 710.86 186.15 710.86 186.15 550.46 193.64 550.46 193.64 538.47 128.44 538.47"/><polygon class="cls-7" points="207.16 526.48 207.16 538.47 280.99 538.47 280.99 526.4 207.16 526.48"/><polygon class="cls-6" points="211.35 538.47 211.35 550.18 218.84 550.18 218.84 710.86 269.06 710.86 269.06 550.46 276.55 550.46 276.55 538.47 211.35 538.47"/><polygon class="cls-7" points="290.73 526.48 290.73 538.47 364.75 538.47 364.75 526.4 290.73 526.48"/><polygon class="cls-6" points="295.1 538.47 295.1 550.18 302.6 550.18 302.6 710.86 352.82 710.86 352.82 550.46 360.31 550.46 360.31 538.47 295.1 538.47"/><polygon class="cls-7" points="370.98 526.48 370.98 538.47 444.81 538.47 444.81 526.4 370.98 526.48"/><polygon class="cls-6" points="375.17 538.47 375.17 550.18 382.66 550.18 382.66 710.86 432.88 710.86 432.88 550.46 440.37 550.46 440.37 538.47 375.17 538.47"/><polygon class="cls-7" points="454.55 526.48 454.55 538.47 528.57 538.47 528.57 526.4 454.55 526.48"/><polygon class="cls-6" points="458.93 538.47 458.93 550.18 466.42 550.18 466.42 710.86 516.64 710.86 516.64 550.46 524.13 550.46 524.13 538.47 458.93 538.47"/><polygon class="cls-7" points="537.65 526.48 537.65 538.47 611.48 538.47 611.48 526.4 537.65 526.48"/><polygon class="cls-6" points="541.83 538.47 541.83 550.18 549.33 550.18 549.33 710.86 599.55 710.86 599.55 550.46 607.04 550.46 607.04 538.47 541.83 538.47"/><polygon class="cls-7" points="621.22 526.48 621.22 538.47 695.23 538.47 695.23 526.4 621.22 526.48"/><polygon class="cls-6" points="625.59 538.47 625.59 550.18 633.09 550.18 633.09 710.86 683.3 710.86 683.3 550.46 690.8 550.46 690.8 538.47 625.59 538.47"/><polygon class="cls-7" points="702.17 526.48 702.17 538.47 776.18 538.47 776.18 526.4 702.17 526.48"/><polygon class="cls-6" points="706.54 538.47 706.54 550.18 714.03 550.18 714.03 710.86 764.25 710.86 764.25 550.46 771.75 550.46 771.75 538.47 706.54 538.47"/><rect class="cls-6" x="41.14" y="471.16" width="739.62" height="14.44"/><polygon class="cls-5" points="41.14 485.61 54.03 504.69 771.75 504.69 780.76 485.61 41.14 485.61"/><rect class="cls-6" x="41.14" y="516.29" width="732.4" height="9.28"/><rect class="cls-7" x="54.03" y="504.69" width="717.71" height="11.6"/><polygon class="cls-6" points="807.58 734.21 11.22 734.21 52.17 710.86 764.25 710.86 807.58 734.21"/><rect class="cls-8" x="19.48" y="734.21" width="781.91" height="31.98"/><polygon class="cls-6" points="11.22 766.19 807.58 766.19 807.58 778.57 791.07 784.75 791.07 968.37 807.58 978.68 807.58 986.94 11.22 986.94 11.22 978.68 28.76 965.27 29.79 784.75 11.22 780.63 11.22 766.19"/></g></svg>