<svg xmlns="http://www.w3.org/2000/svg" viewBox="0 0 799.58 978.94"><defs><style>.cls-1{fill:#0c0c0a;}.cls-2{fill:#b49b7b;}.cls-3{fill:#a88b6b;}.cls-4{fill:#3b352b;}.cls-5{fill:#a08261;}.cls-6{fill:#534331;}.cls-7{fill:#000103;}</style></defs><g id="Layer_3" data-name="Layer 3"><path class="cls-1" d="M430.1,316.75V236.29s-10.06.81-16.25,14.13V239.77l-10.44,2.7s3.86-8.12,11.21-9.67c0,0,0-4.64-11.21-1.93,0,0,3.48-6.58,13.34-8.12,0,0,.54-8.9,3.07-13.54l4.09,6.19s5.8-10.83,9.28-10.83c0,0-3.87,10.05,0,13.92,0,0,7.35-4.25,19-1.16,0,0-11.22,4.64-12,9.28,0,0,5-1.54,12,3.87,0,0-10.45-3.09-16.25,3.48l-1.16,82.79H430.1" transform="translate(-271.11 -16.18)"/><polyline class="cls-1" points="175.75 300.57 169.04 287.29 178.07 291.41 178.07 278.26 187.1 289.41 198.44 278.26 195.35 291.67 203.34 288.06 199.47 300.57 175.75 300.57"/><polygon class="cls-1" points="219.85 300.57 211.08 286.51 222.69 286.51 220.88 272.84 232.23 284.71 243.06 274.39 241 286.7 254.28 286.7 245.12 300.57 219.85 300.57"/><polygon class="cls-1" points="309.46 300.57 302.63 276.65 324.81 293.22 327.13 268.46 358.96 293.22 373.26 272.84 381.03 295.8 406.04 278.52 405.01 300.57 309.46 300.57"/><polygon class="cls-1" points="474.12 300.57 486.5 281.87 501.2 291.22 503.52 265.88 537.56 300.57 474.12 300.57"/><polygon class="cls-1" points="550.72 300.57 558.2 278.77 566.96 293.99 575.22 277.74 582.18 292.44 589.14 283.22 589.14 300.57 550.72 300.57"/><path class="cls-1" d="M877.79,314.81,864.45,296l15.4,6.44s-4.75-19.08-4.57-17.53,14.89,14.5,14.89,14.5l18.05-17.34-1,17.34,8.25-3.93-9.8,9.86,17.57,2.52-14.73,8.9h-29.4Z" transform="translate(-271.11 -16.18)"/><path class="cls-1" d="M861.8,315.59s4.13-43.33,9-48.23c0,0-6.19-5.67-16.25-1.8,0,0,5.41-9,11.35-9.29,0,0-1.29-3.09-12.64-3.09,0,0,9.8-8.26,17.54-4.13,0,0,1.8-8.77,9-13.41,0,0-2.84,11.26,0,14.78,0,0,9-5,20.12,3.53,0,0-14.19-2.58-16.51,1,0,0,19.09,8,12.12,23.73,0,0-9.28-15.73-14.18-11.86l-4.77,2.06a17,17,0,0,0-5.8,11.6l-6.38,36.24Z" transform="translate(-271.11 -16.18)"/><path d="M370.14,479.34S374,462.19,330.3,451a58.28,58.28,0,0,1-22.51-25.15s-14.24-13.92-28.94,10.83c0,0-2.32-12.38,16.24-22.43,0,0-17.79-1.94-24,5.8,0,0,5-17,28.63-12,0,0-13.54-11.61-10.45-20.89,0,0,12.63,15.86,18.5,15.86,0,0-3.55-8.12,0-15.86,0,0,2.39,13.15,9.35,15.86,0,0,6.58-12.38,25.53-3.48,0,0-17,1.55-15.86,10.06a22,22,0,0,1,20.12,4.64s-12,.77-15.09,4.25c0,0,12,8.13,11.61,16.64,0,0-16.94-14.32-22.78-9.29,0,0,5,19.73,17.36,22.83s45.65,16.24,42.17,30.68Z" transform="translate(-271.11 -16.18)"/><polygon points="50.67 463.16 36.68 452.98 54.67 452.98 40.62 441.76 59.57 446.79 63.86 436.07 71.18 449.62 82.39 431.7 87.04 452.59 101.89 442.15 95.16 463.16 50.67 463.16"/><polygon points="114.11 463.16 103.12 450.07 114.11 454.52 114.11 439.82 125.72 451.5 136.55 439.82 136.55 453.75 145.84 447.43 144.29 463.16 114.11 463.16"/><polygon points="185.64 463.16 176.78 447.43 199.16 453.75 218.56 434.02 223.97 457.62 234.42 451.5 232.49 463.16 185.64 463.16"/><polygon points="268.56 463.16 257.24 455.3 270.78 455.3 260.53 439.82 279.29 447.43 288.96 417.07 295.15 440.12 303.12 425.13 303.12 447.43 318.04 442.53 308.28 455.3 322.62 454.14 319.71 463.16 268.56 463.16"/><polygon points="365.92 463.16 356.75 452.59 368.97 454.91 360.76 442.15 373.26 447.18 373.26 430.54 387.99 444.47 396.89 428.61 399.21 463.16 365.92 463.16"/><polygon points="530.55 463.16 513.35 444.08 530.55 451.04 529.65 432.09 543.5 447.63 553.63 435.57 553.63 451.43 553.63 464.97 530.55 463.16"/><polygon points="643.89 463.16 633.24 442.53 645.62 445.63 635.17 435.57 656.06 443.69 636.72 418.16 661.87 437.89 682.8 418.16 682.8 443.69 700.55 434.8 696.68 450.66 694.17 463.16 643.89 463.16"/><path d="M967.79,479.34s5.8-17.92,27.85-25.27c0,0,23.21-7.35,29.79-19.73,0,0-13.93-7.73-28.82,13.93,0,0,4.06-11.22,16.83-19.73,0,0-12.77-6.19-19-2.32s2.71-9.67,20.12-6.19c0,0,4.25-8.9-14.32-8.9,0,0,3.49-13.54,25.15,3.1,0,0,5.93-15.86,18.44-17.8,0,0-8,13.16-10.71,17.41,0,0,26.7-4.25,33.27,9.28,0,0-30.17-3.86-29.78,4.26,0,0,25.14-1.16,24.37,20.89,0,0-17.12-16.89-26.16-10.38,0,0-27.1,20.05-32.58,24.69l-22.11,16.76Z" transform="translate(-271.11 -16.18)"/><polygon points="772.76 463.16 783.72 460.71 770.18 456.85 776.95 451.43 763.75 452.98 765.54 444.47 755.48 451.43 748.9 442.92 738.46 453.04 726.85 445.24 712.15 455.3 705.96 462.65 772.76 463.16"/><polygon points="36.68 707.13 9.28 697.45 25.92 697.45 20.5 684.3 32.88 692.42 31.33 675.02 48.74 691.07 46.42 707.13 36.68 707.13"/><path d="M365.5,721.76s-8.51-16.64-7.35-16.25S373,713.63,373,713.63l6.42-16.24,8.51,12.18,3.62-13.73,9.92,8.9v15.47Z" transform="translate(-271.11 -16.18)"/><polygon points="175.62 705.58 178.15 685.08 180.65 695.33 188 677.73 189.55 692.62 198.83 691.65 194.19 700.16 201.54 700.55 198.06 707.13 175.62 705.58"/><polygon points="259.56 702.86 255.31 688.56 270.01 695.71 283.93 677.73 283.93 686.62 294.6 673.47 294.6 702.86 259.56 702.86"/><polygon points="423.19 699.39 417.78 686.24 429.38 692.81 429.38 671.15 439.05 685.27 450.93 667.67 454.14 690.49 463.42 681.21 459.17 707.13 425.13 707.13 423.19 699.39"/><polygon points="509.45 707.13 499.4 688.16 511 697.65 505.2 679.66 514.48 688.16 514.48 664.19 528.02 685.66 541.33 664.19 541.33 704.8 509.45 707.13"/><polygon points="594.56 702.86 587.59 695.91 599.04 699.38 591.55 687.4 604.23 687.4 599.04 674.24 615.83 687.4 628.21 676.18 625.09 702.86 594.56 702.86"/><path d="M940.71,683.85c3.48-2.71,13.2-6.58,13.2-6.58l-13.2,27.46L973.59,691l-27.18,23.41,24.86-3.48-5.8,12.38H944.58Z" transform="translate(-271.11 -16.18)"/><path d="M1023.88,719s-3.48-17.39,0-17.2,8.51,11,8.51,11l8.12-11V719l11.61-10.82,3.48,15.09-8.12,11.21Z" transform="translate(-271.11 -16.18)"/></g><g id="Layer_2" data-name="Layer 2"><rect class="cls-2" x="336.41" width="124.82" height="12.38"/><polygon class="cls-3" points="470.51 87.68 329.19 87.68 342.6 12.38 456.07 12.38 470.51 87.68"/><rect class="cls-2" x="292.78" y="87.68" width="208.64" height="20.69"/><polygon class="cls-3" points="516.93 234.24 280.71 234.24 303.13 108.37 492.79 108.37 516.93 234.24"/><rect class="cls-4" x="251.83" y="234.24" width="295.02" height="18.49"/><polygon class="cls-5" points="516.93 252.73 516.93 257.24 522.22 257.24 522.22 300.57 541.56 300.57 541.56 257.24 546.85 257.24 546.85 252.73 516.93 252.73"/><polygon class="cls-5" points="484.83 252.73 484.83 257.24 490.11 257.24 490.11 300.57 509.45 300.57 509.45 257.24 514.74 257.24 514.74 252.73 484.83 252.73"/><polygon class="cls-5" points="451.95 252.73 451.95 257.24 457.23 257.24 457.23 300.57 476.57 300.57 476.57 257.24 481.86 257.24 481.86 252.73 451.95 252.73"/><polygon class="cls-5" points="418.68 252.73 418.68 257.24 423.96 257.24 423.96 300.57 443.31 300.57 443.31 257.24 448.59 257.24 448.59 252.73 418.68 252.73"/><polygon class="cls-5" points="384.38 252.73 384.38 257.24 389.67 257.24 389.67 300.57 409.01 300.57 409.01 257.24 414.3 257.24 414.3 252.73 384.38 252.73"/><polygon class="cls-5" points="352.53 252.73 352.53 257.24 357.82 257.24 357.82 300.57 377.16 300.57 377.16 257.24 382.45 257.24 382.45 252.73 352.53 252.73"/><polygon class="cls-5" points="318.1 252.73 318.1 257.24 323.39 257.24 323.39 300.57 342.73 300.57 342.73 257.24 348.02 257.24 348.02 252.73 318.1 252.73"/><polygon class="cls-5" points="284.83 252.73 284.83 257.24 290.12 257.24 290.12 300.57 309.46 300.57 309.46 257.24 314.75 257.24 314.75 252.73 284.83 252.73"/><polygon class="cls-5" points="251.83 252.73 251.83 257.24 257.11 257.24 257.11 300.57 276.45 300.57 276.45 257.24 281.74 257.24 281.74 252.73 251.83 252.73"/><rect class="cls-4" x="140.42" y="300.57" width="517.58" height="15.86"/><polygon class="cls-6" points="145.84 316.43 149.7 331.9 648.71 331.9 654.13 316.43 145.84 316.43"/><polygon class="cls-5" points="145.84 331.9 145.84 336.28 654.13 335.77 654.13 331.9 145.84 331.9"/><polygon class="cls-6" points="145.84 336.28 145.84 344.54 196.64 344.54 196.64 336.23 145.84 336.28"/><polygon class="cls-5" points="148.72 344.54 148.72 352.6 153.87 352.6 153.87 463.16 188.43 463.16 188.43 352.79 193.59 352.79 193.59 344.54 148.72 344.54"/><polygon class="cls-6" points="203.34 336.28 203.34 344.54 254.28 344.54 254.28 336.23 203.34 336.28"/><polygon class="cls-5" points="206.35 344.54 206.35 352.6 211.51 352.6 211.51 463.16 246.07 463.16 246.07 352.79 251.22 352.79 251.22 344.54 206.35 344.54"/><polygon class="cls-6" points="260.53 336.28 260.53 344.54 311.33 344.54 311.33 336.23 260.53 336.28"/><polygon class="cls-5" points="263.41 344.54 263.41 352.6 268.56 352.6 268.56 463.16 303.12 463.16 303.12 352.79 308.28 352.79 308.28 344.54 263.41 344.54"/><polygon class="cls-6" points="318.04 336.28 318.04 344.54 368.97 344.54 368.97 336.23 318.04 336.28"/><polygon class="cls-5" points="321.04 344.54 321.04 352.6 326.2 352.6 326.2 463.16 360.76 463.16 360.76 352.79 365.92 352.79 365.92 344.54 321.04 344.54"/><polygon class="cls-6" points="373.26 336.28 373.26 344.54 424.06 344.54 424.06 336.23 373.26 336.28"/><polygon class="cls-5" points="376.14 344.54 376.14 352.6 381.3 352.6 381.3 463.16 415.85 463.16 415.85 352.79 421.01 352.79 421.01 344.54 376.14 344.54"/><polygon class="cls-6" points="430.77 336.28 430.77 344.54 481.7 344.54 481.7 336.23 430.77 336.28"/><polygon class="cls-5" points="433.78 344.54 433.78 352.6 438.94 352.6 438.94 463.16 473.49 463.16 473.49 352.79 478.65 352.79 478.65 344.54 433.78 344.54"/><polygon class="cls-6" points="487.95 336.28 487.95 344.54 538.75 344.54 538.75 336.23 487.95 336.28"/><polygon class="cls-5" points="490.83 344.54 490.83 352.6 495.99 352.6 495.99 463.16 530.55 463.16 530.55 352.79 535.7 352.79 535.7 344.54 490.83 344.54"/><polygon class="cls-6" points="545.46 336.28 545.46 344.54 596.39 344.54 596.39 336.23 545.46 336.28"/><polygon class="cls-5" points="548.47 344.54 548.47 352.6 553.63 352.6 553.63 463.16 588.18 463.16 588.18 352.79 593.34 352.79 593.34 344.54 548.47 344.54"/><polygon class="cls-6" points="601.16 336.28 601.16 344.54 652.1 344.54 652.1 336.23 601.16 336.28"/><polygon class="cls-5" points="604.17 344.54 604.17 352.6 609.33 352.6 609.33 463.16 643.89 463.16 643.89 352.79 649.04 352.79 649.04 344.54 604.17 344.54"/><polygon class="cls-6" points="32.49 518.48 32.49 530.47 106.32 530.47 106.32 518.4 32.49 518.48"/><polygon class="cls-5" points="36.68 530.47 36.68 542.18 44.17 542.18 44.17 702.86 94.39 702.86 94.39 542.46 101.89 542.46 101.89 530.47 36.68 530.47"/><polygon class="cls-6" points="116.06 518.48 116.06 530.47 190.08 530.47 190.08 518.4 116.06 518.48"/><polygon class="cls-5" points="120.44 530.47 120.44 542.18 127.93 542.18 127.93 702.86 178.15 702.86 178.15 542.46 185.64 542.46 185.64 530.47 120.44 530.47"/><polygon class="cls-6" points="199.16 518.48 199.16 530.47 272.99 530.47 272.99 518.4 199.16 518.48"/><polygon class="cls-5" points="203.35 530.47 203.35 542.18 210.84 542.18 210.84 702.86 261.06 702.86 261.06 542.46 268.55 542.46 268.55 530.47 203.35 530.47"/><polygon class="cls-6" points="282.73 518.48 282.73 530.47 356.75 530.47 356.75 518.4 282.73 518.48"/><polygon class="cls-5" points="287.1 530.47 287.1 542.18 294.6 542.18 294.6 702.86 344.82 702.86 344.82 542.46 352.31 542.46 352.31 530.47 287.1 530.47"/><polygon class="cls-6" points="362.98 518.48 362.98 530.47 436.81 530.47 436.81 518.4 362.98 518.48"/><polygon class="cls-5" points="367.17 530.47 367.17 542.18 374.66 542.18 374.66 702.86 424.88 702.86 424.88 542.46 432.37 542.46 432.37 530.47 367.17 530.47"/><polygon class="cls-6" points="446.55 518.48 446.55 530.47 520.57 530.47 520.57 518.4 446.55 518.48"/><polygon class="cls-5" points="450.93 530.47 450.93 542.18 458.42 542.18 458.42 702.86 508.64 702.86 508.64 542.46 516.13 542.46 516.13 530.47 450.93 530.47"/><polygon class="cls-6" points="529.65 518.48 529.65 530.47 603.48 530.47 603.48 518.4 529.65 518.48"/><polygon class="cls-5" points="533.83 530.47 533.83 542.18 541.33 542.18 541.33 702.86 591.55 702.86 591.55 542.46 599.04 542.46 599.04 530.47 533.83 530.47"/><polygon class="cls-6" points="613.22 518.48 613.22 530.47 687.23 530.47 687.23 518.4 613.22 518.48"/><polygon class="cls-5" points="617.59 530.47 617.59 542.18 625.09 542.18 625.09 702.86 675.3 702.86 675.3 542.46 682.8 542.46 682.8 530.47 617.59 530.47"/><polygon class="cls-6" points="694.17 518.48 694.17 530.47 768.18 530.47 768.18 518.4 694.17 518.48"/><polygon class="cls-5" points="698.54 530.47 698.54 542.18 706.03 542.18 706.03 702.86 756.25 702.86 756.25 542.46 763.75 542.46 763.75 530.47 698.54 530.47"/><rect class="cls-5" x="33.14" y="463.16" width="739.62" height="14.44"/><polygon class="cls-4" points="33.14 477.61 46.03 496.69 763.75 496.69 772.76 477.61 33.14 477.61"/><rect class="cls-5" x="33.14" y="508.29" width="732.4" height="9.28"/><rect class="cls-6" x="46.03" y="496.69" width="717.71" height="11.6"/><polygon class="cls-5" points="799.58 726.21 3.22 726.21 44.17 702.86 756.25 702.86 799.58 726.21"/><rect class="cls-7" x="11.48" y="726.21" width="781.91" height="31.98"/><polygon class="cls-5" points="3.22 758.19 799.58 758.19 799.58 770.57 783.07 776.75 783.07 960.37 799.58 970.68 799.58 978.94 3.22 978.94 3.22 970.68 20.76 957.27 21.79 776.75 3.22 772.63 3.22 758.19"/></g></svg>