<svg id="Layer_1" data-name="Layer 1" xmlns="http://www.w3.org/2000/svg" viewBox="0 0 103.03 443.45"><defs><style>.cls-1{fill:none;stroke:#314d77;stroke-linejoin:round;stroke-width:4px;}.cls-2{fill:#5f757f;}.cls-3{fill:#f4f9f7;}.cls-4{fill:#7490a0;}.cls-5{fill:#a0b6b8;}.cls-6{fill:#e5e5e5;}.cls-7{fill:#1e3342;}.cls-8{fill:#f6f6f5;}.cls-9{fill:#071a26;}.cls-10{fill:#80a1af;}.cls-11{fill:#e8e8e8;}.cls-12{fill:#374f4d;}.cls-13{fill:#bdd0c8;}</style></defs><g id="Layer_14" data-name="Layer 14"><path class="cls-1" d="M97.15,343.93l9.25,1.5V449.21l-10.75-.12Z" transform="translate(-5.37 -7.76)"/><path class="cls-1" d="M97.15,343.93l9.25,1.5V449.21l-10.75-.12Z" transform="translate(-5.37 -7.76)"/><path class="cls-1" d="M97.15,343.93l9.25,1.5V449.21l-10.75-.12Z" transform="translate(-5.37 -7.76)"/></g><g id="Layer_5" data-name="Layer 5"><polygon class="cls-1" points="27.78 63.17 27.53 50.42 32.78 44.92 39.2 41.5 46.28 41.09 46.28 2 51.7 2 51.7 34.34 56.53 34.34 56.53 40.92 61.87 41.25 66.53 45.92 72.03 52.17 72.03 63.67 27.78 63.17"/><polygon class="cls-1" points="27.78 63.17 27.53 50.42 32.78 44.92 39.2 41.5 46.28 41.09 46.28 2 51.7 2 51.7 34.34 56.53 34.34 56.53 40.92 61.87 41.25 66.53 45.92 72.03 52.17 72.03 63.67 27.78 63.17"/><polygon class="cls-1" points="27.78 63.17 27.53 50.42 32.78 44.92 39.2 41.5 46.28 41.09 46.28 2 51.7 2 51.7 34.34 56.53 34.34 56.53 40.92 61.87 41.25 66.53 45.92 72.03 52.17 72.03 63.67 27.78 63.17"/></g><g id="Layer_6" data-name="Layer 6"><path class="cls-1" d="M54.68,9.76l.53,54.31L77.4,70.48V59.93l-5.5-6.29L67.27,49l-5.37-.34V42.09H57.07V9.76Z" transform="translate(-5.37 -7.76)"/><path class="cls-1" d="M54.68,9.76l.53,54.31L77.4,70.48V59.93l-5.5-6.29L67.27,49l-5.37-.34V42.09H57.07V9.76Z" transform="translate(-5.37 -7.76)"/><path class="cls-1" d="M54.68,9.76l.53,54.31L77.4,70.48V59.93l-5.5-6.29L67.27,49l-5.37-.34V42.09H57.07V9.76Z" transform="translate(-5.37 -7.76)"/></g><g id="Layer_4" data-name="Layer 4"><polygon class="cls-1" points="22.91 85.17 22.91 65.67 33.16 59.17 47.41 56.05 63.41 57.42 75.91 64.42 75.91 82.42 22.91 85.17"/><polygon class="cls-1" points="22.91 85.17 22.91 65.67 33.16 59.17 47.41 56.05 63.41 57.42 75.91 64.42 75.91 82.42 22.91 85.17"/><polygon class="cls-1" points="22.91 85.17 22.91 65.67 33.16 59.17 47.41 56.05 63.41 57.42 75.91 64.42 75.91 82.42 22.91 85.17"/></g><g id="Layer_9" data-name="Layer 9"><polygon class="cls-1" points="28.86 61.75 29.36 79.67 47.45 77 47.45 56 32.86 59.17 28.86 61.75"/><polygon class="cls-1" points="28.86 61.75 29.36 79.67 47.45 77 47.45 56 32.86 59.17 28.86 61.75"/><polygon class="cls-1" points="28.86 61.75 29.36 79.67 47.45 77 47.45 56 32.86 59.17 28.86 61.75"/></g><g id="Layer_7" data-name="Layer 7"><path class="cls-1" d="M52.78,63.8V87.13l28.56,2V72.21l-12.5-7Z" transform="translate(-5.37 -7.76)"/><path class="cls-1" d="M52.78,63.8V87.13l28.56,2V72.21l-12.5-7Z" transform="translate(-5.37 -7.76)"/><path class="cls-1" d="M52.78,63.8V87.13l28.56,2V72.21l-12.5-7Z" transform="translate(-5.37 -7.76)"/></g><g id="Layer_2" data-name="Layer 2"><path class="cls-1" d="M39.19,80.72l4.63,4.38,48.75,21.75,9.66,342.33h-90l6-339L21.9,98.85Z" transform="translate(-5.37 -7.76)"/><path class="cls-1" d="M39.19,80.72l4.63,4.38,48.75,21.75,9.66,342.33h-90l6-339L21.9,98.85Z" transform="translate(-5.37 -7.76)"/><path class="cls-1" d="M39.19,80.72l4.63,4.38,48.75,21.75,9.66,342.33h-90l6-339L21.9,98.85Z" transform="translate(-5.37 -7.76)"/></g><g id="Layer_3" data-name="Layer 3"><path class="cls-1" d="M43.9,85.18l4.4-7.25L86.3,89l6.31,17.94,9.64,342.25H43.9Z" transform="translate(-5.37 -7.76)"/><path class="cls-1" d="M43.9,85.18l4.4-7.25L86.3,89l6.31,17.94,9.64,342.25H43.9Z" transform="translate(-5.37 -7.76)"/><path class="cls-1" d="M43.9,85.18l4.4-7.25L86.3,89l6.31,17.94,9.64,342.25H43.9Z" transform="translate(-5.37 -7.76)"/></g><g id="Layer_8" data-name="Layer 8"><path class="cls-1" d="M55.23,86.35,55.4,96l5.67,1.75L62.9,253.85l13-.25-2-152.42h3.67l-.5-9.5Z" transform="translate(-5.37 -7.76)"/><polygon class="cls-1" points="18.78 99.17 18.95 103.5 21.03 102.59 20.86 230.25 25.53 230.25 25.11 99.84 29.11 95.75 28.7 90.25 18.78 99.17"/><path class="cls-1" d="M55.23,86.35,55.4,96l5.67,1.75L62.9,253.85l13-.25-2-152.42h3.67l-.5-9.5Z" transform="translate(-5.37 -7.76)"/><polygon class="cls-1" points="18.78 99.17 18.95 103.5 21.03 102.59 20.86 230.25 25.53 230.25 25.11 99.84 29.11 95.75 28.7 90.25 18.78 99.17"/><path class="cls-1" d="M55.23,86.35,55.4,96l5.67,1.75L62.9,253.85l13-.25-2-152.42h3.67l-.5-9.5Z" transform="translate(-5.37 -7.76)"/><polygon class="cls-1" points="18.78 99.17 18.95 103.5 21.03 102.59 20.86 230.25 25.53 230.25 25.11 99.84 29.11 95.75 28.7 90.25 18.78 99.17"/></g><g id="Layer_10" data-name="Layer 10"><path class="cls-1" d="M55.15,242.31l2.25-.75h1.5l1.28-12.75,22.72,4.87v9.75l4.25,1.38v92.87h5.38L93,449.18H55.21Z" transform="translate(-5.37 -7.76)"/><path class="cls-1" d="M26.15,245l7.28.88.23,203.34H19.28V340.93l7.56.63Z" transform="translate(-5.37 -7.76)"/><polygon class="cls-1" points="26.97 228.54 27.16 237.98 20.72 237.23 20.53 228.21 26.97 228.54"/><path class="cls-1" d="M55.15,242.31l2.25-.75h1.5l1.28-12.75,22.72,4.87v9.75l4.25,1.38v92.87h5.38L93,449.18H55.21Z" transform="translate(-5.37 -7.76)"/><path class="cls-1" d="M26.15,245l7.28.88.23,203.34H19.28V340.93l7.56.63Z" transform="translate(-5.37 -7.76)"/><polygon class="cls-1" points="26.97 228.54 27.16 237.98 20.72 237.23 20.53 228.21 26.97 228.54"/><path class="cls-1" d="M55.15,242.31l2.25-.75h1.5l1.28-12.75,22.72,4.87v9.75l4.25,1.38v92.87h5.38L93,449.18H55.21Z" transform="translate(-5.37 -7.76)"/><path class="cls-1" d="M26.15,245l7.28.88.23,203.34H19.28V340.93l7.56.63Z" transform="translate(-5.37 -7.76)"/><polygon class="cls-1" points="26.97 228.54 27.16 237.98 20.72 237.23 20.53 228.21 26.97 228.54"/></g><g id="Layer_11" data-name="Layer 11"><path class="cls-1" d="M55.15,242.33l3.69-1.56.81-.34V338.9l3.06-.75h5.72l-.25,111h-13Q55.18,345.76,55.15,242.33Z" transform="translate(-5.37 -7.76)"/><path class="cls-1" d="M58.9,230.43v2.33l-.68.37v8l1.44-.67V229.6Z" transform="translate(-5.37 -7.76)"/><path class="cls-1" d="M62.84,233l-3.19-.22v-3.21l3.25-.17Z" transform="translate(-5.37 -7.76)"/><path class="cls-1" d="M7.37,344.51l.07,104.67H19.26V340.93Z" transform="translate(-5.37 -7.76)"/><path class="cls-1" d="M55.15,242.33l3.69-1.56.81-.34V338.9l3.06-.75h5.72l-.25,111h-13Q55.18,345.76,55.15,242.33Z" transform="translate(-5.37 -7.76)"/><path class="cls-1" d="M58.9,230.43v2.33l-.68.37v8l1.44-.67V229.6Z" transform="translate(-5.37 -7.76)"/><path class="cls-1" d="M62.84,233l-3.19-.22v-3.21l3.25-.17Z" transform="translate(-5.37 -7.76)"/><path class="cls-1" d="M7.37,344.51l.07,104.67H19.26V340.93Z" transform="translate(-5.37 -7.76)"/><path class="cls-1" d="M55.15,242.33l3.69-1.56.81-.34V338.9l3.06-.75h5.72l-.25,111h-13Q55.18,345.76,55.15,242.33Z" transform="translate(-5.37 -7.76)"/><path class="cls-1" d="M58.9,230.43v2.33l-.68.37v8l1.44-.67V229.6Z" transform="translate(-5.37 -7.76)"/><path class="cls-1" d="M62.84,233l-3.19-.22v-3.21l3.25-.17Z" transform="translate(-5.37 -7.76)"/><path class="cls-1" d="M7.37,344.51l.07,104.67H19.26V340.93Z" transform="translate(-5.37 -7.76)"/></g><g id="Layer_12" data-name="Layer 12"><path class="cls-1" d="M62.9,229.43l20,4.28L69.84,214.05Z" transform="translate(-5.37 -7.76)"/><path class="cls-1" d="M20.46,250.74l5.38-14.62-2.19-13.56Z" transform="translate(-5.37 -7.76)"/><path class="cls-1" d="M62.9,229.43l20,4.28L69.84,214.05Z" transform="translate(-5.37 -7.76)"/><path class="cls-1" d="M20.46,250.74l5.38-14.62-2.19-13.56Z" transform="translate(-5.37 -7.76)"/><path class="cls-1" d="M62.9,229.43l20,4.28L69.84,214.05Z" transform="translate(-5.37 -7.76)"/><path class="cls-1" d="M20.46,250.74l5.38-14.62-2.19-13.56Z" transform="translate(-5.37 -7.76)"/></g><g id="Layer_13" data-name="Layer 13"><path class="cls-1" d="M69.82,214.1,58.9,230.41l4-1,8.48-13Z" transform="translate(-5.37 -7.76)"/><path class="cls-1" d="M23.61,222.47,25.9,236l6.48.5L29.5,218.18Z" transform="translate(-5.37 -7.76)"/><path class="cls-1" d="M69.82,214.1,58.9,230.41l4-1,8.48-13Z" transform="translate(-5.37 -7.76)"/><path class="cls-1" d="M23.61,222.47,25.9,236l6.48.5L29.5,218.18Z" transform="translate(-5.37 -7.76)"/><path class="cls-1" d="M69.82,214.1,58.9,230.41l4-1,8.48-13Z" transform="translate(-5.37 -7.76)"/><path class="cls-1" d="M23.61,222.47,25.9,236l6.48.5L29.5,218.18Z" transform="translate(-5.37 -7.76)"/></g><g id="Layer_14-2" data-name="Layer 14"><path class="cls-2" d="M97.15,343.93l9.25,1.5V449.21l-10.75-.12Z" transform="translate(-5.37 -7.76)"/></g><g id="Layer_5-2" data-name="Layer 5"><polygon class="cls-3" points="27.78 63.17 27.53 50.42 32.78 44.92 39.2 41.5 46.28 41.09 46.28 2 51.7 2 51.7 34.34 56.53 34.34 56.53 40.92 61.87 41.25 66.53 45.92 72.03 52.17 72.03 63.67 27.78 63.17"/></g><g id="Layer_6-2" data-name="Layer 6"><path class="cls-4" d="M54.68,9.76l.53,54.31L77.4,70.48V59.93l-5.5-6.29L67.27,49l-5.37-.34V42.09H57.07V9.76Z" transform="translate(-5.37 -7.76)"/></g><g id="Layer_4-2" data-name="Layer 4"><polygon class="cls-5" points="22.91 85.17 22.91 65.67 33.16 59.17 47.41 56.05 63.41 57.42 75.91 64.42 75.91 82.42 22.91 85.17"/></g><g id="Layer_9-2" data-name="Layer 9"><polygon class="cls-6" points="28.86 61.75 29.36 79.67 47.45 77 47.45 56 32.86 59.17 28.86 61.75"/></g><g id="Layer_7-2" data-name="Layer 7"><path class="cls-7" d="M52.78,63.8V87.13l28.56,2V72.21l-12.5-7Z" transform="translate(-5.37 -7.76)"/></g><g id="Layer_2-2" data-name="Layer 2"><path class="cls-8" d="M39.19,80.72l4.63,4.38,48.75,21.75,9.66,342.33h-90l6-339L21.9,98.85Z" transform="translate(-5.37 -7.76)"/></g><g id="Layer_3-2" data-name="Layer 3"><path class="cls-4" d="M43.9,85.18l4.4-7.25L86.3,89l6.31,17.94,9.64,342.25H43.9Z" transform="translate(-5.37 -7.76)"/></g><g id="Layer_8-2" data-name="Layer 8"><path class="cls-9" d="M55.23,86.35,55.4,96l5.67,1.75L62.9,253.85l13-.25-2-152.42h3.67l-.5-9.5Z" transform="translate(-5.37 -7.76)"/><polygon class="cls-9" points="18.78 99.17 18.95 103.5 21.03 102.59 20.86 230.25 25.53 230.25 25.11 99.84 29.11 95.75 28.7 90.25 18.78 99.17"/></g><g id="Layer_10-2" data-name="Layer 10"><path class="cls-10" d="M55.15,242.31l2.25-.75h1.5l1.28-12.75,22.72,4.87v9.75l4.25,1.38v92.87h5.38L93,449.18H55.21Z" transform="translate(-5.37 -7.76)"/><path class="cls-10" d="M26.15,245l7.28.88.23,203.34H19.28V340.93l7.56.63Z" transform="translate(-5.37 -7.76)"/><polygon class="cls-10" points="26.97 228.54 27.16 237.98 20.72 237.23 20.53 228.21 26.97 228.54"/></g><g id="Layer_11-2" data-name="Layer 11"><path class="cls-8" d="M55.15,242.33l3.69-1.56.81-.34V338.9l3.06-.75h5.72l-.25,111h-13Q55.18,345.76,55.15,242.33Z" transform="translate(-5.37 -7.76)"/><path class="cls-8" d="M58.9,230.43v2.33l-.68.37v8l1.44-.67V229.6Z" transform="translate(-5.37 -7.76)"/><path class="cls-8" d="M62.84,233l-3.19-.22v-3.21l3.25-.17Z" transform="translate(-5.37 -7.76)"/><path class="cls-11" d="M7.37,344.51l.07,104.67H19.26V340.93Z" transform="translate(-5.37 -7.76)"/></g><g id="Layer_12-2" data-name="Layer 12"><path class="cls-12" d="M62.9,229.43l20,4.28L69.84,214.05Z" transform="translate(-5.37 -7.76)"/><path class="cls-12" d="M20.46,250.74l5.38-14.62-2.19-13.56Z" transform="translate(-5.37 -7.76)"/></g><g id="Layer_13-2" data-name="Layer 13"><path class="cls-13" d="M69.82,214.1,58.9,230.41l4-1,8.48-13Z" transform="translate(-5.37 -7.76)"/><path class="cls-13" d="M23.61,222.47,25.9,236l6.48.5L29.5,218.18Z" transform="translate(-5.37 -7.76)"/></g></svg>