<svg xmlns="http://www.w3.org/2000/svg" viewBox="0 0 99.06 439.45"><defs><style>.cls-1{fill:#5f757f;}.cls-2{fill:#f4f9f7;}.cls-3{fill:#7490a0;}.cls-4{fill:#a0b6b8;}.cls-5{fill:#e5e5e5;}.cls-6{fill:#1e3342;}.cls-7{fill:#f6f6f5;}.cls-8{fill:#071a26;}.cls-9{fill:#80a1af;}.cls-10{fill:#e8e8e8;}.cls-11{fill:#374f4d;}.cls-12{fill:#bdd0c8;}</style></defs><title>baiyok2</title><g id="Layer_14" data-name="Layer 14"><path class="cls-1" d="M340.25,539.75l9.25,1.5q0,51.89,0,103.78l-10.75-.12Z" transform="translate(-250.47 -205.58)"/></g><g id="Layer_5" data-name="Layer 5"><polygon class="cls-2" points="25.78 61.17 25.53 48.42 30.78 42.92 37.2 39.5 44.28 39.09 44.28 0 49.7 0 49.7 32.34 54.53 32.34 54.53 38.92 59.87 39.25 64.53 43.92 70.03 50.17 70.03 61.67 25.78 61.17"/></g><g id="Layer_6" data-name="Layer 6"><path class="cls-3" d="M297.78,205.58l.53,54.31,22.19,6.41q0-5.27,0-10.55L315,249.46l-4.63-4.62L305,244.5v-6.59h-4.83q0-16.17,0-32.33Z" transform="translate(-250.47 -205.58)"/></g><g id="Layer_4" data-name="Layer 4"><polygon class="cls-4" points="20.91 83.17 20.91 63.67 31.16 57.17 45.41 54.05 61.41 55.42 73.91 62.42 73.91 80.42 20.91 83.17"/></g><g id="Layer_9" data-name="Layer 9"><polygon class="cls-5" points="26.86 59.75 27.36 77.67 45.45 75 45.45 54 30.86 57.17 26.86 59.75"/></g><g id="Layer_7" data-name="Layer 7"><path class="cls-6" d="M295.88,259.62l0,23.33,28.56,2,0-16.92-12.5-7Z" transform="translate(-250.47 -205.58)"/></g><g id="Layer_2" data-name="Layer 2"><path class="cls-7" d="M282.29,276.54l4.63,4.38,48.75,21.75L345.33,645h-90l6-339L265,294.67Z" transform="translate(-250.47 -205.58)"/></g><g id="Layer_3" data-name="Layer 3"><path class="cls-3" d="M287,281l4.4-7.25,38,11.06,6.31,17.94L345.35,645H287Q287,463,287,281Z" transform="translate(-250.47 -205.58)"/></g><g id="Layer_8" data-name="Layer 8"><path class="cls-8" d="M298.33,282.17l.17,9.67,5.67,1.75L306,449.67l13-.25L317,297h3.67l-.5-9.5Z" transform="translate(-250.47 -205.58)"/><polygon class="cls-8" points="16.78 97.17 16.95 101.5 19.03 100.59 18.86 228.25 23.53 228.25 23.11 97.84 27.11 93.75 26.7 88.25 16.78 97.17"/></g><g id="Layer_10" data-name="Layer 10"><path class="cls-9" d="M298.25,438.13l2.25-.75H302l1.28-12.75L326,429.5v9.75l4.25,1.38V533.5h5.38L336.06,645l-37.75,0Q298.28,541.56,298.25,438.13Z" transform="translate(-250.47 -205.58)"/><path class="cls-9" d="M269.25,440.78l7.28.88L276.76,645l-14.38,0q0-54.13,0-108.25l7.56.63Z" transform="translate(-250.47 -205.58)"/><polygon class="cls-9" points="24.97 226.54 25.16 235.98 18.72 235.23 18.53 226.21 24.97 226.54"/></g><g id="Layer_11" data-name="Layer 11"><path class="cls-7" d="M298.25,438.15l3.69-1.56.81-.34v98.47l3.06-.75h5.72L311.28,645h-13Q298.28,541.58,298.25,438.15Z" transform="translate(-250.47 -205.58)"/><path class="cls-7" d="M302,426.25v2.33l-.68.37v8l1.44-.67V425.42Z" transform="translate(-250.47 -205.58)"/><path class="cls-7" d="M305.94,428.84l-3.19-.22q0-1.6,0-3.21l3.25-.17Z" transform="translate(-250.47 -205.58)"/><path class="cls-10" d="M250.47,540.33,250.54,645h11.82l0-108.25Z" transform="translate(-250.47 -205.58)"/></g><g id="Layer_12" data-name="Layer 12"><path class="cls-11" d="M306,425.25l20,4.28-13.06-19.66Z" transform="translate(-250.47 -205.58)"/><path class="cls-11" d="M263.56,446.56l5.38-14.62-2.19-13.56Z" transform="translate(-250.47 -205.58)"/></g><g id="Layer_13" data-name="Layer 13"><path class="cls-12" d="M312.92,409.92,302,426.23l4-1,8.48-13Z" transform="translate(-250.47 -205.58)"/><path class="cls-12" d="M266.71,418.29l2.29,13.5,6.48.5L272.6,414Z" transform="translate(-250.47 -205.58)"/></g></svg>