<svg xmlns="http://www.w3.org/2000/svg" viewBox="0 0 245.5 99.37"><defs><style>.cls-1{isolation:isolate;}.cls-2,.cls-5{fill:#1568b3;}.cls-3{fill:#cd202c;}.cls-13,.cls-15,.cls-4,.cls-6{fill:#efeff0;}.cls-4{opacity:0.7;}.cls-13,.cls-4{mix-blend-mode:screen;}.cls-12,.cls-15,.cls-17,.cls-5,.cls-8{mix-blend-mode:multiply;}.cls-7{fill:#494e53;}.cls-14,.cls-8{opacity:0.5;}.cls-9{fill:#a6a7aa;}.cls-10{fill:#2a4360;}.cls-11{fill:#436389;}.cls-14,.cls-23,.cls-26{fill:#fff;}.cls-16{fill:#abb4b4;}.cls-17,.cls-20{fill:#cdd7d6;}.cls-18{fill:#e8e1d8;}.cls-19{fill:#96938f;}.cls-21{fill:#dadbdc;}.cls-22{fill:#bcbebf;}.cls-23{opacity:0.6;}.cls-24{fill:#043d70;}.cls-25{fill:#327fc2;}</style></defs><g class="cls-1"><g id="Layer_1" data-name="Layer 1"><path class="cls-2" d="M232.49,7.68l-6.32-2.6h0c-1.51-.14-2.9-.56-4.27.47a18.62,18.62,0,0,0-2.43,2.75c-6,7.69-10.85,13.86-14.71,18.74-.92,1.17-19.43,10.53-20.24,11.56-6.75,8.5,7.78,5.64,7.45,6.24-1.09,1.94,29.57.47,36.24,1.91l5.46-35.33A9.06,9.06,0,0,0,232.49,7.68Z" transform="translate(-5.98 -4.87)"/><path class="cls-3" d="M227.09,6h0l5.72,2.35a6.76,6.76,0,0,0-.36-.71l-6.32-2.6h0L225.54,5A3,3,0,0,0,227.09,6Z" transform="translate(-5.98 -4.87)"/><path class="cls-4" d="M185.43,39.55c.82-1,19.33-10.38,20.25-11.55,3.86-4.88,8.71-11,14.71-18.74a10.37,10.37,0,0,0,1-3.29c-.73.71-1.29,1.59-2,2.33-6,7.69-10.85,13.86-14.71,18.74-.92,1.17-19.43,10.53-20.24,11.56-2.45,3.09-2.09,4.67-.66,5.47C183.39,43.14,183.72,41.71,185.43,39.55Z" transform="translate(-5.98 -4.87)"/><path class="cls-5" d="M232.49,7.68l-6.32-2.6h0c-1.3-.13-2.52-.45-3.71.13a7.42,7.42,0,0,1,1.2.18c2.63.61,7.61,1.71,7.17,5.34-.78,6.39-2.68,12.8-4.06,19.09-1.2,5.46-2.23,11-3.41,16.44a35.06,35.06,0,0,1,4.85.49l5.46-35.33A9.06,9.06,0,0,0,232.49,7.68Z" transform="translate(-5.98 -4.87)"/><path class="cls-6" d="M16.86,56.14c24.21-21.36,30.08-20,50.8-19.43s79.81,3.45,101.65,4.15,44.72,2.25,46.83,2.46a150.59,150.59,0,0,1,17.27,4.34,43.73,43.73,0,0,1,6.14,2.12c1.78.9.78,5.8-2,7.95-.65.5-8.06,5.07-8.06,5.07s-3.72,2.79-12.38,5.6c-7.45,2.43-87.27,17.45-170.46,15C22.93,82.77,6,71.53,6,65.86,6,60.43,16.86,56.14,16.86,56.14Z" transform="translate(-5.98 -4.87)"/><path class="cls-2" d="M46.65,83.45c9,.26,17.87.32,26.66.21A105.5,105.5,0,0,0,94.4,78.34c10-3.68,19.7-8.18,29.78-11.7,11.67-4.07,23.89-6.59,36-8.88s24.33-4,36.58-5.33,25.05-2.19,37.38-.54c2,.27,4.13.5,6.2.78a4.84,4.84,0,0,0,0-1.41l-.58-.22c-22.52-7.89-47.24-7.36-70.71-5.41-25.09,2.08-50,6.7-74.5,12.58-21.9,5.28-44.15,12-66.89,11.81C22.84,70,10.63,69.79,6,65.23a4.46,4.46,0,0,0,0,.63C6,71.53,22.93,82.77,46.65,83.45Z" transform="translate(-5.98 -4.87)"/><path class="cls-7" d="M52.38,53.43A33.94,33.94,0,0,0,55,47.09a2.34,2.34,0,0,0-1-2.64q-3-.21-6.58-.35c-.68,0-1.36-.06-2-.08L36,56.22a79,79,0,0,0,9.52.66C48.77,56.85,50.69,56.45,52.38,53.43Z" transform="translate(-5.98 -4.87)"/><path class="cls-7" d="M19.27,54.38s8.79-8.21,11.59-9.4c.68-.3,3-1.19,13.36-1.1L35.13,56C30.7,55.6,24.36,55.11,19.27,54.38Z" transform="translate(-5.98 -4.87)"/><g class="cls-8"><path class="cls-7" d="M53.87,50.24c.41-1,.77-2.09,1.11-3.15a2.34,2.34,0,0,0-1-2.64q-3-.21-6.58-.35c-.68,0-1.36-.06-2-.08l-4,5.24C45.57,49.44,49.72,49.81,53.87,50.24Z" transform="translate(-5.98 -4.87)"/><path class="cls-7" d="M26.76,50.14a33.1,33.1,0,0,1,9.87-1c1.2,0,2.4,0,3.6.08l4-5.33c-10.32-.09-12.68.8-13.36,1.1-2,.86-7.15,5.37-9.86,7.82A30.29,30.29,0,0,1,26.76,50.14Z" transform="translate(-5.98 -4.87)"/></g><path class="cls-9" d="M79,68.07a4.43,4.43,0,0,1-.68,0l-7-.24c-3.16-1.14-2.86-5.06-2.86-5.09,0-.47.28-11.59.74-14.4a3,3,0,0,1,3.13-2.61,3.57,3.57,0,0,1,.4,0l4.16.21,4.23.17h0a1.5,1.5,0,0,1,1.15.51c1.14,1.2,1,4.19,1,4.32,0,.43-.1,10.93-.74,14.25A3.38,3.38,0,0,1,79,68.07Zm-7.57-.66,6.93.22a4.56,4.56,0,0,0,.64.05,3,3,0,0,0,3.15-2.59c.64-3.29.74-14.09.74-14.2s.18-3-.84-4a1.13,1.13,0,0,0-.87-.38h-.06l-4.24-.17-4.18-.21s-.16,0-.36,0a2.55,2.55,0,0,0-2.74,2.28c-.47,2.78-.74,14.24-.74,14.36S68.61,66.35,71.46,67.41Z" transform="translate(-5.98 -4.87)"/><path class="cls-9" d="M95.32,54.82h-2l0,0a1.49,1.49,0,0,1-.93-1.51c0-.12,0-3.08.07-3.85a1,1,0,0,1,1-.88h.1l2.21,0h0a.63.63,0,0,1,.46.19,2,2,0,0,1,.34,1.27,35.47,35.47,0,0,1-.08,3.81A1.08,1.08,0,0,1,95.32,54.82Z" transform="translate(-5.98 -4.87)"/><path class="cls-10" d="M95.22,54.46H93.41a1.33,1.33,0,0,1-.82-1.34c0-.09,0-2.7.07-3.37a.85.85,0,0,1,.9-.77h.08l1.94,0h0a.55.55,0,0,1,.41.17,1.74,1.74,0,0,1,.29,1.11,31.1,31.1,0,0,1-.06,3.35A1,1,0,0,1,95.22,54.46Z" transform="translate(-5.98 -4.87)"/><path class="cls-11" d="M93.09,51.13h2.58c0-.25,0-.42,0-.45a2.27,2.27,0,0,0-.21-1.1.31.31,0,0,0-.28-.16h0l-1.38,0h-.06c-.27,0-.58.2-.64.77,0,.2,0,.56,0,1Z" transform="translate(-5.98 -4.87)"/><path class="cls-9" d="M101.77,54.82h-2l0,0a1.48,1.48,0,0,1-.92-1.51c0-.12,0-3.08.07-3.85a1,1,0,0,1,1-.88H100l2.22,0h0a.63.63,0,0,1,.46.19,2.12,2.12,0,0,1,.34,1.27,35.47,35.47,0,0,1-.08,3.81A1.08,1.08,0,0,1,101.77,54.82Z" transform="translate(-5.98 -4.87)"/><path class="cls-10" d="M101.66,54.46h-1.8A1.33,1.33,0,0,1,99,53.11c0-.09,0-2.7.06-3.37A.86.86,0,0,1,100,49h.09L102,49h0a.51.51,0,0,1,.4.17,1.76,1.76,0,0,1,.3,1.11,31.67,31.67,0,0,1-.07,3.35A.94.94,0,0,1,101.66,54.46Z" transform="translate(-5.98 -4.87)"/><path class="cls-11" d="M99.54,51.13h2.58c0-.25,0-.42,0-.45a2.27,2.27,0,0,0-.21-1.1.32.32,0,0,0-.28-.16h0l-1.38,0h-.06c-.27,0-.58.2-.64.77,0,.2,0,.56,0,1Z" transform="translate(-5.98 -4.87)"/><path class="cls-9" d="M108.22,54.82h-2l0,0a1.51,1.51,0,0,1-.93-1.51c0-.12,0-3.08.08-3.85a1,1,0,0,1,1-.88h.09l2.22,0h0a.63.63,0,0,1,.46.19,2.12,2.12,0,0,1,.34,1.27c0,.1.06,2.91-.08,3.81A1.08,1.08,0,0,1,108.22,54.82Z" transform="translate(-5.98 -4.87)"/><path class="cls-10" d="M108.11,54.46h-1.8a1.33,1.33,0,0,1-.82-1.34c0-.09,0-2.7.06-3.37a.86.86,0,0,1,.9-.77h.08l2,0h0a.51.51,0,0,1,.4.17,1.83,1.83,0,0,1,.3,1.11,31.67,31.67,0,0,1-.07,3.35A.94.94,0,0,1,108.11,54.46Z" transform="translate(-5.98 -4.87)"/><path class="cls-11" d="M106,51.13h2.58c0-.25,0-.42,0-.45a2.39,2.39,0,0,0-.21-1.1.31.31,0,0,0-.28-.16h0l-1.37,0h-.06c-.27,0-.59.2-.64.77,0,.2,0,.56,0,1Z" transform="translate(-5.98 -4.87)"/><path class="cls-9" d="M114.67,54.82h-2l0,0a1.49,1.49,0,0,1-.93-1.51c0-.12,0-3.08.07-3.85a1,1,0,0,1,1-.88h.09l2.21,0h0a.63.63,0,0,1,.46.19,2,2,0,0,1,.33,1.27,34.91,34.91,0,0,1-.07,3.81A1.08,1.08,0,0,1,114.67,54.82Z" transform="translate(-5.98 -4.87)"/><path class="cls-10" d="M114.56,54.46h-1.8a1.31,1.31,0,0,1-.82-1.34c0-.09,0-2.7.06-3.37a.85.85,0,0,1,.9-.77H113l1.94,0h0a.51.51,0,0,1,.4.17,1.83,1.83,0,0,1,.3,1.11,31.67,31.67,0,0,1-.07,3.35A.94.94,0,0,1,114.56,54.46Z" transform="translate(-5.98 -4.87)"/><path class="cls-11" d="M112.44,51.13H115c0-.25,0-.42,0-.45a2.39,2.39,0,0,0-.21-1.1.32.32,0,0,0-.28-.16h0l-1.37,0h-.06c-.28,0-.59.2-.64.77,0,.2,0,.56,0,1Z" transform="translate(-5.98 -4.87)"/><path class="cls-9" d="M121.12,54.82h-2l0,0a1.49,1.49,0,0,1-.93-1.51c0-.12,0-3.08.07-3.85a1,1,0,0,1,1-.88h.09l2.21,0h0a.63.63,0,0,1,.46.19,2,2,0,0,1,.33,1.27,33,33,0,0,1-.08,3.81A1.07,1.07,0,0,1,121.12,54.82Z" transform="translate(-5.98 -4.87)"/><path class="cls-10" d="M121,54.46h-1.8a1.31,1.31,0,0,1-.82-1.34c0-.09,0-2.7.06-3.37a.85.85,0,0,1,.9-.77h.08l1.95,0h0a.53.53,0,0,1,.4.17,1.83,1.83,0,0,1,.3,1.11,31.67,31.67,0,0,1-.07,3.35A.94.94,0,0,1,121,54.46Z" transform="translate(-5.98 -4.87)"/><path class="cls-11" d="M118.89,51.13h2.58c0-.25,0-.42,0-.45a2.39,2.39,0,0,0-.21-1.1.33.33,0,0,0-.29-.16h0l-1.37,0h-.06c-.28,0-.59.2-.64.77,0,.2,0,.56,0,1Z" transform="translate(-5.98 -4.87)"/><path class="cls-9" d="M127.57,54.82h-2l0,0a1.49,1.49,0,0,1-.93-1.51c0-.12,0-3.08.07-3.85a1,1,0,0,1,1-.88h.1l2.21,0h0a.61.61,0,0,1,.46.19,2,2,0,0,1,.34,1.27,35.47,35.47,0,0,1-.08,3.81A1.07,1.07,0,0,1,127.57,54.82Z" transform="translate(-5.98 -4.87)"/><path class="cls-10" d="M127.46,54.46h-1.81a1.32,1.32,0,0,1-.81-1.34c0-.09,0-2.7.06-3.37a.85.85,0,0,1,.9-.77h.08l1.94,0h0a.54.54,0,0,1,.4.17,1.74,1.74,0,0,1,.29,1.11,28.66,28.66,0,0,1-.06,3.35A1,1,0,0,1,127.46,54.46Z" transform="translate(-5.98 -4.87)"/><path class="cls-11" d="M125.34,51.13h2.57c0-.25,0-.42,0-.45a2.23,2.23,0,0,0-.2-1.1.34.34,0,0,0-.29-.16h0l-1.38,0h0c-.28,0-.59.2-.64.77,0,.2,0,.56,0,1Z" transform="translate(-5.98 -4.87)"/><path class="cls-9" d="M134,54.82h-2l0,0a1.48,1.48,0,0,1-.93-1.51c0-.12,0-3.08.07-3.85a1,1,0,0,1,1-.88h.1l2.21,0h0a.63.63,0,0,1,.46.19,2,2,0,0,1,.34,1.27,35.47,35.47,0,0,1-.08,3.81A1.07,1.07,0,0,1,134,54.82Z" transform="translate(-5.98 -4.87)"/><path class="cls-10" d="M133.91,54.46H132.1a1.33,1.33,0,0,1-.82-1.34c0-.09,0-2.7.07-3.37a.85.85,0,0,1,.9-.77h.08l1.94,0h0a.55.55,0,0,1,.41.17,1.81,1.81,0,0,1,.29,1.11c0,.09.06,2.56-.06,3.35A1,1,0,0,1,133.91,54.46Z" transform="translate(-5.98 -4.87)"/><path class="cls-11" d="M131.79,51.13h2.57c0-.25,0-.42,0-.45a2.23,2.23,0,0,0-.2-1.1.34.34,0,0,0-.29-.16h0l-1.38,0h-.06c-.27,0-.58.2-.63.77,0,.2,0,.56,0,1Z" transform="translate(-5.98 -4.87)"/><path class="cls-9" d="M140.46,54.82h-2l0,0a1.5,1.5,0,0,1-.94-1.51c0-.12,0-3.08.08-3.85a1,1,0,0,1,1-.88h.09l2.22,0h0a.63.63,0,0,1,.46.19,2,2,0,0,1,.33,1.27,32.51,32.51,0,0,1-.07,3.81A1.08,1.08,0,0,1,140.46,54.82Z" transform="translate(-5.98 -4.87)"/><path class="cls-10" d="M140.35,54.46h-1.8a1.33,1.33,0,0,1-.82-1.34c0-.09,0-2.7.06-3.37a.86.86,0,0,1,.91-.77h.08l1.94,0h0a.51.51,0,0,1,.4.17,1.76,1.76,0,0,1,.3,1.11,31.67,31.67,0,0,1-.07,3.35A.94.94,0,0,1,140.35,54.46Z" transform="translate(-5.98 -4.87)"/><path class="cls-11" d="M138.23,51.13h2.58c0-.25,0-.42,0-.45a2.15,2.15,0,0,0-.21-1.1.32.32,0,0,0-.28-.16h0l-1.38,0h-.06c-.27,0-.58.2-.64.77,0,.2,0,.56,0,1Z" transform="translate(-5.98 -4.87)"/><path class="cls-9" d="M146.91,54.82h-2l0,0a1.51,1.51,0,0,1-.93-1.51c0-.12,0-3.08.08-3.85a1,1,0,0,1,1-.88h.09l2.22,0h0a.63.63,0,0,1,.46.19,2,2,0,0,1,.33,1.27,34.91,34.91,0,0,1-.07,3.81A1.08,1.08,0,0,1,146.91,54.82Z" transform="translate(-5.98 -4.87)"/><path class="cls-10" d="M146.81,54.46H145a1.33,1.33,0,0,1-.82-1.34c0-.09,0-2.7.07-3.37a.84.84,0,0,1,.89-.77h.09l1.94,0h0a.51.51,0,0,1,.4.17,1.83,1.83,0,0,1,.3,1.11,31.67,31.67,0,0,1-.07,3.35A.93.93,0,0,1,146.81,54.46Z" transform="translate(-5.98 -4.87)"/><path class="cls-11" d="M144.68,51.13h2.58c0-.25,0-.42,0-.45a2.39,2.39,0,0,0-.21-1.1.32.32,0,0,0-.28-.16h0l-1.37,0h-.06c-.27,0-.58.2-.64.77,0,.2,0,.56,0,1Z" transform="translate(-5.98 -4.87)"/><path class="cls-9" d="M153.36,54.82h-2l0,0a1.51,1.51,0,0,1-.93-1.51c0-.12,0-3.08.07-3.85a1,1,0,0,1,1-.88h.09l2.21,0h0a.63.63,0,0,1,.46.19,2.12,2.12,0,0,1,.34,1.27c0,.1.06,2.91-.08,3.81A1.08,1.08,0,0,1,153.36,54.82Z" transform="translate(-5.98 -4.87)"/><path class="cls-10" d="M153.25,54.46h-1.8a1.31,1.31,0,0,1-.82-1.34c0-.09,0-2.7.06-3.37a.86.86,0,0,1,.9-.77h.08l2,0h0a.51.51,0,0,1,.4.17,1.83,1.83,0,0,1,.3,1.11,31.67,31.67,0,0,1-.07,3.35A.94.94,0,0,1,153.25,54.46Z" transform="translate(-5.98 -4.87)"/><path class="cls-11" d="M151.13,51.13h2.58c0-.25,0-.42,0-.45a2.39,2.39,0,0,0-.21-1.1.31.31,0,0,0-.28-.16h0l-1.37,0h-.06c-.27,0-.59.2-.64.77,0,.2,0,.56,0,1Z" transform="translate(-5.98 -4.87)"/><path class="cls-9" d="M159.81,54.82h-2l0,0a1.49,1.49,0,0,1-.93-1.51c0-.12,0-3.08.07-3.85a1,1,0,0,1,1-.88H158l2.21,0h0a.59.59,0,0,1,.45.19,2,2,0,0,1,.34,1.27,37.7,37.7,0,0,1-.07,3.81A1.09,1.09,0,0,1,159.81,54.82Z" transform="translate(-5.98 -4.87)"/><path class="cls-10" d="M159.7,54.46h-1.81a1.32,1.32,0,0,1-.81-1.34c0-.09,0-2.7.06-3.37A.85.85,0,0,1,158,49h.08l1.94,0h0a.51.51,0,0,1,.4.17,1.83,1.83,0,0,1,.3,1.11,31.67,31.67,0,0,1-.07,3.35A1,1,0,0,1,159.7,54.46Z" transform="translate(-5.98 -4.87)"/><path class="cls-11" d="M157.58,51.13h2.58c0-.25,0-.42,0-.45a2.39,2.39,0,0,0-.21-1.1.33.33,0,0,0-.28-.16h0l-1.38,0h-.05c-.28,0-.59.2-.64.77,0,.2,0,.56,0,1Z" transform="translate(-5.98 -4.87)"/><path class="cls-9" d="M166.26,54.82h-2l0,0a1.49,1.49,0,0,1-.93-1.51c0-.12,0-3.08.07-3.85a1,1,0,0,1,1-.88h.1l2.21,0h0a.63.63,0,0,1,.46.19,2,2,0,0,1,.34,1.27,35.47,35.47,0,0,1-.08,3.81A1.07,1.07,0,0,1,166.26,54.82Z" transform="translate(-5.98 -4.87)"/><path class="cls-10" d="M166.15,54.46h-1.81a1.32,1.32,0,0,1-.81-1.34c0-.09,0-2.7.06-3.37a.85.85,0,0,1,.9-.77h.08l1.94,0h0a.55.55,0,0,1,.41.17,1.83,1.83,0,0,1,.3,1.11c0,.09.05,2.56-.07,3.35A1,1,0,0,1,166.15,54.46Z" transform="translate(-5.98 -4.87)"/><path class="cls-11" d="M164,51.13h2.58v-.45a2.39,2.39,0,0,0-.21-1.1.34.34,0,0,0-.29-.16h0l-1.38,0h-.05c-.28,0-.59.2-.64.77,0,.2,0,.56,0,1Z" transform="translate(-5.98 -4.87)"/><path class="cls-9" d="M172.7,54.82h-2l0,0a1.48,1.48,0,0,1-.93-1.51c0-.12,0-3.08.07-3.85a1,1,0,0,1,1-.88h.1l2.21,0h0a.63.63,0,0,1,.46.19,2.12,2.12,0,0,1,.34,1.27,35.47,35.47,0,0,1-.08,3.81A1.08,1.08,0,0,1,172.7,54.82Z" transform="translate(-5.98 -4.87)"/><path class="cls-10" d="M172.6,54.46h-1.81a1.33,1.33,0,0,1-.82-1.34c0-.09,0-2.7.07-3.37a.85.85,0,0,1,.9-.77H171L173,49h0a.54.54,0,0,1,.4.17,1.74,1.74,0,0,1,.29,1.11,29.14,29.14,0,0,1-.07,3.35A.93.93,0,0,1,172.6,54.46Z" transform="translate(-5.98 -4.87)"/><path class="cls-11" d="M170.47,51.13h2.58v-.45a2.39,2.39,0,0,0-.21-1.1.34.34,0,0,0-.29-.16h0l-1.38,0h-.06c-.27,0-.58.2-.63.77,0,.2,0,.56,0,1Z" transform="translate(-5.98 -4.87)"/><path class="cls-9" d="M179.15,54.82h-2l0,0a1.48,1.48,0,0,1-.92-1.51c0-.12,0-3.08.07-3.85a1,1,0,0,1,1-.88h.1l2.21,0h0a.63.63,0,0,1,.46.19,2.12,2.12,0,0,1,.34,1.27c0,.1.06,2.91-.08,3.81A1.08,1.08,0,0,1,179.15,54.82Z" transform="translate(-5.98 -4.87)"/><path class="cls-10" d="M179.05,54.46h-1.81a1.33,1.33,0,0,1-.82-1.34c0-.09,0-2.7.07-3.37a.84.84,0,0,1,.89-.77h.09l1.94,0h0a.55.55,0,0,1,.41.17,1.81,1.81,0,0,1,.29,1.11,31.67,31.67,0,0,1-.07,3.35A.93.93,0,0,1,179.05,54.46Z" transform="translate(-5.98 -4.87)"/><path class="cls-11" d="M176.92,51.13h2.58c0-.25,0-.42,0-.45a2.27,2.27,0,0,0-.21-1.1.31.31,0,0,0-.28-.16h0l-1.38,0h-.06c-.27,0-.58.2-.64.77,0,.2,0,.56,0,1Z" transform="translate(-5.98 -4.87)"/><path class="cls-9" d="M185.6,54.82h-2l0,0a1.49,1.49,0,0,1-.94-1.51c0-.12,0-3.08.07-3.85a1,1,0,0,1,1-.88h.09l2.21,0h0a.63.63,0,0,1,.46.19,2.12,2.12,0,0,1,.34,1.27c0,.1.06,2.91-.08,3.81A1.08,1.08,0,0,1,185.6,54.82Z" transform="translate(-5.98 -4.87)"/><path class="cls-10" d="M185.49,54.46h-1.8a1.33,1.33,0,0,1-.82-1.34c0-.09,0-2.7.06-3.37a.86.86,0,0,1,.9-.77h.09l1.94,0h0a.51.51,0,0,1,.4.17,1.76,1.76,0,0,1,.3,1.11,31.67,31.67,0,0,1-.07,3.35A.94.94,0,0,1,185.49,54.46Z" transform="translate(-5.98 -4.87)"/><path class="cls-11" d="M183.37,51.13H186c0-.25,0-.42,0-.45a2.39,2.39,0,0,0-.21-1.1.31.31,0,0,0-.28-.16h0l-1.37,0H184c-.27,0-.59.2-.64.77,0,.2,0,.56,0,1Z" transform="translate(-5.98 -4.87)"/><path class="cls-9" d="M192.05,54.82h-2l0,0a1.49,1.49,0,0,1-.93-1.51c0-.12,0-3.08.07-3.85a1,1,0,0,1,1-.88h.09l2.21,0h0a.59.59,0,0,1,.45.19,2,2,0,0,1,.34,1.27,37.7,37.7,0,0,1-.07,3.81A1.08,1.08,0,0,1,192.05,54.82Z" transform="translate(-5.98 -4.87)"/><path class="cls-10" d="M191.94,54.46h-1.8a1.31,1.31,0,0,1-.82-1.34c0-.09,0-2.7.06-3.37a.85.85,0,0,1,.9-.77h.08l1.95,0h0a.51.51,0,0,1,.4.17,1.83,1.83,0,0,1,.3,1.11,31.67,31.67,0,0,1-.07,3.35A.94.94,0,0,1,191.94,54.46Z" transform="translate(-5.98 -4.87)"/><path class="cls-11" d="M189.82,51.13h2.58c0-.25,0-.42,0-.45a2.39,2.39,0,0,0-.21-1.1.33.33,0,0,0-.28-.16h0l-1.38,0h0c-.28,0-.59.2-.64.77,0,.2,0,.56,0,1Z" transform="translate(-5.98 -4.87)"/><g class="cls-12"><path class="cls-2" d="M233.56,56.93c-5.5,2.62-11.19,4.86-16.89,7-11.76,4.36-24,6.64-36.3,8.7-12.51,2.09-25,4.54-37.47,6.58-2.43.4-4.85.78-7.28,1.16,44.12-4,76.84-10.43,81.49-11.95,8.66-2.81,12.38-5.6,12.38-5.6s7.41-4.57,8.06-5.07a8.13,8.13,0,0,0,2.79-4.9A33,33,0,0,1,233.56,56.93Z" transform="translate(-5.98 -4.87)"/></g><path class="cls-13" d="M35.64,43a42.27,42.27,0,0,1,18.43-5.54c10.88-.7,96.28,3.42,96.28,3.42l-95.27-1.3s-4.43-.51-6.55,3.12Z" transform="translate(-5.98 -4.87)"/><path class="cls-14" d="M21.8,73.6A17.06,17.06,0,0,0,23,68.86c-.14-5.11-1.33-10.64-5.7-11.63,0,0-8.76,2.52-10.68,8.36,0,0-1.06,4.18,12.84,11.11A8.9,8.9,0,0,0,21.8,73.6Z" transform="translate(-5.98 -4.87)"/><path class="cls-15" d="M219.06,55c-4.2.58-8.71.69-12.63,2.48-3.62,1.66-6,4.94-9.59,6.55s-7.86,1.9-11.7,2.45L169.5,68.69c-5.68.8-11.35,1.56-17,2.64-4.66.9-9.6,1.76-14.18,0-2.38-.89-4.52-2.37-6.94-3.18A32.72,32.72,0,0,0,122.81,67a123.9,123.9,0,0,0-17.76.46c-2.78.24-5.62.41-8.38.84-2.48.39-5.43,1.12-6.74,3.51s-.12,5.18-3.47,6.14c-9.83,2.82-20.11,1.32-30.12.37a238.53,238.53,0,0,1-31.59-4.7C19.4,72.32,13.64,70.91,8.93,68A13.07,13.07,0,0,1,6,65.51c0,.12,0,.23,0,.35,0,5.67,17,16.91,40.67,17.59,83.19,2.4,163-12.62,170.46-15,8.66-2.81,12.38-5.6,12.38-5.6s7.41-4.57,8.06-5.07a8,8,0,0,0,2.86-6.36C233.31,52.68,226.23,54,219.06,55Z" transform="translate(-5.98 -4.87)"/><path class="cls-16" d="M123.92,75.48S109,73.31,100.05,73.72l.53,22.58,0,.08-.51,2.41a113.81,113.81,0,0,0,23.87-2.92c1.25,0,2.79-4.24,2.79-9.87S125.17,75.48,123.92,75.48Z" transform="translate(-5.98 -4.87)"/><path class="cls-17" d="M104.78,87c3.31.09,6.6,0,9.9.32,4,.36,8,.68,11.91,1.29.08-.84.12-1.72.12-2.65,0-5.63-1.54-10.52-2.79-10.52,0,0-14.88-2.17-23.87-1.76l.31,13C101.82,86.81,103.28,87,104.78,87Z" transform="translate(-5.98 -4.87)"/><path class="cls-17" d="M113,96.1c-2.52.28-5,.56-7.54.86-1.69.19-3.38.11-5.07.16l-.35,1.67a113.81,113.81,0,0,0,23.87-2.92c.45,0,.93-.55,1.37-1.51C121.19,94.9,117.1,95.63,113,96.1Z" transform="translate(-5.98 -4.87)"/><path class="cls-18" d="M102.59,86.25c0,6.93-1.15,12.54-2.56,12.54s-2.57-5.61-2.57-12.54S98.61,73.72,100,73.72,102.59,79.33,102.59,86.25Z" transform="translate(-5.98 -4.87)"/><path class="cls-19" d="M100.2,78c-.15-.35-.31-.55-.47-.55-.76,0-1.37,3.88-1.37,8.67s.61,8.66,1.37,8.66c.19,0,.37-.26.54-.73-.52-1.23-.89-4.39-.89-8.12A29,29,0,0,1,100.2,78Z" transform="translate(-5.98 -4.87)"/><path class="cls-19" d="M100.2,78a29,29,0,0,0-.82,7.93c0,3.73.37,6.89.89,8.12a29.18,29.18,0,0,0,.81-7.93C101.08,82.35,100.72,79.19,100.2,78Z" transform="translate(-5.98 -4.87)"/><path class="cls-16" d="M132.54,84.55S120,82.71,112.37,83.06l.45,19.08,0,.06-.43,2a96,96,0,0,0,20.17-2.46c1.06,0,2.36-3.58,2.36-8.34S133.6,84.55,132.54,84.55Z" transform="translate(-5.98 -4.87)"/><path class="cls-17" d="M116.37,94.31c2.79.08,5.57,0,8.36.28,3.37.3,6.74.57,10.07,1.08.06-.71.1-1.45.1-2.23,0-4.76-1.3-8.89-2.36-8.89,0,0-12.57-1.84-20.17-1.49l.26,11C113.87,94.12,115.1,94.27,116.37,94.31Z" transform="translate(-5.98 -4.87)"/><path class="cls-17" d="M123.32,102c-2.13.24-4.25.47-6.37.72-1.43.17-2.86.1-4.28.14l-.3,1.41a96,96,0,0,0,20.17-2.46c.38,0,.79-.47,1.16-1.28C130.24,101,126.78,101.58,123.32,102Z" transform="translate(-5.98 -4.87)"/><path class="cls-18" d="M114.52,93.65c0,5.85-1,10.59-2.17,10.59s-2.17-4.74-2.17-10.59,1-10.59,2.17-10.59S114.52,87.8,114.52,93.65Z" transform="translate(-5.98 -4.87)"/><path class="cls-19" d="M112.49,86.64c-.12-.29-.25-.46-.39-.46-.64,0-1.15,3.28-1.15,7.32s.51,7.32,1.15,7.32c.16,0,.32-.22.46-.62a22.72,22.72,0,0,1-.75-6.86A24.93,24.93,0,0,1,112.49,86.64Z" transform="translate(-5.98 -4.87)"/><path class="cls-19" d="M112.49,86.64a24.93,24.93,0,0,0-.68,6.7,22.72,22.72,0,0,0,.75,6.86,24.82,24.82,0,0,0,.68-6.7A22.77,22.77,0,0,0,112.49,86.64Z" transform="translate(-5.98 -4.87)"/><path class="cls-20" d="M128.18,67.3H97S89,68,92.79,71.85s40.89,23.41,40.89,23.41a21.48,21.48,0,0,0,8.69,2.12s23.1,1.62,17.8-2.93-23.94-23.74-23.94-23.74S132,67.13,128.18,67.3Z" transform="translate(-5.98 -4.87)"/><path class="cls-21" d="M128.18,67.3H97S89,68,92.79,71.85s40.89,23.41,40.89,23.41a21.48,21.48,0,0,0,8.69,2.12s23.1,1.62,17.8-2.93-23.94-23.74-23.94-23.74S132,67.13,128.18,67.3Z" transform="translate(-5.98 -4.87)"/><path class="cls-22" d="M160.17,94.45c-5.29-4.55-23.94-23.74-23.94-23.74s-4.24-3.58-8-3.41h-3.67c4,1.46,7.25,4,10.63,7,4.87,4.29,9.6,8.76,14.52,13a75.46,75.46,0,0,1,5.83,5.33c1,1.08,2.17,2.21,2.07,3.79a2.42,2.42,0,0,1-.26.89C160.32,96.91,162.07,96.08,160.17,94.45Z" transform="translate(-5.98 -4.87)"/><path class="cls-23" d="M101.8,68.2s-9.47-.3-6.14,2.72S129.9,91.67,129.9,91.67s6.85,4.73,12.48,4.23c0,0-6.84-2.12-10.37-5s-29-18.73-29-18.73S98,69.41,101.8,68.2Z" transform="translate(-5.98 -4.87)"/><path class="cls-24" d="M227.93,55.92l-20,2.21a6.13,6.13,0,0,0-3.46,2c-.8,1-1.23,3.18.34,4.07,2.84,1.61,29.26,7.44,29.26,7.44s5.44.9,9.3-.53c0,0,11.08-1.83,7.31-3.75S233.36,57,233.36,57,230.35,55.45,227.93,55.92Z" transform="translate(-5.98 -4.87)"/><path class="cls-25" d="M227.93,55.92l-20,2.21s-6.14,1.61-2.22,3.84c2.84,1.61,28.12,8.48,28.12,8.48a15.75,15.75,0,0,0,5.73.26s14.89-1.46,11.12-3.38S233.36,57,233.36,57,230.35,55.45,227.93,55.92Z" transform="translate(-5.98 -4.87)"/><path class="cls-4" d="M221.62,57.18,210,58.61s-4.23.68-3.25,2.35L233,69.26,211.2,60.88s-1.81-.6.07-1.36S221.62,57.18,221.62,57.18Z" transform="translate(-5.98 -4.87)"/><path class="cls-13" d="M88.4,57.43s83.87-2.08,111.14-4.16C199.54,53.27,140.59,62.88,88.4,57.43Z" transform="translate(-5.98 -4.87)"/></g><g id="Layer_2" data-name="Layer 2"><path class="cls-26" d="M217.38,29.86l-1.66,9.55h-1.1l1.65-9.55H215v2.69H214V29.61h3.43Z" transform="translate(-5.98 -4.87)"/><path class="cls-26" d="M221.25,29.86l-1.65,9.55h-1.11l1.66-9.55h-1.23v2.69h-1.1V29.61h3.43Z" transform="translate(-5.98 -4.87)"/><path class="cls-26" d="M225.13,29.86l-1.66,9.55h-1.1L224,29.86h-1.23v2.69H221.7V29.61h3.43Z" transform="translate(-5.98 -4.87)"/><path class="cls-26" d="M58.17,78.53a1.28,1.28,0,0,1-.49,1,1.78,1.78,0,0,1-1.19.42h-2v-.25h.35v-9.3h-.35v-.25h2a1.78,1.78,0,0,1,1.19.42,1.28,1.28,0,0,1,.49,1v1.89a1.33,1.33,0,0,1-1,1.3,1.36,1.36,0,0,1,1,1.3ZM57.05,74.1V71a.51.51,0,0,0-.16-.39.56.56,0,0,0-.4-.17H56v4.25h.49a.56.56,0,0,0,.4-.17A.53.53,0,0,0,57.05,74.1Zm0,5.05V75.47a.54.54,0,0,0-.16-.4.55.55,0,0,0-.4-.16H56v4.8h.49a.56.56,0,0,0,.4-.17A.53.53,0,0,0,57.05,79.15Z" transform="translate(-5.98 -4.87)"/><path class="cls-26" d="M62.38,78.6a1.29,1.29,0,0,1-.5,1,1.88,1.88,0,0,1-2.37,0,1.29,1.29,0,0,1-.5-1V71.52a1.29,1.29,0,0,1,.5-1,1.88,1.88,0,0,1,2.37,0,1.29,1.29,0,0,1,.5,1Zm-1.13.62V70.9a.53.53,0,0,0-.16-.39.54.54,0,0,0-.4-.17.58.58,0,0,0-.56.56v8.32a.58.58,0,0,0,.56.56.54.54,0,0,0,.4-.17A.53.53,0,0,0,61.25,79.22Z" transform="translate(-5.98 -4.87)"/><path class="cls-26" d="M66.5,80H63v-.25h.35v-9.3H63v-.25h3.5V73.1H65.38V70.41h-.91v4.25H65.8v.25H64.47v4.8h.91V77H66.5Z" transform="translate(-5.98 -4.87)"/><path class="cls-26" d="M68.91,80H67.09v-.25h.35v-9.3h-.35v-.25h1.82v.25h-.35v9.3h.35Z" transform="translate(-5.98 -4.87)"/><path class="cls-26" d="M73,70.41h-.35V80h-.9l-1.69-7.63v7.38h.35V80h-1v-.25h.35v-9.3h-.35v-.25h1.42L72.3,77V70.41H72v-.25h1Z" transform="translate(-5.98 -4.87)"/><path class="cls-26" d="M77,78.6a1.28,1.28,0,0,1-.49,1,1.9,1.9,0,0,1-2.38,0,1.28,1.28,0,0,1-.49-1V71.52a1.28,1.28,0,0,1,.49-1,1.9,1.9,0,0,1,2.38,0,1.28,1.28,0,0,1,.49,1V73.1H75.87V70.9a.57.57,0,0,0-.16-.39.56.56,0,0,0-.4-.17.54.54,0,0,0-.4.17.53.53,0,0,0-.16.39v8.32a.53.53,0,0,0,.16.39.54.54,0,0,0,.4.17.56.56,0,0,0,.4-.17.57.57,0,0,0,.16-.39V74.91h-.56v-.25H77Z" transform="translate(-5.98 -4.87)"/></g></g></svg>