<svg xmlns="http://www.w3.org/2000/svg" viewBox="0 0 1208.49 844.87"><defs><style>.cls-1{fill:#d19859;}.cls-2{fill:#aa7752;}.cls-3{fill:#8c6144;}.cls-4{fill:#c49a62;}.cls-5{fill:#dbb57d;}.cls-6{fill:#aa7751;}.cls-7{fill:#cc812f;}.cls-8{fill:#e89e46;}.cls-9{fill:#b57245;}.cls-10{fill:#8e5624;}.cls-11{fill:none;}.cls-12{fill:#ab7852;}.cls-13{fill:#ffbe71;}.cls-14{fill:#a62;}.cls-15{fill:#8d5523;}</style></defs><g id="Layer_4" data-name="Layer 4"><path class="cls-1" d="M1237.51,765.12l6.74-12.36-9-13.2-3.09-2L1228,678.07V609.84l-5.34-58.69L1198.76,527l-73.08-29.13L968.16,451.54l-89.3-11.37-68-6.95-77.08-7.37-37.9-3.79L689.73,466l44.88,2.36,25,4L768,491.62l2,68,2.8,89.29,53.64,4.21L892,662.77l38.72,5.47,4.7,36.79,10.25,90.83,5.2,94.21,64.3,3.37,108.1,4.21,111.2,4.49,3.93-42.68-4.77-96.31ZM895,508.93l-20.84-2.74V489.76l.63-16.21,21.06,2-.64,16.95Zm56.76,30.43,1,24.22-27.16-1.37-2.43-9.37,1.06-25.59a64.87,64.87,0,0,1,5-4.84l14.42,2ZM1017.22,523l.64-21.06,15.26,3.16-.52,20.21Z" transform="translate(-35.75 -57.27)"/></g><g id="Layer_2" data-name="Layer 2"><polygon class="cls-2" points="0 204.7 53.49 145.31 132.25 84.24 230.39 41.28 303.26 8.85 350.01 0 378.65 5.9 378.65 15.16 327.26 18.11 264.93 40.01 181.11 77.08 120.88 118.35 65.71 154.58 0 221.97 0 204.7"/><polygon class="cls-3" points="0 221.97 6.6 227.3 61.63 177.6 118.35 128.74 185.18 92.8 257.07 57.98 358.71 20.92 378.65 23.16 378.65 15.16 327.26 18.11 252.25 45.62 181.11 77.08 120.88 118.35 65.71 154.58 0 221.97"/><polygon class="cls-4" points="17.98 217.02 118.35 128.74 185.18 92.8 257.07 57.98 358.71 20.92 372.75 36.64 388.48 82.13 427.79 182.09 276.16 200.06 172.27 236.57 117.79 255.66 53.77 297.22 24.01 313.51 14.46 326.42 17.83 269.14 19.52 231.51 17.98 217.02"/><polygon class="cls-2" points="358.71 20.92 373.31 24.01 405.32 65.56 458.39 181.25 451.09 179.85 427.79 182.09 398.02 110.98 381.89 63.07 372.75 36.64 358.71 20.92"/><polygon class="cls-5" points="9.69 332.32 24.01 313.51 53.77 297.22 117.79 255.66 172.27 236.57 235.37 214.4 274.15 200.77 316.44 195.29 368.95 189.07 427.79 182.09 451.09 179.85 467.1 182.09 467.1 203.72 422.17 204.56 373.31 205.68 285.14 219.72 206.24 243.03 127.83 275.32 63.88 315.47 29.9 338.21 3.79 355.9 9.69 332.32"/><polygon class="cls-4" points="3.79 388.48 33.84 346.08 80.73 310.98 148.4 276.44 203.44 255.94 277.14 239.24 344.32 228.71 400.55 224.07 417.4 225.97 442.46 224.07 462.26 222.56 473.21 223.86 468.15 205.54 467.1 203.72 438.88 204.25 404.98 204.95 373.31 205.68 317.16 214.62 285.14 219.72 245.22 231.51 206.24 243.03 148.58 266.77 127.83 275.32 97.42 294.41 59.08 318.69 27.92 339.56 3.79 355.9 2.95 368.96 3.79 388.48"/><polygon class="cls-4" points="467.1 182.09 473.21 183.22 505.22 195.64 516.17 211.44 516.17 226.39 475.31 202.8 467.1 203.72 467.1 182.09"/><polygon class="cls-2" points="509.43 250.4 516.17 240.08 516.17 226.39 475.31 202.8 467.1 203.72 473.21 223.86 478.89 224.71 509.43 250.4"/><polygon class="cls-6" points="9.48 395.08 43.17 349.17 98.14 309.57 176.48 272.51 263.81 249.49 349.73 235.16 390.3 228.14 416.73 225.89 400.55 224.07 345.67 228.59 288.26 237.49 238.08 248.09 203.44 255.94 148.4 276.44 80.73 310.98 33.84 346.08 3.79 388.48 9.48 395.08"/><polygon class="cls-4" points="478.89 224.71 509.43 250.4 516.17 351.97 494.9 350.01 483.38 253.98 478.89 224.71"/><polygon class="cls-5" points="444.07 349.73 494.9 350.01 483.38 253.98 478.89 224.71 462.26 222.56 408.43 226.6 390.3 228.14 263.81 249.49 176.48 272.51 98.14 309.57 43.17 349.17 13.31 389.86 13.31 467.66 22.04 457.55 47.03 443.51 91.12 420.77 142.5 403.08 189.4 387.07 189.68 298.41 201.75 288.51 221.13 288.51 226.74 299.75 230.11 335.97 229.83 376.12 245.83 373.31 244.15 309.57 247.8 285.43 252.57 275.04 266.61 270.82 280.93 278.97 282.62 319.68 284.02 366.57 309.29 361.8 311.54 274.76 325.02 259.31 346.36 264.93 357.03 287.67 358.15 354.22 386.51 352.54 385.11 307.89 389.32 264.65 403.92 248.64 433.12 250.4 444.07 267.88 444.07 349.73"/><polygon class="cls-2" points="560.81 392.97 562.71 391.5 558.29 369.38 495.74 361.8 508.17 389.39 532.8 389.6 560.81 392.97"/><polygon class="cls-3" points="552.81 403.5 560.81 392.97 532.8 389.6 508.17 389.39 512.38 398.44 532.59 400.13 552.81 403.5"/><polyline class="cls-4" points="495.74 361.8 508.17 389.39 475.73 388.48 416.73 391.29 348.96 394.23 258.19 400.13 178.37 424.77 134.99 438.46 53.07 468.57 9.9 499.95 6.32 484.37 46.12 452.78 122.57 418.34 222.81 388.48 320.52 369.38 385.11 365.17 462.26 360.54 495.74 361.8"/><polygon class="cls-2" points="14.46 511.75 29.62 492.09 87.19 464.29 261.84 408.41 398.31 399.15 512.38 398.44 508.17 389.39 475.73 388.48 396.9 392.15 258.19 400.13 178.37 424.77 134.99 438.46 53.07 468.57 9.9 499.95 14.46 511.75"/><polygon class="cls-5" points="15.68 510.17 29.62 492.09 87.19 464.29 261.84 408.41 398.31 399.15 512.38 398.44 522.26 399.27 560.6 582.08 482.26 579.14 359.27 580.61 283.04 582.08 244.71 583.14 98.42 601.04 22.89 626.31 15.68 510.17"/><polygon class="cls-4" points="522.26 399.27 552.81 403.5 559.48 462.61 571.84 540.11 594.02 584.19 633.33 589.81 647.93 658.88 691.17 745.37 709.71 782.15 728.52 832.69 705.49 831.57 675.73 775.13 648.77 711.11 627.43 660.85 619.15 641.61 615.64 636.7 624.34 636.98 616.34 626.31 560.6 620.13 449.13 619.57 416.56 619.01 357.59 619.01 299.19 619.57 193.89 627.43 95.89 642.6 19.8 671.24 16.85 652.63 89.71 625.05 173.32 608.2 267.45 602.72 333.79 601.67 518.91 600.62 603.14 609.04 588.61 589.88 560.6 582.08 522.26 399.27"/><polygon class="cls-5" points="35.8 826.23 187.15 825.67 248.36 824.55 300.59 824.55 407.85 826.23 531.12 827.64 621.89 828.69 705.49 831.57 675.73 775.13 619.15 641.61 615.64 636.7 562.29 635.01 442.11 634.45 274.19 636.14 196.13 637.26 110.77 652.63 26.73 679.66 35.8 826.23"/><polygon class="cls-7" points="553 405.19 623.78 406.45 698.75 410.38 723.74 414.4 726.83 421.61 708.65 420.14 661.27 417.61 586.3 416.13 554.31 416.79 553 405.19"/><polygon class="cls-8" points="566.5 370.44 585.88 367.91 621.68 367.91 622.51 406.43 594.51 405.19 569.87 405.49 566.5 370.44"/><path class="cls-8" d="M927.69,770.91l-6.45-104.46-94.91-14L772.7,648.2l-9.55,4.21L755.85,569l-1.69-36.79-1.75-45.77-7.69-8.31L697,474.88l-75-1.47-32,.65,8.49,66.61,23.64,4.48,14.6,19.09,2.11,28.36,4.4,50.79,25.78,3.69,14.6,69.07,43.25,86.49,18.53,36.78,17.73,47.65,45.45,4.58,36.22.28,90.41,2.25ZM725,587.76c-.79,3.54,9.27,65.71,9.27,65.71l-60-3.3c-1.53-4.1,2.1-60.51,2.1-60.51l18.11-12,17.91,1.69Z" transform="translate(-35.75 -57.27)"/><polyline class="cls-9" points="1023.91 430.04 1133.42 465.63 1136.58 548.6 1145 545.44 1149.85 553.92 1154.27 585.59 1154.48 649.26 1138.9 645.89 1139.74 743.82 1135.53 732.17 1122.26 721.5 1112.36 728.52 1105.83 749.51 1103.93 840.38 1036.12 837.72 1040.34 740.87 1035.49 722.13 1025 716.12 1026.77 627.37 1047.78 630.52 1046.52 566.36 1042.59 538.7 1032.34 530.7 1026.02 528.78 1023.91 430.04"/><polygon class="cls-7" points="914.61 836.99 911.18 763.56 894.82 610.3 885.48 609.18 899.52 836.9 914.61 836.99"/><polyline class="cls-10" points="1108.57 739.61 1112.36 728.52 1122.26 721.5 1135.53 732.17 1144.58 753.93 1145.63 842.07 1132.16 841.54 1131.53 765.51 1127.32 749.5 1117.42 739.61 1108.57 739.61"/><polyline class="cls-11" points="1162.97 745.53 1176.38 747.82 1177.65 843.36 1157.84 842.56 1159.82 751.54 1162.97 745.53"/><polyline class="cls-9" points="1162.97 745.53 1169.08 733.85 1184.6 738.13 1189.44 760.46 1190.49 843.88 1177.65 843.36 1176.38 747.82 1162.97 745.53"/><polyline class="cls-10" points="1178.07 493.85 1187.38 499.95 1192.11 551.9 1192.11 620.13 1196.32 679.66 1202.5 801.52 1198.57 844.21 1190.49 843.88 1189.44 760.46 1184.6 738.13 1180.6 736.66 1179.96 657.48 1165.01 654.74 1165.01 633.47 1168.38 580.4 1172.17 553.92 1178.7 553.92 1178.07 493.85"/></g><g id="Layer_3" data-name="Layer 3"><polygon class="cls-5" points="14.46 253.42 54.33 214.1 117.79 168.62 143.63 150.65 200.35 125.94 243.03 110.98 289.08 98.98 337.94 89.43 373.31 87.19 373.31 96.73 354.78 96.17 282.34 110.98 239.09 121.23 173.95 145.59 129.59 170.3 95.33 195.57 63.88 219.16 34.12 245.55 14.46 261.84 14.46 253.42"/><polygon class="cls-12" points="14.46 272.51 61.63 233.2 98.7 202.87 119.48 186.03 170.02 156.26 219.44 135.62 272.09 119.2 311.26 110.98 370.65 100.66 373.31 96.73 354.78 96.17 286.21 110.19 239.09 121.23 173.95 145.59 129.59 170.3 95.33 195.57 63.88 219.16 34.12 245.55 14.46 261.84 14.46 272.51"/><polygon class="cls-5" points="202.31 89.71 219.16 83.25 221.13 118.66 205.79 124.03 202.31 89.71"/><polygon class="cls-5" points="268.02 59.39 278.69 57.7 283.6 100.41 272.41 103.32 268.02 59.39"/><polygon class="cls-5" points="305.64 47.88 315.19 41.98 316.59 93.6 307.72 95.34 305.64 47.88"/><polygon class="cls-5" points="341.58 34.68 353.1 31.87 355.85 88.3 344.68 89 341.58 34.68"/><polygon class="cls-5" points="346.64 109.37 357.03 107.12 357.03 148.96 348.72 148.96 346.64 109.37"/><polygon class="cls-5" points="308.45 114.98 318 114.98 319.4 157.38 307.05 157.38 308.45 114.98"/><polygon class="cls-5" points="274.62 124.03 285.57 121.23 285.57 163.42 275.81 165.53 274.62 124.03"/><polygon class="cls-3" points="242.18 134.57 260.51 132.25 263.24 156.26 245.55 158.79 242.18 134.57"/><polygon class="cls-5" points="208.07 145.52 221.97 143.38 224.07 177.95 210.17 180.69 208.07 145.52"/><polygon class="cls-3" points="127.83 184.34 141.94 175.43 143.41 195.85 129.52 202.38 127.83 184.34"/><polygon class="cls-2" points="12.21 291.04 45.35 267.18 120.88 230.67 179.29 202.38 208.07 186.87 242.18 177.6 280.09 168.06 316.31 160.47 360.68 151.77 403.92 146.71 402.8 157.38 360.4 162.03 286.83 177.6 227.86 188.9 179.85 211.3 121.16 237.13 82.97 255.94 51.81 272.51 12.85 298.41 12.21 291.04"/><polygon class="cls-2" points="49.28 355.9 61.63 352.82 69.78 372.75 74.72 429.23 47.03 443.51 46.12 377.07 49.28 355.9"/><polygon class="cls-2" points="98.18 418.34 94.35 348.75 98.18 325.16 114.56 325.16 122.57 347.06 122.57 409.94 98.18 418.34"/><polygon class="cls-3" points="142.5 403.08 141.1 325.16 144.89 310.84 151.42 305.99 163.63 309.57 171.84 331.06 171.84 393.06 142.5 403.08"/><polygon class="cls-2" points="169.84 325.82 161.74 331.62 156.47 367.84 158.81 397.51 171.84 393.06 171.84 331.06 169.84 325.82"/><polygon class="cls-2" points="189.4 387.07 189.68 298.41 201.75 288.51 221.13 288.51 226.74 299.75 228.4 317.61 222.39 315.26 219.23 323.68 218.81 378.65 210.26 379.91 189.4 387.07"/><polygon class="cls-2" points="245.83 373.31 244.15 309.57 247.8 285.43 252.57 275.04 266.61 270.82 280.93 278.97 281.56 294.21 276.72 291.46 263.88 297.15 261.56 320.31 264.3 370.23 245.83 373.31"/><polygon class="cls-2" points="309.29 361.8 311.54 274.76 325.02 259.31 346.36 264.93 357.03 287.67 357.17 296.1 348.75 286.62 334.63 293.36 327.26 313.58 329.16 357.8 309.29 361.8"/><polygon class="cls-2" points="386.51 352.54 385.11 307.89 389.32 264.65 403.92 248.64 433.12 250.4 444.07 267.88 444.07 269.35 429.61 263.03 412.35 276.09 405.61 294.41 406.87 351.48 386.51 352.54"/><polygon class="cls-13" points="6.32 474.47 22.04 457.55 91.12 420.77 122.57 409.94 171.84 393.06 210.26 379.91 245.83 373.31 284.02 366.57 343.27 355.9 386.51 352.54 421.4 350.85 454.46 349.79 492.37 350 495.74 361.8 462.26 360.54 385.11 365.17 320.52 369.38 277.77 377.6 222.81 388.48 122.57 418.34 46.12 452.78 6.32 484.37 6.32 474.47"/><polygon class="cls-8" points="492.37 350 555.55 356.75 558.29 369.38 495.74 361.8 492.37 350"/><polygon class="cls-13" points="13.31 629.68 98.42 601.04 244.71 583.14 359.27 580.61 482.26 579.14 560.6 582.08 588.61 589.88 603.14 609.04 518.91 600.62 333.79 601.67 267.45 602.72 173.32 608.2 89.71 625.05 16.85 652.63 13.31 629.68"/><polygon class="cls-2" points="19.8 671.24 95.89 642.6 193.89 627.43 299.19 619.57 357.59 619.01 416.56 619.01 449.13 619.57 560.6 620.13 616.34 626.31 624.34 636.98 615.64 636.7 562.29 635.01 442.11 634.45 274.19 636.14 196.13 637.26 110.77 652.63 21.48 681.35 19.8 671.24"/><polygon class="cls-3" points="50.97 826.18 49.28 727.67 61.35 709.71 73.71 717.29 70.06 762.21 72.02 826.1 50.97 826.18"/><polygon class="cls-3" points="93.65 826.02 93.65 734.98 90.84 712.51 104.31 699.6 115.83 709.71 118.07 734.98 119.76 825.92 93.65 826.02"/><polygon class="cls-3" points="136.89 825.86 136.89 720.66 140.26 699.6 157.66 693.14 170.3 701.84 173.39 743.96 166.93 826.18 136.89 825.86"/><polygon class="cls-2" points="187.15 825.67 188.83 690.61 199.22 680.22 219.16 674.89 228.43 686.12 230.11 731.89 224.5 824.99 187.15 825.67"/><polygon class="cls-3" points="211.23 697.91 228.89 698.75 230.11 731.89 224.5 824.99 203.01 826.18 202.17 759.66 200.91 713.92 211.23 697.91"/><polygon class="cls-2" points="248.36 824.55 249.49 767.55 245.83 709.71 254.82 688.36 263.52 676.57 273.91 676.57 282.62 694.26 285.71 752.38 284.58 825.67 248.36 824.55"/><polygon class="cls-3" points="265.77 824.55 263.52 720.66 270.26 705.49 283.21 705.49 285.71 752.38 284.58 825.67 265.77 824.55"/><polygon class="cls-2" points="300.59 824.55 303.68 707.46 313.51 677.98 322.07 669.27 351.13 673.76 361.52 690.05 363.76 825.54 300.59 824.55"/><polygon class="cls-3" points="316.88 728.52 325.58 700.72 343.27 694.26 361.78 705.49 363.76 825.54 316.88 824.8 316.88 728.52"/><path class="cls-2" d="M443.61,883.51s1.12-82.56,1.12-83.4-.56-51.67-.56-51.67l14-23.86,27-4.5,19.38,12.36,13.2,36.22L520,830.44l-3.08,53.9Z" transform="translate(-35.75 -57.27)"/><path class="cls-3" d="M481.79,754.62l14.32-9.83,14.72,4.92s6.81,16.45,6.91,18.95L520,830.44l-3.08,53.9-39-.44V776.52Z" transform="translate(-35.75 -57.27)"/><polygon class="cls-2" points="531.12 827.64 531.12 746.21 532.8 708.86 538.7 685.56 554.71 674.04 575.49 672.08 594.86 673.2 609.46 706.05 609.46 828.55 531.12 827.64"/><polygon class="cls-3" points="575.49 699.6 584.19 686.4 600.73 686.4 609.46 706.05 609.46 828.55 572.12 828.11 575.49 699.6"/><polygon class="cls-7" points="712.86 434.04 709.71 439.93 647.16 439.93 598.09 438.67 557.02 438.04 556.22 431.74 591.14 430.88 639.92 430.88 694.75 430.88 712.86 434.04"/><polygon class="cls-7" points="705.49 448.78 705.49 456.57 663.37 457.62 616.2 457.62 559.24 455.5 557.8 444.15 590.3 445.62 631.64 446.88 669.69 447.94 705.49 448.78"/><polygon class="cls-7" points="562.79 483.39 586.44 487.88 601.04 506.97 603.38 538.12 596.62 529.65 586.3 523.33 568.46 518.96 562.79 483.39"/><polygon class="cls-7" points="640.63 532.38 643.16 502.06 663.58 488.16 681.91 488.16 697.7 508.17 707.18 596.19 698.54 596.19 689.28 530.49 676.64 522.07 658.74 520.38 640.63 532.38"/><polygon class="cls-13" points="638.15 608.9 739.47 610.3 805.74 615.98 877.62 626.52 875.37 647.09 801.24 633.05 734.7 629.4 641.09 626.52 638.15 608.9"/><polygon class="cls-13" points="642.77 634.45 703.81 635.86 772.6 639.23 836.06 645.89 876.71 656.63 877.62 661.48 830.38 655.79 772.04 648.84 644.55 642.88 642.77 634.45"/><polygon class="cls-7" points="695.1 753.79 695.1 740.87 701.28 701 720.38 679.38 738.63 679.38 765.86 697.07 770.64 750.98 772.32 792.26 772.88 834.38 754.63 832.69 727.44 829.8 709.71 782.15 695.1 753.79"/><polygon class="cls-14" points="721.22 710.27 741.43 723.18 751.26 750.42 754.63 832.69 727.44 829.8 709.71 782.15 695.1 753.79 695.1 740.87 698.67 717.84 721.22 710.27"/><polygon class="cls-7" points="809.11 834.66 804.05 762.77 810.79 712.51 827.36 695.1 850.94 698.47 870.6 711.95 880.71 749.02 877.62 836.9 854.31 835.78 809.11 834.66"/><polygon class="cls-14" points="836.06 717.29 854.03 740.59 857.12 771.48 854.31 835.78 809.11 834.66 804.05 762.77 809.14 724.83 836.06 717.29"/><polygon class="cls-2" points="51.33 616.88 48.86 570.71 51.33 526.35 59.67 511.75 69.5 504.73 78.2 514.55 78.2 607.84 51.33 616.88"/><polygon class="cls-2" points="98.42 601.04 97.01 512.38 100.66 492.65 114.42 491.81 123.83 507.67 121.09 545.44 120.83 598.29 98.42 601.04"/><polygon class="cls-3" points="137.24 596.29 140.05 504.73 142.78 484.37 152.05 476.37 167.84 483.31 171.42 514.27 173.62 591.84 137.24 596.29"/><polygon class="cls-2" points="150.37 505.85 158.37 493.21 168.99 493.21 171.21 512.38 173.62 591.84 150.37 594.68 150.37 505.85"/><polygon class="cls-3" points="188.58 590.01 191.36 481.98 196.13 462.33 208.21 455.87 222.81 455.87 229.27 472.43 228.19 585.16 188.58 590.01"/><path class="cls-2" d="M238.91,557.22c0-2,7.3-19.65,7.3-19.65H265l-1,104.86-23.36,2.4Z" transform="translate(-35.75 -57.27)"/><polygon class="cls-3" points="244.71 583.14 246.12 472.71 254.1 451.66 268.3 446.6 279.53 459.8 281.21 496.86 283.04 582.08 244.71 583.14"/><polygon class="cls-2" points="259.87 495.18 266.89 479.17 280.65 484.37 283.04 582.08 261.14 582.69 259.87 495.18"/><polygon class="cls-3" points="309.57 581.71 308.23 475.8 319.12 448.57 339.34 440.7 357.87 450.11 359.27 580.61 309.57 581.71"/><polygon class="cls-2" points="331.48 484.37 340.74 476.08 358.19 480.23 359.27 580.61 329.23 581.1 328.11 502.2 331.48 484.37"/><polygon class="cls-3" points="396.34 580.17 394.94 474.68 405.32 446.6 428.63 435.09 466.26 442.39 480.3 457.55 482.26 579.14 396.34 580.17"/><polygon class="cls-2" points="437.33 486.19 446.6 452.22 469.36 445.74 480.3 457.55 482.26 579.14 440.99 579.63 437.33 486.19"/><polygon class="cls-14" points="734.13 501.64 754.56 503.95 765.51 514.48 770.36 538.91 767.84 593.36 736.94 590.93 734.13 501.64"/><polygon class="cls-10" points="748.45 514.9 754.35 532.17 754.35 565.66 750.14 591.98 736.94 590.93 734.4 510.28 748.45 514.9"/><polygon class="cls-5" points="775.41 460.92 791.98 459.24 786.36 520.38 783.69 551.13 780.88 594.38 773.09 593.77 774.78 549.76 774.46 505.11 774.88 476.26 775.41 460.92"/><polygon class="cls-9" points="785.78 594.76 786.99 543.97 792.89 520.38 806.87 509.22 816.27 510.28 832.06 518.27 836.48 548.6 835.43 601.67 785.78 594.76"/><polygon class="cls-10" points="814.58 520.38 819.21 535.54 818.16 580.61 816.9 599.09 785.78 594.76 786.99 543.97 792.89 520.38 800.22 514.53 814.58 520.38"/><polygon class="cls-5" points="838.66 602.25 841.12 529.86 843.43 470.05 856.07 475.1 856.07 494.48 854.59 526.81 851.22 573.45 849.35 603.84 838.66 602.25"/><polygon class="cls-9" points="853.66 604.47 856.07 544.81 862.17 519.54 884.08 514.53 903.03 521.22 909.77 538.07 908.09 615.98 895.54 615.98 894.82 610.3 853.66 604.47"/><polygon class="cls-10" points="877.62 529.01 892.5 540.39 894.33 568.89 891.35 609.81 853.66 604.47 856.07 544.81 859.46 530.79 877.62 529.01"/><polygon class="cls-11" points="920.86 615.98 926.2 537.02 935.18 522.84 955.68 520.17 967.19 531.12 974.07 570.15 970 620.27 920.86 615.98"/><polygon class="cls-10" points="956.21 541.86 956.84 575.98 954.11 618.88 920.86 615.98 926.2 537.02 928.59 533.25 945.47 533.25 956.21 541.86"/><polygon class="cls-5" points="979.69 492.79 995.55 492.79 995.55 534.07 991.76 573.52 988.25 610.59 986.71 629.54 977.16 628.84 981.37 576.07 979.69 540.11 979.13 514.53 979.69 492.79"/><polygon class="cls-10" points="997.24 622.94 996.25 602.02 999.62 552.46 1004.96 533.25 1017.03 526.07 1032.34 530.7 1042.59 538.7 1046.52 566.36 1047.78 630.52 997.24 622.94"/><polygon class="cls-14" points="1024.76 546.49 1030.86 562.08 1035.55 628.69 997.24 622.94 996.25 602.02 999.62 552.46 1001.75 544.8 1013.17 542.49 1024.76 546.49"/><polygon class="cls-5" points="1049.74 640.63 1053.68 565.26 1053.68 530.56 1053.68 500.8 1070.52 503.32 1073.33 522.98 1068.56 570.71 1064.07 641.75 1049.74 640.63"/><polygon class="cls-1" points="1069.4 632.49 1073.33 561.16 1083.72 542.49 1105.62 540.67 1114.61 554.14 1116.01 588.4 1110.4 641.75 1069.4 632.49"/><polygon class="cls-10" points="1100.85 563.69 1103.38 578.29 1100.85 609.18 1096.79 638.68 1069.4 632.49 1073.33 561.16 1077.36 553.92 1086.39 553.92 1100.85 563.69"/><polygon class="cls-10" points="1127.95 569.03 1134.47 578.29 1135.53 607.78 1133.63 645.89 1122.26 644.63 1127.95 569.03"/><polygon class="cls-14" points="660 364.12 774.99 375.28 843.01 382.23 932.3 393.6 1089.83 439.93 1162.9 469.06 1186.77 493.21 1187.38 499.95 1178.07 493.85 1178.7 553.92 1172.17 553.92 1168.38 580.4 1165.01 633.47 1165.01 654.74 1179.96 657.48 1180.6 736.66 1169.08 733.85 1159.82 751.54 1157.84 842.56 1087.37 839.71 1017.44 836.99 1019.98 755.47 1016.89 734.98 1006.22 727.96 1009.03 719.53 1019.7 713.07 1035.49 722.13 1040.34 740.87 1036.12 837.72 1078.25 839.43 1080.56 750.77 1071.09 734.55 1055.71 733.08 1058.03 717.92 1074.03 717.5 1090.04 731.61 1091.09 839.86 1103.93 840.38 1105.83 749.51 1108.57 739.61 1117.42 739.61 1127.1 748.66 1131.53 765.51 1132.16 841.54 1145.63 842.07 1144.58 753.93 1139.74 743.82 1138.9 645.89 1154.48 649.26 1154.27 585.59 1149.85 553.92 1145 545.44 1136.58 548.6 1133.42 465.63 1061.54 443.09 1023.91 430.04 941.78 405.82 859.96 394.87 711.67 378.37 688.64 375 658.64 373.88 660 364.12"/><polygon class="cls-14" points="838.66 405.18 869.48 405.89 868.77 452.64 859.12 450.99 859.96 417.61 838.9 415.61 838.66 405.18"/><polygon class="cls-10" points="893.34 464.47 900.4 457.1 923.01 460.04 932.09 479.84 929.46 506.69 916.93 505.64 915.88 481.42 907.77 466.47 893.34 464.47"/><polygon class="cls-14" points="982 444.04 982 429.61 1009.59 434.67 1008.54 469 996.75 467.42 997.27 447.2 982 444.04"/><polygon class="cls-10" points="1092.71 494.06 1092.71 461.83 1108.36 466.05 1106.68 496.16 1092.71 494.06"/><polygon class="cls-11" points="1148.58 486.26 1164.17 493.21 1162.27 520.59 1151.32 520.59 1148.58 486.26"/><polygon class="cls-5" points="907.09 714.14 907.09 654.39 924.51 658.32 923.01 721.5 921.7 777.94 919.98 832.39 914.96 832.13 911.18 763.56 907.09 714.14"/><polygon class="cls-5" points="984.6 661.48 994.99 663.93 993.59 726.55 991.06 791.98 989.8 835.78 979.27 835.5 980.95 779.9 984.32 715.6 984.6 661.48"/><polygon class="cls-9" points="929.55 832.89 925.91 766 932.37 724.87 951.47 704.93 964.66 707.46 977.86 733.85 975.6 835.31 929.55 832.89"/><polygon class="cls-10" points="951.89 724.87 958.49 741.72 957.09 834.34 929.55 832.89 925.91 766 932.37 724.87 939.63 717.29 951.89 724.87"/><polygon class="cls-10" points="1000.04 746.21 1006.22 727.96 1016.89 734.98 1019.98 755.47 1017.44 836.99 993.03 836.04 1000.04 746.21"/><polygon class="cls-10" points="1046.65 838.13 1055.71 733.08 1071.09 734.55 1080.56 750.77 1078.25 839.43 1046.65 838.13"/><polygon class="cls-14" points="708.65 420.14 726.83 421.61 732.17 433.69 736.94 590.93 727.39 595.14 721.14 523.73 716.65 429.19 708.65 420.14"/><polygon class="cls-10" points="1159.82 751.54 1162.97 745.53 1176.38 747.82 1177.65 843.36 1157.84 842.56 1159.82 751.54"/><polygon class="cls-5" points="898 635.21 914.61 634.45 1026.43 644.55 1092.71 656.35 1199.41 681.63 1208.39 694.82 1204.84 701.33 1174.42 685.28 1070.52 659.16 1026.27 652.42 914.61 639.79 898 640.12 898 635.21"/><polygon class="cls-15" points="899.52 647.09 931.14 648.49 1029.25 660 1093.83 670.39 1180.29 697.91 1201.65 707.18 1204.84 701.33 1174.42 685.28 1070.52 659.16 914.61 639.79 898 640.12 899.52 647.09"/></g></svg>