<svg xmlns="http://www.w3.org/2000/svg" viewBox="0 0 1228.39 860.3"><defs><style>.cls-1{fill:none;stroke:#5b3009;stroke-width:15px;}.cls-2{fill:#d19859;}.cls-3{fill:#aa7752;}.cls-4{fill:#8c6144;}.cls-5{fill:#c49a62;}.cls-6{fill:#dbb57d;}.cls-7{fill:#aa7751;}.cls-8{fill:#cc812f;}.cls-9{fill:#e89e46;}.cls-10{fill:#b57245;}.cls-11{fill:#8e5624;}.cls-12{fill:#ab7852;}.cls-13{fill:#ffbe71;}.cls-14{fill:#a62;}.cls-15{fill:#8d5523;}</style></defs><g id="Layer_3" data-name="Layer 3"><path class="cls-1" d="M1237.51,765.12l6.74-12.36-9-13.2-3.09-2L1228,678.07V609.84l-5.34-58.69L1198.76,527l-73.08-29.13L968.16,451.54l-89.3-11.37-68-6.95-77.08-7.37-37.9-3.79L689.73,466l44.88,2.36,25,4L768,491.62l2,68,2.8,89.29,53.64,4.21L892,662.77l38.72,5.47,4.7,36.79,10.25,90.83,5.2,94.21,64.3,3.37,108.1,4.21,111.2,4.49,3.93-42.68-4.77-96.31ZM895,508.93l-20.84-2.74V489.76l.63-16.21,21.06,2-.64,16.95Zm56.76,30.43,1,24.22-27.16-1.37-2.43-9.37,1.06-25.59a64.87,64.87,0,0,1,5-4.84l14.42,2ZM1017.22,523l.64-21.06,15.26,3.16-.52,20.21Z" transform="translate(-24.64 -49.63)"/><polygon class="cls-1" points="11.12 212.34 64.61 152.96 143.37 91.88 241.51 48.92 314.37 16.49 361.12 7.64 389.76 13.54 389.76 22.81 338.38 25.76 276.04 47.66 192.23 84.72 132 126 76.82 162.22 11.12 229.61 11.12 212.34"/><polygon class="cls-1" points="11.12 212.34 64.61 152.96 143.37 91.88 241.51 48.92 314.37 16.49 361.12 7.64 389.76 13.54 389.76 22.81 338.38 25.76 276.04 47.66 192.23 84.72 132 126 76.82 162.22 11.12 229.61 11.12 212.34"/><polygon class="cls-1" points="11.12 229.61 17.71 234.95 72.75 185.25 129.47 136.39 196.3 100.45 268.18 65.63 369.83 28.56 389.76 30.81 389.76 22.81 338.38 25.76 263.37 53.26 192.23 84.72 132 126 76.82 162.22 11.12 229.61"/><polygon class="cls-1" points="11.12 229.61 17.71 234.95 72.75 185.25 129.47 136.39 196.3 100.45 268.18 65.63 369.83 28.56 389.76 30.81 389.76 22.81 338.38 25.76 263.37 53.26 192.23 84.72 132 126 76.82 162.22 11.12 229.61"/><polygon class="cls-1" points="29.1 224.67 129.47 136.39 196.3 100.45 268.18 65.63 369.83 28.56 383.87 44.29 399.59 89.78 438.9 189.74 287.28 207.71 183.38 244.21 128.91 263.31 64.89 304.86 35.12 321.15 25.58 334.07 28.95 276.79 30.63 239.16 29.1 224.67"/><polygon class="cls-1" points="369.83 28.56 384.43 31.65 416.44 73.21 469.51 188.9 462.21 187.49 438.9 189.74 409.14 118.63 393 70.72 383.87 44.29 369.83 28.56"/><polygon class="cls-1" points="20.8 339.96 35.12 321.15 64.89 304.86 128.91 263.31 183.38 244.21 246.48 222.04 285.26 208.42 327.55 202.94 380.06 196.71 438.9 189.74 462.21 187.49 478.21 189.74 478.21 211.36 433.29 212.2 384.43 213.33 296.26 227.37 217.36 250.67 138.95 282.96 75 323.12 41.02 345.86 14.91 363.55 20.8 339.96"/><polygon class="cls-1" points="14.91 396.12 44.95 353.72 91.84 318.62 159.51 284.09 214.55 263.59 288.26 246.88 355.44 236.35 411.67 231.72 428.51 233.61 453.58 231.72 473.37 230.21 484.32 231.51 479.27 213.19 478.21 211.36 450 211.89 416.1 212.6 384.43 213.33 328.28 222.27 296.26 227.37 256.33 239.16 217.36 250.67 159.7 274.42 138.95 282.96 108.54 302.05 70.19 326.33 39.04 347.2 14.91 363.55 14.06 376.61 14.91 396.12"/><polygon class="cls-1" points="478.21 189.74 484.32 190.86 516.33 203.29 527.28 219.08 527.28 234.03 486.43 210.45 478.21 211.36 478.21 189.74"/><polygon class="cls-1" points="520.54 258.04 527.28 247.72 527.28 234.03 486.43 210.45 478.21 211.36 484.32 231.51 490.01 232.35 520.54 258.04"/><polygon class="cls-1" points="20.59 402.72 54.29 356.81 109.25 317.22 187.59 280.15 274.92 257.13 360.84 242.81 401.42 235.79 427.85 233.54 411.67 231.72 356.79 236.24 299.38 245.14 249.19 255.74 214.55 263.59 159.51 284.09 91.84 318.62 44.95 353.72 14.91 396.12 20.59 402.72"/><polygon class="cls-1" points="490.01 232.35 520.54 258.04 527.28 359.62 506.01 357.65 494.5 261.62 490.01 232.35"/><polygon class="cls-1" points="455.19 357.37 506.01 357.65 494.5 261.62 490.01 232.35 473.37 230.21 419.55 234.25 401.42 235.79 274.92 257.13 187.59 280.15 109.25 317.22 54.29 356.81 24.42 397.5 24.42 475.31 33.16 465.2 58.15 451.16 102.23 428.41 153.62 410.72 200.51 394.72 200.79 306.06 212.87 296.16 232.24 296.16 237.86 307.39 241.23 343.61 240.94 383.77 256.95 380.96 255.26 317.22 258.92 293.07 263.69 282.68 277.73 278.47 292.05 286.61 293.73 327.33 295.14 374.22 320.41 369.45 322.66 282.4 336.13 266.96 357.47 272.57 368.14 295.32 369.27 361.87 397.63 360.18 396.22 315.53 400.44 272.29 415.04 256.29 444.24 258.04 455.19 275.52 455.19 357.37"/><polygon class="cls-1" points="571.93 400.62 573.83 399.14 569.4 377.03 506.86 369.45 519.28 397.04 543.92 397.25 571.93 400.62"/><polygon class="cls-1" points="563.93 411.14 571.93 400.62 543.92 397.25 519.28 397.04 523.49 406.09 543.71 407.77 563.93 411.14"/><polyline class="cls-1" points="506.86 369.45 519.28 397.04 486.85 396.12 427.85 398.93 360.07 401.88 269.31 407.77 189.49 432.41 146.11 446.1 64.19 476.22 21.01 507.6 17.43 492.01 57.24 460.42 133.68 425.98 233.93 396.12 331.64 377.03 396.22 372.82 473.37 368.18 506.86 369.45"/><polygon class="cls-1" points="25.58 519.39 40.74 499.74 98.3 471.94 272.95 416.06 409.42 406.79 523.49 406.09 519.28 397.04 486.85 396.12 408.02 399.79 269.31 407.77 189.49 432.41 146.11 446.1 64.19 476.22 21.01 507.6 25.58 519.39"/><polygon class="cls-1" points="26.8 517.81 40.74 499.74 98.3 471.94 272.95 416.06 409.42 406.79 523.49 406.09 533.38 406.91 571.72 589.73 493.38 586.78 370.39 588.25 294.15 589.73 255.83 590.78 109.53 608.68 34 633.95 26.8 517.81"/><polygon class="cls-1" points="533.38 406.91 563.93 411.14 570.6 470.25 582.95 547.75 605.13 591.84 644.45 597.45 659.05 666.53 702.29 753.01 720.82 789.79 739.63 840.34 716.61 839.21 686.85 782.77 659.89 718.75 638.55 668.49 630.26 649.26 626.75 644.34 635.46 644.62 627.46 633.95 571.72 627.78 460.24 627.22 427.67 626.65 368.71 626.65 310.3 627.22 205 635.08 107.01 650.24 30.91 678.88 27.96 660.28 100.83 632.69 184.44 615.84 278.57 610.37 344.91 609.31 530.02 608.26 614.26 616.68 599.73 597.52 571.72 589.73 533.38 406.91"/><polygon class="cls-1" points="46.92 833.88 198.26 833.32 259.48 832.19 311.7 832.19 418.97 833.88 542.24 835.28 633 836.34 716.61 839.21 686.85 782.77 630.26 649.26 626.75 644.34 573.4 642.66 453.23 642.1 285.31 643.78 207.25 644.9 121.89 660.28 37.84 687.3 46.92 833.88"/><polygon class="cls-1" points="564.12 412.83 634.9 414.09 709.87 418.02 734.86 422.05 737.95 429.26 719.77 427.78 672.38 425.25 597.41 423.78 565.43 424.43 564.12 412.83"/><polygon class="cls-1" points="577.62 378.08 596.99 375.55 632.79 375.55 633.63 414.07 605.62 412.83 580.99 413.13 577.62 378.08"/><path class="cls-1" d="M927.69,770.91l-6.45-104.46-94.91-14L772.7,648.2l-9.55,4.21L755.85,569l-1.69-36.79-1.75-45.77-7.69-8.31L697,474.88l-75-1.47-32,.65,8.49,66.61,23.64,4.48,14.6,19.09,2.11,28.36,4.4,50.79,25.78,3.69,14.6,69.07,43.25,86.49,18.53,36.78,17.73,47.65,45.45,4.58,36.22.28,90.41,2.25ZM725,587.76c-.79,3.54,9.27,65.71,9.27,65.71l-60-3.3c-1.53-4.1,2.1-60.51,2.1-60.51l18.11-12,17.91,1.69Z" transform="translate(-24.64 -49.63)"/><polyline class="cls-1" points="1035.03 437.68 1144.54 473.27 1147.7 556.24 1156.12 553.09 1160.96 561.57 1165.39 593.23 1165.6 656.91 1150.01 653.54 1150.86 751.47 1146.64 739.81 1133.38 729.14 1123.48 736.16 1116.95 757.15 1115.05 848.03 1047.24 845.36 1051.45 748.52 1046.61 729.77 1036.12 723.76 1037.89 635.01 1058.89 638.17 1057.63 574 1053.7 546.35 1043.45 538.34 1037.13 536.43 1035.03 437.68"/><polygon class="cls-1" points="925.73 844.63 922.3 771.21 905.93 617.95 896.6 616.83 910.64 844.55 925.73 844.63"/><polyline class="cls-1" points="1119.69 747.25 1123.48 736.16 1133.38 729.14 1146.64 739.81 1155.7 761.57 1156.75 849.71 1143.27 849.18 1142.64 773.16 1138.44 757.15 1128.53 747.25 1119.69 747.25"/><polyline class="cls-1" points="1174.08 753.17 1187.5 755.47 1188.77 851 1168.95 850.2 1170.93 759.19 1174.08 753.17"/><polyline class="cls-1" points="1174.08 753.17 1180.2 741.5 1195.71 745.78 1200.56 768.1 1201.61 851.52 1188.77 851 1187.5 755.47 1174.08 753.17"/><polyline class="cls-1" points="1189.18 501.49 1198.5 507.59 1203.22 559.54 1203.22 627.78 1207.43 687.3 1213.61 809.17 1209.68 851.85 1201.61 851.52 1200.56 768.1 1195.71 745.78 1191.71 744.3 1191.08 665.12 1176.13 662.38 1176.13 641.11 1179.5 588.04 1183.29 561.57 1189.82 561.57 1189.18 501.49"/><polygon class="cls-1" points="25.58 261.06 65.45 221.75 128.91 176.26 154.74 158.29 211.46 133.58 254.14 118.63 300.19 106.62 349.05 97.08 384.43 94.83 384.43 104.38 365.9 103.82 293.45 118.63 250.21 128.88 185.07 153.24 140.7 177.95 106.44 203.22 75 226.8 45.23 253.2 25.58 269.48 25.58 261.06"/><polygon class="cls-1" points="25.58 280.15 72.75 240.84 109.81 210.52 130.59 193.67 181.14 163.91 230.56 143.27 283.2 126.84 322.38 118.63 381.76 108.31 384.43 104.38 365.9 103.82 297.33 117.84 250.21 128.88 185.07 153.24 140.7 177.95 106.44 203.22 75 226.8 45.23 253.2 25.58 269.48 25.58 280.15"/><polygon class="cls-1" points="213.43 97.36 230.28 90.9 232.24 126.3 216.9 131.68 213.43 97.36"/><polygon class="cls-1" points="279.13 67.03 289.8 65.35 294.72 108.05 283.53 110.97 279.13 67.03"/><polygon class="cls-1" points="316.76 55.52 326.31 49.62 327.7 101.25 318.84 102.98 316.76 55.52"/><polygon class="cls-1" points="352.7 42.32 364.21 39.52 366.97 95.94 355.8 96.65 352.7 42.32"/><polygon class="cls-1" points="357.75 117.01 368.14 114.77 368.14 156.6 359.83 156.6 357.75 117.01"/><polygon class="cls-1" points="319.57 122.63 329.11 122.63 330.52 165.03 318.16 165.03 319.57 122.63"/><polygon class="cls-1" points="285.73 131.68 296.68 128.88 296.68 171.07 286.93 173.17 285.73 131.68"/><polygon class="cls-1" points="253.3 142.22 271.62 139.9 274.36 163.91 256.67 166.43 253.3 142.22"/><polygon class="cls-1" points="219.18 153.17 233.08 151.03 235.19 185.6 221.29 188.34 219.18 153.17"/><polygon class="cls-1" points="138.95 191.99 153.06 183.07 154.53 203.5 140.63 210.03 138.95 191.99"/><polygon class="cls-1" points="23.33 298.69 56.46 274.82 132 238.32 190.4 210.03 219.18 194.51 253.3 185.25 291.21 175.7 327.43 168.12 371.8 159.41 415.04 154.36 413.91 165.03 371.51 169.68 297.95 185.25 238.98 196.55 190.96 218.94 132.28 244.77 94.09 263.59 62.92 280.15 23.96 306.06 23.33 298.69"/><polygon class="cls-1" points="60.4 363.55 72.75 360.46 80.89 380.4 85.84 436.87 58.15 451.16 57.24 384.71 60.4 363.55"/><polygon class="cls-1" points="109.29 425.98 105.46 356.39 109.29 332.8 125.68 332.8 133.68 354.7 133.68 417.59 109.29 425.98"/><polygon class="cls-1" points="153.62 410.72 152.21 332.8 156 318.48 162.53 313.64 174.75 317.22 182.96 338.7 182.96 400.71 153.62 410.72"/><polygon class="cls-1" points="180.96 333.46 172.85 339.26 167.59 375.48 169.92 405.16 182.96 400.71 182.96 338.7 180.96 333.46"/><polygon class="cls-1" points="200.51 394.72 200.79 306.06 212.87 296.16 232.24 296.16 237.86 307.39 239.52 325.25 233.5 322.9 230.34 331.33 229.92 386.29 221.38 387.56 200.51 394.72"/><polygon class="cls-1" points="256.95 380.96 255.26 317.22 258.92 293.07 263.69 282.68 277.73 278.47 292.05 286.61 292.68 301.85 287.84 299.11 274.99 304.79 272.68 327.96 275.41 377.87 256.95 380.96"/><polygon class="cls-1" points="320.41 369.45 322.66 282.4 336.13 266.96 357.47 272.57 368.14 295.32 368.29 303.74 359.86 294.26 345.75 301 338.38 321.22 340.28 365.44 320.41 369.45"/><polygon class="cls-1" points="397.63 360.18 396.22 315.53 400.44 272.29 415.04 256.29 444.24 258.04 455.19 275.52 455.19 277 440.73 270.68 423.46 283.74 416.72 302.06 417.99 359.13 397.63 360.18"/><polygon class="cls-1" points="17.43 482.12 33.16 465.2 102.23 428.41 133.68 417.59 182.96 400.71 221.38 387.56 256.95 380.96 295.14 374.22 354.38 363.55 397.63 360.18 432.52 358.5 465.58 357.43 503.49 357.64 506.86 369.45 473.37 368.18 396.22 372.82 331.64 377.03 288.89 385.24 233.93 396.12 133.68 425.98 57.24 460.42 17.43 492.01 17.43 482.12"/><polygon class="cls-1" points="503.49 357.64 566.66 364.39 569.4 377.03 506.86 369.45 503.49 357.64"/><polygon class="cls-1" points="24.42 637.32 109.53 608.68 255.83 590.78 370.39 588.25 493.38 586.78 571.72 589.73 599.73 597.52 614.26 616.68 530.02 608.26 344.91 609.31 278.57 610.37 184.44 615.84 100.83 632.69 27.96 660.28 24.42 637.32"/><polygon class="cls-1" points="30.91 678.88 107.01 650.24 205 635.08 310.3 627.22 368.71 626.65 427.67 626.65 460.24 627.22 571.72 627.78 627.46 633.95 635.46 644.62 626.75 644.34 573.4 642.66 453.23 642.1 285.31 643.78 207.25 644.9 121.89 660.28 32.6 688.99 30.91 678.88"/><polygon class="cls-1" points="62.08 833.82 60.4 735.32 72.47 717.35 84.82 724.93 81.17 769.86 83.14 833.74 62.08 833.82"/><polygon class="cls-1" points="104.76 833.66 104.76 742.62 101.95 720.16 115.43 707.24 126.94 717.35 129.19 742.62 130.88 833.57 104.76 833.66"/><polygon class="cls-1" points="148.01 833.5 148.01 728.3 151.37 707.24 168.78 700.78 181.42 709.49 184.51 751.61 178.05 833.82 148.01 833.5"/><polygon class="cls-1" points="198.26 833.32 199.95 698.25 210.34 687.87 230.28 682.53 239.54 693.76 241.23 739.53 235.61 832.63 198.26 833.32"/><polygon class="cls-1" points="222.34 705.56 240.01 706.39 241.23 739.53 235.61 832.63 214.13 833.82 213.29 767.3 212.02 721.56 222.34 705.56"/><polygon class="cls-1" points="259.48 832.19 260.6 775.19 256.95 717.35 265.94 696.01 274.64 684.22 285.03 684.22 293.73 701.91 296.82 760.03 295.7 833.32 259.48 832.19"/><polygon class="cls-1" points="276.89 832.19 274.64 728.3 281.38 713.14 294.33 713.14 296.82 760.03 295.7 833.32 276.89 832.19"/><polygon class="cls-1" points="311.7 832.19 314.79 715.1 324.62 685.62 333.19 676.91 362.25 681.41 372.64 697.69 374.88 833.19 311.7 832.19"/><polygon class="cls-1" points="327.99 736.16 336.69 708.36 354.38 701.91 372.89 713.14 374.88 833.19 327.99 832.45 327.99 736.16"/><path class="cls-1" d="M443.61,883.51s1.12-82.56,1.12-83.4-.56-51.67-.56-51.67l14-23.86,27-4.5,19.38,12.36,13.2,36.22L520,830.44l-3.08,53.9Z" transform="translate(-24.64 -49.63)"/><path class="cls-1" d="M481.79,754.62l14.32-9.83,14.72,4.92s6.81,16.45,6.91,18.95L520,830.44l-3.08,53.9-39-.44V776.52Z" transform="translate(-24.64 -49.63)"/><polygon class="cls-1" points="542.24 835.28 542.24 753.85 543.92 716.51 549.82 693.2 565.82 681.69 586.6 679.72 605.98 680.85 620.58 713.7 620.58 836.19 542.24 835.28"/><polygon class="cls-1" points="586.6 707.24 595.31 694.04 611.84 694.04 620.58 713.7 620.58 836.19 583.23 835.76 586.6 707.24"/><polygon class="cls-1" points="723.98 441.68 720.82 447.58 658.27 447.58 609.21 446.31 568.13 445.68 567.33 439.39 602.26 438.52 651.03 438.52 705.87 438.52 723.98 441.68"/><polygon class="cls-1" points="716.61 456.42 716.61 464.21 674.49 465.27 627.32 465.27 570.36 463.15 568.91 451.8 601.41 453.26 642.76 454.53 680.81 455.58 716.61 456.42"/><polygon class="cls-1" points="573.91 491.04 597.55 495.52 612.15 514.62 614.5 545.77 607.73 537.29 597.41 530.97 579.58 526.61 573.91 491.04"/><polygon class="cls-1" points="651.75 540.03 654.27 509.7 674.7 495.8 693.02 495.8 708.82 515.81 718.29 603.84 709.66 603.84 700.39 538.13 687.76 529.71 669.86 528.02 651.75 540.03"/><polygon class="cls-1" points="649.26 616.54 750.59 617.95 816.85 623.63 888.74 634.16 886.49 654.73 812.36 640.69 745.81 637.04 652.21 634.16 649.26 616.54"/><polygon class="cls-1" points="653.88 642.1 714.92 643.5 783.72 646.87 847.18 653.54 887.82 664.28 888.74 669.12 841.49 663.44 783.16 656.49 655.66 650.52 653.88 642.1"/><polygon class="cls-1" points="706.22 761.43 706.22 748.52 712.4 708.64 731.49 687.02 749.74 687.02 776.98 704.71 781.75 758.63 783.44 799.9 784 842.02 765.75 840.34 738.56 837.44 720.82 789.79 706.22 761.43"/><polygon class="cls-1" points="732.33 717.91 752.55 730.83 762.38 758.06 765.75 840.34 738.56 837.44 720.82 789.79 706.22 761.43 706.22 748.52 709.79 725.48 732.33 717.91"/><polygon class="cls-1" points="820.22 842.3 815.17 770.42 821.91 720.16 838.47 702.75 862.06 706.12 881.72 719.6 891.82 756.66 888.74 844.55 865.42 843.42 820.22 842.3"/><polygon class="cls-1" points="847.18 724.93 865.15 748.24 868.24 779.12 865.42 843.42 820.22 842.3 815.17 770.42 820.25 732.48 847.18 724.93"/><polygon class="cls-1" points="62.45 624.53 59.97 578.36 62.45 533.99 70.78 519.39 80.61 512.37 89.32 522.2 89.32 615.49 62.45 624.53"/><polygon class="cls-1" points="109.53 608.68 108.13 520.02 111.78 500.3 125.54 499.45 134.95 515.32 132.21 553.09 131.94 605.94 109.53 608.68"/><polygon class="cls-1" points="148.36 603.93 151.16 512.37 153.9 492.01 163.16 484.01 178.96 490.96 182.54 521.92 184.73 599.48 148.36 603.93"/><polygon class="cls-1" points="161.48 513.49 169.48 500.86 180.1 500.86 182.32 520.02 184.73 599.48 161.48 602.33 161.48 513.49"/><polygon class="cls-1" points="199.69 597.65 202.48 489.63 207.25 469.97 219.32 463.51 233.93 463.51 240.38 480.08 239.31 592.8 199.69 597.65"/><path class="cls-1" d="M238.91,557.22c0-2,7.3-19.65,7.3-19.65H265l-1,104.86-23.36,2.4Z" transform="translate(-24.64 -49.63)"/><polygon class="cls-1" points="255.83 590.78 257.23 480.36 265.22 459.3 279.41 454.25 290.64 467.44 292.33 504.51 294.15 589.73 255.83 590.78"/><polygon class="cls-1" points="270.99 502.82 278.01 486.82 291.76 492.01 294.15 589.73 272.25 590.33 270.99 502.82"/><polygon class="cls-1" points="320.69 589.35 319.34 483.45 330.24 456.21 350.45 448.35 368.99 457.76 370.39 588.25 320.69 589.35"/><polygon class="cls-1" points="342.59 492.01 351.86 483.73 369.31 487.87 370.39 588.25 340.35 588.75 339.22 509.84 342.59 492.01"/><polygon class="cls-1" points="407.45 587.81 406.05 482.32 416.44 454.25 439.75 442.73 477.37 450.03 491.41 465.2 493.38 586.78 407.45 587.81"/><polygon class="cls-1" points="448.45 493.84 457.72 459.86 480.48 453.39 491.41 465.2 493.38 586.78 452.1 587.27 448.45 493.84"/><polygon class="cls-1" points="745.25 509.28 765.68 511.6 776.63 522.13 781.47 546.56 778.95 601 748.06 598.57 745.25 509.28"/><polygon class="cls-1" points="759.57 522.55 765.47 539.82 765.47 573.3 761.25 599.63 748.06 598.57 745.52 517.92 759.57 522.55"/><polygon class="cls-1" points="786.53 468.57 803.09 466.88 797.48 528.02 794.81 558.77 792 602.02 784.2 601.41 785.89 557.4 785.58 512.76 786 483.9 786.53 468.57"/><polygon class="cls-1" points="796.89 602.41 798.11 551.61 804 528.02 817.99 516.86 827.38 517.92 843.18 525.92 847.6 556.24 846.55 609.31 796.89 602.41"/><polygon class="cls-1" points="825.7 528.02 830.33 543.19 829.28 588.25 828.01 606.74 796.89 602.41 798.11 551.61 804 528.02 811.33 522.18 825.7 528.02"/><polygon class="cls-1" points="849.77 609.9 852.23 537.5 854.55 477.69 867.18 482.75 867.18 502.12 865.71 534.45 862.34 581.09 860.47 611.48 849.77 609.9"/><polygon class="cls-1" points="864.77 612.12 867.18 552.45 873.29 527.18 895.19 522.18 914.15 528.87 920.89 545.72 919.2 623.63 906.66 623.63 905.93 617.95 864.77 612.12"/><polygon class="cls-1" points="888.74 536.66 903.62 548.03 905.44 576.53 902.46 617.46 864.77 612.12 867.18 552.45 870.57 538.44 888.74 536.66"/><polygon class="cls-1" points="931.98 623.63 937.31 544.66 946.3 530.48 966.79 527.81 978.31 538.76 985.19 577.79 981.12 627.92 931.98 623.63"/><polygon class="cls-1" points="967.32 549.5 967.95 583.62 965.23 626.53 931.98 623.63 937.31 544.66 939.7 540.89 956.58 540.89 967.32 549.5"/><polygon class="cls-1" points="990.8 500.44 1006.67 500.44 1006.67 541.71 1002.88 581.16 999.37 618.23 997.82 637.18 988.28 636.48 992.49 583.71 990.8 547.75 990.24 522.18 990.8 500.44"/><polygon class="cls-1" points="1008.35 630.58 1007.37 609.66 1010.74 560.11 1016.07 540.89 1028.15 533.71 1043.45 538.34 1053.7 546.35 1057.63 574 1058.89 638.17 1008.35 630.58"/><polygon class="cls-1" points="1035.87 554.14 1041.98 569.72 1046.66 636.33 1008.35 630.58 1007.37 609.66 1010.74 560.11 1012.87 552.44 1024.29 550.14 1035.87 554.14"/><polygon class="cls-1" points="1060.86 648.27 1064.79 572.9 1064.79 538.2 1064.79 508.44 1081.64 510.97 1084.45 530.62 1079.67 578.36 1075.18 649.4 1060.86 648.27"/><polygon class="cls-1" points="1080.52 640.13 1084.45 568.81 1094.84 550.14 1116.74 548.31 1125.72 561.79 1127.13 596.05 1121.51 649.4 1080.52 640.13"/><polygon class="cls-1" points="1111.96 571.34 1114.49 585.94 1111.96 616.83 1107.9 646.32 1080.52 640.13 1084.45 568.81 1088.48 561.57 1097.5 561.57 1111.96 571.34"/><polygon class="cls-1" points="1139.06 576.67 1145.59 585.94 1146.64 615.42 1144.75 653.54 1133.38 652.28 1139.06 576.67"/><polygon class="cls-1" points="671.12 371.76 786.11 382.93 854.13 389.87 943.42 401.25 1100.94 447.58 1174.02 476.71 1197.89 500.86 1198.5 507.59 1189.18 501.49 1189.82 561.57 1183.29 561.57 1179.5 588.04 1176.13 641.11 1176.13 662.38 1191.08 665.12 1191.71 744.3 1180.2 741.5 1170.93 759.19 1168.95 850.2 1098.49 847.36 1028.56 844.63 1031.1 763.12 1028.01 742.62 1017.34 735.6 1020.15 727.18 1030.82 720.72 1046.61 729.77 1051.45 748.52 1047.24 845.36 1089.36 847.08 1091.68 758.41 1082.2 742.2 1066.83 740.73 1069.14 725.56 1085.15 725.14 1101.15 739.25 1102.21 847.51 1115.05 848.03 1116.95 757.15 1119.69 747.25 1128.53 747.25 1138.22 756.31 1142.64 773.16 1143.27 849.18 1156.75 849.71 1155.7 761.57 1150.86 751.47 1150.01 653.54 1165.6 656.91 1165.39 593.23 1160.96 561.57 1156.12 553.09 1147.7 556.24 1144.54 473.27 1072.65 450.74 1035.03 437.68 952.9 413.46 871.08 402.51 722.79 386.01 699.76 382.64 669.76 381.53 671.12 371.76"/><polygon class="cls-1" points="849.77 412.83 880.59 413.53 879.89 460.28 870.24 458.63 871.08 425.25 850.02 423.25 849.77 412.83"/><polygon class="cls-1" points="904.46 472.11 911.51 464.74 934.13 467.69 943.21 487.49 940.58 514.34 928.05 513.28 926.99 489.06 918.88 474.11 904.46 472.11"/><polygon class="cls-1" points="993.12 451.68 993.12 437.26 1020.71 442.31 1019.65 476.64 1007.86 475.06 1008.39 454.84 993.12 451.68"/><polygon class="cls-1" points="1103.82 501.7 1103.82 469.48 1119.48 473.69 1117.79 503.81 1103.82 501.7"/><polygon class="cls-1" points="1159.7 493.91 1175.28 500.86 1173.39 528.24 1162.44 528.24 1159.7 493.91"/><polygon class="cls-1" points="918.2 721.78 918.2 662.03 935.63 665.96 934.13 729.14 932.82 785.58 931.09 840.04 926.08 839.77 922.3 771.21 918.2 721.78"/><polygon class="cls-1" points="995.72 669.12 1006.11 671.58 1004.7 734.2 1002.17 799.62 1000.91 843.42 990.38 843.14 992.07 787.55 995.44 723.25 995.72 669.12"/><polygon class="cls-1" points="940.67 840.54 937.03 773.65 943.49 732.51 962.58 712.58 975.78 715.1 988.98 741.5 986.71 842.95 940.67 840.54"/><polygon class="cls-1" points="963 732.51 969.6 749.36 968.2 841.98 940.67 840.54 937.03 773.65 943.49 732.51 950.75 724.93 963 732.51"/><polygon class="cls-1" points="1011.16 753.85 1017.34 735.6 1028.01 742.62 1031.1 763.12 1028.56 844.63 1004.14 843.68 1011.16 753.85"/><polygon class="cls-1" points="1057.77 845.77 1066.83 740.73 1082.2 742.2 1091.68 758.41 1089.36 847.08 1057.77 845.77"/><polygon class="cls-1" points="719.77 427.78 737.95 429.26 743.28 441.33 748.06 598.57 738.51 602.79 732.26 531.37 727.77 436.84 719.77 427.78"/><polygon class="cls-1" points="1170.93 759.19 1174.08 753.17 1187.5 755.47 1188.77 851 1168.95 850.2 1170.93 759.19"/><polygon class="cls-1" points="909.12 642.85 925.73 642.1 1037.55 652.19 1103.82 664 1210.52 689.27 1219.51 702.47 1215.96 708.98 1185.53 692.92 1081.64 666.81 1037.39 660.07 925.73 647.43 909.12 647.77 909.12 642.85"/><polygon class="cls-1" points="910.64 654.73 942.25 656.14 1040.36 667.65 1104.95 678.04 1191.4 705.55 1212.77 714.82 1215.96 708.98 1185.53 692.92 1081.64 666.81 925.73 647.43 909.12 647.77 910.64 654.73"/><path class="cls-2" d="M1237.51,765.12l6.74-12.36-9-13.2-3.09-2L1228,678.07V609.84l-5.34-58.69L1198.76,527l-73.08-29.13L968.16,451.54l-89.3-11.37-68-6.95-77.08-7.37-37.9-3.79L689.73,466l44.88,2.36,25,4L768,491.62l2,68,2.8,89.29,53.64,4.21L892,662.77l38.72,5.47,4.7,36.79,10.25,90.83,5.2,94.21,64.3,3.37,108.1,4.21,111.2,4.49,3.93-42.68-4.77-96.31ZM895,508.93l-20.84-2.74V489.76l.63-16.21,21.06,2-.64,16.95Zm56.76,30.43,1,24.22-27.16-1.37-2.43-9.37,1.06-25.59a64.87,64.87,0,0,1,5-4.84l14.42,2ZM1017.22,523l.64-21.06,15.26,3.16-.52,20.21Z" transform="translate(-24.64 -49.63)"/><polygon class="cls-3" points="11.12 212.34 64.61 152.96 143.37 91.88 241.51 48.92 314.37 16.49 361.12 7.64 389.76 13.54 389.76 22.81 338.38 25.76 276.04 47.66 192.23 84.72 132 126 76.82 162.22 11.12 229.61 11.12 212.34"/><polygon class="cls-4" points="11.12 229.61 17.71 234.95 72.75 185.25 129.47 136.39 196.3 100.45 268.18 65.63 369.83 28.56 389.76 30.81 389.76 22.81 338.38 25.76 263.37 53.26 192.23 84.72 132 126 76.82 162.22 11.12 229.61"/><polygon class="cls-5" points="29.1 224.67 129.47 136.39 196.3 100.45 268.18 65.63 369.83 28.56 383.87 44.29 399.59 89.78 438.9 189.74 287.28 207.71 183.38 244.21 128.91 263.31 64.89 304.86 35.12 321.15 25.58 334.07 28.95 276.79 30.63 239.16 29.1 224.67"/><polygon class="cls-3" points="369.83 28.56 384.43 31.65 416.44 73.21 469.51 188.9 462.21 187.49 438.9 189.74 409.14 118.63 393 70.72 383.87 44.29 369.83 28.56"/><polygon class="cls-6" points="20.8 339.96 35.12 321.15 64.89 304.86 128.91 263.31 183.38 244.21 246.48 222.04 285.26 208.42 327.55 202.94 380.06 196.71 438.9 189.74 462.21 187.49 478.21 189.74 478.21 211.36 433.29 212.2 384.43 213.33 296.26 227.37 217.36 250.67 138.95 282.96 75 323.12 41.02 345.86 14.91 363.55 20.8 339.96"/><polygon class="cls-5" points="14.91 396.12 44.95 353.72 91.84 318.62 159.51 284.09 214.55 263.59 288.26 246.88 355.44 236.35 411.67 231.72 428.51 233.61 453.58 231.72 473.37 230.21 484.32 231.51 479.27 213.19 478.21 211.36 450 211.89 416.1 212.6 384.43 213.33 328.28 222.27 296.26 227.37 256.33 239.16 217.36 250.67 159.7 274.42 138.95 282.96 108.54 302.05 70.19 326.33 39.04 347.2 14.91 363.55 14.06 376.61 14.91 396.12"/><polygon class="cls-5" points="478.21 189.74 484.32 190.86 516.33 203.29 527.28 219.08 527.28 234.03 486.43 210.45 478.21 211.36 478.21 189.74"/><polygon class="cls-3" points="520.54 258.04 527.28 247.72 527.28 234.03 486.43 210.45 478.21 211.36 484.32 231.51 490.01 232.35 520.54 258.04"/><polygon class="cls-7" points="20.59 402.72 54.29 356.81 109.25 317.22 187.59 280.15 274.92 257.13 360.84 242.81 401.42 235.79 427.85 233.54 411.67 231.72 356.79 236.24 299.38 245.14 249.19 255.74 214.55 263.59 159.51 284.09 91.84 318.62 44.95 353.72 14.91 396.12 20.59 402.72"/><polygon class="cls-5" points="490.01 232.35 520.54 258.04 527.28 359.62 506.01 357.65 494.5 261.62 490.01 232.35"/><polygon class="cls-6" points="455.19 357.37 506.01 357.65 494.5 261.62 490.01 232.35 473.37 230.21 419.55 234.25 401.42 235.79 274.92 257.13 187.59 280.15 109.25 317.22 54.29 356.81 24.42 397.5 24.42 475.31 33.16 465.2 58.15 451.16 102.23 428.41 153.62 410.72 200.51 394.72 200.79 306.06 212.87 296.16 232.24 296.16 237.86 307.39 241.23 343.61 240.94 383.77 256.95 380.96 255.26 317.22 258.92 293.07 263.69 282.68 277.73 278.47 292.05 286.61 293.73 327.33 295.14 374.22 320.41 369.45 322.66 282.4 336.13 266.96 357.47 272.57 368.14 295.32 369.27 361.87 397.63 360.18 396.22 315.53 400.44 272.29 415.04 256.29 444.24 258.04 455.19 275.52 455.19 357.37"/><polygon class="cls-3" points="571.93 400.62 573.83 399.14 569.4 377.03 506.86 369.45 519.28 397.04 543.92 397.25 571.93 400.62"/><polygon class="cls-4" points="563.93 411.14 571.93 400.62 543.92 397.25 519.28 397.04 523.49 406.09 543.71 407.77 563.93 411.14"/><polyline class="cls-5" points="506.86 369.45 519.28 397.04 486.85 396.12 427.85 398.93 360.07 401.88 269.31 407.77 189.49 432.41 146.11 446.1 64.19 476.22 21.01 507.6 17.43 492.01 57.24 460.42 133.68 425.98 233.93 396.12 331.64 377.03 396.22 372.82 473.37 368.18 506.86 369.45"/><polygon class="cls-3" points="25.58 519.39 40.74 499.74 98.3 471.94 272.95 416.06 409.42 406.79 523.49 406.09 519.28 397.04 486.85 396.12 408.02 399.79 269.31 407.77 189.49 432.41 146.11 446.1 64.19 476.22 21.01 507.6 25.58 519.39"/><polygon class="cls-6" points="26.8 517.81 40.74 499.74 98.3 471.94 272.95 416.06 409.42 406.79 523.49 406.09 533.38 406.91 571.72 589.73 493.38 586.78 370.39 588.25 294.15 589.73 255.83 590.78 109.53 608.68 34 633.95 26.8 517.81"/><polygon class="cls-5" points="533.38 406.91 563.93 411.14 570.6 470.25 582.95 547.75 605.13 591.84 644.45 597.45 659.05 666.53 702.29 753.01 720.82 789.79 739.63 840.34 716.61 839.21 686.85 782.77 659.89 718.75 638.55 668.49 630.26 649.26 626.75 644.34 635.46 644.62 627.46 633.95 571.72 627.78 460.24 627.22 427.67 626.65 368.71 626.65 310.3 627.22 205 635.08 107.01 650.24 30.91 678.88 27.96 660.28 100.83 632.69 184.44 615.84 278.57 610.37 344.91 609.31 530.02 608.26 614.26 616.68 599.73 597.52 571.72 589.73 533.38 406.91"/><polygon class="cls-6" points="46.92 833.88 198.26 833.32 259.48 832.19 311.7 832.19 418.97 833.88 542.24 835.28 633 836.34 716.61 839.21 686.85 782.77 630.26 649.26 626.75 644.34 573.4 642.66 453.23 642.1 285.31 643.78 207.25 644.9 121.89 660.28 37.84 687.3 46.92 833.88"/><polygon class="cls-8" points="564.12 412.83 634.9 414.09 709.87 418.02 734.86 422.05 737.95 429.26 719.77 427.78 672.38 425.25 597.41 423.78 565.43 424.43 564.12 412.83"/><polygon class="cls-9" points="577.62 378.08 596.99 375.55 632.79 375.55 633.63 414.07 605.62 412.83 580.99 413.13 577.62 378.08"/><path class="cls-9" d="M927.69,770.91l-6.45-104.46-94.91-14L772.7,648.2l-9.55,4.21L755.85,569l-1.69-36.79-1.75-45.77-7.69-8.31L697,474.88l-75-1.47-32,.65,8.49,66.61,23.64,4.48,14.6,19.09,2.11,28.36,4.4,50.79,25.78,3.69,14.6,69.07,43.25,86.49,18.53,36.78,17.73,47.65,45.45,4.58,36.22.28,90.41,2.25ZM725,587.76c-.79,3.54,9.27,65.71,9.27,65.71l-60-3.3c-1.53-4.1,2.1-60.51,2.1-60.51l18.11-12,17.91,1.69Z" transform="translate(-24.64 -49.63)"/><polyline class="cls-10" points="1035.03 437.68 1144.54 473.27 1147.7 556.24 1156.12 553.09 1160.96 561.57 1165.39 593.23 1165.6 656.91 1150.01 653.54 1150.86 751.47 1146.64 739.81 1133.38 729.14 1123.48 736.16 1116.95 757.15 1115.05 848.03 1047.24 845.36 1051.45 748.52 1046.61 729.77 1036.12 723.76 1037.89 635.01 1058.89 638.17 1057.63 574 1053.7 546.35 1043.45 538.34 1037.13 536.43 1035.03 437.68"/><polygon class="cls-8" points="925.73 844.63 922.3 771.21 905.93 617.95 896.6 616.83 910.64 844.55 925.73 844.63"/><polyline class="cls-11" points="1119.69 747.25 1123.48 736.16 1133.38 729.14 1146.64 739.81 1155.7 761.57 1156.75 849.71 1143.27 849.18 1142.64 773.16 1138.44 757.15 1128.53 747.25 1119.69 747.25"/><polyline class="cls-10" points="1174.08 753.17 1180.2 741.5 1195.71 745.78 1200.56 768.1 1201.61 851.52 1188.77 851 1187.5 755.47 1174.08 753.17"/><polyline class="cls-11" points="1189.18 501.49 1198.5 507.59 1203.22 559.54 1203.22 627.78 1207.43 687.3 1213.61 809.17 1209.68 851.85 1201.61 851.52 1200.56 768.1 1195.71 745.78 1191.71 744.3 1191.08 665.12 1176.13 662.38 1176.13 641.11 1179.5 588.04 1183.29 561.57 1189.82 561.57 1189.18 501.49"/><polygon class="cls-6" points="25.58 261.06 65.45 221.75 128.91 176.26 154.74 158.29 211.46 133.58 254.14 118.63 300.19 106.62 349.05 97.08 384.43 94.83 384.43 104.38 365.9 103.82 293.45 118.63 250.21 128.88 185.07 153.24 140.7 177.95 106.44 203.22 75 226.8 45.23 253.2 25.58 269.48 25.58 261.06"/><polygon class="cls-12" points="25.58 280.15 72.75 240.84 109.81 210.52 130.59 193.67 181.14 163.91 230.56 143.27 283.2 126.84 322.38 118.63 381.76 108.31 384.43 104.38 365.9 103.82 297.33 117.84 250.21 128.88 185.07 153.24 140.7 177.95 106.44 203.22 75 226.8 45.23 253.2 25.58 269.48 25.58 280.15"/><polygon class="cls-6" points="213.43 97.36 230.28 90.9 232.24 126.3 216.9 131.68 213.43 97.36"/><polygon class="cls-6" points="279.13 67.03 289.8 65.35 294.72 108.05 283.53 110.97 279.13 67.03"/><polygon class="cls-6" points="316.76 55.52 326.31 49.62 327.7 101.25 318.84 102.98 316.76 55.52"/><polygon class="cls-6" points="352.7 42.32 364.21 39.52 366.97 95.94 355.8 96.65 352.7 42.32"/><polygon class="cls-6" points="357.75 117.01 368.14 114.77 368.14 156.6 359.83 156.6 357.75 117.01"/><polygon class="cls-6" points="319.57 122.63 329.11 122.63 330.52 165.03 318.16 165.03 319.57 122.63"/><polygon class="cls-6" points="285.73 131.68 296.68 128.88 296.68 171.07 286.93 173.17 285.73 131.68"/><polygon class="cls-4" points="253.3 142.22 271.62 139.9 274.36 163.91 256.67 166.43 253.3 142.22"/><polygon class="cls-6" points="219.18 153.17 233.08 151.03 235.19 185.6 221.29 188.34 219.18 153.17"/><polygon class="cls-4" points="138.95 191.99 153.06 183.07 154.53 203.5 140.63 210.03 138.95 191.99"/><polygon class="cls-3" points="23.33 298.69 56.46 274.82 132 238.32 190.4 210.03 219.18 194.51 253.3 185.25 291.21 175.7 327.43 168.12 371.8 159.41 415.04 154.36 413.91 165.03 371.51 169.68 297.95 185.25 238.98 196.55 190.96 218.94 132.28 244.77 94.09 263.59 62.92 280.15 23.96 306.06 23.33 298.69"/><polygon class="cls-3" points="60.4 363.55 72.75 360.46 80.89 380.4 85.84 436.87 58.15 451.16 57.24 384.71 60.4 363.55"/><polygon class="cls-3" points="109.29 425.98 105.46 356.39 109.29 332.8 125.68 332.8 133.68 354.7 133.68 417.59 109.29 425.98"/><polygon class="cls-4" points="153.62 410.72 152.21 332.8 156 318.48 162.53 313.64 174.75 317.22 182.96 338.7 182.96 400.71 153.62 410.72"/><polygon class="cls-3" points="180.96 333.46 172.85 339.26 167.59 375.48 169.92 405.16 182.96 400.71 182.96 338.7 180.96 333.46"/><polygon class="cls-3" points="200.51 394.72 200.79 306.06 212.87 296.16 232.24 296.16 237.86 307.39 239.52 325.25 233.5 322.9 230.34 331.33 229.92 386.29 221.38 387.56 200.51 394.72"/><polygon class="cls-3" points="256.95 380.96 255.26 317.22 258.92 293.07 263.69 282.68 277.73 278.47 292.05 286.61 292.68 301.85 287.84 299.11 274.99 304.79 272.68 327.96 275.41 377.87 256.95 380.96"/><polygon class="cls-3" points="320.41 369.45 322.66 282.4 336.13 266.96 357.47 272.57 368.14 295.32 368.29 303.74 359.86 294.26 345.75 301 338.38 321.22 340.28 365.44 320.41 369.45"/><polygon class="cls-3" points="397.63 360.18 396.22 315.53 400.44 272.29 415.04 256.29 444.24 258.04 455.19 275.52 455.19 277 440.73 270.68 423.46 283.74 416.72 302.06 417.99 359.13 397.63 360.18"/><polygon class="cls-13" points="17.43 482.12 33.16 465.2 102.23 428.41 133.68 417.59 182.96 400.71 221.38 387.56 256.95 380.96 295.14 374.22 354.38 363.55 397.63 360.18 432.52 358.5 465.58 357.43 503.49 357.64 506.86 369.45 473.37 368.18 396.22 372.82 331.64 377.03 288.89 385.24 233.93 396.12 133.68 425.98 57.24 460.42 17.43 492.01 17.43 482.12"/><polygon class="cls-9" points="503.49 357.64 566.66 364.39 569.4 377.03 506.86 369.45 503.49 357.64"/><polygon class="cls-13" points="24.42 637.32 109.53 608.68 255.83 590.78 370.39 588.25 493.38 586.78 571.72 589.73 599.73 597.52 614.26 616.68 530.02 608.26 344.91 609.31 278.57 610.37 184.44 615.84 100.83 632.69 27.96 660.28 24.42 637.32"/><polygon class="cls-3" points="30.91 678.88 107.01 650.24 205 635.08 310.3 627.22 368.71 626.65 427.67 626.65 460.24 627.22 571.72 627.78 627.46 633.95 635.46 644.62 626.75 644.34 573.4 642.66 453.23 642.1 285.31 643.78 207.25 644.9 121.89 660.28 32.6 688.99 30.91 678.88"/><polygon class="cls-4" points="62.08 833.82 60.4 735.32 72.47 717.35 84.82 724.93 81.17 769.86 83.14 833.74 62.08 833.82"/><polygon class="cls-4" points="104.76 833.66 104.76 742.62 101.95 720.16 115.43 707.24 126.94 717.35 129.19 742.62 130.88 833.57 104.76 833.66"/><polygon class="cls-4" points="148.01 833.5 148.01 728.3 151.37 707.24 168.78 700.78 181.42 709.49 184.51 751.61 178.05 833.82 148.01 833.5"/><polygon class="cls-3" points="198.26 833.32 199.95 698.25 210.34 687.87 230.28 682.53 239.54 693.76 241.23 739.53 235.61 832.63 198.26 833.32"/><polygon class="cls-4" points="222.34 705.56 240.01 706.39 241.23 739.53 235.61 832.63 214.13 833.82 213.29 767.3 212.02 721.56 222.34 705.56"/><polygon class="cls-3" points="259.48 832.19 260.6 775.19 256.95 717.35 265.94 696.01 274.64 684.22 285.03 684.22 293.73 701.91 296.82 760.03 295.7 833.32 259.48 832.19"/><polygon class="cls-4" points="276.89 832.19 274.64 728.3 281.38 713.14 294.33 713.14 296.82 760.03 295.7 833.32 276.89 832.19"/><polygon class="cls-3" points="311.7 832.19 314.79 715.1 324.62 685.62 333.19 676.91 362.25 681.41 372.64 697.69 374.88 833.19 311.7 832.19"/><polygon class="cls-4" points="327.99 736.16 336.69 708.36 354.38 701.91 372.89 713.14 374.88 833.19 327.99 832.45 327.99 736.16"/><path class="cls-3" d="M443.61,883.51s1.12-82.56,1.12-83.4-.56-51.67-.56-51.67l14-23.86,27-4.5,19.38,12.36,13.2,36.22L520,830.44l-3.08,53.9Z" transform="translate(-24.64 -49.63)"/><path class="cls-4" d="M481.79,754.62l14.32-9.83,14.72,4.92s6.81,16.45,6.91,18.95L520,830.44l-3.08,53.9-39-.44V776.52Z" transform="translate(-24.64 -49.63)"/><polygon class="cls-3" points="542.24 835.28 542.24 753.85 543.92 716.51 549.82 693.2 565.82 681.69 586.6 679.72 605.98 680.85 620.58 713.7 620.58 836.19 542.24 835.28"/><polygon class="cls-4" points="586.6 707.24 595.31 694.04 611.84 694.04 620.58 713.7 620.58 836.19 583.23 835.76 586.6 707.24"/><polygon class="cls-8" points="723.98 441.68 720.82 447.58 658.27 447.58 609.21 446.31 568.13 445.68 567.33 439.39 602.26 438.52 651.03 438.52 705.87 438.52 723.98 441.68"/><polygon class="cls-8" points="716.61 456.42 716.61 464.21 674.49 465.27 627.32 465.27 570.36 463.15 568.91 451.8 601.41 453.26 642.76 454.53 680.81 455.58 716.61 456.42"/><polygon class="cls-8" points="573.91 491.04 597.55 495.52 612.15 514.62 614.5 545.77 607.73 537.29 597.41 530.97 579.58 526.61 573.91 491.04"/><polygon class="cls-8" points="651.75 540.03 654.27 509.7 674.7 495.8 693.02 495.8 708.82 515.81 718.29 603.84 709.66 603.84 700.39 538.13 687.76 529.71 669.86 528.02 651.75 540.03"/><polygon class="cls-13" points="649.26 616.54 750.59 617.95 816.85 623.63 888.74 634.16 886.49 654.73 812.36 640.69 745.81 637.04 652.21 634.16 649.26 616.54"/><polygon class="cls-13" points="653.88 642.1 714.92 643.5 783.72 646.87 847.18 653.54 887.82 664.28 888.74 669.12 841.49 663.44 783.16 656.49 655.66 650.52 653.88 642.1"/><polygon class="cls-8" points="706.22 761.43 706.22 748.52 712.4 708.64 731.49 687.02 749.74 687.02 776.98 704.71 781.75 758.63 783.44 799.9 784 842.02 765.75 840.34 738.56 837.44 720.82 789.79 706.22 761.43"/><polygon class="cls-14" points="732.33 717.91 752.55 730.83 762.38 758.06 765.75 840.34 738.56 837.44 720.82 789.79 706.22 761.43 706.22 748.52 709.79 725.48 732.33 717.91"/><polygon class="cls-8" points="820.22 842.3 815.17 770.42 821.91 720.16 838.47 702.75 862.06 706.12 881.72 719.6 891.82 756.66 888.74 844.55 865.42 843.42 820.22 842.3"/><polygon class="cls-14" points="847.18 724.93 865.15 748.24 868.24 779.12 865.42 843.42 820.22 842.3 815.17 770.42 820.25 732.48 847.18 724.93"/><polygon class="cls-3" points="62.45 624.53 59.97 578.36 62.45 533.99 70.78 519.39 80.61 512.37 89.32 522.2 89.32 615.49 62.45 624.53"/><polygon class="cls-3" points="109.53 608.68 108.13 520.02 111.78 500.3 125.54 499.45 134.95 515.32 132.21 553.09 131.94 605.94 109.53 608.68"/><polygon class="cls-4" points="148.36 603.93 151.16 512.37 153.9 492.01 163.16 484.01 178.96 490.96 182.54 521.92 184.73 599.48 148.36 603.93"/><polygon class="cls-3" points="161.48 513.49 169.48 500.86 180.1 500.86 182.32 520.02 184.73 599.48 161.48 602.33 161.48 513.49"/><polygon class="cls-4" points="199.69 597.65 202.48 489.63 207.25 469.97 219.32 463.51 233.93 463.51 240.38 480.08 239.31 592.8 199.69 597.65"/><path class="cls-3" d="M238.91,557.22c0-2,7.3-19.65,7.3-19.65H265l-1,104.86-23.36,2.4Z" transform="translate(-24.64 -49.63)"/><polygon class="cls-4" points="255.83 590.78 257.23 480.36 265.22 459.3 279.41 454.25 290.64 467.44 292.33 504.51 294.15 589.73 255.83 590.78"/><polygon class="cls-3" points="270.99 502.82 278.01 486.82 291.76 492.01 294.15 589.73 272.25 590.33 270.99 502.82"/><polygon class="cls-4" points="320.69 589.35 319.34 483.45 330.24 456.21 350.45 448.35 368.99 457.76 370.39 588.25 320.69 589.35"/><polygon class="cls-3" points="342.59 492.01 351.86 483.73 369.31 487.87 370.39 588.25 340.35 588.75 339.22 509.84 342.59 492.01"/><polygon class="cls-4" points="407.45 587.81 406.05 482.32 416.44 454.25 439.75 442.73 477.37 450.03 491.41 465.2 493.38 586.78 407.45 587.81"/><polygon class="cls-3" points="448.45 493.84 457.72 459.86 480.48 453.39 491.41 465.2 493.38 586.78 452.1 587.27 448.45 493.84"/><polygon class="cls-14" points="745.25 509.28 765.68 511.6 776.63 522.13 781.47 546.56 778.95 601 748.06 598.57 745.25 509.28"/><polygon class="cls-11" points="759.57 522.55 765.47 539.82 765.47 573.3 761.25 599.63 748.06 598.57 745.52 517.92 759.57 522.55"/><polygon class="cls-6" points="786.53 468.57 803.09 466.88 797.48 528.02 794.81 558.77 792 602.02 784.2 601.41 785.89 557.4 785.58 512.76 786 483.9 786.53 468.57"/><polygon class="cls-10" points="796.89 602.41 798.11 551.61 804 528.02 817.99 516.86 827.38 517.92 843.18 525.92 847.6 556.24 846.55 609.31 796.89 602.41"/><polygon class="cls-11" points="825.7 528.02 830.33 543.19 829.28 588.25 828.01 606.74 796.89 602.41 798.11 551.61 804 528.02 811.33 522.18 825.7 528.02"/><polygon class="cls-6" points="849.77 609.9 852.23 537.5 854.55 477.69 867.18 482.75 867.18 502.12 865.71 534.45 862.34 581.09 860.47 611.48 849.77 609.9"/><polygon class="cls-10" points="864.77 612.12 867.18 552.45 873.29 527.18 895.19 522.18 914.15 528.87 920.89 545.72 919.2 623.63 906.66 623.63 905.93 617.95 864.77 612.12"/><polygon class="cls-11" points="888.74 536.66 903.62 548.03 905.44 576.53 902.46 617.46 864.77 612.12 867.18 552.45 870.57 538.44 888.74 536.66"/><polygon class="cls-11" points="967.32 549.5 967.95 583.62 965.23 626.53 931.98 623.63 937.31 544.66 939.7 540.89 956.58 540.89 967.32 549.5"/><polygon class="cls-6" points="990.8 500.44 1006.67 500.44 1006.67 541.71 1002.88 581.16 999.37 618.23 997.82 637.18 988.28 636.48 992.49 583.71 990.8 547.75 990.24 522.18 990.8 500.44"/><polygon class="cls-11" points="1008.35 630.58 1007.37 609.66 1010.74 560.11 1016.07 540.89 1028.15 533.71 1043.45 538.34 1053.7 546.35 1057.63 574 1058.89 638.17 1008.35 630.58"/><polygon class="cls-14" points="1035.87 554.14 1041.98 569.72 1046.66 636.33 1008.35 630.58 1007.37 609.66 1010.74 560.11 1012.87 552.44 1024.29 550.14 1035.87 554.14"/><polygon class="cls-6" points="1060.86 648.27 1064.79 572.9 1064.79 538.2 1064.79 508.44 1081.64 510.97 1084.45 530.62 1079.67 578.36 1075.18 649.4 1060.86 648.27"/><polygon class="cls-2" points="1080.52 640.13 1084.45 568.81 1094.84 550.14 1116.74 548.31 1125.72 561.79 1127.13 596.05 1121.51 649.4 1080.52 640.13"/><polygon class="cls-11" points="1111.96 571.34 1114.49 585.94 1111.96 616.83 1107.9 646.32 1080.52 640.13 1084.45 568.81 1088.48 561.57 1097.5 561.57 1111.96 571.34"/><polygon class="cls-11" points="1139.06 576.67 1145.59 585.94 1146.64 615.42 1144.75 653.54 1133.38 652.28 1139.06 576.67"/><polygon class="cls-14" points="671.12 371.76 786.11 382.93 854.13 389.87 943.42 401.25 1100.94 447.58 1174.02 476.71 1197.89 500.86 1198.5 507.59 1189.18 501.49 1189.82 561.57 1183.29 561.57 1179.5 588.04 1176.13 641.11 1176.13 662.38 1191.08 665.12 1191.71 744.3 1180.2 741.5 1170.93 759.19 1168.95 850.2 1098.49 847.36 1028.56 844.63 1031.1 763.12 1028.01 742.62 1017.34 735.6 1020.15 727.18 1030.82 720.72 1046.61 729.77 1051.45 748.52 1047.24 845.36 1089.36 847.08 1091.68 758.41 1082.2 742.2 1066.83 740.73 1069.14 725.56 1085.15 725.14 1101.15 739.25 1102.21 847.51 1115.05 848.03 1116.95 757.15 1119.69 747.25 1128.53 747.25 1138.22 756.31 1142.64 773.16 1143.27 849.18 1156.75 849.71 1155.7 761.57 1150.86 751.47 1150.01 653.54 1165.6 656.91 1165.39 593.23 1160.96 561.57 1156.12 553.09 1147.7 556.24 1144.54 473.27 1072.65 450.74 1035.03 437.68 952.9 413.46 871.08 402.51 722.79 386.01 699.76 382.64 669.76 381.53 671.12 371.76"/><polygon class="cls-14" points="849.77 412.83 880.59 413.53 879.89 460.28 870.24 458.63 871.08 425.25 850.02 423.25 849.77 412.83"/><polygon class="cls-11" points="904.46 472.11 911.51 464.74 934.13 467.69 943.21 487.49 940.58 514.34 928.05 513.28 926.99 489.06 918.88 474.11 904.46 472.11"/><polygon class="cls-14" points="993.12 451.68 993.12 437.26 1020.71 442.31 1019.65 476.64 1007.86 475.06 1008.39 454.84 993.12 451.68"/><polygon class="cls-11" points="1103.82 501.7 1103.82 469.48 1119.48 473.69 1117.79 503.81 1103.82 501.7"/><polygon class="cls-6" points="918.2 721.78 918.2 662.03 935.63 665.96 934.13 729.14 932.82 785.58 931.09 840.04 926.08 839.77 922.3 771.21 918.2 721.78"/><polygon class="cls-6" points="995.72 669.12 1006.11 671.58 1004.7 734.2 1002.17 799.62 1000.91 843.42 990.38 843.14 992.07 787.55 995.44 723.25 995.72 669.12"/><polygon class="cls-10" points="940.67 840.54 937.03 773.65 943.49 732.51 962.58 712.58 975.78 715.1 988.98 741.5 986.71 842.95 940.67 840.54"/><polygon class="cls-11" points="963 732.51 969.6 749.36 968.2 841.98 940.67 840.54 937.03 773.65 943.49 732.51 950.75 724.93 963 732.51"/><polygon class="cls-11" points="1011.16 753.85 1017.34 735.6 1028.01 742.62 1031.1 763.12 1028.56 844.63 1004.14 843.68 1011.16 753.85"/><polygon class="cls-11" points="1057.77 845.77 1066.83 740.73 1082.2 742.2 1091.68 758.41 1089.36 847.08 1057.77 845.77"/><polygon class="cls-14" points="719.77 427.78 737.95 429.26 743.28 441.33 748.06 598.57 738.51 602.79 732.26 531.37 727.77 436.84 719.77 427.78"/><polygon class="cls-11" points="1170.93 759.19 1174.08 753.17 1187.5 755.47 1188.77 851 1168.95 850.2 1170.93 759.19"/><polygon class="cls-6" points="909.12 642.85 925.73 642.1 1037.55 652.19 1103.82 664 1210.52 689.27 1219.51 702.47 1215.96 708.98 1185.53 692.92 1081.64 666.81 1037.39 660.07 925.73 647.43 909.12 647.77 909.12 642.85"/><polygon class="cls-15" points="910.64 654.73 942.25 656.14 1040.36 667.65 1104.95 678.04 1191.4 705.55 1212.77 714.82 1215.96 708.98 1185.53 692.92 1081.64 666.81 925.73 647.43 909.12 647.77 910.64 654.73"/></g></svg>