<svg id="Layer_1" data-name="Layer 1" xmlns="http://www.w3.org/2000/svg" viewBox="0 0 1123.48 521.72"><defs><style>.cls-1{fill:none;stroke:#71bfea;stroke-linejoin:round;stroke-width:9px;}.cls-2{fill:#dceef8;}.cls-3{fill:#f9feff;}.cls-4{fill:#b5d6ec;}</style></defs><g id="Layer_2" data-name="Layer 2"><path class="cls-1" d="M1126.74,519.36H12.26L24,507.62,36.72,489l21.53-34.25,8.81-19.57,17.61-13.7,4.89-13.7-2.93-21.52,6.84-9.79,13.7-28.37,27.4-18.59,18.59-7.83,12.72-17.61s25.44-16.64,26.42-16.64,11.74,2,11.74,2l11.74-2s21.53-5.87,21.53-6.85S250,259.09,250,259.09l19.57-4.9,20.55-16.63,30.33-25.44,16.63-24.46L352.77,172l15.65-34.24,12.72-19.57L387,96.66l10.76-9.78,15.65-2.94L433,52.63l24.47-10.76,28.37-18.6L510.3,11.53h19.57l89-4.89,3.92,11.74L636.53,35l10.76,15.65V67.31l2.93,7.82,4.9,3.92,2,5.87-2,12.72,10.76,14.68,21.53,22.5L704,147.54,714.8,163.2l22.51,13.69,4.89,8.81L750,204.29l15.65,22.51,12.72,16.63,22.51,22.51,18.59,28.37,15.65,47.95,46-16.64,57.73-29.35,7.83,19.57,15.66,13.7S980,342.26,981,342.26s11.74,7.82,11.74,7.82l11.74,26.42L1022,401.94l18.59,21.53,18.59,16.63,9.79,18.59,17.61,24.47,8.81,14.67,15.65,14.68,6.85,3.91Z" transform="translate(-7.76 -2.14)"/></g><g id="Layer_3" data-name="Layer 3"><path class="cls-1" d="M206,289.42l-8.81,6.85L172.73,309l-2,2.93v10.77L160,331.49l-4.89,5.87-8.81,26.42,4.89-2.93L160,353l4.89-6.85,1-10.76s9.79-5.87,9.79-6.85,9.78-8.81,9.78-8.81l-1,10.76L170.77,355l-21.52,17.61,1,9.78-9.79,4.9-8.81,1-1,11.75-18.59,24.46L97.39,449.89,82.71,483.16l-2,23.48,2.94,2,3.91-6.85,5.87-13.7,4.9-12.72h3.91l6.85-1,9.78-20.55-1-5.87,3.91-1,7.83-11.74V431.3l3.91-1,5.87-17.61,2-2,2.93-13.7,37.19-36.2-12.72,34.24-2.94-1.95-2-4.9-10.76,21.53-8.81,7.83,1,14.68,9.79-10.77L159,410.75l-2,10.76,3.92,2.94,4.89-2.94,3.91-12.72L182.52,399l1.95-13.7,15.66-16.64L214.8,355l16.64-28.38,12.72-14.68L261.77,308l-20.55,28.38,5.87-1L275.47,307l15.66-9.78,22.5-4.9L307.76,311l5.87-2.94,9.78-14.68,1,2.94,3.92-2,17.61-20.55,2-18.59L217.74,317.79l13.7-22.5-11.74,5.87L207,311.92l-8.81,10.77,2-10.77,15.65-18.59v-5.87Z" transform="translate(-7.76 -2.14)"/><path class="cls-1" d="M368.42,137.76l-1,15.65L359.62,173l-13.7,19.57-9.79,4.89-7.82,5.87-8.81,10.77-9.78,15.65v4.89l8.8-8.8,11.74-18.59,4.9-2.94,9.78-1,12.72-7.82,11.74-14.68,10.77-15.66L387,149.5l-9.79,3.91,2.94-12.72-1-19.57Z" transform="translate(-7.76 -2.14)"/><path class="cls-1" d="M609.13,7.62l-1,5.87-6.85,9.78-12.72,8.81-1,11.74-10.76,9.79-3.92,6.85L570,78.07l-3.91,11.74-15.66,22.51-1,4.89,2.94,5.87L549.44,128l-20.55,10.76L523,149.5l-2.93,3.91-8.81,2-16.63,28.37v13.7l-6.85,10.77L476.06,218l5.87,1,24.46-18.59,8.8-9.79,5.88-29.35L526,158.3v8.81l4.89-9.78,2.94-10.77,5.87-2.93,1,2.93h2.93l3.91-3.91v8.8l4.9-1.95,11.74-16.64,6.85,8.81-4.89,11.74-1,6.85L559.23,173l-1,23.48,6.85,28.38V235.6l-6.85,8.81-14.68,11.74v15.66L556.29,264l6.85-1,9.78-6.85,27.4-4.89,5.87-23.48V216l4.89-4.89-9.78-7.83-9.78-13.7-5.88-13.69L573.9,164.17l6.85-15.65-2-12.72L570,126l-4.89-4.89L570,109.38l11.74-8.81,6.85-9.78V76.11l10.76-15.65,4.9-21.53,8.8-13.7L617,18.38l1.95-11.74Z" transform="translate(-7.76 -2.14)"/><polygon class="cls-1" points="352.83 516.24 334.24 516.24 345.01 498.63 354.79 474.17 355.77 466.34 349.9 477.1 342.07 479.06 340.12 472.21 343.05 464.38 350.88 459.49 356.75 446.77 363.6 439.92 361.64 435.03 354.79 436.98 351.86 448.73 346.96 456.55 341.09 455.57 341.09 450.68 345.01 445.79 358.71 425.24 362.62 424.26 366.53 429.16 366.53 421.33 374.36 413.5 382.19 409.59 384.15 397.85 396.87 370.45 347.94 421.33 343.05 422.31 339.14 421.33 361.64 396.87 364.58 384.15 368.49 381.21 377.3 380.23 388.06 371.43 393.93 358.71 403.72 347.94 413.5 333.27 413.5 322.5 346.96 369.47 349.9 381.21 348.92 391.97 339.14 401.76 323.48 417.41 311.74 430.13 292.17 449.7 277.49 472.21 292.17 461.45 306.85 448.73 309.78 447.75 308.8 452.64 295.11 470.25 280.43 481.99 268.69 486.89 253.03 505.48 248.14 506.45 246.18 501.56 254.99 481.99 259.88 460.47 268.69 450.68 273.58 451.66 273.58 462.42 269.67 468.3 275.54 462.42 285.32 445.79 284.34 442.86 279.45 445.79 277.49 442.86 282.38 434.05 290.21 432.09 294.13 433.07 300.98 428.18 310.76 418.39 296.08 424.26 281.41 431.11 268.69 438.94 257.92 444.81 252.05 447.75 242.27 446.77 332.29 343.05 328.37 334.24 316.63 336.2 310.76 345.99 302.93 358.71 292.17 366.53 276.51 371.43 260.86 382.19 256.94 389.04 252.05 397.85 241.29 407.63 239.33 414.48 234.44 415.46 234.44 409.59 253.03 387.08 254.01 378.28 277.49 362.62 282.38 353.81 295.11 353.81 299.02 349.9 298.04 336.2 303.91 334.24 342.07 297.06 351.86 290.21 422.31 318.59 426.22 346.96 352.83 516.24"/><path class="cls-1" d="M640.44,218l-1,18.59,7.83-8.8,3.91-6.85,9.79,9.78s5.87,2,5.87,2.94,7.83,6.85,7.83,6.85l-5.88,6.84-2.93,6.85L662,261l1,13.7-2,4.89-5.87,12.72-4.9,22.51L659,307l7.83-12.72,4.89-10.76,6.85,12.72L684.47,308l-7.83,8.81v9.78H650.22l-5.87,1-4.89,5.87-33.27,14.68-11.74,12.72-14.68,1L568,373.57l-3.91,4.89-1,14.68,7.83-5.87,5.87-6.85,10.76-5.87h3.92l-2,4.89,6.85-2,6.85,6.85,2,6.85,2.94-9.79,2-7.82,6.85-4.9s4.89,6.85,5.87,6.85,1.95,9.79,1.95,9.79l4.9-16.64,3.91-7.82,7.83-1-1,6.85,7.83-8.81,23.48-2-4.89,18.6-5.87,8.8,7.82-2,7.83-17.61,7.83-13.7v10.77l-12.72,22.5-7.83,8.81h4.89L663.92,399h8.81l-8.81,9.78-7.83,3.92-4.89,1-3.91,5.88-1,6.84L627.72,447l-1,9.79L602.28,481.2l-1,3.91,6.85-2.93,18.59-15.66,6.85-11.74,2-6.85,15.65-14.68,1,3.92,11.74-19.57-1,17.61,10.77-16.63,1.95,7.82,2.94,2,2-4.89,2.93-19.57,3.92-1v20.55l2-9.79,2.94-10.76V398l3.91,5.87v5.87l2.94,1,1-14.68,1-5.87,8.81-2.93-2,7.82-4.89,12.72v6.85l5.87-10.76s2.94-5.87,4.89-5.87h6.85l5.87,2,9.79-4.9,2.93,2h6.85l11.75-4.89,4.89-4.89,4.89,3.91h2.94c1,0,7.82-2,7.82-2l2-10.76,6.85-3.91s3.91,0,4.89,1,10.77,5.87,10.77,5.87h11.74l1-5.87,1-7.82,6.85-1h3.92l-1-11.74-7.83-8.81L644.35,202.33Z" transform="translate(-7.76 -2.14)"/></g><g id="Layer_4" data-name="Layer 4"><path class="cls-1" d="M618.91,6.64,617,18.38,604.24,38.93l-4.9,21.53L588.58,76.11V90.79l-6.85,9.78L570,109.38l-4.89,11.74,13.7,14.68,2,12.72-6.85,15.65,11.74,11.75,5.88,13.69,9.78,13.7,9.78,7.83L626.74,219l11.74,1,13.7-9.79,1,7.83L662,228.75l12.72,5.87,3.91,5.88-13.7,15.65V261l7.83,9.79,5.87,18.59L687.41,308l-9.79,13.7,11.74,16.63V354l-6.85,19.57L664.9,395.09h12.72l16.63-3.91,7.83-1,21.53-2,24.46-12.72,21.53-3.91,46-21.53,19.56-7.82L819.5,294.31l-14.68-23.48L769.6,231.69l-27.4-46-4.89-8.81L714.8,163.2,704,147.54l-16.63-12.72-16.64-17.61L655.12,97.64l2-12.72-2-5.87-4.9-4.89-2-5.88V50.67L622.83,17.4Z" transform="translate(-7.76 -2.14)"/><polygon class="cls-1" points="418.39 146.38 422.31 131.7 441.88 117.02 456.55 91.58 473.19 83.76 479.06 94.52 479.06 118.98 467.32 148.34 474.17 155.18 474.17 197.26 471.23 202.15 436.98 203.13 414.48 209 388.06 209 374.36 216.83 357.73 236.4 339.14 254.01 339.14 263.8 319.57 280.43 287.28 296.08 251.07 304.89 229.55 315.65 214.87 341.09 196.28 359.69 177.69 376.32 172.8 384.15 175.73 365.56 185.52 346.96 201.17 327.39 217.81 307.83 235.42 293.15 255.97 283.36 270.64 276.51 288.26 273.58 298.04 256.94 329.35 233.46 349.9 214.87 363.6 200.19 381.21 197.26 391.97 194.32 396.87 183.56 416.44 178.67 436.98 165.95 456.55 122.89 456.55 114.09 426.22 145.4 418.39 146.38"/><path class="cls-1" d="M508.35,199.4l10.76,14.68L525,248.32l-7.83,27.4,9.79,26.42,1,42.07,5.87,28.38,13.69,21.52,1,22.51-5.87,9.78,5.87,12.72-1,13.7-14.67,29.36,2.93,10.76-7.82,25.44H357.66l7.83-19.57,2.93-30.33,8.81-18.59,20.55-22.51,4.89-15.65V396.07l15.66-31.31,8.8-22.5,1-10.77-1-10.76-17.61,17.61-64.58,42.08-2,16.63s-6.85,8.81-7.82,8.81-10.77,6.85-10.77,6.85l-19.57,6.85-22.5,11.74-24.46,17.61-11.74,4.89-8.81,1,4.89-4.89,5.87-3.92,27.4-36.2,14.68-15.66,20.54-17.61,14.68-15.65,12.72-27.4L348.86,309l9.78-13.7-5.87-8.81,7.83-1,8.8-1.95L386,276.7,410.5,263l5.87-6.85L432,232.67l5.88-5.87,11.74-3.92,17.61-1L484.86,219Z" transform="translate(-7.76 -2.14)"/><path class="cls-1" d="M1126.74,519.36H544.55l76.81-37.67,45-28.38L685,447.44l17.61-10.76,12.72-17.61,13.7,8.8h32.29L777.91,422l18.6-8.8,14.67,1L826.84,422l23.48,2L862.06,420l13.7,4.9,26.42-2,28.38-12.72,11.74-12.72-16.64-4.89L912,382.86l-28.37-8.8-9.79-11.75,11.75-2.93,10.76-9.79,3.91-14.67H910l7.83-4.89,1.95-12.72,19.08-21L944.74,311l17.62,18.59L981,342.26l11.74,7.82,6.36,14.19,19.08,31.8L1049,429.83l10.27,10.27,28.38,45,7.83,12.72,22.5,18.59Z" transform="translate(-7.76 -2.14)"/></g><g id="Layer_2-2" data-name="Layer 2"><path class="cls-2" d="M1126.74,519.36H12.26L24,507.62,36.72,489l21.53-34.25,8.81-19.57,17.61-13.7,4.89-13.7-2.93-21.52,6.84-9.79,13.7-28.37,27.4-18.59,18.59-7.83,12.72-17.61s25.44-16.64,26.42-16.64,11.74,2,11.74,2l11.74-2s21.53-5.87,21.53-6.85S250,259.09,250,259.09l19.57-4.9,20.55-16.63,30.33-25.44,16.63-24.46L352.77,172l15.65-34.24,12.72-19.57L387,96.66l10.76-9.78,15.65-2.94L433,52.63l24.47-10.76,28.37-18.6L510.3,11.53h19.57l89-4.89,3.92,11.74L636.53,35l10.76,15.65V67.31l2.93,7.82,4.9,3.92,2,5.87-2,12.72,10.76,14.68,21.53,22.5L704,147.54,714.8,163.2l22.51,13.69,4.89,8.81L750,204.29l15.65,22.51,12.72,16.63,22.51,22.51,18.59,28.37,15.65,47.95,46-16.64,57.73-29.35,7.83,19.57,15.66,13.7S980,342.26,981,342.26s11.74,7.82,11.74,7.82l11.74,26.42L1022,401.94l18.59,21.53,18.59,16.63,9.79,18.59,17.61,24.47,8.81,14.67,15.65,14.68,6.85,3.91Z" transform="translate(-7.76 -2.14)"/></g><g id="Layer_3-2" data-name="Layer 3"><path class="cls-3" d="M206,289.42l-8.81,6.85L172.73,309l-2,2.93v10.77L160,331.49l-4.89,5.87-8.81,26.42,4.89-2.93L160,353l4.89-6.85,1-10.76s9.79-5.87,9.79-6.85,9.78-8.81,9.78-8.81l-1,10.76L170.77,355l-21.52,17.61,1,9.78-9.79,4.9-8.81,1-1,11.75-18.59,24.46L97.39,449.89,82.71,483.16l-2,23.48,2.94,2,3.91-6.85,5.87-13.7,4.9-12.72h3.91l6.85-1,9.78-20.55-1-5.87,3.91-1,7.83-11.74V431.3l3.91-1,5.87-17.61,2-2,2.93-13.7,37.19-36.2-12.72,34.24-2.94-1.95-2-4.9-10.76,21.53-8.81,7.83,1,14.68,9.79-10.77L159,410.75l-2,10.76,3.92,2.94,4.89-2.94,3.91-12.72L182.52,399l1.95-13.7,15.66-16.64L214.8,355l16.64-28.38,12.72-14.68L261.77,308l-20.55,28.38,5.87-1L275.47,307l15.66-9.78,22.5-4.9L307.76,311l5.87-2.94,9.78-14.68,1,2.94,3.92-2,17.61-20.55,2-18.59L217.74,317.79l13.7-22.5-11.74,5.87L207,311.92l-8.81,10.77,2-10.77,15.65-18.59v-5.87Z" transform="translate(-7.76 -2.14)"/><path class="cls-3" d="M368.42,137.76l-1,15.65L359.62,173l-13.7,19.57-9.79,4.89-7.82,5.87-8.81,10.77-9.78,15.65v4.89l8.8-8.8,11.74-18.59,4.9-2.94,9.78-1,12.72-7.82,11.74-14.68,10.77-15.66L387,149.5l-9.79,3.91,2.94-12.72-1-19.57Z" transform="translate(-7.76 -2.14)"/><path class="cls-3" d="M609.13,7.62l-1,5.87-6.85,9.78-12.72,8.81-1,11.74-10.76,9.79-3.92,6.85L570,78.07l-3.91,11.74-15.66,22.51-1,4.89,2.94,5.87L549.44,128l-20.55,10.76L523,149.5l-2.93,3.91-8.81,2-16.63,28.37v13.7l-6.85,10.77L476.06,218l5.87,1,24.46-18.59,8.8-9.79,5.88-29.35L526,158.3v8.81l4.89-9.78,2.94-10.77,5.87-2.93,1,2.93h2.93l3.91-3.91v8.8l4.9-1.95,11.74-16.64,6.85,8.81-4.89,11.74-1,6.85L559.23,173l-1,23.48,6.85,28.38V235.6l-6.85,8.81-14.68,11.74v15.66L556.29,264l6.85-1,9.78-6.85,27.4-4.89,5.87-23.48V216l4.89-4.89-9.78-7.83-9.78-13.7-5.88-13.69L573.9,164.17l6.85-15.65-2-12.72L570,126l-4.89-4.89L570,109.38l11.74-8.81,6.85-9.78V76.11l10.76-15.65,4.9-21.53,8.8-13.7L617,18.38l1.95-11.74Z" transform="translate(-7.76 -2.14)"/><polygon class="cls-3" points="352.83 516.24 334.24 516.24 345.01 498.63 354.79 474.17 355.77 466.34 349.9 477.1 342.07 479.06 340.12 472.21 343.05 464.38 350.88 459.49 356.75 446.77 363.6 439.92 361.64 435.03 354.79 436.98 351.86 448.73 346.96 456.55 341.09 455.57 341.09 450.68 345.01 445.79 358.71 425.24 362.62 424.26 366.53 429.16 366.53 421.33 374.36 413.5 382.19 409.59 384.15 397.85 396.87 370.45 347.94 421.33 343.05 422.31 339.14 421.33 361.64 396.87 364.58 384.15 368.49 381.21 377.3 380.23 388.06 371.43 393.93 358.71 403.72 347.94 413.5 333.27 413.5 322.5 346.96 369.47 349.9 381.21 348.92 391.97 339.14 401.76 323.48 417.41 311.74 430.13 292.17 449.7 277.49 472.21 292.17 461.45 306.85 448.73 309.78 447.75 308.8 452.64 295.11 470.25 280.43 481.99 268.69 486.89 253.03 505.48 248.14 506.45 246.18 501.56 254.99 481.99 259.88 460.47 268.69 450.68 273.58 451.66 273.58 462.42 269.67 468.3 275.54 462.42 285.32 445.79 284.34 442.86 279.45 445.79 277.49 442.86 282.38 434.05 290.21 432.09 294.13 433.07 300.98 428.18 310.76 418.39 296.08 424.26 281.41 431.11 268.69 438.94 257.92 444.81 252.05 447.75 242.27 446.77 332.29 343.05 328.37 334.24 316.63 336.2 310.76 345.99 302.93 358.71 292.17 366.53 276.51 371.43 260.86 382.19 256.94 389.04 252.05 397.85 241.29 407.63 239.33 414.48 234.44 415.46 234.44 409.59 253.03 387.08 254.01 378.28 277.49 362.62 282.38 353.81 295.11 353.81 299.02 349.9 298.04 336.2 303.91 334.24 342.07 297.06 351.86 290.21 422.31 318.59 426.22 346.96 352.83 516.24"/><path class="cls-3" d="M640.44,218l-1,18.59,7.83-8.8,3.91-6.85,9.79,9.78s5.87,2,5.87,2.94,7.83,6.85,7.83,6.85l-5.88,6.84-2.93,6.85L662,261l1,13.7-2,4.89-5.87,12.72-4.9,22.51L659,307l7.83-12.72,4.89-10.76,6.85,12.72L684.47,308l-7.83,8.81v9.78H650.22l-5.87,1-4.89,5.87-33.27,14.68-11.74,12.72-14.68,1L568,373.57l-3.91,4.89-1,14.68,7.83-5.87,5.87-6.85,10.76-5.87h3.92l-2,4.89,6.85-2,6.85,6.85,2,6.85,2.94-9.79,2-7.82,6.85-4.9s4.89,6.85,5.87,6.85,1.95,9.79,1.95,9.79l4.9-16.64,3.91-7.82,7.83-1-1,6.85,7.83-8.81,23.48-2-4.89,18.6-5.87,8.8,7.82-2,7.83-17.61,7.83-13.7v10.77l-12.72,22.5-7.83,8.81h4.89L663.92,399h8.81l-8.81,9.78-7.83,3.92-4.89,1-3.91,5.88-1,6.84L627.72,447l-1,9.79L602.28,481.2l-1,3.91,6.85-2.93,18.59-15.66,6.85-11.74,2-6.85,15.65-14.68,1,3.92,11.74-19.57-1,17.61,10.77-16.63,1.95,7.82,2.94,2,2-4.89,2.93-19.57,3.92-1v20.55l2-9.79,2.94-10.76V398l3.91,5.87v5.87l2.94,1,1-14.68,1-5.87,8.81-2.93-2,7.82-4.89,12.72v6.85l5.87-10.76s2.94-5.87,4.89-5.87h6.85l5.87,2,9.79-4.9,2.93,2h6.85l11.75-4.89,4.89-4.89,4.89,3.91h2.94c1,0,7.82-2,7.82-2l2-10.76,6.85-3.91s3.91,0,4.89,1,10.77,5.87,10.77,5.87h11.74l1-5.87,1-7.82,6.85-1h3.92l-1-11.74-7.83-8.81L644.35,202.33Z" transform="translate(-7.76 -2.14)"/></g><g id="Layer_4-2" data-name="Layer 4"><path class="cls-4" d="M618.91,6.64,617,18.38,604.24,38.93l-4.9,21.53L588.58,76.11V90.79l-6.85,9.78L570,109.38l-4.89,11.74,13.7,14.68,2,12.72-6.85,15.65,11.74,11.75,5.88,13.69,9.78,13.7,9.78,7.83L626.74,219l11.74,1,13.7-9.79,1,7.83L662,228.75l12.72,5.87,3.91,5.88-13.7,15.65V261l7.83,9.79,5.87,18.59L687.41,308l-9.79,13.7,11.74,16.63V354l-6.85,19.57L664.9,395.09h12.72l16.63-3.91,7.83-1,21.53-2,24.46-12.72,21.53-3.91,46-21.53,19.56-7.82L819.5,294.31l-14.68-23.48L769.6,231.69l-27.4-46-4.89-8.81L714.8,163.2,704,147.54l-16.63-12.72-16.64-17.61L655.12,97.64l2-12.72-2-5.87-4.9-4.89-2-5.88V50.67L622.83,17.4Z" transform="translate(-7.76 -2.14)"/><polygon class="cls-4" points="418.39 146.38 422.31 131.7 441.88 117.02 456.55 91.58 473.19 83.76 479.06 94.52 479.06 118.98 467.32 148.34 474.17 155.18 474.17 197.26 471.23 202.15 436.98 203.13 414.48 209 388.06 209 374.36 216.83 357.73 236.4 339.14 254.01 339.14 263.8 319.57 280.43 287.28 296.08 251.07 304.89 229.55 315.65 214.87 341.09 196.28 359.69 177.69 376.32 172.8 384.15 175.73 365.56 185.52 346.96 201.17 327.39 217.81 307.83 235.42 293.15 255.97 283.36 270.64 276.51 288.26 273.58 298.04 256.94 329.35 233.46 349.9 214.87 363.6 200.19 381.21 197.26 391.97 194.32 396.87 183.56 416.44 178.67 436.98 165.95 456.55 122.89 456.55 114.09 426.22 145.4 418.39 146.38"/><path class="cls-4" d="M508.35,199.4l10.76,14.68L525,248.32l-7.83,27.4,9.79,26.42,1,42.07,5.87,28.38,13.69,21.52,1,22.51-5.87,9.78,5.87,12.72-1,13.7-14.67,29.36,2.93,10.76-7.82,25.44H357.66l7.83-19.57,2.93-30.33,8.81-18.59,20.55-22.51,4.89-15.65V396.07l15.66-31.31,8.8-22.5,1-10.77-1-10.76-17.61,17.61-64.58,42.08-2,16.63s-6.85,8.81-7.82,8.81-10.77,6.85-10.77,6.85l-19.57,6.85-22.5,11.74-24.46,17.61-11.74,4.89-8.81,1,4.89-4.89,5.87-3.92,27.4-36.2,14.68-15.66,20.54-17.61,14.68-15.65,12.72-27.4L348.86,309l9.78-13.7-5.87-8.81,7.83-1,8.8-1.95L386,276.7,410.5,263l5.87-6.85L432,232.67l5.88-5.87,11.74-3.92,17.61-1L484.86,219Z" transform="translate(-7.76 -2.14)"/><path class="cls-4" d="M1126.74,519.36H544.55l76.81-37.67,45-28.38L685,447.44l17.61-10.76,12.72-17.61,13.7,8.8h32.29L777.91,422l18.6-8.8,14.67,1L826.84,422l23.48,2L862.06,420l13.7,4.9,26.42-2,28.38-12.72,11.74-12.72-16.64-4.89L912,382.86l-28.37-8.8-9.79-11.75,11.75-2.93,10.76-9.79,3.91-14.67H910l7.83-4.89,1.95-12.72,19.08-21L944.74,311l17.62,18.59L981,342.26l11.74,7.82,6.36,14.19,19.08,31.8L1049,429.83l10.27,10.27,28.38,45,7.83,12.72,22.5,18.59Z" transform="translate(-7.76 -2.14)"/></g></svg>