<svg xmlns="http://www.w3.org/2000/svg" viewBox="0 0 1139 524"><defs><style>.cls-1{fill:#dceef8;}.cls-2{fill:#f9feff;}.cls-3{fill:#b5d6ec;}</style></defs><title>everest</title><g id="Layer_2" data-name="Layer 2"><path class="cls-1" d="M1167,750H28l12-12,13-19,22-35,9-20,18-14,5-14-3-22,7-10,14-29,28-19,19-8,13-18s26-17,27-17,12,2,12,2l12-2s22-6,22-7,13-22,13-22l20-5,21-17,31-26,17-25,16-16,16-35,13-20,6-22,11-10,16-3,20-32,25-11,29-19,25-12h20l91-5,4,12,14,17,11,16v17l3,8,5,4,2,6-2,13,11,15,22,23,17,13,11,16,23,14,5,9,8,19,16,23,13,17,23,23,19,29,16,49,47-17,59-30,8,20,16,14s18,13,19,13,12,8,12,8l12,27,18,26,19,22,19,17,10,19,18,25,9,15,16,15,7,4Z" transform="translate(-28 -226)"/></g><g id="Layer_3" data-name="Layer 3"><path class="cls-2" d="M226,515l-9,7-25,13-2,3v11l-11,9-5,6-9,27,5-3,9-8,5-7,1-11s10-6,10-7,10-9,10-9l-1,11-14,25-22,18,1,10-10,5-9,1-1,12-19,25-15,26-15,34-2,24,3,2,4-7,6-14,5-13h4l7-1,10-21-1-6,4-1,8-12v-4l4-1,6-18,2-2,3-14,38-37-13,35-3-2-2-5-11,22-9,8,1,15,10-11,4-11-2,11,4,3,5-3,4-13,13-10,2-14,16-17,15-14,17-29,13-15,18-4-21,29,6-1,29-29,16-10,23-5-6,19,6-3,10-15,1,3,4-2,18-21,2-19L238,544l14-23-12,6-13,11-9,11,2-11,16-19v-6Z" transform="translate(-28 -226)"/><path class="cls-2" d="M392,360l-1,16-8,20-14,20-10,5-8,6-9,11-10,16v5l9-9,12-19,5-3,10-1,13-8,12-15,11-16,7-16-10,4,3-13-1-20Z" transform="translate(-28 -226)"/><path class="cls-2" d="M638,227l-1,6-7,10-13,9-1,12-11,10-4,7-3,18-4,12-16,23-1,5,3,6-3,5-21,11-6,11-3,4-9,2-17,29v14l-7,11-12,10,6,1,25-19,9-10,6-30,5-3v9l5-10,3-11,6-3,1,3h3l4-4v9l5-2,12-17,7,9-5,12-1,7-6,13-1,24,7,29v11l-7,9-15,12v16l13-8,7-1,10-7,28-5,6-24V440l5-5-10-8-10-14-6-14-12-12,7-16-2-13-9-10-5-5,5-12,12-9,7-10V297l11-16,5-22,9-14,4-7,2-12Z" transform="translate(-28 -226)"/><polygon class="cls-2" points="356 523 337 523 348 505 358 480 359 472 353 483 345 485 343 478 346 470 354 465 360 452 367 445 365 440 358 442 355 454 350 462 344 461 344 456 348 451 362 430 366 429 370 434 370 426 378 418 386 414 388 402 401 374 351 426 346 427 342 426 365 401 368 388 372 385 381 384 392 375 398 362 408 351 418 336 418 325 350 373 353 385 352 396 342 406 326 422 314 435 294 455 279 478 294 467 309 454 312 453 311 458 297 476 282 488 270 493 254 512 249 513 247 508 256 488 261 466 270 456 275 457 275 468 271 474 277 468 287 451 286 448 281 451 279 448 284 439 292 437 296 438 303 433 313 423 298 429 283 436 270 444 259 450 253 453 243 452 335 346 331 337 319 339 313 349 305 362 294 370 278 375 262 386 258 393 253 402 242 412 240 419 235 420 235 414 254 391 255 382 279 366 284 357 297 357 301 353 300 339 306 337 345 299 355 292 427 321 431 350 356 523"/><path class="cls-2" d="M670,442l-1,19,8-9,4-7,10,10s6,2,6,3,8,7,8,7l-6,7-3,7-4,7,1,14-2,5-6,13-5,23,9-8,8-13,5-11,7,13,6,12-8,9v10H680l-6,1-5,6-34,15-12,13-15,1-12,12-4,5-1,15,8-6,6-7,11-6h4l-2,5,7-2,7,7,2,7,3-10,2-8,7-5s5,7,6,7,2,10,2,10l5-17,4-8,8-1-1,7,8-9,24-2-5,19-6,9,8-2,8-18,8-14v11l-13,23-8,9h5l-5,7h9l-9,10-8,4-5,1-4,6-1,7-19,21-1,10-25,25-1,4,7-3,19-16,7-12,2-7,16-15,1,4,12-20-1,18,11-17,2,8,3,2,2-5,3-20,4-1v21l2-10,3-11v-5l4,6v6l3,1,1-15,1-6,9-3-2,8-5,13v7l6-11s3-6,5-6h7l6,2,10-5,3,2h7l12-5,5-5,5,4h3c1,0,8-2,8-2l2-11,7-4s4,0,5,1,11,6,11,6h12l1-6,1-8,7-1h4l-1-12-8-9L674,426Z" transform="translate(-28 -226)"/></g><g id="Layer_4" data-name="Layer 4"><path class="cls-3" d="M648,226l-2,12-13,21-5,22-11,16v15l-7,10-12,9-5,12,14,15,2,13-7,16,12,12,6,14,10,14,10,8,16,8,12,1,14-10,1,8,9,11,13,6,4,6-14,16v5l8,10,6,19,9,19-10,14,12,17v16l-7,20-18,22h13l17-4,8-1,22-2,25-13,22-4,47-22,20-8-16-49-15-24-36-40-28-47-5-9-23-14-11-16-17-13-17-18-16-20,2-13-2-6-5-5-2-6V271l-26-34Z" transform="translate(-28 -226)"/><polygon class="cls-3" points="423 145 427 130 447 115 462 89 479 81 485 92 485 117 473 147 480 154 480 197 477 202 442 203 419 209 392 209 378 217 361 237 342 255 342 265 322 282 289 298 252 307 230 318 215 344 196 363 177 380 172 388 175 369 185 350 201 330 218 310 236 295 257 285 272 278 290 275 300 258 332 234 353 215 367 200 385 197 396 194 401 183 421 178 442 165 462 121 462 112 431 144 423 145"/><path class="cls-3" d="M535,423l11,15,6,35-8,28,10,27,1,43,6,29,14,22,1,23-6,10,6,13-1,14-15,30,3,11-8,26H381l8-20,3-31,9-19,21-23,5-16V624l16-32,9-23,1-11-1-11-18,18-66,43-2,17s-7,9-8,9-11,7-11,7l-20,7-23,12-25,18-12,5-9,1,5-5,6-4,28-37,15-16,21-18,15-16,13-28,11-25,10-14-6-9,8-1,9-2,17-7,25-14,6-7,16-24,6-6,12-4,18-1,18-3Z" transform="translate(-28 -226)"/><path class="cls-3" d="M1167,750H572l78.5-38.5,46-29,19-6,18-11,13-18,14,9h33l17-6,19-9,15,1,16,8,24,2,12-4,14,5,27-2,29-13,12-13-17-5-14-10-29-9-10-12,12-3,11-10,4-15h10l8-5,2-13L975,522l6,15,18,19,19,13,12,8,6.5,14.5L1056,624l31.5,34.5L1098,669l29,46,8,13,23,19Z" transform="translate(-28 -226)"/></g></svg>