<svg id="Layer_2" data-name="Layer 2" xmlns="http://www.w3.org/2000/svg" viewBox="0 0 1077.64 414.61"><defs><style>.cls-1{fill:none;stroke:#183866;stroke-width:15px;}.cls-2{fill:#3285bb;}.cls-3{fill:#197db3;}.cls-4{fill:#197cb3;}.cls-5{fill:#fff;}.cls-6{fill:#f2f2f2;}.cls-7{fill:#2e77a9;}.cls-8{fill:#1c5d93;}.cls-9{fill:#e6e6e6;}.cls-10{fill:#dbdbdb;}</style></defs><path class="cls-1" d="M134.25,830.2s7.1-.51,19.78-14.71,19.77-22.81,46.14-27.38c5.32,0,76.22-41.74,88.22-54.59,6.6-2.7,4.74,12.34,18.26,12.85s54-25.19,70.48-48.51c8.62-11.16,46.39-17.24,51.72-19.78s77.74-70,77.74-70S493,622.44,494.13,625s6.33.51,6.33.51l20.67-15,28-18.51s13.94-12,16-17.24c0,0,0,16.74-4.43,24.72l20.91,1.14-6.46,8.24s32.87,7.69,39.8,7.52c0,0,2.37.68,7.44-6.25a22.34,22.34,0,0,1,12-8.45l5.63,2.37V835.77H162.65Z" transform="translate(-132.81 -430.87)"/><path class="cls-1" d="M134.25,830.2s7.1-.51,19.78-14.71,19.77-22.81,46.14-27.38c5.32,0,76.22-41.74,88.22-54.59,6.6-2.7,4.74,12.34,18.26,12.85s54-25.19,70.48-48.51c8.62-11.16,46.39-17.24,51.72-19.78s77.74-70,77.74-70S493,622.44,494.13,625s6.33.51,6.33.51l20.67-15,28-18.51s13.94-12,16-17.24c0,0,0,16.74-4.43,24.72l20.91,1.14-6.46,8.24s32.87,7.69,39.8,7.52c0,0,2.37.68,7.44-6.25a22.34,22.34,0,0,1,12-8.45l5.63,2.37V835.77H162.65Z" transform="translate(-132.81 -430.87)"/><path class="cls-1" d="M290.42,812.7c0-.76,4.31-9.38,4.31-9.38l13.69-4.81,15-14.45,8.62,3.8,5.58-3.8,6.34-31.95,7.35-1.26,4.56-6.85v-8.87l11.66,22.81-4.56.26-6.85,7.6-3.29,21.81-3.8-5.33-1.78,3.55V812.7l-6.08-8.62h-3.55l-.51,8.62-5.58,6.09-9.63,3-9.63,4.06-.77-11.66Z" transform="translate(-132.81 -430.87)"/><path class="cls-1" d="M290.42,812.7c0-.76,4.31-9.38,4.31-9.38l13.69-4.81,15-14.45,8.62,3.8,5.58-3.8,6.34-31.95,7.35-1.26,4.56-6.85v-8.87l11.66,22.81-4.56.26-6.85,7.6-3.29,21.81-3.8-5.33-1.78,3.55V812.7l-6.08-8.62h-3.55l-.51,8.62-5.58,6.09-9.63,3-9.63,4.06-.77-11.66Z" transform="translate(-132.81 -430.87)"/><polygon class="cls-1" points="349.78 311.61 345.73 311.61 345.73 298.93 352.06 282.45 356.88 278.91 359.42 294.12 360.69 334.93 369.05 327.07 371.08 334.93 371.08 364.6 360.43 353.19 351.31 348.12 345.73 348.62 342.43 347.1 335.84 347.61 348.52 321.75 349.78 311.61"/><polygon class="cls-1" points="349.78 311.61 345.73 311.61 345.73 298.93 352.06 282.45 356.88 278.91 359.42 294.12 360.69 334.93 369.05 327.07 371.08 334.93 371.08 364.6 360.43 353.19 351.31 348.12 345.73 348.62 342.43 347.1 335.84 347.61 348.52 321.75 349.78 311.61"/><path class="cls-1" d="M510.48,720.93c.76,0,11.15-6.59,11.15-6.59l7.86-15,6.59-25.61L547,685.18l14.7-32.45,7.61-2,11.91-5.83,14.45-16.73-60.84,111,1.26-21-14.19,3Z" transform="translate(-132.81 -430.87)"/><path class="cls-1" d="M510.48,720.93c.76,0,11.15-6.59,11.15-6.59l7.86-15,6.59-25.61L547,685.18l14.7-32.45,7.61-2,11.91-5.83,14.45-16.73-60.84,111,1.26-21-14.19,3Z" transform="translate(-132.81 -430.87)"/><path class="cls-1" d="M543.94,817.52c0-.76,7.61-15.72,7.61-15.72l11.15-14.19,5.58-27.13,7.1,2.28L587,714.34l4.31-5.58,4.31-3.49L602.25,690v22.06l-1.52,35.24-12.93,51-6.59,3.55h-1.77l-1.52-9.38-4.82-.76L564.73,797l-7.86,12.16L549,817.52Z" transform="translate(-132.81 -430.87)"/><path class="cls-1" d="M543.94,817.52c0-.76,7.61-15.72,7.61-15.72l11.15-14.19,5.58-27.13,7.1,2.28L587,714.34l4.31-5.58,4.31-3.49L602.25,690v22.06l-1.52,35.24-12.93,51-6.59,3.55h-1.77l-1.52-9.38-4.82-.76L564.73,797l-7.86,12.16L549,817.52Z" transform="translate(-132.81 -430.87)"/><path class="cls-1" d="M513.4,616.12l-2.92,9L497,648.93l-15.46,25.35L507.94,654l33-27.89,7.35-5.57-4.31,17,7.1-9.38s10.14-16.73,22.06-8.37c4.56,8.37,8.62,11.92,8.62,11.92h1.77l1.27-10.39,5.83-3.81,6.85,1.27,30.17,63.38,2.28-36.51,4.81-17.49,2.5-25.26-2.83-1.19a24.93,24.93,0,0,0-12,8.45s-2.84,6.65-7.44,6.25l-39.8-7.52,6.46-8.24-20.91-1.14s3.46-6.5,4.43-24.72c0,0-13.28,17.62-21.79,21.09Z" transform="translate(-132.81 -430.87)"/><path class="cls-1" d="M513.4,616.12l-2.92,9L497,648.93l-15.46,25.35L507.94,654l33-27.89,7.35-5.57-4.31,17,7.1-9.38s10.14-16.73,22.06-8.37c4.56,8.37,8.62,11.92,8.62,11.92h1.77l1.27-10.39,5.83-3.81,6.85,1.27,30.17,63.38,2.28-36.51,4.81-17.49,2.5-25.26-2.83-1.19a24.93,24.93,0,0,0-12,8.45s-2.84,6.65-7.44,6.25l-39.8-7.52,6.46-8.24-20.91-1.14s3.46-6.5,4.43-24.72c0,0-13.28,17.62-21.79,21.09Z" transform="translate(-132.81 -430.87)"/><path class="cls-1" d="M630.65,442.48l-5.41,1.69-6.09,9.8-7.43,17.24-12.51,14.87-9.46,14.2L555.94,549,538,572.62l-24.34,27-11.9,13.75s-7.32,7.75-7.35,9.88-1.58,4.72,4.38,3.71,34.41-24.31,34.41-24.31,26.69-18.15,31.88-27.92c3.3-2.53-4.43,24.72-4.43,24.72l20.91,1.14-6.46,8.24s31.69,8.88,39.8,7.52c5.92-1.18,11.49-16,23.15-14.19V445l-3.88-2.53Z" transform="translate(-132.81 -430.87)"/><path class="cls-1" d="M630.65,442.48l-5.41,1.69-6.09,9.8-7.43,17.24-12.51,14.87-9.46,14.2L555.94,549,538,572.62l-24.34,27-11.9,13.75s-7.32,7.75-7.35,9.88-1.58,4.72,4.38,3.71,34.41-24.31,34.41-24.31,26.69-18.15,31.88-27.92c3.3-2.53-4.43,24.72-4.43,24.72l20.91,1.14-6.46,8.24s31.69,8.88,39.8,7.52c5.92-1.18,11.49-16,23.15-14.19V445l-3.88-2.53Z" transform="translate(-132.81 -430.87)"/><polygon class="cls-1" points="428.38 127.3 452.46 92.31 469.7 69.24 483.39 48.2 479.33 77.61 472.74 89.53 471.98 111.83 471.73 127.3 449.42 152.4 452.71 130.09 442.83 122.74 428.38 127.3"/><polygon class="cls-1" points="428.38 127.3 452.46 92.31 469.7 69.24 483.39 48.2 479.33 77.61 472.74 89.53 471.98 111.83 471.73 127.3 449.42 152.4 452.71 130.09 442.83 122.74 428.38 127.3"/><polygon class="cls-1" points="507.19 404.91 703.02 404.91 1058.29 407.1 1067.42 404.91 1062.01 391.55 1050.18 380.74 1027.19 373.98 915.14 323.27 823.87 277.13 757.95 241.13 728.04 228.96 665.5 186.88 623.59 152.4 539.42 147.33 507.19 173.19 507.19 404.91"/><polygon class="cls-1" points="507.19 404.91 703.02 404.91 1058.29 407.1 1067.42 404.91 1062.01 391.55 1050.18 380.74 1027.19 373.98 915.14 323.27 823.87 277.13 757.95 241.13 728.04 228.96 665.5 186.88 623.59 152.4 539.42 147.33 507.19 173.19 507.19 404.91"/><path class="cls-1" d="M669.52,727.44,701,758.87v-2.36s32.45,16.22,38.87,28.73l3.72-4.06,2.7-16.9,6.43,4.73,14.87-2,36.51,23.66,18.25,6.42,22,2.37-49.69-32.79,3.72-1.35-33.46-26.12-25.7-33.91L726,680.11l7.78,23.66,15.21,26,1.35,12.85-13.86-10.48-1.35,27.72-27.72-10.14-23.32-18.6Z" transform="translate(-132.81 -430.87)"/><path class="cls-1" d="M669.52,727.44,701,758.87v-2.36s32.45,16.22,38.87,28.73l3.72-4.06,2.7-16.9,6.43,4.73,14.87-2,36.51,23.66,18.25,6.42,22,2.37-49.69-32.79,3.72-1.35-33.46-26.12-25.7-33.91L726,680.11l7.78,23.66,15.21,26,1.35,12.85-13.86-10.48-1.35,27.72-27.72-10.14-23.32-18.6Z" transform="translate(-132.81 -430.87)"/><path class="cls-1" d="M808.79,768.68,803,748.73v-9l5.75-6.59,3.38-2.7-4.56-14.2L797,690l-8.45-21.72-6.43-16.56,13.19,18.59,21,37.77s8.78,19,16.22,23.75l8.11,7.35-9.46-4L820.62,722.7l3,17.07,1,23.16-13.36-10.48Z" transform="translate(-132.81 -430.87)"/><path class="cls-1" d="M808.79,768.68,803,748.73v-9l5.75-6.59,3.38-2.7-4.56-14.2L797,690l-8.45-21.72-6.43-16.56,13.19,18.59,21,37.77s8.78,19,16.22,23.75l8.11,7.35-9.46-4L820.62,722.7l3,17.07,1,23.16-13.36-10.48Z" transform="translate(-132.81 -430.87)"/><polygon class="cls-1" points="748.32 366.54 764.21 366.54 754.4 334.43 736.83 295.89 748.32 295.89 740.21 279.33 723.98 258.03 713.16 249.24 731.42 261.41 759.14 287.44 782.12 315.83 799.7 332.74 818.29 342.54 839.59 347.61 867.64 354.03 901.45 363.16 935.92 372.62 958.91 378.37 974.8 380.74 990.68 385.47 981.22 389.52 950.46 386.48 918.35 376.68 895.02 368.57 863.59 357.75 845.67 353.02 825.05 351.67 790.57 353.69 792.94 361.13 797.33 368.57 789.56 371.27 776.04 373.3 764.21 372.96 748.32 366.54"/><polygon class="cls-1" points="748.32 366.54 764.21 366.54 754.4 334.43 736.83 295.89 748.32 295.89 740.21 279.33 723.98 258.03 713.16 249.24 731.42 261.41 759.14 287.44 782.12 315.83 799.7 332.74 818.29 342.54 839.59 347.61 867.64 354.03 901.45 363.16 935.92 372.62 958.91 378.37 974.8 380.74 990.68 385.47 981.22 389.52 950.46 386.48 918.35 376.68 895.02 368.57 863.59 357.75 845.67 353.02 825.05 351.67 790.57 353.69 792.94 361.13 797.33 368.57 789.56 371.27 776.04 373.3 764.21 372.96 748.32 366.54"/><path class="cls-1" d="M660.06,619.52l11.4,58.31,3-58.31h8.11S696.56,632.2,696.56,637l-3-26.36s10.65-5.83,43.1,21c4.06,4.31,14.7,1,14.7,1s-12.17-9.38-9.12-10.64c0,0,36.84-8.37,69.12,18.5l-38.59-43.85-21.41-9.64-67.18-8.87-14.62,7.1Z" transform="translate(-132.81 -430.87)"/><path class="cls-1" d="M660.06,619.52l11.4,58.31,3-58.31h8.11S696.56,632.2,696.56,637l-3-26.36s10.65-5.83,43.1,21c4.06,4.31,14.7,1,14.7,1s-12.17-9.38-9.12-10.64c0,0,36.84-8.37,69.12,18.5l-38.59-43.85-21.41-9.64-67.18-8.87-14.62,7.1Z" transform="translate(-132.81 -430.87)"/><path class="cls-1" d="M638.08,445h3.22l7.35,2.37h3.8v-4.9s8.62,3.89,11.66,7.94,9.64,16.73,9.64,16.73l38,43.1,59.33,68,27.13,29.66s1.69,7,.08,9.89c0,0-23.28-23-32.41-22.44s-4.94,9.51-7.73,10.77-24-19.64-28.4-18.25-10.39,7-14.83,14.58c-5.32,3.42-8.36-15.47-11.79-14.33s-3.16,4.44-7.47,4.69S686,579,682.62,580.23s-17,38.94-22.33,40.51-22.21-17.49-22.21-17.49Z" transform="translate(-132.81 -430.87)"/><path class="cls-1" d="M638.08,445h3.22l7.35,2.37h3.8v-4.9s8.62,3.89,11.66,7.94,9.64,16.73,9.64,16.73l38,43.1,59.33,68,27.13,29.66s1.69,7,.08,9.89c0,0-23.28-23-32.41-22.44s-4.94,9.51-7.73,10.77-24-19.64-28.4-18.25-10.39,7-14.83,14.58c-5.32,3.42-8.36-15.47-11.79-14.33s-3.16,4.44-7.47,4.69S686,579,682.62,580.23s-17,38.94-22.33,40.51-22.21-17.49-22.21-17.49Z" transform="translate(-132.81 -430.87)"/><path class="cls-1" d="M646.2,462.59s7.6,2.2,7.6,1.69,1.52-6.76,1.52-6.76l10.82,26,9.13,12.51-1.19,13.18-8.62,9L667.83,585l-4.56,3.38-2.54-18.76-4.9-7.78-1.35,10.48-2.71-3-1.52-26.7-5.74.16Z" transform="translate(-132.81 -430.87)"/><path class="cls-1" d="M646.2,462.59s7.6,2.2,7.6,1.69,1.52-6.76,1.52-6.76l10.82,26,9.13,12.51-1.19,13.18-8.62,9L667.83,585l-4.56,3.38-2.54-18.76-4.9-7.78-1.35,10.48-2.71-3-1.52-26.7-5.74.16Z" transform="translate(-132.81 -430.87)"/><polygon class="cls-1" points="582.77 103.98 623.59 145.05 618.01 145.05 618.26 152.4 599 134.65 593.42 134.91 589.87 140.48 587.33 155.44 585.74 138.96 585.74 121.47 582.77 103.98"/><polygon class="cls-1" points="582.77 103.98 623.59 145.05 618.01 145.05 618.26 152.4 599 134.65 593.42 134.91 589.87 140.48 587.33 155.44 585.74 138.96 585.74 121.47 582.77 103.98"/><path class="cls-2" d="M134.25,830.2s7.1-.51,19.78-14.71,19.77-22.81,46.14-27.38c5.32,0,76.22-41.74,88.22-54.59,6.6-2.7,4.74,12.34,18.26,12.85s54-25.19,70.48-48.51c8.62-11.16,46.39-17.24,51.72-19.78s77.74-70,77.74-70S493,622.44,494.13,625s6.33.51,6.33.51l20.67-15,28-18.51s13.94-12,16-17.24c0,0,0,16.74-4.43,24.72l20.91,1.14-6.46,8.24s32.87,7.69,39.8,7.52c0,0,2.37.68,7.44-6.25a22.34,22.34,0,0,1,12-8.45l5.63,2.37V835.77H162.65Z" transform="translate(-132.81 -430.87)"/><path class="cls-3" d="M290.42,812.7c0-.76,4.31-9.38,4.31-9.38l13.69-4.81,15-14.45,8.62,3.8,5.58-3.8,6.34-31.95,7.35-1.26,4.56-6.85v-8.87l11.66,22.81-4.56.26-6.85,7.6-3.29,21.81-3.8-5.33-1.78,3.55V812.7l-6.08-8.62h-3.55l-.51,8.62-5.58,6.09-9.63,3-9.63,4.06-.77-11.66Z" transform="translate(-132.81 -430.87)"/><polygon class="cls-3" points="349.78 311.61 345.73 311.61 345.73 298.93 352.06 282.45 356.88 278.91 359.42 294.12 360.69 334.93 369.05 327.07 371.08 334.93 371.08 364.6 360.43 353.19 351.31 348.12 345.73 348.62 342.43 347.1 335.84 347.61 348.52 321.75 349.78 311.61"/><path class="cls-3" d="M510.48,720.93c.76,0,11.15-6.59,11.15-6.59l7.86-15,6.59-25.61L547,685.18l14.7-32.45,7.61-2,11.91-5.83,14.45-16.73-60.84,111,1.26-21-14.19,3Z" transform="translate(-132.81 -430.87)"/><path class="cls-3" d="M543.94,817.52c0-.76,7.61-15.72,7.61-15.72l11.15-14.19,5.58-27.13,7.1,2.28L587,714.34l4.31-5.58,4.31-3.49L602.25,690v22.06l-1.52,35.24-12.93,51-6.59,3.55h-1.77l-1.52-9.38-4.82-.76L564.73,797l-7.86,12.16L549,817.52Z" transform="translate(-132.81 -430.87)"/><path class="cls-4" d="M513.4,616.12l-2.92,9L497,648.93l-15.46,25.35L507.94,654l33-27.89,7.35-5.57-4.31,17,7.1-9.38s10.14-16.73,22.06-8.37c4.56,8.37,8.62,11.92,8.62,11.92h1.77l1.27-10.39,5.83-3.81,6.85,1.27,30.17,63.38,2.28-36.51,4.81-17.49,2.5-25.26-2.83-1.19a24.93,24.93,0,0,0-12,8.45s-2.84,6.65-7.44,6.25l-39.8-7.52,6.46-8.24-20.91-1.14s3.46-6.5,4.43-24.72c0,0-13.28,17.62-21.79,21.09Z" transform="translate(-132.81 -430.87)"/><path class="cls-5" d="M630.65,442.48l-5.41,1.69-6.09,9.8-7.43,17.24-12.51,14.87-9.46,14.2L555.94,549,538,572.62l-24.34,27-11.9,13.75s-7.32,7.75-7.35,9.88-1.58,4.72,4.38,3.71,34.41-24.31,34.41-24.31,26.69-18.15,31.88-27.92c3.3-2.53-4.43,24.72-4.43,24.72l20.91,1.14-6.46,8.24s31.69,8.88,39.8,7.52c5.92-1.18,11.49-16,23.15-14.19V445l-3.88-2.53Z" transform="translate(-132.81 -430.87)"/><polygon class="cls-6" points="428.38 127.3 452.46 92.31 469.7 69.24 483.39 48.2 479.33 77.61 472.74 89.53 471.98 111.83 471.73 127.3 449.42 152.4 452.71 130.09 442.83 122.74 428.38 127.3"/><polygon class="cls-7" points="507.19 404.91 703.02 404.91 1058.29 407.1 1067.42 404.91 1062.01 391.55 1050.18 380.74 1027.19 373.98 915.14 323.27 823.87 277.13 757.95 241.13 728.04 228.96 665.5 186.88 623.59 152.4 539.42 147.33 507.19 173.19 507.19 404.91"/><path class="cls-8" d="M669.52,727.44,701,758.87v-2.36s32.45,16.22,38.87,28.73l3.72-4.06,2.7-16.9,6.43,4.73,14.87-2,36.51,23.66,18.25,6.42,22,2.37-49.69-32.79,3.72-1.35-33.46-26.12-25.7-33.91L726,680.11l7.78,23.66,15.21,26,1.35,12.85-13.86-10.48-1.35,27.72-27.72-10.14-23.32-18.6Z" transform="translate(-132.81 -430.87)"/><path class="cls-8" d="M808.79,768.68,803,748.73v-9l5.75-6.59,3.38-2.7-4.56-14.2L797,690l-8.45-21.72-6.43-16.56,13.19,18.59,21,37.77s8.78,19,16.22,23.75l8.11,7.35-9.46-4L820.62,722.7l3,17.07,1,23.16-13.36-10.48Z" transform="translate(-132.81 -430.87)"/><polygon class="cls-8" points="748.32 366.54 764.21 366.54 754.4 334.43 736.83 295.89 748.32 295.89 740.21 279.33 723.98 258.03 713.16 249.24 731.42 261.41 759.14 287.44 782.12 315.83 799.7 332.74 818.29 342.54 839.59 347.61 867.64 354.03 901.45 363.16 935.92 372.62 958.91 378.37 974.8 380.74 990.68 385.47 981.22 389.52 950.46 386.48 918.35 376.68 895.02 368.57 863.59 357.75 845.67 353.02 825.05 351.67 790.57 353.69 792.94 361.13 797.33 368.57 789.56 371.27 776.04 373.3 764.21 372.96 748.32 366.54"/><path class="cls-8" d="M660.06,619.52l11.4,58.31,3-58.31h8.11S696.56,632.2,696.56,637l-3-26.36s10.65-5.83,43.1,21c4.06,4.31,14.7,1,14.7,1s-12.17-9.38-9.12-10.64c0,0,36.84-8.37,69.12,18.5l-38.59-43.85-21.41-9.64-67.18-8.87-14.62,7.1Z" transform="translate(-132.81 -430.87)"/><path class="cls-9" d="M638.08,445h3.22l7.35,2.37h3.8v-4.9s8.62,3.89,11.66,7.94,9.64,16.73,9.64,16.73l38,43.1,59.33,68,27.13,29.66s1.69,7,.08,9.89c0,0-23.28-23-32.41-22.44s-4.94,9.51-7.73,10.77-24-19.64-28.4-18.25-10.39,7-14.83,14.58c-5.32,3.42-8.36-15.47-11.79-14.33s-3.16,4.44-7.47,4.69S686,579,682.62,580.23s-17,38.94-22.33,40.51-22.21-17.49-22.21-17.49Z" transform="translate(-132.81 -430.87)"/><path class="cls-10" d="M646.2,462.59s7.6,2.2,7.6,1.69,1.52-6.76,1.52-6.76l10.82,26,9.13,12.51-1.19,13.18-8.62,9L667.83,585l-4.56,3.38-2.54-18.76-4.9-7.78-1.35,10.48-2.71-3-1.52-26.7-5.74.16Z" transform="translate(-132.81 -430.87)"/><polygon class="cls-10" points="582.77 103.98 623.59 145.05 618.01 145.05 618.26 152.4 599 134.65 593.42 134.91 589.87 140.48 587.33 155.44 585.74 138.96 585.74 121.47 582.77 103.98"/></svg>