<?xml version="1.0" encoding="utf-8"?>
<!-- Generator: Adobe Illustrator 21.1.0, SVG Export Plug-In . SVG Version: 6.00 Build 0)  -->
<svg version="1.1" id="Layer_2" xmlns="http://www.w3.org/2000/svg" xmlns:xlink="http://www.w3.org/1999/xlink" x="0px" y="0px"
	 viewBox="0 0 1077.6 414.6" style="enable-background:new 0 0 1077.6 414.6;" xml:space="preserve">
<style type="text/css">
	.st0{fill:none;stroke:#183866;stroke-width:15;}
	.st1{fill:#3285BB;}
	.st2{fill:#197DB3;}
	.st3{fill:#197CB3;}
	.st4{fill:#FFFFFF;}
	.st5{fill:#F2F2F2;}
	.st6{fill:#2E77A9;}
	.st7{fill:#1C5D93;}
	.st8{fill:#E6E6E6;}
	.st9{fill:#DBDBDB;}
</style>
<path class="st0" d="M1.9,403.6c0,0,7.1-0.5,19.7-14.8s19.7-22.9,46.1-27.5c5.3,0,76.1-41.9,88.1-54.8c6.6-2.7,4.8,12.3,18.3,12.8
	s53.9-25.3,70.4-48.7c8.6-11.2,46.3-17.4,51.7-19.9c5.3-2.6,77.6-70.2,77.6-70.2s-13.6,14.4-12.4,16.9s6.3,0.5,6.3,0.5l20.6-15
	l28-18.6c0,0,13.9-12,16-17.3c0,0,0,16.7-4.4,24.7l20.9,1.1l-6.4,8.3c0,0,32.9,7.6,39.8,7.4c0,0,2.4,0.7,7.4-6.3
	c2.9-4.1,7.1-7.1,12-8.5l5.6,2.4l0.6,231.7l-477.4,1.1L1.9,403.6z"/>
<path class="st0" d="M1.9,403.6c0,0,7.1-0.5,19.7-14.8s19.7-22.9,46.1-27.5c5.3,0,76.1-41.9,88.1-54.8c6.6-2.7,4.8,12.3,18.3,12.8
	s53.9-25.3,70.4-48.7c8.6-11.2,46.3-17.4,51.7-19.9c5.3-2.6,77.6-70.2,77.6-70.2s-13.6,14.4-12.4,16.9s6.3,0.5,6.3,0.5l20.6-15
	l28-18.6c0,0,13.9-12,16-17.3c0,0,0,16.7-4.4,24.7l20.9,1.1l-6.4,8.3c0,0,32.9,7.6,39.8,7.4c0,0,2.4,0.7,7.4-6.3
	c2.9-4.1,7.1-7.1,12-8.5l5.6,2.4l0.6,231.7l-477.4,1.1L1.9,403.6z"/>
<path class="st0" d="M158,385.7c0-0.8,4.3-9.4,4.3-9.4l13.7-4.8l15-14.5l8.6,3.8l5.6-3.8l6.3-32l7.3-1.3l4.5-6.9l0-8.9l11.7,22.8
	l-4.6,0.3l-6.8,7.6l-3.2,21.8l-3.8-5.3l-1.8,3.6l0.1,26.9l-6.1-8.6l-3.5,0l-0.5,8.6l-5.6,6.1l-9.6,3l-9.6,4.1l-0.8-11.7L158,385.7z"
	/>
<path class="st0" d="M158,385.7c0-0.8,4.3-9.4,4.3-9.4l13.7-4.8l15-14.5l8.6,3.8l5.6-3.8l6.3-32l7.3-1.3l4.5-6.9l0-8.9l11.7,22.8
	l-4.6,0.3l-6.8,7.6l-3.2,21.8l-3.8-5.3l-1.8,3.6l0.1,26.9l-6.1-8.6l-3.5,0l-0.5,8.6l-5.6,6.1l-9.6,3l-9.6,4.1l-0.8-11.7L158,385.7z"
	/>
<polygon class="st0" points="350,315.1 346,315.1 345.9,302.4 352.2,285.9 357,282.3 359.6,297.5 361,338.3 369.3,330.5 
	371.4,338.3 371.5,368 360.8,356.6 351.6,351.6 346.1,352.1 342.8,350.6 336.2,351.1 348.8,325.2 "/>
<polygon class="st0" points="350,315.1 346,315.1 345.9,302.4 352.2,285.9 357,282.3 359.6,297.5 361,338.3 369.3,330.5 
	371.4,338.3 371.5,368 360.8,356.6 351.6,351.6 346.1,352.1 342.8,350.6 336.2,351.1 348.8,325.2 "/>
<path class="st0" d="M377.9,293.4c0.8,0,11.1-6.6,11.1-6.6l7.8-15l6.5-25.6l10.9,11.4l14.6-32.5l7.6-2l11.9-5.9l14.4-16.8
	l-60.6,111.1l1.2-21l-14.2,3L377.9,293.4z"/>
<path class="st0" d="M377.9,293.4c0.8,0,11.1-6.6,11.1-6.6l7.8-15l6.5-25.6l10.9,11.4l14.6-32.5l7.6-2l11.9-5.9l14.4-16.8
	l-60.6,111.1l1.2-21l-14.2,3L377.9,293.4z"/>
<path class="st0" d="M411.6,389.9c0-0.8,7.6-15.7,7.6-15.7l11.1-14.2l5.5-27.1l7.1,2.3l11.5-48.4l4.3-5.6l4.3-3.5l6.6-15.3l0.1,22.1
	l-1.4,35.2l-12.8,51l-6.6,3.6l-1.8,0l-1.5-9.4l-4.8-0.7l-8.4,5.3l-7.8,12.2l-7.9,8.4L411.6,389.9z"/>
<path class="st0" d="M411.6,389.9c0-0.8,7.6-15.7,7.6-15.7l11.1-14.2l5.5-27.1l7.1,2.3l11.5-48.4l4.3-5.6l4.3-3.5l6.6-15.3l0.1,22.1
	l-1.4,35.2l-12.8,51l-6.6,3.6l-1.8,0l-1.5-9.4l-4.8-0.7l-8.4,5.3l-7.8,12.2l-7.9,8.4L411.6,389.9z"/>
<path class="st0" d="M380.5,188.6l-2.9,9l-13.4,23.8l-15.4,25.4l26.4-20.3l32.9-28l7.3-5.6l-4.3,17l7.1-9.4c0,0,10.1-16.8,22-8.4
	c4.6,8.4,8.6,11.9,8.6,11.9l1.8,0l1.2-10.4l5.8-3.8l6.9,1.3l30.3,63.3l2.2-36.5l4.8-17.5l2.4-25.3l-2.8-1.2c-4.8,1.6-8.9,4.5-12,8.5
	c0,0-2.8,6.7-7.4,6.3l-39.8-7.4l6.4-8.3l-20.9-1.1c0,0,3.4-6.5,4.4-24.7c0,0-13.2,17.7-21.7,21.1L380.5,188.6z"/>
<path class="st0" d="M380.5,188.6l-2.9,9l-13.4,23.8l-15.4,25.4l26.4-20.3l32.9-28l7.3-5.6l-4.3,17l7.1-9.4c0,0,10.1-16.8,22-8.4
	c4.6,8.4,8.6,11.9,8.6,11.9l1.8,0l1.2-10.4l5.8-3.8l6.9,1.3l30.3,63.3l2.2-36.5l4.8-17.5l2.4-25.3l-2.8-1.2c-4.8,1.6-8.9,4.5-12,8.5
	c0,0-2.8,6.7-7.4,6.3l-39.8-7.4l6.4-8.3l-20.9-1.1c0,0,3.4-6.5,4.4-24.7c0,0-13.2,17.7-21.7,21.1L380.5,188.6z"/>
<path class="st0" d="M497.4,14.7l-5.4,1.7l-6.1,9.8l-7.4,17.3L466,58.4l-9.4,14.2l-33.7,48.8L405,145.1l-24.3,27.1l-11.9,13.8
	c0,0-7.3,7.8-7.3,9.9c0,2.1-1.6,4.7,4.4,3.7s34.4-24.4,34.4-24.4s26.6-18.2,31.8-28c3.3-2.5-4.4,24.7-4.4,24.7l20.9,1.1l-6.4,8.3
	c0,0,31.7,8.8,39.8,7.4c5.9-1.2,11.5-16,23.1-14.2l-0.4-157.2l-3.9-2.5L497.4,14.7z"/>
<path class="st0" d="M497.4,14.7l-5.4,1.7l-6.1,9.8l-7.4,17.3L466,58.4l-9.4,14.2l-33.7,48.8L405,145.1l-24.3,27.1l-11.9,13.8
	c0,0-7.3,7.8-7.3,9.9c0,2.1-1.6,4.7,4.4,3.7s34.4-24.4,34.4-24.4s26.6-18.2,31.8-28c3.3-2.5-4.4,24.7-4.4,24.7l20.9,1.1l-6.4,8.3
	c0,0,31.7,8.8,39.8,7.4c5.9-1.2,11.5-16,23.1-14.2l-0.4-157.2l-3.9-2.5L497.4,14.7z"/>
<polygon class="st0" points="428.2,130.6 452.2,95.5 469.4,72.4 483,51.3 479,80.7 472.5,92.7 471.7,115 471.5,130.4 449.3,155.6 
	452.5,133.3 442.6,126 "/>
<polygon class="st0" points="428.2,130.6 452.2,95.5 469.4,72.4 483,51.3 479,80.7 472.5,92.7 471.7,115 471.5,130.4 449.3,155.6 
	452.5,133.3 442.6,126 "/>
<polygon class="st0" points="507.7,408 703.5,407.5 1058.8,408.8 1067.9,406.6 1062.4,393.3 1050.6,382.5 1027.6,375.8 915.4,325.4 
	824,279.4 758,243.6 728.1,231.5 665.4,189.6 623.5,155.2 539.3,150.3 507.1,176.3 "/>
<polygon class="st0" points="507.7,408 703.5,407.5 1058.8,408.8 1067.9,406.6 1062.4,393.3 1050.6,382.5 1027.6,375.8 915.4,325.4 
	824,279.4 758,243.6 728.1,231.5 665.4,189.6 623.5,155.2 539.3,150.3 507.1,176.3 "/>
<path class="st0" d="M536.9,299.6l31.6,31.4l0-2.4c0,0,32.5,16.1,38.9,28.6l3.7-4.1l2.7-16.9l6.4,4.7l14.9-2l36.6,23.6l18.3,6.4
	l22,2.3l-49.8-32.7l3.7-1.4l-33.5-26l-25.8-33.8l-13.3-25.1l7.8,23.6l15.3,26l1.4,12.8l-13.9-10.4l-1.3,27.7l-27.7-10.1l-23.4-18.5
	L536.9,299.6z"/>
<path class="st0" d="M536.9,299.6l31.6,31.4l0-2.4c0,0,32.5,16.1,38.9,28.6l3.7-4.1l2.7-16.9l6.4,4.7l14.9-2l36.6,23.6l18.3,6.4
	l22,2.3l-49.8-32.7l3.7-1.4l-33.5-26l-25.8-33.8l-13.3-25.1l7.8,23.6l15.3,26l1.4,12.8l-13.9-10.4l-1.3,27.7l-27.7-10.1l-23.4-18.5
	L536.9,299.6z"/>
<path class="st0" d="M676.3,340.5l-5.8-19.9l0-9l5.7-6.6l3.4-2.7l-4.6-14.2l-10.6-26.2l-8.5-21.7l-6.5-16.5l13.2,18.6l21.1,37.7
	c0,0,8.8,19,16.3,23.7l8.1,7.3l-9.5-4L688,294.5l3,17.1l1.1,23.2l-13.4-10.4L676.3,340.5z"/>
<path class="st0" d="M676.3,340.5l-5.8-19.9l0-9l5.7-6.6l3.4-2.7l-4.6-14.2l-10.6-26.2l-8.5-21.7l-6.5-16.5l13.2,18.6l21.1,37.7
	c0,0,8.8,19,16.3,23.7l8.1,7.3l-9.5-4L688,294.5l3,17.1l1.1,23.2l-13.4-10.4L676.3,340.5z"/>
<polygon class="st0" points="748.7,369 764.6,369 754.7,336.9 737,298.4 748.5,298.4 740.4,281.8 724.1,260.6 713.3,251.8 
	731.5,263.9 759.3,289.9 782.4,318.2 800,335.1 818.6,344.9 839.9,349.9 868,356.2 901.8,365.3 936.3,374.7 959.3,380.4 
	975.2,382.7 991.1,387.4 981.6,391.5 950.9,388.5 918.7,378.8 895.4,370.7 863.9,360 846,355.3 825.4,354 790.9,356.1 793.3,363.5 
	797.7,370.9 789.9,373.7 776.4,375.7 764.6,375.4 "/>
<polygon class="st0" points="748.7,369 764.6,369 754.7,336.9 737,298.4 748.5,298.4 740.4,281.8 724.1,260.6 713.3,251.8 
	731.5,263.9 759.3,289.9 782.4,318.2 800,335.1 818.6,344.9 839.9,349.9 868,356.2 901.8,365.3 936.3,374.7 959.3,380.4 
	975.2,382.7 991.1,387.4 981.6,391.5 950.9,388.5 918.7,378.8 895.4,370.7 863.9,360 846,355.3 825.4,354 790.9,356.1 793.3,363.5 
	797.7,370.9 789.9,373.7 776.4,375.7 764.6,375.4 "/>
<path class="st0" d="M527.2,191.7l11.5,58.3l2.9-58.3l8.1,0c0,0,14,12.6,14,17.4l-3.1-26.4c0,0,10.6-5.9,43.2,20.9
	c4.1,4.3,14.7,1,14.7,1s-12.2-9.4-9.1-10.6c0,0,36.8-8.5,69.2,18.3l-38.7-43.8l-21.4-9.6l-67.2-8.7l-14.6,7.1L527.2,191.7z"/>
<path class="st0" d="M527.2,191.7l11.5,58.3l2.9-58.3l8.1,0c0,0,14,12.6,14,17.4l-3.1-26.4c0,0,10.6-5.9,43.2,20.9
	c4.1,4.3,14.7,1,14.7,1s-12.2-9.4-9.1-10.6c0,0,36.8-8.5,69.2,18.3l-38.7-43.8l-21.4-9.6l-67.2-8.7l-14.6,7.1L527.2,191.7z"/>
<path class="st0" d="M504.8,17.2l3.2,0l7.4,2.4l3.8,0l0-4.9c0,0,8.6,3.9,11.7,7.9s9.7,16.7,9.7,16.7l38.1,43l59.5,67.9l27.2,29.6
	c0,0,1.7,7,0.1,9.9c0,0-23.3-22.9-32.5-22.4c-9.1,0.6-4.9,9.5-7.7,10.8c-2.8,1.3-24-19.6-28.4-18.2c-4.4,1.4-10.4,7-14.8,14.6
	c-5.3,3.4-8.4-15.4-11.8-14.3c-3.4,1.1-3.1,4.4-7.5,4.7c-4.3,0.3-9.7-13.8-13.1-12.5s-16.9,39-22.2,40.6
	c-5.3,1.6-22.3-17.4-22.3-17.4L504.8,17.2z"/>
<path class="st0" d="M504.8,17.2l3.2,0l7.4,2.4l3.8,0l0-4.9c0,0,8.6,3.9,11.7,7.9s9.7,16.7,9.7,16.7l38.1,43l59.5,67.9l27.2,29.6
	c0,0,1.7,7,0.1,9.9c0,0-23.3-22.9-32.5-22.4c-9.1,0.6-4.9,9.5-7.7,10.8c-2.8,1.3-24-19.6-28.4-18.2c-4.4,1.4-10.4,7-14.8,14.6
	c-5.3,3.4-8.4-15.4-11.8-14.3c-3.4,1.1-3.1,4.4-7.5,4.7c-4.3,0.3-9.7-13.8-13.1-12.5s-16.9,39-22.2,40.6
	c-5.3,1.6-22.3-17.4-22.3-17.4L504.8,17.2z"/>
<path class="st0" d="M513,34.8c0,0,7.6,2.2,7.6,1.7s1.5-6.8,1.5-6.8l10.9,26l9.2,12.5L541,81.3l-8.6,9l2.5,66.8l-4.6,3.4l-2.6-18.8
	l-4.9-7.8l-1.3,10.5l-2.7-3l-1.6-26.7l-5.7,0.2L513,34.8z"/>
<path class="st0" d="M513,34.8c0,0,7.6,2.2,7.6,1.7s1.5-6.8,1.5-6.8l10.9,26l9.2,12.5L541,81.3l-8.6,9l2.5,66.8l-4.6,3.4l-2.6-18.8
	l-4.9-7.8l-1.3,10.5l-2.7-3l-1.6-26.7l-5.7,0.2L513,34.8z"/>
<polygon class="st0" points="582.5,106.9 623.4,147.8 617.9,147.9 618.1,155.2 598.8,137.5 593.2,137.8 589.7,143.3 587.2,158.3 
	585.6,141.8 585.5,124.3 "/>
<polygon class="st0" points="582.5,106.9 623.4,147.8 617.9,147.9 618.1,155.2 598.8,137.5 593.2,137.8 589.7,143.3 587.2,158.3 
	585.6,141.8 585.5,124.3 "/>
<path class="st1" d="M1.9,403.6c0,0,7.1-0.5,19.7-14.8s19.7-22.9,46.1-27.5c5.3,0,76.1-41.9,88.1-54.8c6.6-2.7,4.8,12.3,18.3,12.8
	s53.9-25.3,70.4-48.7c8.6-11.2,46.3-17.4,51.7-19.9c5.3-2.6,77.6-70.2,77.6-70.2s-13.6,14.4-12.4,16.9s6.3,0.5,6.3,0.5l20.6-15
	l28-18.6c0,0,13.9-12,16-17.3c0,0,0,16.7-4.4,24.7l20.9,1.1l-6.4,8.3c0,0,32.9,7.6,39.8,7.4c0,0,2.4,0.7,7.4-6.3
	c2.9-4.1,7.1-7.1,12-8.5l5.6,2.4l0.6,231.7l-477.4,1.1L1.9,403.6z"/>
<path class="st2" d="M158,385.7c0-0.8,4.3-9.4,4.3-9.4l13.7-4.8l15-14.5l8.6,3.8l5.6-3.8l6.3-32l7.3-1.3l4.5-6.9l0-8.9l11.7,22.8
	l-4.6,0.3l-6.8,7.6l-3.2,21.8l-3.8-5.3l-1.8,3.6l0.1,26.9l-6.1-8.6l-3.5,0l-0.5,8.6l-5.6,6.1l-9.6,3l-9.6,4.1l-0.8-11.7L158,385.7z"
	/>
<polygon class="st2" points="350,315.1 346,315.1 345.9,302.4 352.2,285.9 357,282.3 359.6,297.5 361,338.3 369.3,330.5 
	371.4,338.3 371.5,368 360.8,356.6 351.6,351.6 346.1,352.1 342.8,350.6 336.2,351.1 348.8,325.2 "/>
<path class="st2" d="M377.9,293.4c0.8,0,11.1-6.6,11.1-6.6l7.8-15l6.5-25.6l10.9,11.4l14.6-32.5l7.6-2l11.9-5.9l14.4-16.8
	l-60.6,111.1l1.2-21l-14.2,3L377.9,293.4z"/>
<path class="st2" d="M411.6,389.9c0-0.8,7.6-15.7,7.6-15.7l11.1-14.2l5.5-27.1l7.1,2.3l11.5-48.4l4.3-5.6l4.3-3.5l6.6-15.3l0.1,22.1
	l-1.4,35.2l-12.8,51l-6.6,3.6l-1.8,0l-1.5-9.4l-4.8-0.7l-8.4,5.3l-7.8,12.2l-7.9,8.4L411.6,389.9z"/>
<path class="st3" d="M380.5,188.6l-2.9,9l-13.4,23.8l-15.4,25.4l26.4-20.3l32.9-28l7.3-5.6l-4.3,17l7.1-9.4c0,0,10.1-16.8,22-8.4
	c4.6,8.4,8.6,11.9,8.6,11.9l1.8,0l1.2-10.4l5.8-3.8l6.9,1.3l30.3,63.3l2.2-36.5l4.8-17.5l2.4-25.3l-2.8-1.2c-4.8,1.6-8.9,4.5-12,8.5
	c0,0-2.8,6.7-7.4,6.3l-39.8-7.4l6.4-8.3l-20.9-1.1c0,0,3.4-6.5,4.4-24.7c0,0-13.2,17.7-21.7,21.1L380.5,188.6z"/>
<path class="st4" d="M497.4,14.7l-5.4,1.7l-6.1,9.8l-7.4,17.3L466,58.4l-9.4,14.2l-33.7,48.8L405,145.1l-24.3,27.1l-11.9,13.8
	c0,0-7.3,7.8-7.3,9.9c0,2.1-1.6,4.7,4.4,3.7s34.4-24.4,34.4-24.4s26.6-18.2,31.8-28c3.3-2.5-4.4,24.7-4.4,24.7l20.9,1.1l-6.4,8.3
	c0,0,31.7,8.8,39.8,7.4c5.9-1.2,11.5-16,23.1-14.2l-0.4-157.2l-3.9-2.5L497.4,14.7z"/>
<polygon class="st5" points="428.2,130.6 452.2,95.5 469.4,72.4 483,51.3 479,80.7 472.5,92.7 471.7,115 471.5,130.4 449.3,155.6 
	452.5,133.3 442.6,126 "/>
<polygon class="st6" points="507.7,408 703.5,407.5 1058.8,408.8 1067.9,406.6 1062.4,393.3 1050.6,382.5 1027.6,375.8 915.4,325.4 
	824,279.4 758,243.6 728.1,231.5 665.4,189.6 623.5,155.2 539.3,150.3 507.1,176.3 "/>
<path class="st7" d="M536.9,299.6l31.6,31.4l0-2.4c0,0,32.5,16.1,38.9,28.6l3.7-4.1l2.7-16.9l6.4,4.7l14.9-2l36.6,23.6l18.3,6.4
	l22,2.3l-49.8-32.7l3.7-1.4l-33.5-26l-25.8-33.8l-13.3-25.1l7.8,23.6l15.3,26l1.4,12.8l-13.9-10.4l-1.3,27.7l-27.7-10.1l-23.4-18.5
	L536.9,299.6z"/>
<path class="st7" d="M676.3,340.5l-5.8-19.9l0-9l5.7-6.6l3.4-2.7l-4.6-14.2l-10.6-26.2l-8.5-21.7l-6.5-16.5l13.2,18.6l21.1,37.7
	c0,0,8.8,19,16.3,23.7l8.1,7.3l-9.5-4L688,294.5l3,17.1l1.1,23.2l-13.4-10.4L676.3,340.5z"/>
<polygon class="st7" points="748.7,369 764.6,369 754.7,336.9 737,298.4 748.5,298.4 740.4,281.8 724.1,260.6 713.3,251.8 
	731.5,263.9 759.3,289.9 782.4,318.2 800,335.1 818.6,344.9 839.9,349.9 868,356.2 901.8,365.3 936.3,374.7 959.3,380.4 
	975.2,382.7 991.1,387.4 981.6,391.5 950.9,388.5 918.7,378.8 895.4,370.7 863.9,360 846,355.3 825.4,354 790.9,356.1 793.3,363.5 
	797.7,370.9 789.9,373.7 776.4,375.7 764.6,375.4 "/>
<path class="st7" d="M527.2,191.7l11.5,58.3l2.9-58.3l8.1,0c0,0,14,12.6,14,17.4l-3.1-26.4c0,0,10.6-5.9,43.2,20.9
	c4.1,4.3,14.7,1,14.7,1s-12.2-9.4-9.1-10.6c0,0,36.8-8.5,69.2,18.3l-38.7-43.8l-21.4-9.6l-67.2-8.7l-14.6,7.1L527.2,191.7z"/>
<path class="st8" d="M504.8,17.2l3.2,0l7.4,2.4l3.8,0l0-4.9c0,0,8.6,3.9,11.7,7.9s9.7,16.7,9.7,16.7l38.1,43l59.5,67.9l27.2,29.6
	c0,0,1.7,7,0.1,9.9c0,0-23.3-22.9-32.5-22.4c-9.1,0.6-4.9,9.5-7.7,10.8c-2.8,1.3-24-19.6-28.4-18.2c-4.4,1.4-10.4,7-14.8,14.6
	c-5.3,3.4-8.4-15.4-11.8-14.3c-3.4,1.1-3.1,4.4-7.5,4.7c-4.3,0.3-9.7-13.8-13.1-12.5s-16.9,39-22.2,40.6
	c-5.3,1.6-22.3-17.4-22.3-17.4L504.8,17.2z"/>
<path class="st9" d="M513,34.8c0,0,7.6,2.2,7.6,1.7s1.5-6.8,1.5-6.8l10.9,26l9.2,12.5L541,81.3l-8.6,9l2.5,66.8l-4.6,3.4l-2.6-18.8
	l-4.9-7.8l-1.3,10.5l-2.7-3l-1.6-26.7l-5.7,0.2L513,34.8z"/>
<polygon class="st9" points="582.5,106.9 623.4,147.8 617.9,147.9 618.1,155.2 598.8,137.5 593.2,137.8 589.7,143.3 587.2,158.3 
	585.6,141.8 585.5,124.3 "/>
</svg>
