<?xml version="1.0" encoding="utf-8"?>
<!-- Generator: Adobe Illustrator 21.1.0, SVG Export Plug-In . SVG Version: 6.00 Build 0)  -->
<svg version="1.1" id="Layer_2" xmlns="http://www.w3.org/2000/svg" xmlns:xlink="http://www.w3.org/1999/xlink" x="0px" y="0px"
	 viewBox="0 0 1066 395.5" style="enable-background:new 0 0 1066 395.5;" xml:space="preserve">
<style type="text/css">
	.st0{fill:#3285BB;}
	.st1{fill:#197DB3;}
	.st2{fill:#197CB3;}
	.st3{fill:#FFFFFF;}
	.st4{fill:#F2F2F2;}
	.st5{fill:#2E77A9;}
	.st6{fill:#1C5D93;}
	.st7{fill:#E6E6E6;}
	.st8{fill:#DBDBDB;}
</style>
<path class="st0" d="M-0.2,395.5c9.4-9.8,15.6-17.1,20-22.5c3.2-4,8.6-10.7,17.9-17.2c0.5-0.4,1-0.7,1.5-1c6.4-4,14.5-7,26.8-9.2
	c5.3,0,76.2-41.7,88.2-54.6c6.6-2.7,4.7,12.3,18.3,12.8s54-25.2,70.5-48.5c8.6-11.2,46.4-17.2,51.7-19.8s77.7-70,77.7-70
	s-13.6,14.4-12.5,16.9s6.3,0.5,6.3,0.5l20.7-15l28-18.5c0,0,13.9-12,16-17.2c0,0,0,16.7-4.4,24.7l20.9,1.1l-6.5,8.2
	c0,0,32.9,7.7,39.8,7.5c0,0,2.4,0.7,7.4-6.3c2.9-4.1,7.2-7.1,12-8.5l5.6,2.4c0,78,0,155.9,0.1,233.9c-141.6,0.1-335.3,0.1-476.9,0
	C28.2,395.5,0.5,395.5-0.2,395.5z"/>
<path class="st1" d="M156.2,370.2c0-0.8,4.3-9.4,4.3-9.4l13.7-4.8l15-14.5l8.6,3.8l5.6-3.8l6.3-32l7.4-1.3l4.6-6.8v-8.9l11.7,22.8
	l-4.6,0.3l-6.9,7.6l-3.3,21.8l-3.8-5.3l-1.8,3.5v26.9l-6.1-8.6h-3.5l-0.5,8.6l-5.6,6.1l-9.6,3l-9.6,4.1l-0.8-11.7L156.2,370.2z"/>
<polygon class="st1" points="348.3,300 344.3,300 344.3,287.3 350.6,270.9 355.4,267.3 358,282.5 359.2,323.3 367.6,315.5 
	369.6,323.3 369.6,353 359,341.6 349.9,336.5 344.3,337 341,335.5 334.4,336 347.1,310.1 "/>
<path class="st1" d="M376.2,278.4c0.8,0,11.1-6.6,11.1-6.6l7.9-15l6.6-25.6l10.9,11.5l14.7-32.5l7.6-2l11.9-5.8l14.5-16.7l-60.8,111
	l1.3-21l-14.2,3L376.2,278.4z"/>
<path class="st1" d="M409.7,375c0-0.8,7.6-15.7,7.6-15.7l11.2-14.2L434,318l7.1,2.3l11.6-48.4l4.3-5.6l4.3-3.5l6.6-15.3v22.1
	l-1.5,35.2l-12.9,51l-6.6,3.5h-1.8l-1.5-9.4l-4.8-0.8l-8.4,5.3l-7.9,12.2l-7.9,8.4H409.7z"/>
<path class="st2" d="M379.2,173.6l-2.9,9l-13.5,23.8l-15.5,25.3l26.4-20.3l33-27.9l7.3-5.6l-4.3,17l7.1-9.4c0,0,10.1-16.7,22.1-8.4
	c4.6,8.4,8.6,11.9,8.6,11.9h1.8l1.3-10.4l5.8-3.8l6.8,1.3l30.2,63.4l2.3-36.5l4.8-17.5l2.5-25.3l-2.8-1.2c-4.8,1.5-8.9,4.5-12,8.5
	c0,0-2.8,6.7-7.4,6.3l-39.8-7.5l6.5-8.2l-20.9-1.1c0,0,3.5-6.5,4.4-24.7c0,0-13.3,17.6-21.8,21.1L379.2,173.6z"/>
<path class="st3" d="M496.4,0L491,1.7l-6.1,9.8l-7.4,17.2L465,43.6l-9.5,14.2l-33.8,48.7l-17.9,23.6l-24.3,27l-11.9,13.8
	c0,0-7.3,7.8-7.4,9.9s-1.6,4.7,4.4,3.7s34.4-24.3,34.4-24.3s26.7-18.2,31.9-27.9c3.3-2.5-4.4,24.7-4.4,24.7l20.9,1.1l-6.5,8.2
	c0,0,31.7,8.9,39.8,7.5c5.9-1.2,11.5-16,23.2-14.2V2.5L499.9,0L496.4,0z"/>
<polygon class="st4" points="426.9,115.7 451,80.7 468.3,57.6 481.9,36.6 477.9,66 471.3,77.9 470.5,100.2 470.3,115.7 448,140.8 
	451.3,118.5 441.4,111.1 "/>
<path class="st5" d="M505.8,395.5c98.8,0,197.7,0,296.5,0c84.8,0,169.7,0,254.5,0c3,0,6.1,0,9.1,0c-1.8-5.2-3.6-10.4-5.4-15.5
	l-11.8-10.8l-23-6.8l-112.1-50.7l-91.3-46.1l-65.9-36l-29.9-12.2l-62.5-42.1l-41.9-34.5l-84.2-5.1l-32.2,25.9
	C505.8,239.6,505.8,317.5,505.8,395.5z"/>
<path class="st6" d="M535.3,285l31.5,31.4V314c0,0,32.5,16.2,38.9,28.7l3.7-4.1l2.7-16.9l6.4,4.7l14.9-2l36.5,23.7l18.3,6.4l22,2.4
	l-49.7-32.8l3.7-1.3l-33.5-26.1L605,262.8l-13.2-25.2l7.8,23.7l15.2,26l1.3,12.8l-13.9-10.5l-1.3,27.7l-27.7-10.1l-23.3-18.6
	L535.3,285z"/>
<path class="st6" d="M674.5,326.2l-5.8-20v-9l5.8-6.6l3.4-2.7l-4.6-14.2l-10.6-26.2l-8.5-21.7l-6.4-16.6l13.2,18.6l21,37.8
	c0,0,8.8,19,16.2,23.8l8.1,7.3l-9.5-4l-10.6-12.5l3,17.1l1,23.2L677,310L674.5,326.2z"/>
<polygon class="st6" points="746.9,354.9 762.8,354.9 753,322.8 735.4,284.3 746.9,284.3 738.8,267.7 722.5,246.4 711.7,237.6 
	730,249.8 757.7,275.8 780.7,304.2 798.3,321.1 816.8,330.9 838.1,336 866.2,342.4 900,351.5 934.5,361 957.5,366.8 973.3,369.1 
	989.2,373.9 979.8,377.9 949,374.9 916.9,365.1 893.6,357 862.1,346.1 844.2,341.4 823.6,340.1 789.1,342.1 791.5,349.5 795.9,357 
	788.1,359.7 774.6,361.7 762.8,361.4 "/>
<path class="st6" d="M525.8,177l11.4,58.3l3-58.3h8.1c0,0,14,12.7,14,17.5l-3-26.4c0,0,10.7-5.8,43.1,21c4.1,4.3,14.7,1,14.7,1
	s-12.2-9.4-9.1-10.6c0,0,36.8-8.4,69.1,18.5l-38.6-43.8l-21.4-9.6l-67.2-8.9l-14.6,7.1L525.8,177z"/>
<path class="st7" d="M503.8,2.5h3.2l7.3,2.4h3.8V0c0,0,8.6,3.9,11.7,7.9s9.6,16.7,9.6,16.7l38,43.1l59.3,68l27.1,29.7
	c0,0,1.7,7,0.1,9.9c0,0-23.3-23-32.4-22.4s-4.9,9.5-7.7,10.8s-24-19.6-28.4-18.3s-10.4,7-14.8,14.6c-5.3,3.4-8.4-15.5-11.8-14.3
	s-3.2,4.4-7.5,4.7s-9.7-13.8-13-12.6s-17,38.9-22.3,40.5s-22.2-17.5-22.2-17.5L503.8,2.5z"/>
<path class="st8" d="M512,20.1c0,0,7.6,2.2,7.6,1.7s1.5-6.8,1.5-6.8l10.8,26l9.1,12.5l-1.2,13.2l-8.6,9l2.4,66.8l-4.6,3.4l-2.5-18.8
	l-4.9-7.8l-1.3,10.5l-2.7-3l-1.5-26.7l-5.7,0.2L512,20.1z"/>
<polygon class="st8" points="581.3,92.4 622.1,133.4 616.6,133.4 616.8,140.8 597.5,123 592,123.3 588.4,128.9 585.9,143.8 
	584.3,127.3 584.3,109.9 "/>
<path class="st5" d="M575.5,434.4"/>
</svg>
