<svg xmlns="http://www.w3.org/2000/svg" viewBox="0 0 316.58 612.13"><defs><style>.cls-1{fill:none;stroke:#2a3071;stroke-linejoin:round;stroke-width:9px;}.cls-2{fill:#a51e28;}.cls-3{fill:#252737;}.cls-4{fill:#f8f7f3;}.cls-5{fill:#b7b7b7;}.cls-6{fill:#fffef2;}.cls-7{fill:#fefdf2;}.cls-8{fill:#4e1318;}.cls-9{fill:#e8862d;}.cls-10{fill:#fff;}.cls-11{fill:#21376d;}</style></defs><g id="Layer_29" data-name="Layer 29"><polygon class="cls-1" points="188.25 590.63 202.5 582.88 234 581.88 244 582.88 248.5 591.13 248.25 603.13 240.5 607.63 201.25 607.63 188.25 601.38 188.25 590.63"/><polygon class="cls-1" points="129.75 587.49 115.5 578.31 84 577.13 74 578.31 69.5 588.08 69.75 602.29 77.5 607.63 116.75 607.63 129.75 600.22 129.75 587.49"/><polygon class="cls-1" points="140.5 294.19 135.17 297.69 92.83 290.51 88.17 262 88.83 252.44 93 250.6 94 222.46 217.33 222.46 224.17 264.4 219.33 296.58 176.5 298.79 171.33 294.38 140.5 294.19"/><path class="cls-1" d="M284.17,708.67l-15.34-4.17-29.16-.67-5.5,3.5-.34-4.5,5.84-1.16.16-3.5-8.16-3.84s1.5-26.66,1.5-27.33,7.5-6,7.5-6l2.5-56.17L233.33,592l1.84-46.33-5.34-.84,1.5-26.16,14.5-3.84,4.34-30.66-4.67-4.67,1.83-68.17,5.34-6.16,22.66,2,1.17,12.66,18.67,4-.34,46.84-9.66,15,1.66,29.5,17.67,6.66L304,546.5l-6.83,2.33,3.33,21-15,38.34-.83,58.33,6.83,2.5,1.33,27.5-5.5,4.5-10.83-.17.67,1.34,7.33.66Z" transform="translate(-159.5 -126.38)"/><polygon class="cls-1" points="194 583.63 194.25 576.13 190.5 582.63 187.5 583.13 188.75 568.13 191 566.63 190.5 553.13 186 552.38 186.25 557.38 183 557.63 183.5 532.88 188.75 530.38 190.25 475.63 173.25 447.38 175 423.38 169 421.88 167 396.38 186 390.63 185.25 359.13 178 351.88 176.5 298.63 193.75 294.38 196.25 280.63 220 280.38 226.75 289.88 228 350.88 222.5 356.13 225.5 388.63 242.75 390.88 245 417.38 238 419.13 242.75 441.13 231 472.13 233.5 526.63 241.75 528.38 242.5 548.13 239.25 550.38 244.5 580.88 194 583.63"/><polygon class="cls-1" points="218.38 280.38 195 280.38 192.96 294.57 176.46 298.25 177.25 352.86 184.57 359.63 185.96 389.13 167 396.88 169.02 422.88 174.25 422.88 173.32 446.38 189.3 475.23 188.25 530.61 183.13 533.37 183.13 557.62 186.18 557.62 186.01 552.59 189.98 552.98 190.99 566.67 188.71 567.93 187.44 583.63 190.23 582.64 194.03 576.55 194.03 583.63 226.75 582.29 234.25 563.63 227.16 433.99 223.33 432 217.5 361.65 218.38 280.38"/><polygon class="cls-1" points="245 417.43 237.64 419.46 234.25 408.98 245 417.43"/><polygon class="cls-1" points="114.94 280.69 93.13 278.79 88.17 284.57 85.53 352.69 90.09 357.77 85.53 388.67 71.84 392.75 70.33 418.61 75.39 419.5 73.5 465.88 83.16 477.94 80.97 534.47 73.5 540.38 71.67 567.51 79.88 571.58 79.88 575.35 74.03 576.3 74.71 581.37 79.95 577.65 109.53 578.16 118 571.23 117.56 539.75 104.38 533.2 125.31 529.88 125.31 481.99 141.25 443.46 121.75 430.54 121.75 387.63 121.75 358.27 124.57 332.41 135.56 326.84 135.22 297.09 117.3 293.37 114.94 280.69"/><polygon class="cls-1" points="86.25 539.75 109.25 539.75 105.25 559.25 87.25 559 86.25 539.75"/><polygon class="cls-1" points="204 541.56 226.25 541.56 224.5 563.07 207.25 563.63 204 541.56"/><polygon class="cls-1" points="195 536.38 203.5 540.38 204.5 519.38 217.5 518.13 221.75 535.88 229 537.13 228 541.63 195.5 541.63 195 536.38"/><polygon class="cls-1" points="118 535.13 109.5 539.13 108.5 518.13 95.5 516.88 91.25 534.63 84 535.88 85 540.38 117.5 540.38 118 535.13"/><polygon class="cls-1" points="88.75 466.88 94.75 466.88 98.75 489.13 107 489.13 112 468.13 120 468.13 117.88 470.25 115.25 471.38 108.75 509.63 97.25 509.63 92.5 471.13 89.25 471.13 88.75 466.88"/><polygon class="cls-1" points="196.5 473.63 202.25 473.63 205.5 490.38 215 490.38 219 472.13 225.75 472.13 224.75 473.88 221 474.63 217.25 509.63 205.25 509.63 200.25 476.13 197.25 476.63 196.5 473.63"/><polygon class="cls-1" points="75 424.63 80.25 422.88 85.75 426.88 86.25 465.88 83.25 465.63 78.5 448.13 73.5 438.88 75 424.63"/><polygon class="cls-1" points="121.75 467.88 124.25 429.88 129.25 425.88 138.75 427.63 141.25 440.63 135.25 445.63 129.25 455.63 126.25 466.13 121.75 467.88"/><polygon class="cls-1" points="192 469.63 188.75 469.63 174.25 441.13 174.5 429.88 184.75 432.13 189 436.88 192 469.63"/><polygon class="cls-1" points="226.75 465.38 226.75 434.38 231.25 429.38 240 427.38 241.75 436.88 237 445.63 232.75 456.38 230.5 462.38 230.25 465.38 226.75 465.38"/><polygon class="cls-1" points="99.25 399.63 109.5 399.63 112.75 387.13 117 387.13 117 376.88 111.25 373.38 96.75 374.63 93 384.63 96.5 386.13 99.25 399.63"/><path class="cls-1" d="M259,504l.75,11.5,11-.25L272,503.5s-1.5-2-2.25-2-8.5-.5-8.5-.5Z" transform="translate(-159.5 -126.38)"/><polygon class="cls-1" points="198.25 386.88 201.25 396.88 212 396.88 213.75 386.13 217.5 383.88 215.5 370.13 211.75 367.38 199.25 368.13 191.5 372.38 192.75 386.13 198.25 386.88"/><polygon class="cls-1" points="200 370.38 198 376.88 200.75 387.63 210.75 387.63 213.5 377.63 210 370.13 200 370.38"/><polygon class="cls-1" points="143.5 218.29 167.83 218.29 171 220.96 171 294.96 167.67 300.79 145 300.79 141.17 295.13 141.17 219.96 143.5 218.29"/><polygon class="cls-1" points="141.33 225.46 137.83 225.63 136.33 230.13 93 230.13 90 256.63 86.33 257.63 87 266.79 96 271.79 95.67 274.29 85 272.79 78.33 267.29 79 251.29 74.17 250.46 83.83 214.63 88.17 210.29 95.33 210.29 98.17 218.13 133.33 218.13 137.83 214.29 140.5 214.96 140.83 219.29 171.5 219.29 173.83 215.13 214.17 215.13 216.67 211.96 221.83 208.96 228.33 209.79 238.83 244.46 232.17 251.79 235.17 268.63 224.17 274.79 218 274.29 218 269.29 225 269.29 218.17 226.79 172.5 225.63 170.33 223.46 141.33 225.46"/><polygon class="cls-1" points="204.17 213.29 198.67 188.96 206.5 166.96 206.67 147.63 108.83 147.63 108.83 168.13 120 190.29 112 214.79 204.17 213.29"/><polygon class="cls-1" points="99.75 218.16 100.34 210.09 133.83 210.09 137.08 214.83 133.25 218.21 99.75 218.16"/><polygon class="cls-1" points="177.25 215.06 177.88 210 209.81 210 211.5 215.25 177.25 215.06"/><polygon class="cls-1" points="98.33 85.46 100.5 82.29 76.33 66.29 53.17 63.46 40 70.13 42 111.29 50 118.96 50.5 132.96 45.33 150.29 41.67 165.46 28 165.13 23.33 181.96 32.33 188.29 15.17 239.96 19.83 242.79 18.17 251.46 21.5 252.46 19.88 258 44 260.75 44 257.38 48.63 257.13 51.13 247.88 47 245.5 53.38 229.25 59.88 227.13 67.13 198.38 70 197.88 74.5 178.13 65.83 176.13 61.5 168.96 71.83 161.13 80.83 133.79 93.83 97.13 98.33 85.46"/><polygon class="cls-1" points="216 85.79 213.83 82.63 238 66.63 261.17 63.79 274.33 70.46 272.33 111.63 264.33 119.29 263.83 133.29 269 150.63 272.67 165.79 286.33 165.46 291 182.29 282 188.63 299.17 240.29 294.5 243.13 296.17 251.79 292.83 252.79 294.46 258.33 270.33 261.08 270.33 257.71 265.71 257.46 263.21 248.21 267.33 245.83 260.96 229.58 254.46 227.46 247.21 198.71 244.33 198.21 239.83 178.46 248.5 176.46 252.83 169.29 242.5 161.46 233.5 134.13 220.5 97.46 216 85.79"/><polygon class="cls-1" points="40.26 75.38 54.83 68 94.44 81.29 94.44 95.56 70.25 165.6 62.54 168.64 65.58 175.06 74.67 178.1 70.25 197.71 66.6 198.72 59.84 226.78 53.75 229.48 46.99 245.37 51.05 248.08 48.51 257.2 43.95 257.2 43.95 260.75 20.24 258.04 21.89 252.56 18.09 251.29 19.36 242.92 15.17 239.88 32.29 188.67 23.16 182.08 27.98 165.09 43.19 155.46 50.54 133.15 50.03 118.69 41.67 111.09 40.26 75.38"/><polygon class="cls-1" points="94.44 230.13 98.2 217.06 95.42 210 88.17 210 84.31 214.15 74.17 250.53 78.68 251.29 78.43 267.26 84.77 272.84 95.42 274.36 96.18 271.57 86.8 266.25 86.8 257.12 89.67 256.72 94.44 230.13"/><polygon class="cls-1" points="171 219.29 141.25 238.1 141.25 295.25 145 301.48 167 301.48 171.22 294.89 171 219.29"/><polygon class="cls-1" points="213.83 215.79 217.5 226.78 224.74 267.69 218.37 269.03 218.37 274.1 224 274.1 232.06 270.05 220.33 219.29 213.83 215.79"/><polygon class="cls-1" points="218.88 214.79 224.17 212.63 236.08 242.18 234.25 244.95 222.95 215.79 218.88 214.79"/><polygon class="cls-1" points="171.22 294.89 167 301.48 167 271.4 170.88 267 171.22 294.89"/><polygon class="cls-1" points="217.42 89.46 259.75 68 266.83 75.38 266.83 116.9 264.33 119.29 232.06 130.07 217.42 89.46"/><polygon class="cls-1" points="234.71 137.79 259.75 130.07 266.83 157.99 270.09 174.13 248.25 174.13 242.13 162.1 234.71 137.79"/><polygon class="cls-1" points="282 188.63 278.92 174.13 291 182.29 282 188.63"/><polygon class="cls-1" points="239.83 178.46 244.33 198.21 256.5 198.21 248.5 176.46 239.83 178.46"/><polygon class="cls-1" points="277.02 198.21 278.92 195 293.75 249.77 289.46 249.77 277.02 198.21"/><polygon class="cls-1" points="264.01 219.29 273.47 218.21 284.96 253.82 274.48 255.85 264.01 219.29"/><polygon class="cls-1" points="53.63 213.13 37.25 209.5 39.25 200.63 36.33 186.13 41.5 165.29 40 160.79 43 153.46 50.17 152.46 55.33 135.13 68.17 137.96 62.5 156.29 74.67 161.63 74.17 169.46 67 171.46 63.17 171.13 64.17 177.63 60.83 204.13 54.5 204.96 53.63 213.13"/><polygon class="cls-1" points="54.92 119.29 54.83 126.21 81 134.38 85.67 120.29 71 110.54 71.58 123.71 54.92 119.29"/><path class="cls-1" d="M254.42,211.67s-5.75-7.75-6.09-7.92-6.83-2-6.83-2l-2.83,4.08,7.41,10.5,6.5,3.92Z" transform="translate(-159.5 -126.38)"/><polygon class="cls-1" points="261.63 215.79 278 212.17 276 203.29 278.92 188.79 273.75 167.96 275.25 163.46 272.25 156.13 265.08 155.13 259.92 137.79 247.08 140.63 252.75 158.96 240.58 164.29 241.08 172.13 248.25 174.13 252.08 173.79 251.08 180.29 254.42 206.79 260.75 207.63 261.63 215.79"/><polygon class="cls-1" points="260.33 121.96 260.42 128.88 234.25 137.04 229.58 122.96 244.25 113.21 243.67 126.38 260.33 121.96"/><path class="cls-1" d="M379.83,214.33s5.75-7.75,6.09-7.91,6.83-2,6.83-2l2.83,4.08L388.17,219l-6.5,3.92Z" transform="translate(-159.5 -126.38)"/><path class="cls-1" d="M179.33,384.42l-3.58.08-10.87,7.13-.88,8.62,11.13,7.13-.75,13.37,3.12,1.75,3.13-2,1.62,3.88,4.63.25,2-4.13a9.25,9.25,0,0,0,1,2.5,28.09,28.09,0,0,0,4.12.5l1.38-3.62,2.12,2.87,4.63,1.13L206.5,418l2.75-29.62L203.13,387Z" transform="translate(-159.5 -126.38)"/><path class="cls-1" d="M456.25,384.42l3.58.08,10.88,7.13.87,8.62-11.12,7.13.75,13.37-3.13,1.75-3.12-2-1.63,3.88-4.62.24-2-4.12a9.59,9.59,0,0,1-1,2.5,28.37,28.37,0,0,1-4.13.5l-1.37-3.63-2.13,2.88-4.62,1.12L429.08,418l-2.75-29.63,6.13-1.37Z" transform="translate(-159.5 -126.38)"/><path class="cls-1" d="M291,195.5c-1.08,2.38-2.17,4.75-3.25,7.13l-34.25,2.62,3.88,21.5h118l3-22.12L347,200.25l-3.87-5.87Z" transform="translate(-159.5 -126.38)"/><polygon class="cls-1" points="217.5 84.79 216.83 121.79 223.33 147.96 219.33 150.79 174.33 152.13 174.17 194.29 172.17 214.29 171.17 219.46 140.17 218.96 138.67 210.63 138 194.46 138.33 153.96 95.17 150.63 89.67 143.96 97.17 119.29 93.83 85.13 217.5 84.79"/><polygon class="cls-1" points="134.67 86.13 179.17 86.13 186.5 78.46 191.5 78.46 191.5 89.13 176.83 110.96 137.33 110.96 123 91.13 123.33 78.46 128.17 78.46 134.67 86.13"/><polygon class="cls-1" points="177.17 145.96 176.5 125.13 208.67 124.13 210.5 140.96 198 141.79 197.5 145.63 177.17 145.96"/><path class="cls-1" d="M295,252.33l-1,20-21-1.16s.67-3.17.17-3.17l-13-.17L262,251.17Z" transform="translate(-159.5 -126.38)"/><path class="cls-1" d="M274.17,205.17c-1.17-1-1.67-15.17-1.67-15.17l-4-2.5-4.17-37.83L261,146.5l-4.83-.83-4,2.5-1,4.16L257.83,188l-2.5,1.5,2.67,16Z" transform="translate(-159.5 -126.38)"/><polygon class="cls-1" points="198.83 77.46 202.67 63.79 205.17 61.96 211.5 23.96 214.17 21.13 217.67 19.46 221.83 19.96 224 24.13 215.5 64.46 217.33 66.96 213.33 81.29 198.83 77.46"/><polygon class="cls-1" points="96.67 19.29 92.67 21.79 91.67 25.96 98.33 61.63 95.83 63.13 98.5 79.13 106.31 78.46 96.67 19.29"/><polygon class="cls-1" points="217.67 19.46 214.17 21.13 211.5 23.96 205.17 61.96 202.67 63.79 198.83 77.46 206.04 79.36 217.67 19.46"/><path class="cls-1" d="M252.63,162.71l2.41-1.25,4.92-.67,5.25.25.6,5-3.43-.53h-2.75l-2.79.84-3.31,1Z" transform="translate(-159.5 -126.38)"/><path class="cls-1" d="M380.94,162.73l-2.24-1.27-4.74-.67-4.77.3c-.27,1.65-.53,3.31-.8,5l3.25-.58h2.65l2.68.84,3,1Z" transform="translate(-159.5 -126.38)"/><path class="cls-1" d="M347.25,195.25,348,166.5l-9.87-11.12-.88-4.75,16.63-12.25-.13-3-3.37-.13-22,15.25-5.5-16.12-6.5-3.5-6.5,3.75-3,16.75-24.5-15.75-4.5.25.62,3.37,16.75,14L293,157.5s-7.75,5.75-7.87,6.5-.88,27.88-.88,27.88l9.38,9.25L305,204.38l.13-8.75,5.5,4.75h10.75l4.12-5.75v9.62l12.94-2.69Z" transform="translate(-159.5 -126.38)"/><polygon class="cls-1" points="156.88 4.5 150.38 8.25 147.38 25 122.88 9.25 118.38 9.5 119 12.88 135.75 26.88 133.5 31.13 125.63 37.63 124.75 65.5 134.13 74.75 145.5 78 145.7 69.94 151.13 74 156.38 74 156.88 4.5"/><polygon class="cls-1" points="155.25 80.25 152 78 152 73 154.13 65.88 159.5 65.88 161.38 73.25 161.38 78.13 158.25 80.25 155.25 80.25"/><polygon class="cls-1" points="155.25 44 148.38 37.25 152.25 25.5 159.25 25.5 162.63 36.75 155.25 44"/><polygon class="cls-1" points="140.63 45.75 145.88 49.5 165.5 49.5 172.5 46.5 174.13 46.38 173.38 48.25 167.63 54.5 160.63 53.63 151 53.63 145.88 54.5 139 46.75 139.5 45.25 140.63 45.75"/><path class="cls-1" d="M331.75,159.25h2.58v2.83l-2.58,0Z" transform="translate(-159.5 -126.38)"/><path class="cls-1" d="M296.13,159.44h2.58v2.83l-2.58,0Z" transform="translate(-159.5 -126.38)"/><path class="cls-1" d="M289.69,167.63h2.58v2.83l-2.58,0Z" transform="translate(-159.5 -126.38)"/><path class="cls-1" d="M289.69,174.13h2.58V177l-2.58,0Z" transform="translate(-159.5 -126.38)"/><path class="cls-1" d="M289.44,179.31H292v2.84l-2.58,0Z" transform="translate(-159.5 -126.38)"/><path class="cls-1" d="M290.44,185.44H293v2.83l-2.58,0Z" transform="translate(-159.5 -126.38)"/><path class="cls-1" d="M291.19,192.06h2.58v2.84l-2.58,0Z" transform="translate(-159.5 -126.38)"/><path class="cls-1" d="M341.9,167.63h-2.59v2.84l2.59,0Z" transform="translate(-159.5 -126.38)"/><path class="cls-1" d="M341.9,174.13h-2.59V177l2.59,0Z" transform="translate(-159.5 -126.38)"/><path class="cls-1" d="M342.15,179.31h-2.59v2.84l2.59,0Z" transform="translate(-159.5 -126.38)"/><path class="cls-1" d="M341.15,185.44h-2.59v2.83l2.59,0Z" transform="translate(-159.5 -126.38)"/><path class="cls-1" d="M340.4,192.06h-2.59v2.84l2.59,0Z" transform="translate(-159.5 -126.38)"/><polygon class="cls-2" points="188.25 590.63 202.5 582.88 234 581.88 244 582.88 248.5 591.13 248.25 603.13 240.5 607.63 201.25 607.63 188.25 601.38 188.25 590.63"/><polygon class="cls-2" points="129.75 587.49 115.5 578.31 84 577.13 74 578.31 69.5 588.08 69.75 602.29 77.5 607.63 116.75 607.63 129.75 600.22 129.75 587.49"/><polygon class="cls-3" points="140.5 294.19 135.17 297.69 92.83 290.51 88.17 262 88.83 252.44 93 250.6 94 222.46 217.33 222.46 224.17 264.4 219.33 296.58 176.5 298.79 171.33 294.38 140.5 294.19"/><path class="cls-4" d="M284.17,708.67l-15.34-4.17-29.16-.67-5.5,3.5-.34-4.5,5.84-1.16.16-3.5-8.16-3.84s1.5-26.66,1.5-27.33,7.5-6,7.5-6l2.5-56.17L233.33,592l1.84-46.33-5.34-.84,1.5-26.16,14.5-3.84,4.34-30.66-4.67-4.67,1.83-68.17,5.34-6.16,22.66,2,1.17,12.66,18.67,4-.34,46.84-9.66,15,1.66,29.5,17.67,6.66L304,546.5l-6.83,2.33,3.33,21-15,38.34-.83,58.33,6.83,2.5,1.33,27.5-5.5,4.5-10.83-.17.67,1.34,7.33.66Z" transform="translate(-159.5 -126.38)"/><polygon class="cls-4" points="194 583.63 194.25 576.13 190.5 582.63 187.5 583.13 188.75 568.13 191 566.63 190.5 553.13 186 552.38 186.25 557.38 183 557.63 183.5 532.88 188.75 530.38 190.25 475.63 173.25 447.38 175 423.38 169 421.88 167 396.38 186 390.63 185.25 359.13 178 351.88 176.5 298.63 193.75 294.38 196.25 280.63 220 280.38 226.75 289.88 228 350.88 222.5 356.13 225.5 388.63 242.75 390.88 245 417.38 238 419.13 242.75 441.13 231 472.13 233.5 526.63 241.75 528.38 242.5 548.13 239.25 550.38 244.5 580.88 194 583.63"/><polygon class="cls-5" points="218.38 280.38 195 280.38 192.96 294.57 176.46 298.25 177.25 352.86 184.57 359.63 185.96 389.13 167 396.88 169.02 422.88 174.25 422.88 173.32 446.38 189.3 475.23 188.25 530.61 183.13 533.37 183.13 557.62 186.18 557.62 186.01 552.59 189.98 552.98 190.99 566.67 188.71 567.93 187.44 583.63 190.23 582.64 194.03 576.55 194.03 583.63 226.75 582.29 234.25 563.63 227.16 433.99 223.33 432 217.5 361.65 218.38 280.38"/><polygon class="cls-5" points="245 417.43 237.64 419.46 234.25 408.98 245 417.43"/><polygon class="cls-5" points="114.94 280.69 93.13 278.79 88.17 284.57 85.53 352.69 90.09 357.77 85.53 388.67 71.84 392.75 70.33 418.61 75.39 419.5 73.5 465.88 83.16 477.94 80.97 534.47 73.5 540.38 71.67 567.51 79.88 571.58 79.88 575.35 74.03 576.3 74.71 581.37 79.95 577.65 109.53 578.16 118 571.23 117.56 539.75 104.38 533.2 125.31 529.88 125.31 481.99 141.25 443.46 121.75 430.54 121.75 387.63 121.75 358.27 124.57 332.41 135.56 326.84 135.22 297.09 117.3 293.37 114.94 280.69"/><polygon class="cls-3" points="86.25 539.75 109.25 539.75 105.25 559.25 87.25 559 86.25 539.75"/><polygon class="cls-3" points="204 541.56 226.25 541.56 224.5 563.07 207.25 563.63 204 541.56"/><polygon class="cls-3" points="195 536.38 203.5 540.38 204.5 519.38 217.5 518.13 221.75 535.88 229 537.13 228 541.63 195.5 541.63 195 536.38"/><polygon class="cls-3" points="118 535.13 109.5 539.13 108.5 518.13 95.5 516.88 91.25 534.63 84 535.88 85 540.38 117.5 540.38 118 535.13"/><polygon class="cls-3" points="88.75 466.88 94.75 466.88 98.75 489.13 107 489.13 112 468.13 120 468.13 117.88 470.25 115.25 471.38 108.75 509.63 97.25 509.63 92.5 471.13 89.25 471.13 88.75 466.88"/><polygon class="cls-3" points="196.5 473.63 202.25 473.63 205.5 490.38 215 490.38 219 472.13 225.75 472.13 224.75 473.88 221 474.63 217.25 509.63 205.25 509.63 200.25 476.13 197.25 476.63 196.5 473.63"/><polygon class="cls-3" points="75 424.63 80.25 422.88 85.75 426.88 86.25 465.88 83.25 465.63 78.5 448.13 73.5 438.88 75 424.63"/><polygon class="cls-3" points="121.75 467.88 124.25 429.88 129.25 425.88 138.75 427.63 141.25 440.63 135.25 445.63 129.25 455.63 126.25 466.13 121.75 467.88"/><polygon class="cls-3" points="192 469.63 188.75 469.63 174.25 441.13 174.5 429.88 184.75 432.13 189 436.88 192 469.63"/><polygon class="cls-3" points="226.75 465.38 226.75 434.38 231.25 429.38 240 427.38 241.75 436.88 237 445.63 232.75 456.38 230.5 462.38 230.25 465.38 226.75 465.38"/><polygon class="cls-3" points="99.25 399.63 109.5 399.63 112.75 387.13 117 387.13 117 376.88 111.25 373.38 96.75 374.63 93 384.63 96.5 386.13 99.25 399.63"/><path class="cls-6" d="M259,504l.75,11.5,11-.25L272,503.5s-1.5-2-2.25-2-8.5-.5-8.5-.5Z" transform="translate(-159.5 -126.38)"/><polygon class="cls-3" points="198.25 386.88 201.25 396.88 212 396.88 213.75 386.13 217.5 383.88 215.5 370.13 211.75 367.38 199.25 368.13 191.5 372.38 192.75 386.13 198.25 386.88"/><polygon class="cls-7" points="200 370.38 198 376.88 200.75 387.63 210.75 387.63 213.5 377.63 210 370.13 200 370.38"/><polygon class="cls-4" points="143.5 218.29 167.83 218.29 171 220.96 171 294.96 167.67 300.79 145 300.79 141.17 295.13 141.17 219.96 143.5 218.29"/><polygon class="cls-4" points="141.33 225.46 137.83 225.63 136.33 230.13 93 230.13 90 256.63 86.33 257.63 87 266.79 96 271.79 95.67 274.29 85 272.79 78.33 267.29 79 251.29 74.17 250.46 83.83 214.63 88.17 210.29 95.33 210.29 98.17 218.13 133.33 218.13 137.83 214.29 140.5 214.96 140.83 219.29 171.5 219.29 173.83 215.13 214.17 215.13 216.67 211.96 221.83 208.96 228.33 209.79 238.83 244.46 232.17 251.79 235.17 268.63 224.17 274.79 218 274.29 218 269.29 225 269.29 218.17 226.79 172.5 225.63 170.33 223.46 141.33 225.46"/><polygon class="cls-8" points="204.17 213.29 198.67 188.96 206.5 166.96 206.67 147.63 108.83 147.63 108.83 168.13 120 190.29 112 214.79 204.17 213.29"/><polygon class="cls-9" points="99.75 218.16 100.34 210.09 133.83 210.09 137.08 214.83 133.25 218.21 99.75 218.16"/><polygon class="cls-9" points="177.25 215.06 177.88 210 209.81 210 211.5 215.25 177.25 215.06"/><polygon class="cls-4" points="98.33 85.46 100.5 82.29 76.33 66.29 53.17 63.46 40 70.13 42 111.29 50 118.96 50.5 132.96 45.33 150.29 41.67 165.46 28 165.13 23.33 181.96 32.33 188.29 15.17 239.96 19.83 242.79 18.17 251.46 21.5 252.46 19.88 258 44 260.75 44 257.38 48.63 257.13 51.13 247.88 47 245.5 53.38 229.25 59.88 227.13 67.13 198.38 70 197.88 74.5 178.13 65.83 176.13 61.5 168.96 71.83 161.13 80.83 133.79 93.83 97.13 98.33 85.46"/><polygon class="cls-4" points="216 85.79 213.83 82.63 238 66.63 261.17 63.79 274.33 70.46 272.33 111.63 264.33 119.29 263.83 133.29 269 150.63 272.67 165.79 286.33 165.46 291 182.29 282 188.63 299.17 240.29 294.5 243.13 296.17 251.79 292.83 252.79 294.46 258.33 270.33 261.08 270.33 257.71 265.71 257.46 263.21 248.21 267.33 245.83 260.96 229.58 254.46 227.46 247.21 198.71 244.33 198.21 239.83 178.46 248.5 176.46 252.83 169.29 242.5 161.46 233.5 134.13 220.5 97.46 216 85.79"/><polygon class="cls-5" points="40.26 75.38 54.83 68 94.44 81.29 94.44 95.56 70.25 165.6 62.54 168.64 65.58 175.06 74.67 178.1 70.25 197.71 66.6 198.72 59.84 226.78 53.75 229.48 46.99 245.37 51.05 248.08 48.51 257.2 43.95 257.2 43.95 260.75 20.24 258.04 21.89 252.56 18.09 251.29 19.36 242.92 15.17 239.88 32.29 188.67 23.16 182.08 27.98 165.09 43.19 155.46 50.54 133.15 50.03 118.69 41.67 111.09 40.26 75.38"/><polygon class="cls-5" points="94.44 230.13 98.2 217.06 95.42 210 88.17 210 84.31 214.15 74.17 250.53 78.68 251.29 78.43 267.26 84.77 272.84 95.42 274.36 96.18 271.57 86.8 266.25 86.8 257.12 89.67 256.72 94.44 230.13"/><polygon class="cls-5" points="171 219.29 141.25 238.1 141.25 295.25 145 301.48 167 301.48 171.22 294.89 171 219.29"/><polygon class="cls-5" points="213.83 215.79 217.5 226.78 224.74 267.69 218.37 269.03 218.37 274.1 224 274.1 232.06 270.05 220.33 219.29 213.83 215.79"/><polygon class="cls-5" points="218.88 214.79 224.17 212.63 236.08 242.18 234.25 244.95 222.95 215.79 218.88 214.79"/><polygon class="cls-10" points="171.22 294.89 167 301.48 167 271.4 170.88 267 171.22 294.89"/><polygon class="cls-5" points="217.42 89.46 259.75 68 266.83 75.38 266.83 116.9 264.33 119.29 232.06 130.07 217.42 89.46"/><polygon class="cls-5" points="234.71 137.79 259.75 130.07 266.83 157.99 270.09 174.13 248.25 174.13 242.13 162.1 234.71 137.79"/><polygon class="cls-5" points="282 188.63 278.92 174.13 291 182.29 282 188.63"/><polygon class="cls-5" points="239.83 178.46 244.33 198.21 256.5 198.21 248.5 176.46 239.83 178.46"/><polygon class="cls-5" points="277.02 198.21 278.92 195 293.75 249.77 289.46 249.77 277.02 198.21"/><polygon class="cls-5" points="264.01 219.29 273.47 218.21 284.96 253.82 274.48 255.85 264.01 219.29"/><polygon class="cls-3" points="53.63 213.13 37.25 209.5 39.25 200.63 36.33 186.13 41.5 165.29 40 160.79 43 153.46 50.17 152.46 55.33 135.13 68.17 137.96 62.5 156.29 74.67 161.63 74.17 169.46 67 171.46 63.17 171.13 64.17 177.63 60.83 204.13 54.5 204.96 53.63 213.13"/><polygon class="cls-3" points="54.92 119.29 54.83 126.21 81 134.38 85.67 120.29 71 110.54 71.58 123.71 54.92 119.29"/><path class="cls-3" d="M254.42,211.67s-5.75-7.75-6.09-7.92-6.83-2-6.83-2l-2.83,4.08,7.41,10.5,6.5,3.92Z" transform="translate(-159.5 -126.38)"/><polygon class="cls-3" points="261.63 215.79 278 212.17 276 203.29 278.92 188.79 273.75 167.96 275.25 163.46 272.25 156.13 265.08 155.13 259.92 137.79 247.08 140.63 252.75 158.96 240.58 164.29 241.08 172.13 248.25 174.13 252.08 173.79 251.08 180.29 254.42 206.79 260.75 207.63 261.63 215.79"/><polygon class="cls-3" points="260.33 121.96 260.42 128.88 234.25 137.04 229.58 122.96 244.25 113.21 243.67 126.38 260.33 121.96"/><path class="cls-3" d="M379.83,214.33s5.75-7.75,6.09-7.91,6.83-2,6.83-2l2.83,4.08L388.17,219l-6.5,3.92Z" transform="translate(-159.5 -126.38)"/><path class="cls-3" d="M179.33,384.42l-3.58.08-10.87,7.13-.88,8.62,11.13,7.13-.75,13.37,3.12,1.75,3.13-2,1.62,3.88,4.63.25,2-4.13a9.25,9.25,0,0,0,1,2.5,28.09,28.09,0,0,0,4.12.5l1.38-3.62,2.12,2.87,4.63,1.13L206.5,418l2.75-29.62L203.13,387Z" transform="translate(-159.5 -126.38)"/><path class="cls-3" d="M456.25,384.42l3.58.08,10.88,7.13.87,8.62-11.12,7.13.75,13.37-3.13,1.75-3.12-2-1.63,3.88-4.62.24-2-4.12a9.59,9.59,0,0,1-1,2.5,28.37,28.37,0,0,1-4.13.5l-1.37-3.63-2.13,2.88-4.62,1.12L429.08,418l-2.75-29.63,6.13-1.37Z" transform="translate(-159.5 -126.38)"/><path class="cls-3" d="M291,195.5c-1.08,2.38-2.17,4.75-3.25,7.13l-34.25,2.62,3.88,21.5h118l3-22.12L347,200.25l-3.87-5.87Z" transform="translate(-159.5 -126.38)"/><polygon class="cls-11" points="217.5 84.79 216.83 121.79 223.33 147.96 219.33 150.79 174.33 152.13 174.17 194.29 172.17 214.29 171.17 219.46 140.17 218.96 138.67 210.63 138 194.46 138.33 153.96 95.17 150.63 89.67 143.96 97.17 119.29 93.83 85.13 217.5 84.79"/><polygon class="cls-9" points="134.67 86.13 179.17 86.13 186.5 78.46 191.5 78.46 191.5 89.13 176.83 110.96 137.33 110.96 123 91.13 123.33 78.46 128.17 78.46 134.67 86.13"/><polygon class="cls-9" points="177.17 145.96 176.5 125.13 208.67 124.13 210.5 140.96 198 141.79 197.5 145.63 177.17 145.96"/><path class="cls-9" d="M295,252.33l-1,20-21-1.16s.67-3.17.17-3.17l-13-.17L262,251.17Z" transform="translate(-159.5 -126.38)"/><path class="cls-4" d="M274.17,205.17c-1.17-1-1.67-15.17-1.67-15.17l-4-2.5-4.17-37.83L261,146.5l-4.83-.83-4,2.5-1,4.16L257.83,188l-2.5,1.5,2.67,16Z" transform="translate(-159.5 -126.38)"/><polygon class="cls-4" points="198.83 77.46 202.67 63.79 205.17 61.96 211.5 23.96 214.17 21.13 217.67 19.46 221.83 19.96 224 24.13 215.5 64.46 217.33 66.96 213.33 81.29 198.83 77.46"/><polygon class="cls-5" points="96.67 19.29 92.67 21.79 91.67 25.96 98.33 61.63 95.83 63.13 98.5 79.13 106.31 78.46 96.67 19.29"/><polygon class="cls-5" points="217.67 19.46 214.17 21.13 211.5 23.96 205.17 61.96 202.67 63.79 198.83 77.46 206.04 79.36 217.67 19.46"/><path class="cls-3" d="M252.63,162.71l2.41-1.25,4.92-.67,5.25.25.6,5-3.43-.53h-2.75l-2.79.84-3.31,1Z" transform="translate(-159.5 -126.38)"/><path class="cls-3" d="M380.94,162.73l-2.24-1.27-4.74-.67-4.77.3c-.27,1.65-.53,3.31-.8,5l3.25-.58h2.65l2.68.84,3,1Z" transform="translate(-159.5 -126.38)"/><path class="cls-4" d="M347.25,195.25,348,166.5l-9.87-11.12-.88-4.75,16.63-12.25-.13-3-3.37-.13-22,15.25-5.5-16.12-6.5-3.5-6.5,3.75-3,16.75-24.5-15.75-4.5.25.62,3.37,16.75,14L293,157.5s-7.75,5.75-7.87,6.5-.88,27.88-.88,27.88l9.38,9.25L305,204.38l.13-8.75,5.5,4.75h10.75l4.12-5.75v9.62l12.94-2.69Z" transform="translate(-159.5 -126.38)"/><polygon class="cls-5" points="156.88 4.5 150.38 8.25 147.38 25 122.88 9.25 118.38 9.5 119 12.88 135.75 26.88 133.5 31.13 125.63 37.63 124.75 65.5 134.13 74.75 145.5 78 145.7 69.94 151.13 74 156.38 74 156.88 4.5"/><polygon class="cls-8" points="155.25 80.25 152 78 152 73 154.13 65.88 159.5 65.88 161.38 73.25 161.38 78.13 158.25 80.25 155.25 80.25"/><polygon class="cls-8" points="155.25 44 148.38 37.25 152.25 25.5 159.25 25.5 162.63 36.75 155.25 44"/><polygon class="cls-3" points="140.63 45.75 145.88 49.5 165.5 49.5 172.5 46.5 174.13 46.38 173.38 48.25 167.63 54.5 160.63 53.63 151 53.63 145.88 54.5 139 46.75 139.5 45.25 140.63 45.75"/><path class="cls-3" d="M331.75,159.25h2.58v2.83l-2.58,0Z" transform="translate(-159.5 -126.38)"/><path class="cls-3" d="M296.13,159.44h2.58v2.83l-2.58,0Z" transform="translate(-159.5 -126.38)"/><path class="cls-3" d="M289.69,167.63h2.58v2.83l-2.58,0Z" transform="translate(-159.5 -126.38)"/><path class="cls-3" d="M289.69,174.13h2.58V177l-2.58,0Z" transform="translate(-159.5 -126.38)"/><path class="cls-3" d="M289.44,179.31H292v2.84l-2.58,0Z" transform="translate(-159.5 -126.38)"/><path class="cls-3" d="M290.44,185.44H293v2.83l-2.58,0Z" transform="translate(-159.5 -126.38)"/><path class="cls-3" d="M291.19,192.06h2.58v2.84l-2.58,0Z" transform="translate(-159.5 -126.38)"/><path class="cls-3" d="M341.9,167.63h-2.59v2.84l2.59,0Z" transform="translate(-159.5 -126.38)"/><path class="cls-3" d="M341.9,174.13h-2.59V177l2.59,0Z" transform="translate(-159.5 -126.38)"/><path class="cls-3" d="M342.15,179.31h-2.59v2.84l2.59,0Z" transform="translate(-159.5 -126.38)"/><path class="cls-3" d="M341.15,185.44h-2.59v2.83l2.59,0Z" transform="translate(-159.5 -126.38)"/><path class="cls-3" d="M340.4,192.06h-2.59v2.84l2.59,0Z" transform="translate(-159.5 -126.38)"/></g></svg>