<svg xmlns="http://www.w3.org/2000/svg" viewBox="0 0 307.58 603.13"><defs><style>.cls-1{fill:#a51e28;}.cls-2{fill:#252737;}.cls-3{fill:#f8f7f3;}.cls-4{fill:#b7b7b7;}.cls-5{fill:#fffef2;}.cls-6{fill:#fefdf2;}.cls-7{fill:#4e1318;}.cls-8{fill:#e8862d;}.cls-9{fill:#fff;}.cls-10{fill:#21376d;}</style></defs><g id="Layer_2" data-name="Layer 2"><polygon class="cls-1" points="183.75 586.13 198 578.38 229.5 577.38 239.5 578.38 244 586.63 243.75 598.63 236 603.13 196.75 603.13 183.75 596.88 183.75 586.13"/><polygon class="cls-1" points="125.25 582.99 111 573.81 79.5 572.63 69.5 573.81 65 583.58 65.25 597.79 73 603.13 112.25 603.13 125.25 595.72 125.25 582.99"/></g><g id="Layer_17" data-name="Layer 17"><polygon class="cls-2" points="136 289.69 130.67 293.19 88.33 286.01 83.67 257.5 84.33 247.94 88.5 246.1 89.5 217.96 212.83 217.96 219.67 259.9 214.83 292.08 172 294.29 166.83 289.88 136 289.69"/></g><g id="Layer_3" data-name="Layer 3"><path class="cls-3" d="M284.17,708.67l-15.34-4.17-29.16-.67-5.5,3.5-.34-4.5,5.84-1.16.16-3.5-8.16-3.84s1.5-26.66,1.5-27.33,7.5-6,7.5-6l2.5-56.17L233.33,592l1.84-46.33-5.34-.84,1.5-26.16,14.5-3.84,4.34-30.66-4.67-4.67,1.83-68.17,5.34-6.16,22.66,2,1.17,12.66,18.67,4-.34,46.84-9.66,15,1.66,29.5,17.67,6.66L304,546.5l-6.83,2.33,3.33,21-15,38.34-.83,58.33,6.83,2.5,1.33,27.5-5.5,4.5-10.83-.17.67,1.34,7.33.66Z" transform="translate(-164 -130.88)"/><polygon class="cls-3" points="189.5 579.13 189.75 571.63 186 578.13 183 578.63 184.25 563.63 186.5 562.13 186 548.63 181.5 547.88 181.75 552.88 178.5 553.13 179 528.38 184.25 525.88 185.75 471.13 168.75 442.88 170.5 418.88 164.5 417.38 162.5 391.88 181.5 386.13 180.75 354.63 173.5 347.38 172 294.13 189.25 289.88 191.75 276.13 215.5 275.88 222.25 285.38 223.5 346.38 218 351.63 221 384.13 238.25 386.38 240.5 412.88 233.5 414.63 238.25 436.63 226.5 467.63 229 522.13 237.25 523.88 238 543.63 234.75 545.88 240 576.38 189.5 579.13"/></g><g id="Layer_34" data-name="Layer 34"><polygon class="cls-4" points="213.88 275.88 190.5 275.88 188.46 290.07 171.96 293.75 172.75 348.36 180.07 355.13 181.46 384.63 162.5 392.38 164.52 418.38 169.75 418.38 168.82 441.88 184.8 470.73 183.75 526.11 178.63 528.87 178.63 553.12 181.68 553.12 181.51 548.09 185.48 548.48 186.49 562.17 184.21 563.43 182.94 579.13 185.73 578.14 189.53 572.05 189.53 579.13 222.25 577.79 229.75 559.13 222.66 429.49 218.83 427.5 213 357.15 213.88 275.88"/><polygon class="cls-4" points="240.5 412.93 233.14 414.96 229.75 404.48 240.5 412.93"/><polygon class="cls-4" points="110.44 276.19 88.63 274.29 83.67 280.07 81.03 348.19 85.59 353.27 81.03 384.17 67.34 388.25 65.83 414.11 70.89 415 69 461.38 78.66 473.44 76.47 529.97 69 535.88 67.17 563.01 75.38 567.08 75.38 570.85 69.53 571.8 70.21 576.87 75.45 573.15 105.03 573.66 113.5 566.73 113.06 535.25 99.88 528.7 120.81 525.38 120.81 477.49 136.75 438.96 117.25 426.04 117.25 383.13 117.25 353.77 120.07 327.91 131.06 322.34 130.72 292.59 112.8 288.87 110.44 276.19"/></g><g id="Layer_4" data-name="Layer 4"><polygon class="cls-2" points="81.75 535.25 104.75 535.25 100.75 554.75 82.75 554.5 81.75 535.25"/></g><g id="Layer_5" data-name="Layer 5"><polygon class="cls-2" points="199.5 537.06 221.75 537.06 220 558.57 202.75 559.13 199.5 537.06"/></g><g id="Layer_6" data-name="Layer 6"><polygon class="cls-2" points="190.5 531.88 199 535.88 200 514.88 213 513.63 217.25 531.38 224.5 532.63 223.5 537.13 191 537.13 190.5 531.88"/></g><g id="Layer_7" data-name="Layer 7"><polygon class="cls-2" points="113.5 530.63 105 534.63 104 513.63 91 512.38 86.75 530.13 79.5 531.38 80.5 535.88 113 535.88 113.5 530.63"/></g><g id="Layer_8" data-name="Layer 8"><polygon class="cls-2" points="84.25 462.38 90.25 462.38 94.25 484.63 102.5 484.63 107.5 463.63 115.5 463.63 113.38 465.75 110.75 466.88 104.25 505.13 92.75 505.13 88 466.63 84.75 466.63 84.25 462.38"/></g><g id="Layer_9" data-name="Layer 9"><polygon class="cls-2" points="192 469.13 197.75 469.13 201 485.88 210.5 485.88 214.5 467.63 221.25 467.63 220.25 469.38 216.5 470.13 212.75 505.13 200.75 505.13 195.75 471.63 192.75 472.13 192 469.13"/></g><g id="Layer_10" data-name="Layer 10"><polygon class="cls-2" points="70.5 420.13 75.75 418.38 81.25 422.38 81.75 461.38 78.75 461.13 74 443.63 69 434.38 70.5 420.13"/></g><g id="Layer_11" data-name="Layer 11"><polygon class="cls-2" points="117.25 463.38 119.75 425.38 124.75 421.38 134.25 423.13 136.75 436.13 130.75 441.13 124.75 451.13 121.75 461.63 117.25 463.38"/></g><g id="Layer_12" data-name="Layer 12"><polygon class="cls-2" points="187.5 465.13 184.25 465.13 169.75 436.63 170 425.38 180.25 427.63 184.5 432.38 187.5 465.13"/></g><g id="Layer_13" data-name="Layer 13"><polygon class="cls-2" points="222.25 460.88 222.25 429.88 226.75 424.88 235.5 422.88 237.25 432.38 232.5 441.13 228.25 451.88 226 457.88 225.75 460.88 222.25 460.88"/></g><g id="Layer_14" data-name="Layer 14"><polygon class="cls-2" points="94.75 395.13 105 395.13 108.25 382.63 112.5 382.63 112.5 372.38 106.75 368.88 92.25 370.13 88.5 380.13 92 381.63 94.75 395.13"/></g><g id="Layer_15" data-name="Layer 15"><path class="cls-5" d="M259,504l.75,11.5,11-.25L272,503.5s-1.5-2-2.25-2-8.5-.5-8.5-.5Z" transform="translate(-164 -130.88)"/><polygon class="cls-2" points="193.75 382.38 196.75 392.38 207.5 392.38 209.25 381.63 213 379.38 211 365.63 207.25 362.88 194.75 363.63 187 367.88 188.25 381.63 193.75 382.38"/></g><g id="Layer_16" data-name="Layer 16"><polygon class="cls-6" points="195.5 365.88 193.5 372.38 196.25 383.13 206.25 383.13 209 373.13 205.5 365.63 195.5 365.88"/></g><g id="Layer_18" data-name="Layer 18"><polygon class="cls-3" points="139 213.79 163.33 213.79 166.5 216.46 166.5 290.46 163.17 296.29 140.5 296.29 136.67 290.63 136.67 215.46 139 213.79"/></g><g id="Layer_19" data-name="Layer 19"><polygon class="cls-3" points="136.83 220.96 133.33 221.13 131.83 225.63 88.5 225.63 85.5 252.13 81.83 253.13 82.5 262.29 91.5 267.29 91.17 269.79 80.5 268.29 73.83 262.79 74.5 246.79 69.67 245.96 79.33 210.13 83.67 205.79 90.83 205.79 93.67 213.63 128.83 213.63 133.33 209.79 136 210.46 136.33 214.79 167 214.79 169.33 210.63 209.67 210.63 212.17 207.46 217.33 204.46 223.83 205.29 234.33 239.96 227.67 247.29 230.67 264.13 219.67 270.29 213.5 269.79 213.5 264.79 220.5 264.79 213.67 222.29 168 221.13 165.83 218.96 136.83 220.96"/></g><g id="Layer_20" data-name="Layer 20"><polygon class="cls-7" points="199.67 208.79 194.17 184.46 202 162.46 202.17 143.13 104.33 143.13 104.33 163.63 115.5 185.79 107.5 210.29 199.67 208.79"/></g><g id="Layer_21" data-name="Layer 21"><polygon class="cls-8" points="95.25 213.66 95.84 205.59 129.33 205.59 132.58 210.33 128.75 213.71 95.25 213.66"/><polygon class="cls-8" points="172.75 210.56 173.38 205.5 205.31 205.5 207 210.75 172.75 210.56"/></g><g id="Layer_23" data-name="Layer 23"><polygon class="cls-3" points="93.83 80.96 96 77.79 71.83 61.79 48.67 58.96 35.5 65.63 37.5 106.79 45.5 114.46 46 128.46 40.83 145.79 37.17 160.96 23.5 160.63 18.83 177.46 27.83 183.79 10.67 235.46 15.33 238.29 13.67 246.96 17 247.96 15.38 253.5 39.5 256.25 39.5 252.88 44.13 252.63 46.63 243.38 42.5 241 48.88 224.75 55.38 222.63 62.63 193.88 65.5 193.38 70 173.63 61.33 171.63 57 164.46 67.33 156.63 76.33 129.29 89.33 92.63 93.83 80.96"/><polygon class="cls-3" points="211.5 81.29 209.33 78.13 233.5 62.13 256.67 59.29 269.83 65.96 267.83 107.13 259.83 114.79 259.33 128.79 264.5 146.13 268.17 161.29 281.83 160.96 286.5 177.79 277.5 184.13 294.67 235.79 290 238.63 291.67 247.29 288.33 248.29 289.96 253.83 265.83 256.58 265.83 253.21 261.21 252.96 258.71 243.71 262.83 241.33 256.46 225.08 249.96 222.96 242.71 194.21 239.83 193.71 235.33 173.96 244 171.96 248.33 164.79 238 156.96 229 129.63 216 92.96 211.5 81.29"/></g><g id="Layer_35" data-name="Layer 35"><polygon class="cls-4" points="35.76 70.88 50.33 63.5 89.94 76.79 89.94 91.06 65.75 161.1 58.04 164.14 61.09 170.56 70.17 173.6 65.75 193.21 62.1 194.22 55.34 222.28 49.25 224.98 42.49 240.87 46.55 243.58 44.01 252.7 39.45 252.7 39.45 256.25 15.74 253.54 17.39 248.06 13.59 246.79 14.86 238.42 10.67 235.38 27.79 184.17 18.66 177.58 23.48 160.59 38.69 150.96 46.04 128.65 45.53 114.19 37.17 106.59 35.76 70.88"/><polygon class="cls-4" points="89.94 225.63 93.7 212.56 90.92 205.5 83.67 205.5 79.81 209.65 69.67 246.03 74.18 246.79 73.93 262.76 80.27 268.34 90.92 269.86 91.68 267.07 82.3 261.75 82.3 252.62 85.17 252.22 89.94 225.63"/><polygon class="cls-4" points="166.5 214.79 136.75 233.6 136.75 290.75 140.5 296.98 162.5 296.98 166.72 290.39 166.5 214.79"/><polygon class="cls-4" points="209.33 211.29 213 222.28 220.24 263.19 213.87 264.53 213.87 269.6 219.5 269.6 227.56 265.55 215.83 214.79 209.33 211.29"/><polygon class="cls-4" points="214.38 210.29 219.67 208.13 231.58 237.68 229.75 240.45 218.45 211.29 214.38 210.29"/><polygon class="cls-9" points="166.72 290.39 162.5 296.98 162.5 266.9 166.38 262.5 166.72 290.39"/><polygon class="cls-4" points="212.92 84.96 255.25 63.5 262.33 70.88 262.33 112.4 259.83 114.79 227.56 125.57 212.92 84.96"/><polygon class="cls-4" points="230.21 133.29 255.25 125.57 262.33 153.49 265.59 169.63 243.75 169.63 237.63 157.6 230.21 133.29"/><polygon class="cls-4" points="277.5 184.13 274.42 169.63 286.5 177.79 277.5 184.13"/><polygon class="cls-4" points="235.33 173.96 239.83 193.71 252 193.71 244 171.96 235.33 173.96"/><polygon class="cls-4" points="272.52 193.71 274.42 190.5 289.25 245.27 284.96 245.27 272.52 193.71"/><polygon class="cls-4" points="259.51 214.79 268.97 213.71 280.46 249.32 269.98 251.35 259.51 214.79"/></g><g id="Layer_24" data-name="Layer 24"><polygon class="cls-2" points="49.13 208.63 32.75 205 34.75 196.13 31.83 181.63 37 160.79 35.5 156.29 38.5 148.96 45.67 147.96 50.83 130.63 63.67 133.46 58 151.79 70.17 157.13 69.67 164.96 62.5 166.96 58.67 166.63 59.67 173.13 56.33 199.63 50 200.46 49.13 208.63"/><polygon class="cls-2" points="50.42 114.79 50.33 121.71 76.5 129.88 81.17 115.79 66.5 106.04 67.08 119.21 50.42 114.79"/><path class="cls-2" d="M254.42,211.67s-5.75-7.75-6.09-7.92-6.83-2-6.83-2l-2.83,4.08,7.41,10.5,6.5,3.92Z" transform="translate(-164 -130.88)"/><polygon class="cls-2" points="257.13 211.29 273.5 207.67 271.5 198.79 274.42 184.29 269.25 163.46 270.75 158.96 267.75 151.63 260.58 150.63 255.42 133.29 242.58 136.13 248.25 154.46 236.08 159.79 236.58 167.63 243.75 169.63 247.58 169.29 246.58 175.79 249.92 202.29 256.25 203.13 257.13 211.29"/><polygon class="cls-2" points="255.83 117.46 255.92 124.38 229.75 132.54 225.08 118.46 239.75 108.71 239.17 121.88 255.83 117.46"/><path class="cls-2" d="M379.83,214.33s5.75-7.75,6.09-7.91,6.83-2,6.83-2l2.83,4.08L388.17,219l-6.5,3.92Z" transform="translate(-164 -130.88)"/></g><g id="Layer_25" data-name="Layer 25"><path class="cls-2" d="M179.33,384.42l-3.58.08-10.87,7.13-.88,8.62,11.13,7.13-.75,13.37,3.12,1.75,3.13-2,1.62,3.88,4.63.25,2-4.13a9.25,9.25,0,0,0,1,2.5,28.09,28.09,0,0,0,4.12.5l1.38-3.62,2.12,2.87,4.63,1.13L206.5,418l2.75-29.62L203.13,387Z" transform="translate(-164 -130.88)"/><path class="cls-2" d="M456.25,384.42l3.58.08,10.88,7.13.87,8.62-11.12,7.13.75,13.37-3.13,1.75-3.12-2-1.63,3.88-4.62.24-2-4.12a9.59,9.59,0,0,1-1,2.5,28.37,28.37,0,0,1-4.13.5l-1.37-3.63-2.13,2.88-4.62,1.12L429.08,418l-2.75-29.63,6.13-1.37Z" transform="translate(-164 -130.88)"/></g><g id="Layer_31" data-name="Layer 31"><path class="cls-2" d="M291,195.5c-1.08,2.38-2.17,4.75-3.25,7.13l-34.25,2.62,3.88,21.5h118l3-22.12L347,200.25l-3.87-5.87Z" transform="translate(-164 -130.88)"/></g><g id="Layer_22" data-name="Layer 22"><polygon class="cls-10" points="213 80.29 212.33 117.29 218.83 143.46 214.83 146.29 169.83 147.63 169.67 189.79 167.67 209.79 166.67 214.96 135.67 214.46 134.17 206.13 133.5 189.96 133.83 149.46 90.67 146.13 85.17 139.46 92.67 114.79 89.33 80.63 213 80.29"/></g><g id="Layer_30" data-name="Layer 30"><polygon class="cls-8" points="130.17 81.63 174.67 81.63 182 73.96 187 73.96 187 84.63 172.33 106.46 132.83 106.46 118.5 86.63 118.83 73.96 123.67 73.96 130.17 81.63"/><polygon class="cls-8" points="172.67 141.46 172 120.63 204.17 119.63 206 136.46 193.5 137.29 193 141.13 172.67 141.46"/><path class="cls-8" d="M295,252.33l-1,20-21-1.16s.67-3.17.17-3.17l-13-.17L262,251.17Z" transform="translate(-164 -130.88)"/></g><g id="Layer_32" data-name="Layer 32"><path class="cls-3" d="M274.17,205.17c-1.17-1-1.67-15.17-1.67-15.17l-4-2.5-4.17-37.83L261,146.5l-4.83-.83-4,2.5-1,4.16L257.83,188l-2.5,1.5,2.67,16Z" transform="translate(-164 -130.88)"/><polygon class="cls-3" points="194.33 72.96 198.17 59.29 200.67 57.46 207 19.46 209.67 16.63 213.17 14.96 217.33 15.46 219.5 19.63 211 59.96 212.83 62.46 208.83 76.79 194.33 72.96"/></g><g id="Layer_36" data-name="Layer 36"><polygon class="cls-4" points="92.17 14.79 88.17 17.29 87.17 21.46 93.83 57.13 91.33 58.63 94 74.63 101.81 73.96 92.17 14.79"/><polygon class="cls-4" points="213.17 14.96 209.67 16.63 207 19.46 200.67 57.46 198.17 59.29 194.33 72.96 201.54 74.86 213.17 14.96"/></g><g id="Layer_33" data-name="Layer 33"><path class="cls-2" d="M252.63,162.71l2.41-1.25,4.92-.67,5.25.25.6,5-3.43-.53h-2.75l-2.79.84-3.31,1Z" transform="translate(-164 -130.88)"/><path class="cls-2" d="M380.94,162.73l-2.24-1.27-4.74-.67-4.77.3c-.27,1.65-.53,3.31-.8,5l3.25-.58h2.65l2.68.84,3,1Z" transform="translate(-164 -130.88)"/></g><g id="Layer_26" data-name="Layer 26"><path class="cls-3" d="M347.25,195.25,348,166.5l-9.87-11.12-.88-4.75,16.63-12.25-.13-3-3.37-.13-22,15.25-5.5-16.12-6.5-3.5-6.5,3.75-3,16.75-24.5-15.75-4.5.25.62,3.37,16.75,14L293,157.5s-7.75,5.75-7.87,6.5-.88,27.88-.88,27.88l9.38,9.25L305,204.38l.13-8.75,5.5,4.75h10.75l4.12-5.75v9.62l12.94-2.69Z" transform="translate(-164 -130.88)"/></g><g id="Layer_37" data-name="Layer 37"><polygon class="cls-4" points="152.38 0 145.88 3.75 142.88 20.5 118.38 4.75 113.88 5 114.5 8.38 131.25 22.38 129 26.63 121.13 33.13 120.25 61 129.63 70.25 141 73.5 141.2 65.44 146.63 69.5 151.88 69.5 152.38 0"/></g><g id="Layer_27" data-name="Layer 27"><polygon class="cls-7" points="150.75 75.75 147.5 73.5 147.5 68.5 149.63 61.38 155 61.38 156.88 68.75 156.88 73.63 153.75 75.75 150.75 75.75"/></g><g id="Layer_28" data-name="Layer 28"><polygon class="cls-7" points="150.75 39.5 143.88 32.75 147.75 21 154.75 21 158.13 32.25 150.75 39.5"/></g><g id="Layer_29" data-name="Layer 29"><polygon class="cls-2" points="136.13 41.25 141.38 45 161 45 168 42 169.63 41.88 168.88 43.75 163.13 50 156.13 49.13 146.5 49.13 141.38 50 134.5 42.25 135 40.75 136.13 41.25"/><path class="cls-2" d="M331.75,159.25h2.58v2.83l-2.58,0Z" transform="translate(-164 -130.88)"/><path class="cls-2" d="M296.13,159.44h2.58v2.83l-2.58,0Z" transform="translate(-164 -130.88)"/><path class="cls-2" d="M289.69,167.63h2.58v2.83l-2.58,0Z" transform="translate(-164 -130.88)"/><path class="cls-2" d="M289.69,174.13h2.58V177l-2.58,0Z" transform="translate(-164 -130.88)"/><path class="cls-2" d="M289.44,179.31H292v2.84l-2.58,0Z" transform="translate(-164 -130.88)"/><path class="cls-2" d="M290.44,185.44H293v2.83l-2.58,0Z" transform="translate(-164 -130.88)"/><path class="cls-2" d="M291.19,192.06h2.58v2.84l-2.58,0Z" transform="translate(-164 -130.88)"/><path class="cls-2" d="M341.9,167.63h-2.59v2.84l2.59,0Z" transform="translate(-164 -130.88)"/><path class="cls-2" d="M341.9,174.13h-2.59V177l2.59,0Z" transform="translate(-164 -130.88)"/><path class="cls-2" d="M342.15,179.31h-2.59v2.84l2.59,0Z" transform="translate(-164 -130.88)"/><path class="cls-2" d="M341.15,185.44h-2.59v2.83l2.59,0Z" transform="translate(-164 -130.88)"/><path class="cls-2" d="M340.4,192.06h-2.59v2.84l2.59,0Z" transform="translate(-164 -130.88)"/></g></svg>