<svg id="Layer_1" data-name="Layer 1" xmlns="http://www.w3.org/2000/svg" viewBox="0 0 587.2 635.6"><defs><style>.cls-1{fill:none;stroke:#26455e;stroke-linejoin:round;stroke-width:8px;}.cls-2{fill:#147990;}.cls-3{fill:#13545e;}.cls-4{fill:#73bbbc;}.cls-5{fill:#2c5e6f;}</style></defs><g id="Layer_3" data-name="Layer 3"><polygon class="cls-1" points="165.97 528.13 434.55 528.13 437.39 559.58 161.27 559.58 165.97 528.13"/><polyline class="cls-1" points="165.97 528.13 200.37 518.33 398.1 518.33 434.55 528.13"/></g><g id="Layer_2" data-name="Layer 2"><polygon class="cls-1" points="461.69 631.6 136.87 631.6 149.12 554.39 450.52 554.39 461.69 631.6"/></g><g id="Layer_4" data-name="Layer 4"><polygon class="cls-1" points="229.07 523.52 232.41 339.11 226.33 325.49 227.7 289.53 219.77 276.4 221.14 204.77 214.18 179 195.86 173.91 179 171.07 168.72 166.85 142.06 170.19 117.27 169.21 98.07 153.72 79.84 120.51 17.62 119.62 4 107.87 12.92 101.3 32.81 101.3 28.5 98.07 27.91 96.4 55.84 95.91 64.07 98.66 72.3 103.26 117.47 103.55 139.22 100.22 156.27 100.52 159.6 98.07 165.48 96.69 174.79 94.54 186.06 92.48 197.33 92.68 210.65 87.09 221.63 85.92 225.65 82.58 245.93 82.19 262.59 81.21 263.27 51.72 269.54 20.85 284.83 5.67 303.25 4 317.56 15.95 321.97 34.87 324.12 53.58 324.12 81.7 327.16 83.56 336.27 83.56 359.89 84.84 377.82 89.84 398.1 95.22 420.25 100.22 428.97 99.93 437.88 97.58 484.62 96.99 495.4 94.05 507.16 92.87 510.39 94.44 514.9 94.44 526.46 86.7 543.9 83.56 557.03 83.37 557.62 85.92 554.39 89.15 575.46 87.78 580.16 90.23 583.2 94.64 572.62 103.26 560.95 108.84 541.46 112.86 525.09 113.55 509.41 112.86 505.89 115.41 502.75 125.8 494.62 141.87 485.6 153.63 478.74 163.23 430.24 164.5 403.49 167.93 382.91 175.28 372.63 178.22 365.57 178.71 373.31 346.46 368.8 353.32 370.57 408.59 362.92 413.39 368.7 523.03 229.07 523.52"/></g><g id="Layer_5" data-name="Layer 5"><path class="cls-1" d="M8.82,114l3.43,1.76,4.21,3.43,7.64,4,48.21,1,4.41-2.06.59-1.47-2.55-2.15,2.74-.2,2.36-1,1.37-4.7V110l27,35.67,17.54,17.54,12.25,2.84,4.21-.59.1-4.41L131.3,147.37,106,122.58l17.54,7.94,36.25,18,8.82,2.74,2-.49-1.37-2.35-26-24.5-4.8-7-.1-1.77,7.45,3.24,27.73,21.06,4.61,2.35,2.74-.19v-3.53l-4.31-10.68-12-21.26,10.09,8.23,9.11,2.84,12.84,4.31,10.09,6.17,10.78,7.16,15.68,9.5,14.69,6.76,14.41,4.22,2.45-.4,3.53-1.37H276l3.83,1.28,12.24.49,14.31,1.86,4.9,2.06-9.31.58-15.77,2.26-11.66,3.72-5.3,5.29-.19,3,1.86,4.12,9.7,8,16.76,13.91-19.31-.78-7.35-4-7.05-1.57-3.53.49.1,2,3.53,8.24,1.47,10.68,12.44,21.06,9.51,18.72,10.48,15.09,15,17.93,14.31,14-10.88-4.8-5.78-2.94-3.63-4.41-8.42-1.57-5.88-4.7-20.77-41.55-4.22-9.5-1-5.49-5-4.7-1.86.78,1.08,11.57,3.23,13.71,8.43,18.42,10.19,20,6.08,13.92L302,327.08l17.64,23.81,5.49,12.05-.59,2.25-9-5.48-29.1-29.3-13-17.83-7.35-13-4.12-7-3.52-1.37-5.88,1.07-3.53,3v1.86l4,1.37,5,4.32,5.58,8,3.82,8.43,2.06,10.38-1.18,9.7-3.43,2.94-6.56-.19L252.61,340l-2.75.1,3,2.16,8.23,3.82-14.6,183.72H233.11l3.23-184.31-4.21-9.41-2-3.92,1.47-36.45-8-12.83,1.86-80.84-6.66-13.52-4.11-4.12-12.06-3.23c-4-.89-7.93-1.67-11.95-2.55-2.65-.39-5.19-.88-7.84-1.27-3.43-1.38-6.86-2.85-10.29-4.22-8.82,1.08-17.73,2.26-26.55,3.33-3.92-.19-7.84-.29-11.66-.49-4.41-.19-8.82-.29-13.13-.49-6.47-5.19-12.84-10.38-19.31-15.48-1.47-2.74-2.94-5.39-4.41-8.13-2.45-4.51-4.9-8.92-7.35-13.43-2-3.52-3.91-6.95-5.87-10.48l-62.81-2.06c-1.57-1-3.14-2-4.61-2.94L9.21,116.6Z" transform="translate(-4.13 -6.39)"/><path class="cls-1" d="M34.29,102.79l4.31,4,5.2,1,6.37-1.37,4.11-1.47,1.47-.49,2.35,2.06L61,109.45l4.61,2.94,4.6,2.45-4.8,1.76-3.23,1.18H55.65L50.85,115l-2-2.45-2.45-2L43.31,110l-5.59-.1-8.52-2.06h7.93l-4.5-3.33L32,103Z" transform="translate(-4.13 -6.39)"/><path class="cls-1" d="M54.58,92.6" transform="translate(-4.13 -6.39)"/><path class="cls-1" d="M368.23,92.79l2.06,92h6.46l11-2.45L399,177l13.72-3.23,19.89-1.86,42.33-1.77,8.82-1.86,5.19-7.35,10.88-13,6.46-13.32,3.14-11.67,3.72-3.72,1.57-.78,3.72-.49-7.15-2.55-3.72-1.86-8.33,10.58a140.19,140.19,0,0,0-7.55,12.25c-2,3.72-3.72,7.25-5.19,10.58L471,151.29l-9.21,1.18-4.61-1.28L455.73,149l2.84-4.61,18.82-17.93-13.53,7.94-19.3,10.19-19.11,8-21,8.63-16.36,6.56-9,3.33h-1.87l.89-1.66,11.07-9.9,23.32-17.05,9.8-6.66-28.12,14.3-11.37,4.9-4.9,1.37-4.21-.49-2.35-4.9Z" transform="translate(-4.13 -6.39)"/><path class="cls-1" d="M557.83,92.5,555.19,94l-4.31.68-5,.1a25.86,25.86,0,0,1-6.17-1.56l-1.28,2.15A15.25,15.25,0,0,1,531,103l-8,1.87a34.38,34.38,0,0,0,10.88,1.47l6.56-.49,4.71-2.75,1.76-2.84,2.45-2,3.23-.59,5.59-.1,8.42-2.45-7.83.4,3-3.14-.39-2Z" transform="translate(-4.13 -6.39)"/><path class="cls-1" d="M330.6,91.32,339,344l1.47,2.06,4,1.08,30-.1-.49-68.4c1.08,24.7,2.25,49.49,3.33,74.18-1.47,2.25-2.84,4.41-4.31,6.66l-6.17-4.7-13.13-3.43-15.29-.59,1.28,4.8L338.93,372l.3,7.05,8.72-1.27L359,370.88l8.92-9,1.37-7.35,3.82,3.14c-.1,2.45-.1,4.8-.2,7.25-3.13,2.16-6.37,4.21-9.5,6.37l-15.88,9.21-7.34,2.84L357,395.67l7.15,6,2.94,4.21s6.18,5.29,6.57,5.29.59,3.14.59,3.14a2.37,2.37,0,0,0,.39.68L367,419.68c2,36.54,3.92,73.19,5.88,109.74h-21l1.86-132-92.6-51.34,71.53,36.64.78-25.18-4.11-2-.59-5.19-4.11-6.47-1.28-6.76,4.31-28.12.49-23-3.52-14.6-1.47-16.85.68-13.82,2.35-13.91L325.61,207l-2.36-20,.2-9.7,2.06-8.43v-11l2.55-2.45,2.05-4.61.4-6.07-.3-12.15L329,127.19l-.4-6,.69-7.15-1.76,1.66-1.57.49,1.57-2.45-.3-2.64L325,108.86l2.45-5.29,1.66-5.29Z" transform="translate(-4.13 -6.39)"/><path class="cls-1" d="M261.33,346.09l-.3,3.33,5.29,3.53-11,176.86,8.52-.1,5.88-175.29,10.1,6.37-6.27,168.92h7.83l3.92-165.89,11.27,6.86-3.33,159,8.92-.09,2-155.8,10.48,6.07L311.4,529.71l12.05.1V381.17l10.48,5.48-1.17,142.87h13.91l-.88-138.65Z" transform="translate(-4.13 -6.39)"/><path class="cls-1" d="M283.18,139.24l-14.7-3.92L250.06,125,231.25,112.1l-6.37-4.8-6.77,1.86-6.27-1.28-4.31-4.41,1.77-3.72,2.35-1.86,1.86-4,7.35-1.37c1.66-.1,3.33-.1,5-.2,1.27-1.07,2.64-2.15,3.92-3.23l7.44-.29,15.88-.3,5.68-.29c2.64-.2,5.39-.3,8-.49.2-9.8.49-19.6.69-29.3l6.27-31,15.29-15.29,18.42-1.76,10.58,8.82,2,6.56,3,11.56V48.41l-3.24,12.93-2.35,12.93-.29,7.84L320,86.33l3.23.78-2.15-3.63-1-2.64.59-7.94,1-4.7,1.66-2.94-1.17,9.31.19,7,3.33,4.41-1.56,2.16-2.85,1.18-4.21-.49-3.62-3.24-1.47-4,.19-12.34L306.5,81.92l-4,6.37-7.54,5.87-11,4.51-18.62.2-33.9-1.18,1.27,5.88,5.88,8,8.82,7,12.06,7.94,14.2,7.35Z" transform="translate(-4.13 -6.39)"/></g><g id="Layer_6" data-name="Layer 6"><polygon class="cls-1" points="294.53 56.62 294.43 68.08 293.26 70.34 287.57 69.75 282.57 67.4 277.87 64.16 275.72 60.64 274.74 48.49 275.72 33.98 277.97 33.98 281.3 35.16 284.63 37.41 288.45 37.41 291.69 34.28 295.12 30.16 292.37 28.59 289.24 27.61 282.28 27.91 279.24 25.56 281.4 21.64 284.54 17.62 289.53 14.68 295.8 14.39 301.39 15.07 306.19 18.5 309.52 22.81 312.46 28.89 303.15 28.69 299.82 30.65 296.88 32.81 297.08 35.85 298.64 40.06 298.55 45.15 296.88 47.8 292.57 47.6 291.39 48.39 293.94 50.15 293.65 53.29 288.65 53.68 285.12 54.76 284.05 56.03 292.96 55.74 294.53 56.62"/><polygon class="cls-1" points="299.82 36.73 301.68 36.83 302.66 37.9 304.62 38.2 308.93 38.2 310.5 38.2 311.58 37.12 312.46 36.14 313.93 36.34 313.83 39.08 312.26 43.39 310.31 47.9 309.03 48.88 304.23 48.78 301.98 46.82 299.92 43.1 299.53 39.37 299.82 36.73"/><polygon class="cls-1" points="222.61 139.22 216.63 171.66 210.36 220.35 209.48 249.65 211.04 265.04 212.51 266.5 215.94 269.15 231.82 268.76 235.35 184.29 240.93 148.53 244.26 150.2 239.07 185.08 236.03 267.88 247.1 268.76 252.2 194.97 254.35 177.14 258.18 152.35 222.61 139.22"/></g><g id="Layer_3-2" data-name="Layer 3"><polygon class="cls-2" points="165.97 528.13 434.55 528.13 437.39 559.58 161.27 559.58 165.97 528.13"/><polyline class="cls-3" points="165.97 528.13 200.37 518.33 398.1 518.33 434.55 528.13"/></g><g id="Layer_2-2" data-name="Layer 2"><polygon class="cls-3" points="461.69 631.6 136.87 631.6 149.12 554.39 450.52 554.39 461.69 631.6"/></g><g id="Layer_4-2" data-name="Layer 4"><polygon class="cls-4" points="229.07 523.52 232.41 339.11 226.33 325.49 227.7 289.53 219.77 276.4 221.14 204.77 214.18 179 195.86 173.91 179 171.07 168.72 166.85 142.06 170.19 117.27 169.21 98.07 153.72 79.84 120.51 17.62 119.62 4 107.87 12.92 101.3 32.81 101.3 28.5 98.07 27.91 96.4 55.84 95.91 64.07 98.66 72.3 103.26 117.47 103.55 139.22 100.22 156.27 100.52 159.6 98.07 165.48 96.69 174.79 94.54 186.06 92.48 197.33 92.68 210.65 87.09 221.63 85.92 225.65 82.58 245.93 82.19 262.59 81.21 263.27 51.72 269.54 20.85 284.83 5.67 303.25 4 317.56 15.95 321.97 34.87 324.12 53.58 324.12 81.7 327.16 83.56 336.27 83.56 359.89 84.84 377.82 89.84 398.1 95.22 420.25 100.22 428.97 99.93 437.88 97.58 484.62 96.99 495.4 94.05 507.16 92.87 510.39 94.44 514.9 94.44 526.46 86.7 543.9 83.56 557.03 83.37 557.62 85.92 554.39 89.15 575.46 87.78 580.16 90.23 583.2 94.64 572.62 103.26 560.95 108.84 541.46 112.86 525.09 113.55 509.41 112.86 505.89 115.41 502.75 125.8 494.62 141.87 485.6 153.63 478.74 163.23 430.24 164.5 403.49 167.93 382.91 175.28 372.63 178.22 365.57 178.71 373.31 346.46 368.8 353.32 370.57 408.59 362.92 413.39 368.7 523.03 229.07 523.52"/></g><g id="Layer_5-2" data-name="Layer 5"><path class="cls-5" d="M8.82,114l3.43,1.76,4.21,3.43,7.64,4,48.21,1,4.41-2.06.59-1.47-2.55-2.15,2.74-.2,2.36-1,1.37-4.7V110l27,35.67,17.54,17.54,12.25,2.84,4.21-.59.1-4.41L131.3,147.37,106,122.58l17.54,7.94,36.25,18,8.82,2.74,2-.49-1.37-2.35-26-24.5-4.8-7-.1-1.77,7.45,3.24,27.73,21.06,4.61,2.35,2.74-.19v-3.53l-4.31-10.68-12-21.26,10.09,8.23,9.11,2.84,12.84,4.31,10.09,6.17,10.78,7.16,15.68,9.5,14.69,6.76,14.41,4.22,2.45-.4,3.53-1.37H276l3.83,1.28,12.24.49,14.31,1.86,4.9,2.06-9.31.58-15.77,2.26-11.66,3.72-5.3,5.29-.19,3,1.86,4.12,9.7,8,16.76,13.91-19.31-.78-7.35-4-7.05-1.57-3.53.49.1,2,3.53,8.24,1.47,10.68,12.44,21.06,9.51,18.72,10.48,15.09,15,17.93,14.31,14-10.88-4.8-5.78-2.94-3.63-4.41-8.42-1.57-5.88-4.7-20.77-41.55-4.22-9.5-1-5.49-5-4.7-1.86.78,1.08,11.57,3.23,13.71,8.43,18.42,10.19,20,6.08,13.92L302,327.08l17.64,23.81,5.49,12.05-.59,2.25-9-5.48-29.1-29.3-13-17.83-7.35-13-4.12-7-3.52-1.37-5.88,1.07-3.53,3v1.86l4,1.37,5,4.32,5.58,8,3.82,8.43,2.06,10.38-1.18,9.7-3.43,2.94-6.56-.19L252.61,340l-2.75.1,3,2.16,8.23,3.82-14.6,183.72H233.11l3.23-184.31-4.21-9.41-2-3.92,1.47-36.45-8-12.83,1.86-80.84-6.66-13.52-4.11-4.12-12.06-3.23c-4-.89-7.93-1.67-11.95-2.55-2.65-.39-5.19-.88-7.84-1.27-3.43-1.38-6.86-2.85-10.29-4.22-8.82,1.08-17.73,2.26-26.55,3.33-3.92-.19-7.84-.29-11.66-.49-4.41-.19-8.82-.29-13.13-.49-6.47-5.19-12.84-10.38-19.31-15.48-1.47-2.74-2.94-5.39-4.41-8.13-2.45-4.51-4.9-8.92-7.35-13.43-2-3.52-3.91-6.95-5.87-10.48l-62.81-2.06c-1.57-1-3.14-2-4.61-2.94L9.21,116.6Z" transform="translate(-4.13 -6.39)"/><path class="cls-5" d="M34.29,102.79l4.31,4,5.2,1,6.37-1.37,4.11-1.47,1.47-.49,2.35,2.06L61,109.45l4.61,2.94,4.6,2.45-4.8,1.76-3.23,1.18H55.65L50.85,115l-2-2.45-2.45-2L43.31,110l-5.59-.1-8.52-2.06h7.93l-4.5-3.33L32,103Z" transform="translate(-4.13 -6.39)"/><path class="cls-5" d="M54.58,92.6" transform="translate(-4.13 -6.39)"/><path class="cls-5" d="M368.23,92.79l2.06,92h6.46l11-2.45L399,177l13.72-3.23,19.89-1.86,42.33-1.77,8.82-1.86,5.19-7.35,10.88-13,6.46-13.32,3.14-11.67,3.72-3.72,1.57-.78,3.72-.49-7.15-2.55-3.72-1.86-8.33,10.58a140.19,140.19,0,0,0-7.55,12.25c-2,3.72-3.72,7.25-5.19,10.58L471,151.29l-9.21,1.18-4.61-1.28L455.73,149l2.84-4.61,18.82-17.93-13.53,7.94-19.3,10.19-19.11,8-21,8.63-16.36,6.56-9,3.33h-1.87l.89-1.66,11.07-9.9,23.32-17.05,9.8-6.66-28.12,14.3-11.37,4.9-4.9,1.37-4.21-.49-2.35-4.9Z" transform="translate(-4.13 -6.39)"/><path class="cls-5" d="M557.83,92.5,555.19,94l-4.31.68-5,.1a25.86,25.86,0,0,1-6.17-1.56l-1.28,2.15A15.25,15.25,0,0,1,531,103l-8,1.87a34.38,34.38,0,0,0,10.88,1.47l6.56-.49,4.71-2.75,1.76-2.84,2.45-2,3.23-.59,5.59-.1,8.42-2.45-7.83.4,3-3.14-.39-2Z" transform="translate(-4.13 -6.39)"/><path class="cls-5" d="M330.6,91.32,339,344l1.47,2.06,4,1.08,30-.1-.49-68.4c1.08,24.7,2.25,49.49,3.33,74.18-1.47,2.25-2.84,4.41-4.31,6.66l-6.17-4.7-13.13-3.43-15.29-.59,1.28,4.8L338.93,372l.3,7.05,8.72-1.27L359,370.88l8.92-9,1.37-7.35,3.82,3.14c-.1,2.45-.1,4.8-.2,7.25-3.13,2.16-6.37,4.21-9.5,6.37l-15.88,9.21-7.34,2.84L357,395.67l7.15,6,2.94,4.21s6.18,5.29,6.57,5.29.59,3.14.59,3.14a2.37,2.37,0,0,0,.39.68L367,419.68c2,36.54,3.92,73.19,5.88,109.74h-21l1.86-132-92.6-51.34,71.53,36.64.78-25.18-4.11-2-.59-5.19-4.11-6.47-1.28-6.76,4.31-28.12.49-23-3.52-14.6-1.47-16.85.68-13.82,2.35-13.91L325.61,207l-2.36-20,.2-9.7,2.06-8.43v-11l2.55-2.45,2.05-4.61.4-6.07-.3-12.15L329,127.19l-.4-6,.69-7.15-1.76,1.66-1.57.49,1.57-2.45-.3-2.64L325,108.86l2.45-5.29,1.66-5.29Z" transform="translate(-4.13 -6.39)"/><path class="cls-5" d="M261.33,346.09l-.3,3.33,5.29,3.53-11,176.86,8.52-.1,5.88-175.29,10.1,6.37-6.27,168.92h7.83l3.92-165.89,11.27,6.86-3.33,159,8.92-.09,2-155.8,10.48,6.07L311.4,529.71l12.05.1V381.17l10.48,5.48-1.17,142.87h13.91l-.88-138.65Z" transform="translate(-4.13 -6.39)"/><path class="cls-5" d="M283.18,139.24l-14.7-3.92L250.06,125,231.25,112.1l-6.37-4.8-6.77,1.86-6.27-1.28-4.31-4.41,1.77-3.72,2.35-1.86,1.86-4,7.35-1.37c1.66-.1,3.33-.1,5-.2,1.27-1.07,2.64-2.15,3.92-3.23l7.44-.29,15.88-.3,5.68-.29c2.64-.2,5.39-.3,8-.49.2-9.8.49-19.6.69-29.3l6.27-31,15.29-15.29,18.42-1.76,10.58,8.82,2,6.56,3,11.56V48.41l-3.24,12.93-2.35,12.93-.29,7.84L320,86.33l3.23.78-2.15-3.63-1-2.64.59-7.94,1-4.7,1.66-2.94-1.17,9.31.19,7,3.33,4.41-1.56,2.16-2.85,1.18-4.21-.49-3.62-3.24-1.47-4,.19-12.34L306.5,81.92l-4,6.37-7.54,5.87-11,4.51-18.62.2-33.9-1.18,1.27,5.88,5.88,8,8.82,7,12.06,7.94,14.2,7.35Z" transform="translate(-4.13 -6.39)"/></g><g id="Layer_6-2" data-name="Layer 6"><polygon class="cls-4" points="294.53 56.62 294.43 68.08 293.26 70.34 287.57 69.75 282.57 67.4 277.87 64.16 275.72 60.64 274.74 48.49 275.72 33.98 277.97 33.98 281.3 35.16 284.63 37.41 288.45 37.41 291.69 34.28 295.12 30.16 292.37 28.59 289.24 27.61 282.28 27.91 279.24 25.56 281.4 21.64 284.54 17.62 289.53 14.68 295.8 14.39 301.39 15.07 306.19 18.5 309.52 22.81 312.46 28.89 303.15 28.69 299.82 30.65 296.88 32.81 297.08 35.85 298.64 40.06 298.55 45.15 296.88 47.8 292.57 47.6 291.39 48.39 293.94 50.15 293.65 53.29 288.65 53.68 285.12 54.76 284.05 56.03 292.96 55.74 294.53 56.62"/><polygon class="cls-4" points="299.82 36.73 301.68 36.83 302.66 37.9 304.62 38.2 308.93 38.2 310.5 38.2 311.58 37.12 312.46 36.14 313.93 36.34 313.83 39.08 312.26 43.39 310.31 47.9 309.03 48.88 304.23 48.78 301.98 46.82 299.92 43.1 299.53 39.37 299.82 36.73"/><polygon class="cls-4" points="222.61 139.22 216.63 171.66 210.36 220.35 209.48 249.65 211.04 265.04 212.51 266.5 215.94 269.15 231.82 268.76 235.35 184.29 240.93 148.53 244.26 150.2 239.07 185.08 236.03 267.88 247.1 268.76 252.2 194.97 254.35 177.14 258.18 152.35 222.61 139.22"/></g></svg>