<?xml version="1.0" encoding="utf-8"?>
<!-- Generator: Adobe Illustrator 21.1.0, SVG Export Plug-In . SVG Version: 6.00 Build 0)  -->
<svg version="1.1" id="Layer_1" xmlns="http://www.w3.org/2000/svg" xmlns:xlink="http://www.w3.org/1999/xlink" x="0px" y="0px"
	 viewBox="0 0 591.2 640.5" style="enable-background:new 0 0 591.2 640.5;" xml:space="preserve">
<style type="text/css">
	.st0{fill:#147990;}
	.st1{fill:#13545E;}
	.st2{fill:#73BBBC;}
	.st3{fill:#2C5E6F;}
</style>
<title>holy_jesus_christ</title>
<g id="Layer_3">
	<polygon class="st0" points="165.3,534.9 439.4,534.9 442.3,567 160.5,567 	"/>
	<polyline class="st1" points="165.3,534.9 200.4,524.9 402.2,524.9 439.4,534.9 	"/>
</g>
<g id="Layer_2">
	<polygon class="st1" points="467.1,640.5 135.6,640.5 148.1,561.7 455.7,561.7 	"/>
</g>
<g id="Layer_4">
	<polygon class="st2" points="229.7,530.2 233.1,342 226.9,328.1 228.3,291.4 220.2,278 221.6,204.9 214.5,178.6 195.8,173.4 
		178.6,170.5 168.1,166.2 140.9,169.6 115.6,168.6 96,152.8 77.4,118.9 13.9,118 0,106 9.1,99.3 29.4,99.3 25,96 24.4,94.3 
		52.9,93.8 61.3,96.6 69.7,101.3 115.8,101.6 138,98.2 155.4,98.5 158.8,96 164.8,94.6 174.3,92.4 185.8,90.3 197.3,90.5 
		210.9,84.8 222.1,83.6 226.2,80.2 246.9,79.8 263.9,78.8 264.6,48.7 271,17.2 286.6,1.7 305.4,0 320,12.2 324.5,31.5 326.7,50.6 
		326.7,79.3 329.8,81.2 339.1,81.2 363.2,82.5 381.5,87.6 402.2,93.1 424.8,98.2 433.7,97.9 442.8,95.5 490.5,94.9 501.5,91.9 
		513.5,90.7 516.8,92.3 521.4,92.3 533.2,84.4 551,81.2 564.4,81 565,83.6 561.7,86.9 583.2,85.5 588,88 591.1,92.5 580.3,101.3 
		568.4,107 548.5,111.1 531.8,111.8 515.8,111.1 512.2,113.7 509,124.3 500.7,140.7 491.5,152.7 484.5,162.5 435,163.8 407.7,167.3 
		386.7,174.8 376.2,177.8 369,178.3 376.9,349.5 372.3,356.5 374.1,412.9 366.3,417.8 372.2,529.7 	"/>
</g>
<g id="Layer_5">
	<path class="st3" d="M0.7,105.7l3.5,1.8l4.3,3.5l7.8,4.1l49.2,1l4.5-2.1l0.6-1.5l-2.6-2.2l2.8-0.2l2.4-1l1.4-4.8v-2.6l27.6,36.4
		l17.9,17.9l12.5,2.9l4.3-0.6l0.1-4.5l-11.3-14l-25.8-25.3l17.9,8.1l37,18.4l9,2.8l2-0.5l-1.4-2.4l-26.5-25l-4.9-7.1l-0.1-1.8
		l7.6,3.3l28.3,21.5l4.7,2.4l2.8-0.2v-3.6l-4.4-10.9l-12.3-21.7l10.3,8.4l9.3,2.9l13.1,4.4l10.3,6.3l11,7.3l16,9.7l15,6.9l14.7,4.3
		l2.5-0.4l3.6-1.4h8l3.9,1.3l12.5,0.5l14.6,1.9l5,2.1l-9.5,0.6l-16.1,2.3l-11.9,3.8l-5.4,5.4l-0.2,3.1l1.9,4.2l9.9,8.2l17.1,14.2
		l-19.7-0.8l-7.5-4.1l-7.2-1.6l-3.6,0.5l0.1,2l3.6,8.4l1.5,10.9l12.7,21.5l9.7,19.1l10.7,15.4l15.3,18.3l14.6,14.3l-11.1-4.9l-5.9-3
		l-3.7-4.5l-8.6-1.6l-6-4.8l-21.2-42.4l-4.3-9.7l-1-5.6l-5.1-4.8l-1.9,0.8l1.1,11.8l3.3,14l8.6,18.8l10.4,20.4l6.2,14.2l13.7,26.8
		l18,24.3l5.6,12.3l-0.6,2.3l-9.2-5.6L284,326.6l-13.3-18.2l-7.5-13.3L259,288l-3.6-1.4l-6,1.1l-3.6,3.1v1.9l4.1,1.4l5.1,4.4
		l5.7,8.2l3.9,8.6l2.1,10.6l-1.2,9.9l-3.5,3l-6.7-0.2l-5.8-2.2l-2.8,0.1l3.1,2.2l8.4,3.9l-14.9,187.5h-13.7l3.3-188.1l-4.3-9.6l-2-4
		l1.5-37.2l-8.2-13.1l1.9-82.5l-6.8-13.8c-1.4-1.4-2.8-2.8-4.2-4.2c-4.1-1.1-8.2-2.2-12.3-3.3c-4.1-0.9-8.1-1.7-12.2-2.6
		c-2.7-0.4-5.3-0.9-8-1.3c-3.5-1.4-7-2.9-10.5-4.3c-9,1.1-18.1,2.3-27.1,3.4c-4-0.2-8-0.3-11.9-0.5c-4.5-0.2-9-0.3-13.4-0.5
		c-6.6-5.3-13.1-10.6-19.7-15.8c-1.5-2.8-3-5.5-4.5-8.3c-2.5-4.6-5-9.1-7.5-13.7c-2-3.6-4-7.1-6-10.7c-21.4-0.7-42.8-1.4-64.1-2.1
		c-1.6-1-3.2-2-4.7-3l-7.8-6.5L0.7,105.7z"/>
	<path class="st3" d="M26.7,94.3l4.4,4.1l5.3,1l6.5-1.4l4.2-1.5l1.5-0.5l2.4,2.1l3,3l4.7,3l4.7,2.5l-4.9,1.8l-3.3,1.2h-6.7l-4.9-2.8
		l-2-2.5l-2.5-2l-3.2-0.6l-5.7-0.1l-8.7-2.1h8.1L25,96.1l-0.6-1.6L26.7,94.3z"/>
	<path class="st3" d="M47.4,83.9"/>
	<path class="st3" d="M367.5,84.1l2.1,93.9h6.6l11.2-2.5l11.5-5.5l14-3.3l20.3-1.9l43.2-1.8l9-1.9l5.3-7.5l11.1-13.3l6.6-13.6
		l3.2-11.9l3.8-3.8l1.6-0.8l3.8-0.5l-7.3-2.6l-3.8-1.9l-8.5,10.8c-2.8,4-5.3,8.2-7.7,12.5c-2,3.8-3.8,7.4-5.3,10.8l-15.8,4.5
		l-9.4,1.2l-4.7-1.3l-1.5-2.2l2.9-4.7l19.2-18.3l-13.8,8.1l-19.7,10.4l-19.5,8.2l-21.4,8.8l-16.7,6.7l-9.2,3.4h-1.9l0.9-1.7
		l11.3-10.1l23.8-17.4l10-6.8L394,142.7l-11.6,5l-5,1.4l-4.3-0.5l-2.4-5L367.5,84.1z"/>
	<path class="st3" d="M561,83.8l-2.7,1.5l-4.4,0.7l-5.1,0.1c-2.2-0.3-4.3-0.8-6.3-1.6l-1.3,2.2c-1.5,3.4-4.2,6.2-7.6,7.8l-8.2,1.9
		c3.6,1.1,7.3,1.6,11.1,1.5l6.7-0.5l4.8-2.8l1.8-2.9l2.5-2l3.3-0.6l5.7-0.1l8.6-2.5l-8,0.4l3.1-3.2l-0.4-2L561,83.8z"/>
	<path class="st3" d="M329.1,82.6l8.6,257.9l1.5,2.1l4.1,1.1l30.6-0.1l-0.5-69.8c1.1,25.2,2.3,50.5,3.4,75.7
		c-1.5,2.3-2.9,4.5-4.4,6.8c-2.1-1.6-4.2-3.2-6.3-4.8l-13.4-3.5l-15.6-0.6l1.3,4.9l-0.8,16.7l0.3,7.2l8.9-1.3l11.3-7l9.1-9.2
		l1.4-7.5l3.9,3.2c-0.1,2.5-0.1,4.9-0.2,7.4c-3.2,2.2-6.5,4.3-9.7,6.5l-16.2,9.4l-7.5,2.9l17.1,12.6l7.3,6.1l3,4.3
		c0,0,6.3,5.4,6.7,5.4s0.6,3.2,0.6,3.2c0.1,0.2,0.2,0.5,0.4,0.7c-2.6,1.6-5.2,3.2-7.8,4.8c2,37.3,4,74.7,6,112h-21.4l1.9-134.7
		l-94.5-52.4l73,37.4l0.8-25.7l-4.2-2l-0.6-5.3l-4.2-6.6l-1.3-6.9l4.4-28.7l0.5-23.5l-3.6-14.9l-1.5-17.2l0.7-14.1l2.4-14.2
		l-0.6-20.3l-2.4-20.4l0.2-9.9l2.1-8.6v-11.2l2.6-2.5l2.1-4.7l0.4-6.2l-0.3-12.4l-1.2-5.5l-0.4-6.1l0.7-7.3l-1.8,1.7l-1.6,0.5
		l1.6-2.5l-0.3-2.7l-2.3-2.3l2.5-5.4l1.7-5.4L329.1,82.6z"/>
	<path class="st3" d="M258.4,342.6l-0.3,3.4l5.4,3.6l-11.2,180.5l8.7-0.1l6-178.9l10.3,6.5L270.9,530h8l4-169.3l11.5,7L291,530
		l9.1-0.1l2-159l10.7,6.2L309.5,530l12.3,0.1V378.4l10.7,5.6l-1.2,145.8h14.2l-0.9-141.5L258.4,342.6z"/>
	<path class="st3" d="M280.7,131.5l-15-4L246.9,117l-19.2-13.2l-6.5-4.9l-6.9,1.9l-6.4-1.3l-4.4-4.5l1.8-3.8l2.4-1.9l1.9-4.1
		l7.5-1.4c1.7-0.1,3.4-0.1,5.1-0.2c1.3-1.1,2.7-2.2,4-3.3c2.5-0.1,5.1-0.2,7.6-0.3c5.4-0.1,10.8-0.2,16.2-0.3
		c1.9-0.1,3.8-0.2,5.8-0.3c2.7-0.2,5.5-0.3,8.2-0.5c0.2-10,0.5-20,0.7-29.9l6.4-31.6l15.6-15.6L305.5,0l10.8,9l2,6.7l3.1,11.8v11.3
		L318.1,52l-2.4,13.2l-0.3,8l2.9,4.3l3.3,0.8l-2.2-3.7l-1-2.7l0.6-8.1l1-4.8l1.7-3l-1.2,9.5l0.2,7.1l3.4,4.5l-1.6,2.2l-2.9,1.2
		l-4.3-0.5l-3.7-3.3l-1.5-4.1l0.2-12.6l-5.8,13l-4.1,6.5l-7.7,6l-11.2,4.6l-19,0.2l-34.6-1.2l1.3,6l6,8.2l9,7.2l12.3,8.1l14.5,7.5
		L280.7,131.5z"/>
</g>
<g id="Layer_6">
	<polygon class="st2" points="296.5,53.7 296.4,65.4 295.2,67.7 289.4,67.1 284.3,64.7 279.5,61.4 277.3,57.8 276.3,45.4 
		277.3,30.6 279.6,30.6 283,31.8 286.4,34.1 290.3,34.1 293.6,30.9 297.1,26.7 294.3,25.1 291.1,24.1 284,24.4 280.9,22 283.1,18 
		286.3,13.9 291.4,10.9 297.8,10.6 303.5,11.3 308.4,14.8 311.8,19.2 314.8,25.4 305.3,25.2 301.9,27.2 298.9,29.4 299.1,32.5 
		300.7,36.8 300.6,42 298.9,44.7 294.5,44.5 293.3,45.3 295.9,47.1 295.6,50.3 290.5,50.7 286.9,51.8 285.8,53.1 294.9,52.8 	"/>
	<polygon class="st2" points="301.9,33.4 303.8,33.5 304.8,34.6 306.8,34.9 311.2,34.9 312.8,34.9 313.9,33.8 314.8,32.8 316.3,33 
		316.2,35.8 314.6,40.2 312.6,44.8 311.3,45.8 306.4,45.7 304.1,43.7 302,39.9 301.6,36.1 	"/>
	<polygon class="st2" points="223.1,138 217,171.1 210.6,220.8 209.7,250.7 211.3,266.4 212.8,267.9 216.3,270.6 232.5,270.2 
		236.1,184 241.8,147.5 245.2,149.2 239.9,184.8 236.8,269.3 248.1,270.2 253.3,194.9 255.5,176.7 259.4,151.4 	"/>
</g>
</svg>
