<svg xmlns="http://www.w3.org/2000/svg" viewBox="0 0 836.16 849.06"><defs><style>.cls-1{fill:#d2e3f1;}.cls-2{fill:#4a8dc6;}.cls-3{fill:#a5c6e3;}.cls-4{fill:#134a79;}.cls-5{fill:#0e3759;}.cls-6{fill:#fbc566;}.cls-7{fill:#f9b233;}.cls-8{fill:#77aad4;}.cls-9{fill:#1d71b8;}.cls-10{fill:#004475;}</style></defs><g id="Layer_2" data-name="Layer 2"><path class="cls-1" d="M472.53,886.38V573h21.79V120.59s5-51.2,45.24-51.2H693.72s38.54,16,38.54,52.88v447.4l18.43,1.68v315Z" transform="translate(-195.49 -68.35)"/><path class="cls-2" d="M472.53,917.41S458,916.48,458,902.92s14.49-16.54,14.49-16.54H750.69s15.67,4.53,15.67,15.67a17.13,17.13,0,0,1-8.78,15.36Z" transform="translate(-195.49 -68.35)"/><rect class="cls-3" x="536.77" y="404.7" width="78.2" height="26.81"/><rect class="cls-4" x="611.25" y="166.38" width="224.91" height="498.98"/><rect class="cls-5" x="670.08" y="166.38" width="53.62" height="112.46"/><rect class="cls-5" x="778.07" y="166.38" width="58.09" height="112.46"/><rect class="cls-5" x="723.71" y="278.84" width="54.37" height="109.48"/><rect class="cls-5" x="611.25" y="278.84" width="58.83" height="109.48"/><rect class="cls-6" x="611.25" y="388.31" width="224.91" height="57.35"/><rect class="cls-7" x="778.07" y="388.31" width="58.09" height="57.35"/><rect class="cls-5" x="723.71" y="445.66" width="54.37" height="112.46"/><rect class="cls-5" x="778.07" y="558.12" width="58.09" height="107.24"/><rect class="cls-5" x="670.08" y="558.12" width="53.62" height="107.24"/><rect class="cls-5" x="611.25" y="445.66" width="58.83" height="112.46"/><rect class="cls-3" x="221.19" y="404.7" width="78.2" height="26.81"/><rect class="cls-4" y="166.38" width="224.91" height="498.98"/><rect class="cls-5" x="112.46" y="166.38" width="53.62" height="112.46"/><rect class="cls-5" y="166.38" width="58.09" height="112.46"/><rect class="cls-5" x="58.09" y="278.84" width="54.37" height="109.48"/><rect class="cls-5" x="166.08" y="278.84" width="58.83" height="109.48"/><rect class="cls-6" y="388.31" width="224.91" height="57.35"/><rect class="cls-7" y="388.31" width="58.09" height="57.35"/><rect class="cls-5" x="58.09" y="445.66" width="54.37" height="112.46"/><rect class="cls-5" y="558.12" width="58.09" height="107.24"/><rect class="cls-5" x="112.46" y="558.12" width="53.62" height="107.24"/><rect class="cls-5" x="166.08" y="445.66" width="58.83" height="112.46"/></g><g id="Layer_4" data-name="Layer 4"><polygon class="cls-3" points="279.53 504.68 279.53 665.36 557.69 665.36 557.69 503 279.53 504.68"/><polygon class="cls-8" points="418.61 503 418.61 665.36 557.69 665.36 555.21 503 418.61 503"/><polygon class="cls-2" points="504.92 503.32 504.92 665.36 557.69 665.36 557.69 503 504.92 503.32"/><rect class="cls-3" x="503.26" y="665.36" width="51.95" height="152.67"/><rect class="cls-2" x="298.83" y="166.38" width="237.95" height="334.95"/><rect class="cls-9" x="483.9" y="166.38" width="52.88" height="334.95"/><rect class="cls-8" x="353.57" y="112.01" width="130.33" height="54.37"/><path class="cls-3" d="M636.19,69.39s96.07-11.91,96.07,44.69V234.73H679.38V114.82S662.26,69.39,636.19,69.39Z" transform="translate(-195.49 -68.35)"/></g><g id="Layer_3" data-name="Layer 3"><circle class="cls-10" cx="488.44" cy="550.73" r="16.48"/><circle class="cls-10" cx="488.44" cy="617.76" r="16.48"/></g></svg>