<svg xmlns="http://www.w3.org/2000/svg" viewBox="0 0 855.16 868.06"><defs><style>.cls-1{fill:none;stroke:#294375;stroke-width:19px;}.cls-2{fill:#d2e3f1;}.cls-3{fill:#4a8dc6;}.cls-4{fill:#a5c6e3;}.cls-5{fill:#134a79;}.cls-6{fill:#0e3759;}.cls-7{fill:#fbc566;}.cls-8{fill:#f9b233;}.cls-9{fill:#77aad4;}.cls-10{fill:#1d71b8;}.cls-11{fill:#004475;}</style></defs><g id="Layer_3" data-name="Layer 3"><path class="cls-1" d="M472.53,886.38V573h21.79V120.59s5-51.2,45.24-51.2H693.72s38.54,16,38.54,52.88v447.4l18.43,1.68v315Z" transform="translate(-185.99 -58.85)"/><path class="cls-1" d="M472.53,917.41S458,916.48,458,902.92s14.49-16.54,14.49-16.54H750.69s15.67,4.53,15.67,15.67a17.13,17.13,0,0,1-8.78,15.36Z" transform="translate(-185.99 -58.85)"/><rect class="cls-1" x="546.27" y="414.2" width="78.2" height="26.81"/><rect class="cls-1" x="620.75" y="175.88" width="224.91" height="498.98"/><rect class="cls-1" x="679.58" y="175.88" width="53.62" height="112.46"/><rect class="cls-1" x="787.57" y="175.88" width="58.09" height="112.46"/><rect class="cls-1" x="733.21" y="288.34" width="54.37" height="109.48"/><rect class="cls-1" x="620.75" y="288.34" width="58.83" height="109.48"/><rect class="cls-1" x="620.75" y="397.81" width="224.91" height="57.35"/><rect class="cls-1" x="787.57" y="397.81" width="58.09" height="57.35"/><rect class="cls-1" x="733.21" y="455.16" width="54.37" height="112.46"/><rect class="cls-1" x="787.57" y="567.62" width="58.09" height="107.24"/><rect class="cls-1" x="679.58" y="567.62" width="53.62" height="107.24"/><rect class="cls-1" x="620.75" y="455.16" width="58.83" height="112.46"/><rect class="cls-1" x="230.69" y="414.2" width="78.2" height="26.81"/><rect class="cls-1" x="9.5" y="175.88" width="224.91" height="498.98"/><rect class="cls-1" x="121.96" y="175.88" width="53.62" height="112.46"/><rect class="cls-1" x="9.5" y="175.88" width="58.09" height="112.46"/><rect class="cls-1" x="67.59" y="288.34" width="54.37" height="109.48"/><rect class="cls-1" x="175.58" y="288.34" width="58.83" height="109.48"/><rect class="cls-1" x="9.5" y="397.81" width="224.91" height="57.35"/><rect class="cls-1" x="9.5" y="397.81" width="58.09" height="57.35"/><rect class="cls-1" x="67.59" y="455.16" width="54.37" height="112.46"/><rect class="cls-1" x="9.5" y="567.62" width="58.09" height="107.24"/><rect class="cls-1" x="121.96" y="567.62" width="53.62" height="107.24"/><rect class="cls-1" x="175.58" y="455.16" width="58.83" height="112.46"/><polygon class="cls-1" points="289.03 514.18 289.03 674.86 567.19 674.86 567.19 512.5 289.03 514.18"/><polygon class="cls-1" points="428.11 512.5 428.11 674.86 567.19 674.86 564.71 512.5 428.11 512.5"/><polygon class="cls-1" points="514.42 512.82 514.42 674.86 567.19 674.86 567.19 512.5 514.42 512.82"/><rect class="cls-1" x="512.76" y="674.86" width="51.95" height="152.67"/><rect class="cls-1" x="308.33" y="175.88" width="237.95" height="334.95"/><rect class="cls-1" x="493.4" y="175.88" width="52.88" height="334.95"/><rect class="cls-1" x="363.07" y="121.51" width="130.33" height="54.37"/><path class="cls-1" d="M636.19,69.39s96.07-11.91,96.07,44.69V234.73H679.38V114.82S662.26,69.39,636.19,69.39Z" transform="translate(-185.99 -58.85)"/><circle class="cls-1" cx="497.94" cy="560.23" r="16.48"/><circle class="cls-1" cx="497.94" cy="627.26" r="16.48"/><path class="cls-2" d="M472.53,886.38V573h21.79V120.59s5-51.2,45.24-51.2H693.72s38.54,16,38.54,52.88v447.4l18.43,1.68v315Z" transform="translate(-185.99 -58.85)"/><path class="cls-3" d="M472.53,917.41S458,916.48,458,902.92s14.49-16.54,14.49-16.54H750.69s15.67,4.53,15.67,15.67a17.13,17.13,0,0,1-8.78,15.36Z" transform="translate(-185.99 -58.85)"/><rect class="cls-4" x="546.27" y="414.2" width="78.2" height="26.81"/><rect class="cls-5" x="620.75" y="175.88" width="224.91" height="498.98"/><rect class="cls-6" x="679.58" y="175.88" width="53.62" height="112.46"/><rect class="cls-6" x="787.57" y="175.88" width="58.09" height="112.46"/><rect class="cls-6" x="733.21" y="288.34" width="54.37" height="109.48"/><rect class="cls-6" x="620.75" y="288.34" width="58.83" height="109.48"/><rect class="cls-7" x="620.75" y="397.81" width="224.91" height="57.35"/><rect class="cls-8" x="787.57" y="397.81" width="58.09" height="57.35"/><rect class="cls-6" x="733.21" y="455.16" width="54.37" height="112.46"/><rect class="cls-6" x="787.57" y="567.62" width="58.09" height="107.24"/><rect class="cls-6" x="679.58" y="567.62" width="53.62" height="107.24"/><rect class="cls-6" x="620.75" y="455.16" width="58.83" height="112.46"/><rect class="cls-4" x="230.69" y="414.2" width="78.2" height="26.81"/><rect class="cls-5" x="9.5" y="175.88" width="224.91" height="498.98"/><rect class="cls-6" x="121.96" y="175.88" width="53.62" height="112.46"/><rect class="cls-6" x="9.5" y="175.88" width="58.09" height="112.46"/><rect class="cls-6" x="67.59" y="288.34" width="54.37" height="109.48"/><rect class="cls-6" x="175.58" y="288.34" width="58.83" height="109.48"/><rect class="cls-7" x="9.5" y="397.81" width="224.91" height="57.35"/><rect class="cls-8" x="9.5" y="397.81" width="58.09" height="57.35"/><rect class="cls-6" x="67.59" y="455.16" width="54.37" height="112.46"/><rect class="cls-6" x="9.5" y="567.62" width="58.09" height="107.24"/><rect class="cls-6" x="121.96" y="567.62" width="53.62" height="107.24"/><rect class="cls-6" x="175.58" y="455.16" width="58.83" height="112.46"/><polygon class="cls-4" points="289.03 514.18 289.03 674.86 567.19 674.86 567.19 512.5 289.03 514.18"/><polygon class="cls-9" points="428.11 512.5 428.11 674.86 567.19 674.86 564.71 512.5 428.11 512.5"/><polygon class="cls-3" points="514.42 512.82 514.42 674.86 567.19 674.86 567.19 512.5 514.42 512.82"/><rect class="cls-4" x="512.76" y="674.86" width="51.95" height="152.67"/><rect class="cls-3" x="308.33" y="175.88" width="237.95" height="334.95"/><rect class="cls-10" x="493.4" y="175.88" width="52.88" height="334.95"/><rect class="cls-9" x="363.07" y="121.51" width="130.33" height="54.37"/><path class="cls-4" d="M636.19,69.39s96.07-11.91,96.07,44.69V234.73H679.38V114.82S662.26,69.39,636.19,69.39Z" transform="translate(-185.99 -58.85)"/><circle class="cls-11" cx="497.94" cy="560.23" r="16.48"/><circle class="cls-11" cx="497.94" cy="627.26" r="16.48"/></g></svg>