<svg xmlns="http://www.w3.org/2000/svg" viewBox="0 0 750 500"><defs><style>.cls-1{fill:#fff;}.cls-2{fill:#ffaf82;}.cls-3{fill:#265d92;}.cls-4{fill:#1a4a75;}.cls-5{fill:#050705;}.cls-6{fill:#2c2c2c;}.cls-10,.cls-7{fill:#f88968;}.cls-8{fill:#bc2327;}.cls-9{fill:#dd342c;}.cls-10{opacity:0.5;}.cls-11{fill:#32324c;}</style></defs><g id="BACKGROUND"><rect class="cls-1" width="750" height="500"/></g><g id="OBJECTS"><path class="cls-2" d="M384.73,339.41c-5.72,22.32-1.53,60.68-2.1,90.59l14.25-4.55,8.32-86Z" transform="translate(0)"/><path class="cls-3" d="M430.68,456.5H385.14a4.21,4.21,0,0,1-4.18-3.66,4.27,4.27,0,0,1,0-.88L382.78,428a26.11,26.11,0,0,1,4.55-1.5,4.65,4.65,0,0,0,3.38-3.07l.09-.35c1-4.6,7.68-6.06,8.91-1.56.16.58.29,1.14.41,1.69,0,.13.06.27.08.4.2,1,.34,1.86.44,2.63a.11.11,0,0,1,0,.05,25.72,25.72,0,0,1,.23,3.26c.6.76,1.18,1.51,1.75,2.26.29.36.56.73.84,1.09l1.75,2.27.79,1c.64.79,1.26,1.54,1.88,2.23.28.32.56.63.85.93,2.35,2.47,4.72,4.15,7.52,4.54,4.93.68,13,1.23,16.9,8.47a3.05,3.05,0,0,1,.2.46A2.82,2.82,0,0,1,430.68,456.5Z" transform="translate(0)"/><path class="cls-4" d="M430.68,456.5H385.14a4.21,4.21,0,0,1-4.18-3.66h52.4A2.82,2.82,0,0,1,430.68,456.5Z" transform="translate(0)"/><path class="cls-1" d="M403.47,432.94a7.91,7.91,0,0,1-3.77,2.58c-.37.15-.77.3-1.21.44l-.39-1.19c.43-.14.82-.28,1.17-.43,2.49-1,3.17-2,3.36-2.49C402.92,432.21,403.19,432.58,403.47,432.94Z" transform="translate(0)"/><path class="cls-1" d="M399.71,435.36A1.42,1.42,0,1,1,398.3,434,1.42,1.42,0,0,1,399.71,435.36Z" transform="translate(0)"/><path class="cls-1" d="M406,436.21a9,9,0,0,1-3.11,2c-.44.19-.92.36-1.45.54l-.39-1.19c.49-.17.94-.33,1.33-.49a7.36,7.36,0,0,0,2.83-1.82Z" transform="translate(0)"/><path class="cls-1" d="M402.9,438.11a1.42,1.42,0,1,1-1.41-1.41A1.42,1.42,0,0,1,402.9,438.11Z" transform="translate(0)"/><path class="cls-1" d="M408.74,439.37a9.21,9.21,0,0,1-3,1.88c-.44.19-.92.37-1.46.55l-.39-1.2c.49-.16.94-.33,1.34-.49a7.81,7.81,0,0,0,2.68-1.67C408.17,438.76,408.45,439.07,408.74,439.37Z" transform="translate(0)"/><path class="cls-1" d="M405.72,441.2a1.41,1.41,0,1,1-1.41-1.41A1.41,1.41,0,0,1,405.72,441.2Z" transform="translate(0)"/><path class="cls-1" d="M400.64,426.28a31.67,31.67,0,0,0-4.05.23l0-2.28a10.15,10.15,0,0,1,3.59-.58C400.4,424.61,400.54,425.51,400.64,426.28Z" transform="translate(0)"/><path class="cls-5" d="M380,255.32,378.47,340s16,5.16,32.14,1.17l3.45-97.88Z" transform="translate(0)"/><path class="cls-2" d="M338.15,323c0,5.83,0,11.09.13,15.31l.53,88.2h12.55l8-82.44L362.51,323Z" transform="translate(0)"/><path class="cls-6" d="M340.27,247S338.57,277.58,351,282s62,14.08,63-38.72Z" transform="translate(0)"/><path class="cls-6" d="M340.26,254.35,332.82,340s17.21,5.73,34.39-.85l1.59-53.39Z" transform="translate(0)"/><path class="cls-3" d="M362.94,451.26c-.39,7.78-24.71,5.1-28.6,2.76-1.5-.9-2.13-2.64-2.24-4.74-.19-3.36.91-7.65,1.87-11,1.55-5.48,1.34-5.37,2.42-9.12,0,0-.28-6.09,7.69-8.42s10.89,12.84,12.25,15.76c1.25,2.67,6.09,6.33,6.59,12.9A14.64,14.64,0,0,1,362.94,451.26Z" transform="translate(0)"/><path class="cls-1" d="M339.75,434.06l-.64-1c.3-.19,7.33-4.7,13.45-2l-.46,1.06C346.55,429.7,339.82,434,339.75,434.06Z" transform="translate(0)"/><path class="cls-1" d="M340.45,440.83l-.64-1c.29-.19,7.33-4.7,13.45-2l-.47,1.06C347.24,436.47,340.51,440.79,340.45,440.83Z" transform="translate(0)"/><path class="cls-1" d="M340.1,437.45l-.64-1c.3-.19,7.33-4.7,13.45-2l-.47,1.07C346.89,433.09,340.17,437.4,340.1,437.45Z" transform="translate(0)"/><path class="cls-1" d="M340.68,433.76a1.32,1.32,0,1,1-1.32-1.32A1.32,1.32,0,0,1,340.68,433.76Z" transform="translate(0)"/><path class="cls-1" d="M340.75,437a1.32,1.32,0,1,1-1.32-1.31A1.32,1.32,0,0,1,340.75,437Z" transform="translate(0)"/><path class="cls-1" d="M341.44,440.17a1.32,1.32,0,1,1-1.31-1.31A1.31,1.31,0,0,1,341.44,440.17Z" transform="translate(0)"/><circle class="cls-1" cx="353.02" cy="438.28" r="1.31"/><path class="cls-1" d="M354,434.78a1.32,1.32,0,1,1-1.31-1.32A1.31,1.31,0,0,1,354,434.78Z" transform="translate(0)"/><path class="cls-1" d="M353.64,431.28a1.31,1.31,0,1,1-1.31-1.32A1.31,1.31,0,0,1,353.64,431.28Z" transform="translate(0)"/><path class="cls-4" d="M362.94,451.26c-.39,7.78-24.71,5.1-28.6,2.76-1.5-.9-2.13-2.64-2.24-4.74a28.55,28.55,0,0,0,13.78,3.39c8.25.15,14.2-1.52,17-3.29A14.64,14.64,0,0,1,362.94,451.26Z" transform="translate(0)"/><path class="cls-1" d="M347.52,423.13a13,13,0,0,0-6.84,1.36L341,427a26.73,26.73,0,0,1,7.33-1.1A5.79,5.79,0,0,0,347.52,423.13Z" transform="translate(0)"/><path class="cls-2" d="M442.91,231.15a45.17,45.17,0,0,1,7.46,4.18c3.24,2.37,7.1,5.34,9.08,6.84,2.37,1.8-.4,3.66-3.81,1.35s-4.21-2.82-4.21-2.82,10.6,12,12,16c1.25,3.71-4.92-2.58-10.32-7.51,0,0,8.24,13.32,7.07,15.71-1.53,3.15-11.46-13-11.46-13s5.55,13,3.91,13.46c-1.84.49-9.15-12.13-9.15-12.13s3,9.28,1.83,9.18c-2.37-.18-12.67-18.2-11.22-27.58C434.07,234.82,440.64,230.69,442.91,231.15Z" transform="translate(0)"/><path class="cls-7" d="M452.59,245.86s-5.45,5.15-12.41,4.78C440.18,250.64,446.34,254.09,452.59,245.86Z" transform="translate(0)"/><path class="cls-7" d="M445.12,244.39s-7.29-4.86-2.82-11.18C442.3,233.21,435,238.7,445.12,244.39Z" transform="translate(0)"/><path class="cls-8" d="M396.74,130.15s5.59,30.41,12.68,48.14S434,238,434,238c2-3.54,5.73-6,11.67-5.57,0,0-11.72-39.49-16.71-56.5-2.22-7.58-10-49.43-14.78-56.47C414.16,119.5,397.44,127.54,396.74,130.15Z" transform="translate(0)"/><path class="cls-9" d="M364.71,108l-31.45,15.47L344,183.54l-6.51,70s52.94,11.34,79.08-.7L414.16,119.5,388,109.24Z" transform="translate(0)"/><path class="cls-2" d="M324,239.43a29.76,29.76,0,0,1,4.77,7.33c1.51,3.72,2.94,7.67,3.83,10,1.07,2.78-1.76,2.67-3.52.59-2.66-3.15-2.87-5.3-2.87-5.3S328.92,267.77,328,272c-.88,3.82-2.81-4.78-4.81-11.81,0,0,0,15.66-2.26,17.08-3,1.86-2.89-17.1-2.89-17.1s-2.13,14-3.76,13.49c-1.83-.55-1.39-15.12-1.39-15.12s-2.32,9.47-3.29,8.76c-1.91-1.41-1.18-22.15,5-29.36C314.55,237.89,322.31,237.84,324,239.43Z" transform="translate(0)"/><path class="cls-8" d="M333.26,123.46s-15.52,29.22-19,48-1.86,69.85-1.86,69.85c4.91,1.25,9,1.13,12.86-.32,0,0,1.43-47.79,4.6-57.8s18.68-35.71,18.68-35.71S352,132.08,333.26,123.46Z" transform="translate(0)"/><path class="cls-2" d="M385.13,95.2l-1.05,14.18-.49,6.5c-8.29,5.89-18.2-2.28-18.2-2.28l-4-22.65c3.83-2.48,13.25,1,19.08,2.75C383.25,94.52,385.13,95.2,385.13,95.2Z" transform="translate(0)"/><path class="cls-7" d="M385.13,95.2l-1.05,14.18c-9.56-2.4-17.35-15.85-17.35-15.85l13.77.17C383.25,94.52,385.13,95.2,385.13,95.2Z" transform="translate(0)"/><path class="cls-2" d="M415.87,57.35c0,.5,0,1,0,1.55V59c0,1.71-.1,3.48-.21,5.3,0,.17,0,.34,0,.51-.17,2.9-.44,5.9-.75,8.9-.08.65-.15,1.3-.22,1.94-.24,2.09-.5,4.17-.78,6.21-.05.41-.11.81-.17,1.22-.11.81-.23,1.62-.35,2.41-.25,1.75-.51,3.45-.77,5.09a18.59,18.59,0,0,1-21.82,15.33c-10.15-1.92-20.5-4.56-28.41-8l-.31-.66a81.48,81.48,0,0,1-4.73-14.18,80.87,80.87,0,0,1-1.75-28.91c3.1-24,53.76-26.11,59.68-6.36,0,.23.08.45.11.69A58.79,58.79,0,0,1,415.87,57.35Z" transform="translate(0)"/><path class="cls-10" d="M381.47,79.07c0,3-3.34,5.43-7.47,5.43s-7.48-2.43-7.48-5.43,3.35-5.43,7.48-5.43S381.47,76.07,381.47,79.07Z" transform="translate(0)"/><path class="cls-10" d="M414.85,73.69c-.08.65-.15,1.3-.22,1.94-.24,2.09-.5,4.17-.78,6.21-.05.41-.11.81-.17,1.22l-.21,1.43c-4-.12-7.15-2.51-7.15-5.42s3.35-5.43,7.48-5.43C414.16,73.64,414.51,73.66,414.85,73.69Z" transform="translate(0)"/><path class="cls-11" d="M415.87,57.34c0,.51,0,1,0,1.56-3.22-2.95-2.4-10.38-2.4-10.38a6.24,6.24,0,0,1,1.88,0A58.65,58.65,0,0,1,415.87,57.34Z" transform="translate(0)"/><path class="cls-11" d="M362,97.26a80.08,80.08,0,0,1-4.74-14.17L362.36,85S363.9,92.84,362,97.26Z" transform="translate(0)"/><path class="cls-11" d="M387.42,70.67c0,2.08-.88,3.77-2,3.78s-2.08-1.65-2.11-3.73.88-3.77,2-3.78S387.4,68.6,387.42,70.67Z" transform="translate(0)"/><path class="cls-11" d="M408.88,70.67c0,2.08-.88,3.77-2,3.78s-2.08-1.65-2.11-3.73.88-3.77,2-3.78S408.86,68.6,408.88,70.67Z" transform="translate(0)"/><path class="cls-2" d="M363.07,67.44s-5.86-6.93-10.65-2.82c-5.28,4.54-1,19.65,9.81,19.18Z" transform="translate(0)"/><path class="cls-7" d="M362.39,80.51a.94.94,0,0,1-.88-.83c-1-7.75-5.68-8.82-5.73-8.83a1,1,0,0,1,.4-1.87c.24,0,6.07,1.38,7.22,10.45a1,1,0,0,1-.83,1.07Z" transform="translate(0)"/><path class="cls-7" d="M356.25,75.72a1,1,0,0,1-.57-.24,1,1,0,0,1-.09-1.34,5.36,5.36,0,0,1,5.07-1.53,1,1,0,0,1-.39,1.87,3.49,3.49,0,0,0-3.25.92A1,1,0,0,1,356.25,75.72Z" transform="translate(0)"/><path class="cls-7" d="M398.72,92.53a19.21,19.21,0,0,1-13.49-6.37,1.09,1.09,0,1,1,1.63-1.46c7.28,8.18,18.45,5.1,18.56,5.06a1.1,1.1,0,1,1,.6,2.11A23.53,23.53,0,0,1,398.72,92.53Z" transform="translate(0)"/><path class="cls-7" d="M395.55,97.43a11.29,11.29,0,0,1-8.06-3.9,1.16,1.16,0,0,1,1.84-1.41c.14.18,3.13,3.92,9.26,2.82a1.16,1.16,0,0,1,.4,2.28A14.33,14.33,0,0,1,395.55,97.43Z" transform="translate(0)"/><path class="cls-7" d="M397.37,82.13a1.11,1.11,0,0,1-.79-.42,1.09,1.09,0,0,1,.19-1.54l2.89-2.26-2.54-.63a1.11,1.11,0,0,1-.82-.88l-1.19-7a1.09,1.09,0,1,1,2.15-.37l1.08,6.25,4,1a1.1,1.1,0,0,1,.41,1.93l-4.67,3.65A1.12,1.12,0,0,1,397.37,82.13Z" transform="translate(0)"/><path class="cls-11" d="M354.94,63.4s-7.8-13.87-6.16-19.76a8.5,8.5,0,0,1,7.53-6.16s12-12.28,30.08-11c15,1.1,29.48-2.19,31.69,2.19,2,4-6.85,6.85-6.85,6.85s7.4-.55,9,1.37-.08,6.44-7.78,6c0,0,6.41.34,8.05,3.63s-5.75,4.51-12.32,3.15-33-1.24-38.76,2.73c0,0,1.23,7.25-2.33,10.13,0,0,2.74,9.6.14,11.92S362.92,63.53,354.94,63.4Z" transform="translate(0)"/><path class="cls-11" d="M389,59.88v3.58s-6.54-1.2-11,1.57l-.51-3S381.28,58.31,389,59.88Z" transform="translate(0)"/><path class="cls-11" d="M401.86,59.88v3.58s6.54-1.2,11,1.57l.52-3S409.62,58.31,401.86,59.88Z" transform="translate(0)"/></g></svg>