<?xml version="1.0" encoding="utf-8"?>
<!-- Generator: Adobe Illustrator 21.1.0, SVG Export Plug-In . SVG Version: 6.00 Build 0)  -->
<svg version="1.1" id="Layer_1" xmlns="http://www.w3.org/2000/svg" xmlns:xlink="http://www.w3.org/1999/xlink" x="0px" y="0px"
	 viewBox="0 0 750 500" style="enable-background:new 0 0 750 500;" xml:space="preserve">
<style type="text/css">
	.st0{fill:none;stroke:#BF5837;stroke-width:7;stroke-linejoin:round;}
	.st1{fill:#FFAF82;}
	.st2{fill:#265D92;}
	.st3{fill:#1A4A75;}
	.st4{fill:#FFFFFF;}
	.st5{fill:#050705;}
	.st6{fill:#2C2C2C;}
	.st7{fill:#F88968;}
	.st8{fill:#BC2327;}
	.st9{fill:#DD342C;}
	.st10{opacity:0.5;fill:#F88968;enable-background:new    ;}
	.st11{fill:#32324C;}
</style>
<g id="OBJECTS">
	<path class="st0" d="M384.7,379.4c-5.7,22.3-1.5,60.7-2.1,90.6l14.3-4.5l8.3-86L384.7,379.4z"/>
	<path class="st0" d="M430.7,496.5h-45.5c-2.1,0-3.9-1.6-4.2-3.7c0-0.3,0-0.6,0-0.9l1.8-24c1.5-0.6,3-1.1,4.5-1.5
		c1.6-0.4,2.9-1.5,3.4-3.1l0.1-0.4c1-4.6,7.7-6.1,8.9-1.6c0.2,0.6,0.3,1.1,0.4,1.7c0,0.1,0.1,0.3,0.1,0.4c0.2,1,0.3,1.9,0.4,2.6l0,0
		c0.1,1.1,0.2,2.2,0.2,3.3c0.6,0.8,1.2,1.5,1.8,2.3c0.3,0.4,0.6,0.7,0.8,1.1l1.8,2.3l0.8,1c0.6,0.8,1.3,1.5,1.9,2.2
		c0.3,0.3,0.6,0.6,0.9,0.9c2.4,2.5,4.7,4.1,7.5,4.5c4.9,0.7,13,1.2,16.9,8.5c0.1,0.1,0.1,0.3,0.2,0.5c0.5,1.5-0.3,3.1-1.8,3.6
		C431.3,496.5,431,496.5,430.7,496.5z"/>
	<path class="st0" d="M430.7,496.5h-45.5c-2.1,0-3.9-1.6-4.2-3.7h52.4c0.5,1.5-0.4,3.1-1.9,3.5C431.2,496.5,431,496.5,430.7,496.5z"
		/>
	<path class="st0" d="M403.5,472.9c-1,1.2-2.3,2.1-3.8,2.6c-0.4,0.1-0.8,0.3-1.2,0.4l-0.4-1.2c0.4-0.1,0.8-0.3,1.2-0.4
		c2.5-1,3.2-2,3.4-2.5C402.9,472.2,403.2,472.6,403.5,472.9z"/>
	<path class="st0" d="M399.7,475.4c0,0.8-0.6,1.4-1.4,1.5c-0.8,0-1.4-0.6-1.5-1.4c0-0.8,0.6-1.4,1.4-1.5c0,0,0,0,0.1,0
		C399.1,474,399.7,474.6,399.7,475.4z"/>
	<path class="st0" d="M406,476.2c-0.9,0.9-1.9,1.6-3.1,2c-0.4,0.2-0.9,0.4-1.5,0.5l-0.4-1.2c0.5-0.2,0.9-0.3,1.3-0.5
		c1.1-0.4,2-1,2.8-1.8L406,476.2z"/>
	<path class="st0" d="M402.9,478.1c0,0.8-0.6,1.4-1.4,1.4s-1.4-0.6-1.4-1.4s0.6-1.4,1.4-1.4l0,0
		C402.3,476.7,402.9,477.3,402.9,478.1z"/>
	<path class="st0" d="M408.7,479.4c-0.9,0.8-1.9,1.5-3,1.9c-0.4,0.2-0.9,0.4-1.5,0.5l-0.4-1.2c0.5-0.2,0.9-0.3,1.3-0.5
		c1-0.4,1.9-0.9,2.7-1.7C408.2,478.8,408.5,479.1,408.7,479.4z"/>
	<path class="st0" d="M405.7,481.2c0,0.8-0.6,1.4-1.4,1.4s-1.4-0.6-1.4-1.4s0.6-1.4,1.4-1.4S405.7,480.4,405.7,481.2L405.7,481.2z"
		/>
	<path class="st0" d="M400.6,466.3c-1.4,0-2.7,0.1-4,0.2v-2.3c1.2-0.4,2.4-0.6,3.6-0.6C400.4,464.6,400.5,465.5,400.6,466.3z"/>
	<path class="st0" d="M380,295.3l-1.5,84.7c0,0,16,5.2,32.1,1.2l3.5-97.9L380,295.3z"/>
	<path class="st0" d="M338.1,363c0,5.8,0,11.1,0.1,15.3l0.5,88.2h12.5l8-82.4l3.2-21.1H338.1z"/>
	<path class="st0" d="M340.3,287c0,0-1.7,30.6,10.7,35s62,14.1,63-38.7L340.3,287z"/>
	<path class="st0" d="M340.3,294.4l-7.4,85.6c0,0,17.2,5.7,34.4-0.9l1.6-53.4L340.3,294.4z"/>
	<path class="st0" d="M362.9,491.3c-0.4,7.8-24.7,5.1-28.6,2.8c-1.5-0.9-2.1-2.6-2.2-4.7c-0.2-3.4,0.9-7.6,1.9-11
		c1.5-5.5,1.3-5.4,2.4-9.1c0,0-0.3-6.1,7.7-8.4s10.9,12.8,12.3,15.8c1.3,2.7,6.1,6.3,6.6,12.9C363,490,363,490.6,362.9,491.3z"/>
	<path class="st0" d="M339.8,474.1l-0.6-1c0.3-0.2,7.3-4.7,13.5-2l-0.5,1.1C346.5,469.7,339.8,474,339.8,474.1z"/>
	<path class="st0" d="M340.5,480.8l-0.6-1c0.3-0.2,7.3-4.7,13.5-2l-0.5,1.1C347.2,476.5,340.5,480.8,340.5,480.8z"/>
	<path class="st0" d="M340.1,477.5l-0.6-1c0.3-0.2,7.3-4.7,13.5-2l-0.5,1.1C346.9,473.1,340.2,477.4,340.1,477.5z"/>
	<path class="st0" d="M340.7,473.8c0,0.7-0.6,1.3-1.3,1.3c-0.7,0-1.3-0.6-1.3-1.3c0-0.7,0.6-1.3,1.3-1.3S340.7,473,340.7,473.8
		L340.7,473.8z"/>
	<path class="st0" d="M340.8,477c0,0.7-0.6,1.3-1.3,1.3c-0.7,0-1.3-0.6-1.3-1.3c0-0.7,0.6-1.3,1.3-1.3l0,0
		C340.2,475.7,340.7,476.3,340.8,477z"/>
	<path class="st0" d="M341.4,480.2c0,0.7-0.6,1.3-1.3,1.3s-1.3-0.6-1.3-1.3s0.6-1.3,1.3-1.3l0,0
		C340.9,478.9,341.4,479.4,341.4,480.2z"/>
	<circle class="st0" cx="353" cy="478.3" r="1.3"/>
	<path class="st0" d="M354,474.8c0,0.7-0.6,1.3-1.3,1.3c-0.7,0-1.3-0.6-1.3-1.3c0-0.7,0.6-1.3,1.3-1.3l0,0
		C353.4,473.5,354,474,354,474.8L354,474.8z"/>
	<path class="st0" d="M353.6,471.3c0,0.7-0.6,1.3-1.3,1.3c-0.7,0-1.3-0.6-1.3-1.3c0-0.7,0.6-1.3,1.3-1.3
		C353.1,470,353.6,470.5,353.6,471.3L353.6,471.3z"/>
	<path class="st0" d="M362.9,491.3c-0.4,7.8-24.7,5.1-28.6,2.8c-1.5-0.9-2.1-2.6-2.2-4.7c4.2,2.3,9,3.4,13.8,3.4
		c8.3,0.1,14.2-1.5,17-3.3C362.9,490,363,490.6,362.9,491.3z"/>
	<path class="st0" d="M347.5,463.1c-2.4-0.2-4.7,0.3-6.8,1.4l0.3,2.5c2.4-0.7,4.8-1.1,7.3-1.1C348.3,464.9,348,464,347.5,463.1z"/>
	<path class="st0" d="M442.9,271.1c2.6,1.2,5.1,2.6,7.5,4.2c3.2,2.4,7.1,5.3,9.1,6.8c2.4,1.8-0.4,3.7-3.8,1.4s-4.2-2.8-4.2-2.8
		s10.6,12,12,16c1.3,3.7-4.9-2.6-10.3-7.5c0,0,8.2,13.3,7.1,15.7c-1.5,3.1-11.5-13-11.5-13s5.5,13,3.9,13.5
		c-1.8,0.5-9.1-12.1-9.1-12.1s3,9.3,1.8,9.2c-2.4-0.2-12.7-18.2-11.2-27.6C434.1,274.8,440.6,270.7,442.9,271.1z"/>
	<path class="st0" d="M452.6,285.9c0,0-5.5,5.1-12.4,4.8C440.2,290.6,446.3,294.1,452.6,285.9z"/>
	<path class="st0" d="M445.1,284.4c0,0-7.3-4.9-2.8-11.2C442.3,273.2,435,278.7,445.1,284.4z"/>
	<path class="st0" d="M396.7,170.1c0,0,5.6,30.4,12.7,48.1S434,278,434,278c2-3.5,5.7-6,11.7-5.6c0,0-11.7-39.5-16.7-56.5
		c-2.2-7.6-10-49.4-14.8-56.5C414.2,159.5,397.4,167.5,396.7,170.1z"/>
	<path class="st0" d="M364.7,148l-31.5,15.5l10.7,60.1l-6.5,70c0,0,52.9,11.3,79.1-0.7l-2.4-133.3L388,149.2L364.7,148z"/>
	<path class="st0" d="M324,279.4c1.9,2.2,3.5,4.7,4.8,7.3c1.5,3.7,2.9,7.7,3.8,10c1.1,2.8-1.8,2.7-3.5,0.6c-2.7-3.1-2.9-5.3-2.9-5.3
		s2.7,15.7,1.8,19.9c-0.9,3.8-2.8-4.8-4.8-11.8c0,0,0,15.7-2.3,17.1c-3,1.9-2.9-17.1-2.9-17.1s-2.1,14-3.8,13.5
		c-1.8-0.5-1.4-15.1-1.4-15.1s-2.3,9.5-3.3,8.8c-1.9-1.4-1.2-22.1,5-29.4C314.5,277.9,322.3,277.8,324,279.4z"/>
	<path class="st0" d="M333.3,163.5c0,0-15.5,29.2-19,48s-1.9,69.9-1.9,69.9c4.9,1.3,9,1.1,12.9-0.3c0,0,1.4-47.8,4.6-57.8
		s18.7-35.7,18.7-35.7S352,172.1,333.3,163.5z"/>
	<path class="st0" d="M385.1,135.2l-1,14.2l-0.5,6.5c-8.3,5.9-18.2-2.3-18.2-2.3l-4-22.7c3.8-2.5,13.3,1,19.1,2.8
		C383.3,134.5,385.1,135.2,385.1,135.2z"/>
	<path class="st0" d="M385.1,135.2l-1,14.2c-9.6-2.4-17.4-15.8-17.4-15.8l13.8,0.2C383.3,134.5,385.1,135.2,385.1,135.2z"/>
	<path class="st0" d="M415.9,97.3c0,0.5,0,1,0,1.5V99c0,1.7-0.1,3.5-0.2,5.3c0,0.2,0,0.3,0,0.5c-0.2,2.9-0.4,5.9-0.8,8.9
		c-0.1,0.7-0.1,1.3-0.2,1.9c-0.2,2.1-0.5,4.2-0.8,6.2c0,0.4-0.1,0.8-0.2,1.2c-0.1,0.8-0.2,1.6-0.4,2.4c-0.3,1.8-0.5,3.4-0.8,5.1
		c-1.6,10.1-11.2,17-21.3,15.4c-0.2,0-0.4-0.1-0.5-0.1c-10.1-1.9-20.5-4.6-28.4-8l-0.3-0.7c-2-4.6-3.6-9.3-4.7-14.2
		c-2.3-9.5-2.9-19.2-1.8-28.9c3.1-24,53.8-26.1,59.7-6.4c0,0.2,0.1,0.5,0.1,0.7C415.8,91.4,415.9,94.4,415.9,97.3z"/>
	<path class="st0" d="M381.5,119.1c0,3-3.3,5.4-7.5,5.4s-7.5-2.4-7.5-5.4s3.4-5.4,7.5-5.4S381.5,116.1,381.5,119.1z"/>
	<path class="st0" d="M414.9,113.7c-0.1,0.7-0.1,1.3-0.2,1.9c-0.2,2.1-0.5,4.2-0.8,6.2c0,0.4-0.1,0.8-0.2,1.2l-0.2,1.4
		c-4-0.1-7.1-2.5-7.1-5.4s3.4-5.4,7.5-5.4C414.2,113.6,414.5,113.7,414.9,113.7z"/>
	<path class="st0" d="M415.9,97.3c0,0.5,0,1,0,1.6c-3.2-3-2.4-10.4-2.4-10.4c0.6-0.1,1.3-0.1,1.9,0
		C415.7,91.4,415.9,94.4,415.9,97.3z"/>
	<path class="st0" d="M362,137.3c-2-4.6-3.6-9.3-4.7-14.2l5.1,1.9C362.4,125,363.9,132.8,362,137.3z"/>
	<path class="st0" d="M387.4,110.7c0,2.1-0.9,3.8-2,3.8s-2.1-1.7-2.1-3.7s0.9-3.8,2-3.8S387.4,108.6,387.4,110.7z"/>
	<path class="st0" d="M408.9,110.7c0,2.1-0.9,3.8-2,3.8s-2.1-1.7-2.1-3.7s0.9-3.8,2-3.8S408.9,108.6,408.9,110.7z"/>
	<path class="st0" d="M363.1,107.4c0,0-5.9-6.9-10.6-2.8c-5.3,4.5-1,19.7,9.8,19.2L363.1,107.4z"/>
	<path class="st0" d="M362.4,120.5c-0.5,0-0.8-0.4-0.9-0.8c-1-7.8-5.7-8.8-5.7-8.8c-0.5-0.3-0.7-0.9-0.4-1.4
		c0.2-0.3,0.5-0.5,0.8-0.5c0.2,0,6.1,1.4,7.2,10.4c0,0.5-0.3,1-0.8,1.1L362.4,120.5z"/>
	<path class="st0" d="M356.3,115.7c-0.2,0-0.4-0.1-0.6-0.2c-0.4-0.4-0.4-0.9-0.1-1.3c1.3-1.4,3.2-1.9,5.1-1.5
		c0.5,0.3,0.7,0.9,0.4,1.4c-0.2,0.3-0.5,0.5-0.8,0.5c-1.2-0.3-2.4,0.1-3.3,0.9C356.8,115.6,356.5,115.7,356.3,115.7z"/>
	<path class="st0" d="M398.7,132.5c-5.2-0.2-10-2.5-13.5-6.4c-0.4-0.5-0.4-1.1,0.1-1.5s1.1-0.4,1.5,0.1c7.3,8.2,18.5,5.1,18.6,5.1
		c0.6-0.2,1.2,0.1,1.4,0.7c0.2,0.6-0.1,1.2-0.7,1.4c-0.1,0-0.1,0-0.2,0C403.6,132.5,401.2,132.7,398.7,132.5z"/>
	<path class="st0" d="M395.5,137.4c-3.1-0.1-6-1.5-8.1-3.9c-0.4-0.5-0.2-1.2,0.3-1.6c0.5-0.3,1.2-0.3,1.6,0.2
		c0.1,0.2,3.1,3.9,9.3,2.8c0.6-0.1,1.2,0.4,1.3,1c0.1,0.6-0.3,1.1-0.9,1.3C397.9,137.4,396.7,137.5,395.5,137.4z"/>
	<path class="st0" d="M397.4,122.1c-0.3,0-0.6-0.2-0.8-0.4c-0.4-0.5-0.3-1.2,0.2-1.5l0,0l2.9-2.3l-2.5-0.6c-0.4-0.1-0.7-0.5-0.8-0.9
		l-1.2-7c-0.1-0.6,0.3-1.2,0.9-1.3c0.6-0.1,1.2,0.3,1.3,0.9l0,0l1.1,6.3l4,1c0.6,0.1,0.9,0.7,0.8,1.3c-0.1,0.2-0.2,0.4-0.4,0.6
		l-4.7,3.7C397.9,122,397.6,122.1,397.4,122.1z"/>
	<path class="st0" d="M354.9,103.4c0,0-7.8-13.9-6.2-19.8c1-3.4,4-5.9,7.5-6.2c0,0,12-12.3,30.1-11c15,1.1,29.5-2.2,31.7,2.2
		c2,4-6.9,6.9-6.9,6.9s7.4-0.5,9,1.4c1.6,1.9-0.1,6.4-7.8,6c0,0,6.4,0.3,8,3.6c1.6,3.3-5.8,4.5-12.3,3.2s-33-1.2-38.8,2.7
		c0,0,1.2,7.3-2.3,10.1c0,0,2.7,9.6,0.1,11.9S362.9,103.5,354.9,103.4z"/>
	<path class="st0" d="M389,99.9v3.6c0,0-6.5-1.2-11,1.6l-0.5-3C377.5,102,381.3,98.3,389,99.9z"/>
	<path class="st0" d="M401.9,99.9v3.6c0,0,6.5-1.2,11,1.6l0.5-3C413.4,102,409.6,98.3,401.9,99.9z"/>
	<path class="st1" d="M384.7,379.4c-5.7,22.3-1.5,60.7-2.1,90.6l14.3-4.5l8.3-86L384.7,379.4z"/>
	<path class="st2" d="M430.7,496.5h-45.5c-2.1,0-3.9-1.6-4.2-3.7c0-0.3,0-0.6,0-0.9l1.8-24c1.5-0.6,3-1.1,4.5-1.5
		c1.6-0.4,2.9-1.5,3.4-3.1l0.1-0.4c1-4.6,7.7-6.1,8.9-1.6c0.2,0.6,0.3,1.1,0.4,1.7c0,0.1,0.1,0.3,0.1,0.4c0.2,1,0.3,1.9,0.4,2.6l0,0
		c0.1,1.1,0.2,2.2,0.2,3.3c0.6,0.8,1.2,1.5,1.8,2.3c0.3,0.4,0.6,0.7,0.8,1.1l1.8,2.3l0.8,1c0.6,0.8,1.3,1.5,1.9,2.2
		c0.3,0.3,0.6,0.6,0.9,0.9c2.4,2.5,4.7,4.1,7.5,4.5c4.9,0.7,13,1.2,16.9,8.5c0.1,0.1,0.1,0.3,0.2,0.5c0.5,1.5-0.3,3.1-1.8,3.6
		C431.3,496.5,431,496.5,430.7,496.5z"/>
	<path class="st3" d="M430.7,496.5h-45.5c-2.1,0-3.9-1.6-4.2-3.7h52.4c0.5,1.5-0.4,3.1-1.9,3.5C431.2,496.5,431,496.5,430.7,496.5z"
		/>
	<path class="st4" d="M403.5,472.9c-1,1.2-2.3,2.1-3.8,2.6c-0.4,0.1-0.8,0.3-1.2,0.4l-0.4-1.2c0.4-0.1,0.8-0.3,1.2-0.4
		c2.5-1,3.2-2,3.4-2.5C402.9,472.2,403.2,472.6,403.5,472.9z"/>
	<path class="st4" d="M399.7,475.4c0,0.8-0.6,1.4-1.4,1.5c-0.8,0-1.4-0.6-1.5-1.4c0-0.8,0.6-1.4,1.4-1.5c0,0,0,0,0.1,0
		C399.1,474,399.7,474.6,399.7,475.4z"/>
	<path class="st4" d="M406,476.2c-0.9,0.9-1.9,1.6-3.1,2c-0.4,0.2-0.9,0.4-1.5,0.5l-0.4-1.2c0.5-0.2,0.9-0.3,1.3-0.5
		c1.1-0.4,2-1,2.8-1.8L406,476.2z"/>
	<path class="st4" d="M402.9,478.1c0,0.8-0.6,1.4-1.4,1.4s-1.4-0.6-1.4-1.4s0.6-1.4,1.4-1.4l0,0
		C402.3,476.7,402.9,477.3,402.9,478.1z"/>
	<path class="st4" d="M408.7,479.4c-0.9,0.8-1.9,1.5-3,1.9c-0.4,0.2-0.9,0.4-1.5,0.5l-0.4-1.2c0.5-0.2,0.9-0.3,1.3-0.5
		c1-0.4,1.9-0.9,2.7-1.7C408.2,478.8,408.5,479.1,408.7,479.4z"/>
	<path class="st4" d="M405.7,481.2c0,0.8-0.6,1.4-1.4,1.4s-1.4-0.6-1.4-1.4s0.6-1.4,1.4-1.4S405.7,480.4,405.7,481.2L405.7,481.2z"
		/>
	<path class="st4" d="M400.6,466.3c-1.4,0-2.7,0.1-4,0.2v-2.3c1.2-0.4,2.4-0.6,3.6-0.6C400.4,464.6,400.5,465.5,400.6,466.3z"/>
	<path class="st5" d="M380,295.3l-1.5,84.7c0,0,16,5.2,32.1,1.2l3.5-97.9L380,295.3z"/>
	<path class="st1" d="M338.1,363c0,5.8,0,11.1,0.1,15.3l0.5,88.2h12.5l8-82.4l3.2-21.1H338.1z"/>
	<path class="st6" d="M340.3,287c0,0-1.7,30.6,10.7,35s62,14.1,63-38.7L340.3,287z"/>
	<path class="st6" d="M340.3,294.4l-7.4,85.6c0,0,17.2,5.7,34.4-0.9l1.6-53.4L340.3,294.4z"/>
	<path class="st2" d="M362.9,491.3c-0.4,7.8-24.7,5.1-28.6,2.8c-1.5-0.9-2.1-2.6-2.2-4.7c-0.2-3.4,0.9-7.6,1.9-11
		c1.5-5.5,1.3-5.4,2.4-9.1c0,0-0.3-6.1,7.7-8.4s10.9,12.8,12.3,15.8c1.3,2.7,6.1,6.3,6.6,12.9C363,490,363,490.6,362.9,491.3z"/>
	<path class="st4" d="M339.8,474.1l-0.6-1c0.3-0.2,7.3-4.7,13.5-2l-0.5,1.1C346.5,469.7,339.8,474,339.8,474.1z"/>
	<path class="st4" d="M340.5,480.8l-0.6-1c0.3-0.2,7.3-4.7,13.5-2l-0.5,1.1C347.2,476.5,340.5,480.8,340.5,480.8z"/>
	<path class="st4" d="M340.1,477.5l-0.6-1c0.3-0.2,7.3-4.7,13.5-2l-0.5,1.1C346.9,473.1,340.2,477.4,340.1,477.5z"/>
	<path class="st4" d="M340.7,473.8c0,0.7-0.6,1.3-1.3,1.3c-0.7,0-1.3-0.6-1.3-1.3c0-0.7,0.6-1.3,1.3-1.3S340.7,473,340.7,473.8
		L340.7,473.8z"/>
	<path class="st4" d="M340.8,477c0,0.7-0.6,1.3-1.3,1.3c-0.7,0-1.3-0.6-1.3-1.3c0-0.7,0.6-1.3,1.3-1.3l0,0
		C340.2,475.7,340.7,476.3,340.8,477z"/>
	<path class="st4" d="M341.4,480.2c0,0.7-0.6,1.3-1.3,1.3s-1.3-0.6-1.3-1.3s0.6-1.3,1.3-1.3l0,0
		C340.9,478.9,341.4,479.4,341.4,480.2z"/>
	<circle class="st4" cx="353" cy="478.3" r="1.3"/>
	<path class="st4" d="M354,474.8c0,0.7-0.6,1.3-1.3,1.3c-0.7,0-1.3-0.6-1.3-1.3c0-0.7,0.6-1.3,1.3-1.3l0,0
		C353.4,473.5,354,474,354,474.8L354,474.8z"/>
	<path class="st4" d="M353.6,471.3c0,0.7-0.6,1.3-1.3,1.3c-0.7,0-1.3-0.6-1.3-1.3c0-0.7,0.6-1.3,1.3-1.3
		C353.1,470,353.6,470.5,353.6,471.3L353.6,471.3z"/>
	<path class="st3" d="M362.9,491.3c-0.4,7.8-24.7,5.1-28.6,2.8c-1.5-0.9-2.1-2.6-2.2-4.7c4.2,2.3,9,3.4,13.8,3.4
		c8.3,0.1,14.2-1.5,17-3.3C362.9,490,363,490.6,362.9,491.3z"/>
	<path class="st4" d="M347.5,463.1c-2.4-0.2-4.7,0.3-6.8,1.4l0.3,2.5c2.4-0.7,4.8-1.1,7.3-1.1C348.3,464.9,348,464,347.5,463.1z"/>
	<path class="st1" d="M442.9,271.1c2.6,1.2,5.1,2.6,7.5,4.2c3.2,2.4,7.1,5.3,9.1,6.8c2.4,1.8-0.4,3.7-3.8,1.4s-4.2-2.8-4.2-2.8
		s10.6,12,12,16c1.3,3.7-4.9-2.6-10.3-7.5c0,0,8.2,13.3,7.1,15.7c-1.5,3.1-11.5-13-11.5-13s5.5,13,3.9,13.5
		c-1.8,0.5-9.1-12.1-9.1-12.1s3,9.3,1.8,9.2c-2.4-0.2-12.7-18.2-11.2-27.6C434.1,274.8,440.6,270.7,442.9,271.1z"/>
	<path class="st7" d="M452.6,285.9c0,0-5.5,5.1-12.4,4.8C440.2,290.6,446.3,294.1,452.6,285.9z"/>
	<path class="st7" d="M445.1,284.4c0,0-7.3-4.9-2.8-11.2C442.3,273.2,435,278.7,445.1,284.4z"/>
	<path class="st8" d="M396.7,170.1c0,0,5.6,30.4,12.7,48.1S434,278,434,278c2-3.5,5.7-6,11.7-5.6c0,0-11.7-39.5-16.7-56.5
		c-2.2-7.6-10-49.4-14.8-56.5C414.2,159.5,397.4,167.5,396.7,170.1z"/>
	<path class="st9" d="M364.7,148l-31.5,15.5l10.7,60.1l-6.5,70c0,0,52.9,11.3,79.1-0.7l-2.4-133.3L388,149.2L364.7,148z"/>
	<path class="st1" d="M324,279.4c1.9,2.2,3.5,4.7,4.8,7.3c1.5,3.7,2.9,7.7,3.8,10c1.1,2.8-1.8,2.7-3.5,0.6c-2.7-3.1-2.9-5.3-2.9-5.3
		s2.7,15.7,1.8,19.9c-0.9,3.8-2.8-4.8-4.8-11.8c0,0,0,15.7-2.3,17.1c-3,1.9-2.9-17.1-2.9-17.1s-2.1,14-3.8,13.5
		c-1.8-0.5-1.4-15.1-1.4-15.1s-2.3,9.5-3.3,8.8c-1.9-1.4-1.2-22.1,5-29.4C314.5,277.9,322.3,277.8,324,279.4z"/>
	<path class="st8" d="M333.3,163.5c0,0-15.5,29.2-19,48s-1.9,69.9-1.9,69.9c4.9,1.3,9,1.1,12.9-0.3c0,0,1.4-47.8,4.6-57.8
		s18.7-35.7,18.7-35.7S352,172.1,333.3,163.5z"/>
	<path class="st1" d="M385.1,135.2l-1,14.2l-0.5,6.5c-8.3,5.9-18.2-2.3-18.2-2.3l-4-22.7c3.8-2.5,13.3,1,19.1,2.8
		C383.3,134.5,385.1,135.2,385.1,135.2z"/>
	<path class="st7" d="M385.1,135.2l-1,14.2c-9.6-2.4-17.4-15.8-17.4-15.8l13.8,0.2C383.3,134.5,385.1,135.2,385.1,135.2z"/>
	<path class="st1" d="M415.9,97.3c0,0.5,0,1,0,1.5V99c0,1.7-0.1,3.5-0.2,5.3c0,0.2,0,0.3,0,0.5c-0.2,2.9-0.4,5.9-0.8,8.9
		c-0.1,0.7-0.1,1.3-0.2,1.9c-0.2,2.1-0.5,4.2-0.8,6.2c0,0.4-0.1,0.8-0.2,1.2c-0.1,0.8-0.2,1.6-0.4,2.4c-0.3,1.8-0.5,3.4-0.8,5.1
		c-1.6,10.1-11.2,17-21.3,15.4c-0.2,0-0.4-0.1-0.5-0.1c-10.1-1.9-20.5-4.6-28.4-8l-0.3-0.7c-2-4.6-3.6-9.3-4.7-14.2
		c-2.3-9.5-2.9-19.2-1.8-28.9c3.1-24,53.8-26.1,59.7-6.4c0,0.2,0.1,0.5,0.1,0.7C415.8,91.4,415.9,94.4,415.9,97.3z"/>
	<path class="st10" d="M381.5,119.1c0,3-3.3,5.4-7.5,5.4s-7.5-2.4-7.5-5.4s3.4-5.4,7.5-5.4S381.5,116.1,381.5,119.1z"/>
	<path class="st10" d="M414.9,113.7c-0.1,0.7-0.1,1.3-0.2,1.9c-0.2,2.1-0.5,4.2-0.8,6.2c0,0.4-0.1,0.8-0.2,1.2l-0.2,1.4
		c-4-0.1-7.1-2.5-7.1-5.4s3.4-5.4,7.5-5.4C414.2,113.6,414.5,113.7,414.9,113.7z"/>
	<path class="st11" d="M415.9,97.3c0,0.5,0,1,0,1.6c-3.2-3-2.4-10.4-2.4-10.4c0.6-0.1,1.3-0.1,1.9,0
		C415.7,91.4,415.9,94.4,415.9,97.3z"/>
	<path class="st11" d="M362,137.3c-2-4.6-3.6-9.3-4.7-14.2l5.1,1.9C362.4,125,363.9,132.8,362,137.3z"/>
	<path class="st11" d="M387.4,110.7c0,2.1-0.9,3.8-2,3.8s-2.1-1.7-2.1-3.7s0.9-3.8,2-3.8S387.4,108.6,387.4,110.7z"/>
	<path class="st11" d="M408.9,110.7c0,2.1-0.9,3.8-2,3.8s-2.1-1.7-2.1-3.7s0.9-3.8,2-3.8S408.9,108.6,408.9,110.7z"/>
	<path class="st1" d="M363.1,107.4c0,0-5.9-6.9-10.6-2.8c-5.3,4.5-1,19.7,9.8,19.2L363.1,107.4z"/>
	<path class="st7" d="M362.4,120.5c-0.5,0-0.8-0.4-0.9-0.8c-1-7.8-5.7-8.8-5.7-8.8c-0.5-0.3-0.7-0.9-0.4-1.4
		c0.2-0.3,0.5-0.5,0.8-0.5c0.2,0,6.1,1.4,7.2,10.4c0,0.5-0.3,1-0.8,1.1L362.4,120.5z"/>
	<path class="st7" d="M356.3,115.7c-0.2,0-0.4-0.1-0.6-0.2c-0.4-0.4-0.4-0.9-0.1-1.3c1.3-1.4,3.2-1.9,5.1-1.5
		c0.5,0.3,0.7,0.9,0.4,1.4c-0.2,0.3-0.5,0.5-0.8,0.5c-1.2-0.3-2.4,0.1-3.3,0.9C356.8,115.6,356.5,115.7,356.3,115.7z"/>
	<path class="st7" d="M398.7,132.5c-5.2-0.2-10-2.5-13.5-6.4c-0.4-0.5-0.4-1.1,0.1-1.5s1.1-0.4,1.5,0.1c7.3,8.2,18.5,5.1,18.6,5.1
		c0.6-0.2,1.2,0.1,1.4,0.7c0.2,0.6-0.1,1.2-0.7,1.4c-0.1,0-0.1,0-0.2,0C403.6,132.5,401.2,132.7,398.7,132.5z"/>
	<path class="st7" d="M395.5,137.4c-3.1-0.1-6-1.5-8.1-3.9c-0.4-0.5-0.2-1.2,0.3-1.6c0.5-0.3,1.2-0.3,1.6,0.2
		c0.1,0.2,3.1,3.9,9.3,2.8c0.6-0.1,1.2,0.4,1.3,1c0.1,0.6-0.3,1.1-0.9,1.3C397.9,137.4,396.7,137.5,395.5,137.4z"/>
	<path class="st7" d="M397.4,122.1c-0.3,0-0.6-0.2-0.8-0.4c-0.4-0.5-0.3-1.2,0.2-1.5l0,0l2.9-2.3l-2.5-0.6c-0.4-0.1-0.7-0.5-0.8-0.9
		l-1.2-7c-0.1-0.6,0.3-1.2,0.9-1.3c0.6-0.1,1.2,0.3,1.3,0.9l0,0l1.1,6.3l4,1c0.6,0.1,0.9,0.7,0.8,1.3c-0.1,0.2-0.2,0.4-0.4,0.6
		l-4.7,3.7C397.9,122,397.6,122.1,397.4,122.1z"/>
	<path class="st11" d="M354.9,103.4c0,0-7.8-13.9-6.2-19.8c1-3.4,4-5.9,7.5-6.2c0,0,12-12.3,30.1-11c15,1.1,29.5-2.2,31.7,2.2
		c2,4-6.9,6.9-6.9,6.9s7.4-0.5,9,1.4c1.6,1.9-0.1,6.4-7.8,6c0,0,6.4,0.3,8,3.6c1.6,3.3-5.8,4.5-12.3,3.2s-33-1.2-38.8,2.7
		c0,0,1.2,7.3-2.3,10.1c0,0,2.7,9.6,0.1,11.9S362.9,103.5,354.9,103.4z"/>
	<path class="st11" d="M389,99.9v3.6c0,0-6.5-1.2-11,1.6l-0.5-3C377.5,102,381.3,98.3,389,99.9z"/>
	<path class="st11" d="M401.9,99.9v3.6c0,0,6.5-1.2,11,1.6l0.5-3C413.4,102,409.6,98.3,401.9,99.9z"/>
</g>
</svg>
