<svg xmlns="http://www.w3.org/2000/svg" viewBox="0 0 345 386"><defs><style>.cls-1{fill:#595052;}.cls-2{fill:#beaf45;}.cls-3{fill:#735c17;}.cls-4{fill:#a49022;}.cls-5{fill:#c3af4c;}.cls-6{fill:#7e6a12;}.cls-7{fill:#28211d;}.cls-8{fill:#c0a04e;}.cls-9{fill:#f2e71e;}.cls-10{fill:#f2dfed;}.cls-11{fill:#3d312b;}.cls-12{fill:#dbc040;}.cls-13{fill:#dbbc26;}.cls-14{fill:#dec52f;}.cls-15{fill:#ccb22e;}.cls-16{fill:#eee65f;}.cls-17{fill:#d6b512;}.cls-18{fill:#211b0c;}.cls-19{fill:#ad812c;}.cls-20{fill:#e4db30;}.cls-21{fill:#aa9321;}.cls-22{fill:#61627f;}.cls-23{fill:#dfc22b;}.cls-24{fill:#b48228;}.cls-25{fill:#4d351b;}.cls-26{fill:#281c1a;}.cls-27{fill:#d7ae2b;}.cls-28{fill:#f7e72b;}.cls-29{fill:#110f1c;}.cls-30{fill:#283437;}</style></defs><title>leo</title><g id="Layer_4" data-name="Layer 4"><g id="Layer_3" data-name="Layer 3"><polygon points="269 113 343 160 343 372 345 370 345 159 271 112 269 113"/></g><g id="Layer_2" data-name="Layer 2"><polygon class="cls-1" points="269 113 269 327 343 372 343 160 269 113"/></g><polygon points="185 59 259 106 259 318 261 316 261 105 187 58 185 59"/><polygon class="cls-1" points="185 59 185 273 259 318 259 106 185 59"/><polygon points="94 1 168 48 168 260 170 258 170 47 96 0 94 1"/><polygon class="cls-1" points="94 1 94 215 168 260 168 48 94 1"/></g><g id="Layer_26" data-name="Layer 26"><polyline class="cls-2" points="55 357 55 368 67 373 67 363 55 357"/></g><g id="Layer_27" data-name="Layer 27"><polygon class="cls-3" points="26 383 26 386 63 367 63 364 26 383"/></g><g id="Layer_28" data-name="Layer 28"><polygon class="cls-4" points="63 364 61 363 24 382 26 383 63 364"/></g><g id="Layer_29" data-name="Layer 29"><polyline class="cls-5" points="24 382 24 385 26 386 26 383 24 382"/></g><g id="Layer_25" data-name="Layer 25"><path class="cls-6" d="M639,472l-14,7V469l-12-6,6-3Z" transform="translate(-558 -106)"/></g><g id="Layer_21" data-name="Layer 21"><polygon class="cls-7" points="210 246 249 189 249 298 212 357 210 246"/></g><g id="Layer_23" data-name="Layer 23"><polygon class="cls-8" points="98 259 208 252 208 360 98 368 98 259"/></g><g id="Layer_22" data-name="Layer 22"><polygon class="cls-9" points="15 223 92 258 92 367 12 318 15 223"/></g><g id="Layer_24" data-name="Layer 24"><polygon class="cls-10" points="16 269 40 288 40 241 15 226 16 269"/><ellipse class="cls-11" cx="624.81" cy="424.57" rx="19.44" ry="23.73" transform="translate(-583.34 703.21) rotate(-64.81)"/></g><g id="Layer_7" data-name="Layer 7"><path class="cls-12" d="M646,363l6,3V483l-7-4Z" transform="translate(-558 -106)"/><path class="cls-13" d="M658,363l-6,3V483l7-4Z" transform="translate(-558 -106)"/><path class="cls-14" d="M762,350l6,3V470l-7-4Z" transform="translate(-558 -106)"/><path class="cls-15" d="M768,344l6,3V464l-7-4Z" transform="translate(-558 -106)"/><path class="cls-15" d="M806,285l6,3V405l-7-1Z" transform="translate(-558 -106)"/><path class="cls-16" d="M569,326l6,2.6V430l-7-3.47Z" transform="translate(-558 -106)"/><path class="cls-17" d="M611,360.72,694,374l61-6.13,33-34.73L812,289V278L660,231,558,272v10l6,47.06Z" transform="translate(-558 -106)"/><path class="cls-14" d="M610,349l83,13,61-6,33-34,25-44-34-29L659,222l-57,1-44,49,6,48Z" transform="translate(-558 -106)"/></g><g id="Layer_20" data-name="Layer 20"><path class="cls-18" d="M761,161v89l-12,20V177Z" transform="translate(-558 -106)"/></g><g id="Layer_19" data-name="Layer 19"><polygon class="cls-19" points="89 53 99 36 121 24 197 39 203 55 191 73 89 53"/></g><g id="Layer_18" data-name="Layer 18"><polygon class="cls-20" points="89 53 191 72 191 127 90 101 89 53"/></g><g id="Layer_9" data-name="Layer 9"><path class="cls-21" d="M566,418l85,53,120-11,41-69v14l-41,66L650,481.67,566,426Z" transform="translate(-558 -106)"/></g><g id="Layer_6" data-name="Layer 6"><path class="cls-22" d="M670,380v79l86-9V372Z" transform="translate(-558 -106)"/></g><g id="Layer_15" data-name="Layer 15"><polygon class="cls-23" points="48 154 89 79 119 60 77 133 48 154"/></g><g id="Layer_14" data-name="Layer 14"><polygon class="cls-24" points="120 142 163 67 119 60 74 138 96 145 120 142"/></g><g id="Layer_13" data-name="Layer 13"><polygon class="cls-25" points="150 173 195 97 163 67 120 142 150 173"/></g><g id="Layer_12" data-name="Layer 12"><polygon class="cls-26" points="149 251 195 163 195 97 150 173 149 251"/></g><g id="Layer_11" data-name="Layer 11"><path class="cls-27" d="M699,360l8-3,1-78-30-31-10,1-26-3-7-7-29,21-3,76,6,6Z" transform="translate(-558 -106)"/></g><g id="Layer_10" data-name="Layer 10"><polygon class="cls-28" points="51 236 141 254 142 177 111 143 84 140 51 160 51 236"/></g><g id="Layer_16" data-name="Layer 16"><ellipse class="cls-29" cx="654.58" cy="290.61" rx="36.66" ry="43" transform="translate(-348.86 745.42) rotate(-75.48)"/></g><g id="Layer_17" data-name="Layer 17"><path class="cls-30" d="M696,295c-4.52,17.13-31.75,25.9-51.19,17.75C628.56,305.94,614.5,285.95,621,270c6.58-16.13,30.75-19.67,47-14C684.52,261.76,700.07,279.56,696,295Z" transform="translate(-558 -106)"/></g></svg>