<svg xmlns="http://www.w3.org/2000/svg" viewBox="0 0 318.13 442.58"><defs><style>.cls-1{fill:#7c86d2;}.cls-2{fill:#bfe1e7;}.cls-3{fill:#4073c7;}.cls-4{fill:#223276;}.cls-5{fill:#eefcff;}.cls-6{fill:#e29f64;}.cls-7{fill:#db7937;}.cls-8{fill:#081516;}.cls-9{fill:#faf4fb;}.cls-10{fill:#97979c;}.cls-11{fill:#585c5f;}.cls-12{fill:#dd8643;}.cls-13{fill:#14363a;}.cls-14{fill:#ae772e;}.cls-15{fill:#501801;}.cls-16{fill:#ebd4d6;}.cls-17{fill:#0e1015;}.cls-18{fill:none;stroke:#fff;stroke-miterlimit:10;stroke-width:4px;}</style></defs><title>meo</title><g id="Layer_4" data-name="Layer 4"><ellipse class="cls-1" cx="700.12" cy="506.82" rx="137.61" ry="57.69" transform="translate(-625.94 75.89) rotate(-15.6)"/><polygon class="cls-1" points="6.54 277 52.54 414.67 317.54 339 271.54 201 6.54 277"/></g><g id="Layer_2" data-name="Layer 2"><ellipse class="cls-2" cx="655.12" cy="371.82" rx="137.61" ry="57.69" transform="translate(-591.3 58.82) rotate(-15.6)"/></g><g id="Layer_3" data-name="Layer 3"><path class="cls-3" d="M742,307l-56,63-57,66-29,3-31-2,80-74,14-29,46-29h14Z" transform="translate(-515.46 -131)"/><polygon class="cls-4" points="270.54 223 315.54 358 310.54 367 302.54 377 291.54 387 279.54 396 266.54 404 253.54 411 243.54 416 236.54 419 220.54 425 166.54 293 175.54 290 183.54 287 188.54 285 195.54 282 202.54 279 212.54 274 216.54 272 223.54 268 231.54 263 241.54 256 252.54 247 257.54 242 263.54 235 267.54 229 270.54 223"/><polygon class="cls-5" points="113.54 442 100.54 441 84.54 438 71.54 433 31.54 300 43.54 304 58.96 306.5 75.88 307.58 113.54 442"/></g><g id="Layer_19" data-name="Layer 19"><path class="cls-6" d="M575,234c1,1,22,0,22,0l3,22-17,3-9-4-4-9v-7Z" transform="translate(-515.46 -131)"/><path class="cls-6" d="M648,265a111.16,111.16,0,0,0-40.43-7.71L606.65,225l25-1.69L636,234l7,1,9,15Z" transform="translate(-515.46 -131)"/></g><g id="Layer_8" data-name="Layer 8"><polygon class="cls-7" points="146.54 165 174.54 232 171.54 243 159.54 252 143.54 256 126.54 257 108.54 252 78.54 188 146.54 165"/></g><g id="Layer_9" data-name="Layer 9"><path class="cls-8" d="M690,363l-3,11-11,9-31-69-20,11-27,1-1-1-2-4,67-25Z" transform="translate(-515.46 -131)"/></g><g id="Layer_15" data-name="Layer 15"><polygon class="cls-9" points="81.54 91 48.54 3 43.54 5 77.54 92 81.54 91"/></g><g id="Layer_16" data-name="Layer 16"><polygon class="cls-10" points="81.54 91 83.54 88 50.54 0 48.54 3 81.54 91"/></g><g id="Layer_17" data-name="Layer 17"><polygon class="cls-11" points="50.54 0 45.54 2 43.54 5 48.54 3 50.54 0"/></g><g id="Layer_6" data-name="Layer 6"><path class="cls-12" d="M592,238c0,1-10,79-10,79l16,7,26-1,24-12,14-11,10-14-59-56-15-12-4,1Z" transform="translate(-515.46 -131)"/></g><g id="Layer_7" data-name="Layer 7"><path class="cls-13" d="M598,218l50,93,14-11,10-14-59-56Z" transform="translate(-515.46 -131)"/></g><g id="Layer_11" data-name="Layer 11"><rect class="cls-14" x="606.79" y="321.04" width="48.16" height="79.98" rx="21.96" ry="21.96" transform="translate(-481.94 -184.1) rotate(4.95)"/></g><g id="Layer_14" data-name="Layer 14"><polygon class="cls-14" points="123.54 194 134.54 223 72.54 260 65.54 218 123.54 194"/></g><g id="Layer_13" data-name="Layer 13"><polygon class="cls-15" points="128.54 266 63.54 307 78.54 251 140.54 219 138.54 243 137.54 252 136.54 256 134.54 260 128.54 266"/></g><g id="Layer_12" data-name="Layer 12"><polygon class="cls-16" points="105.54 192 35.54 218 65.54 218 129.54 193 124.54 191 117.54 190 112.54 190 105.54 192"/></g><g id="Layer_10" data-name="Layer 10"><rect class="cls-17" x="537" y="347" width="56" height="93" rx="21.96" ry="21.96" transform="translate(-479.39 -178.3) rotate(4.95)"/></g><g id="Layer_18" data-name="Layer 18"><ellipse class="cls-18" cx="547.45" cy="266.57" rx="25.89" ry="41.01" transform="translate(-576.34 161.73) rotate(-28.43)"/><polyline class="cls-18" points="1.54 116 17.31 109 30.97 108 43.58 108 55.14 108 63.54 109.75"/><polyline class="cls-18" points="65.54 115 49.54 115.5 40.54 117 28.54 122 14.54 128 2.54 134"/><polyline class="cls-18" points="10.54 152 23.54 143 33.54 135 44.54 127 53.79 122.75 66.54 117"/><polyline class="cls-18" points="69.54 129 61.54 128 56.54 122 54.54 117 52.54 110 54.54 106"/><polyline class="cls-18" points="24.54 165 33.54 154 40.54 144 48.54 131"/><polyline class="cls-18" points="36.79 173 45.54 162 49.54 146 51.54 131"/><polyline class="cls-18" points="57.54 132 50.54 132 45.54 130 42.54 125 39.79 118 41.54 113 44.54 108"/><path class="cls-18" d="M574,293s-12-1-13-1-11-7-11-7l-13-13s-8-11-7-13-2-17-2-17V230l16-4,16,3,12,5,9,8,5,16s2,10,2,11-4,16-4,16l-6,11-13,8" transform="translate(-515.46 -131)"/><ellipse class="cls-18" cx="657.84" cy="231.78" rx="23.73" ry="34.65" transform="translate(-551.61 170.4) rotate(-25.14)"/><path class="cls-18" d="M676,262l22-23s3-13-8-31-27-16-27-16l-19,7" transform="translate(-515.46 -131)"/><line class="cls-18" x1="160.54" y1="64" x2="144.54" y2="71"/><line class="cls-18" x1="169.54" y1="70.5" x2="155.54" y2="78.5"/><line class="cls-18" x1="175.54" y1="80" x2="163.54" y2="88"/><line class="cls-18" x1="180.54" y1="93" x2="168.54" y2="100"/><path class="cls-18" d="M666,222l-10-3-12,2-4,8,5,10s6,10,7,10,11,2,11,2l6-2V238l-2-7-7-2-11-1-11,1-2,4v9l6,8,11,5,6-1,3-6-1-9-4-5-10-1h-9l-4.25,2-.75,8,4,7" transform="translate(-515.46 -131)"/><line class="cls-18" x1="129.54" y1="69" x2="135.54" y2="88"/><line class="cls-18" x1="168.29" y1="107" x2="153.54" y2="107"/><line class="cls-18" x1="161.54" y1="90" x2="146.54" y2="98"/><line class="cls-18" x1="146.54" y1="72" x2="141.54" y2="89"/><line class="cls-18" x1="117.54" y1="85" x2="126.54" y2="91"/><line class="cls-18" x1="164.54" y1="121" x2="153.79" y2="112.75"/><line class="cls-18" x1="152.54" y1="132" x2="147.54" y2="120"/></g></svg>