<?xml version="1.0" encoding="utf-8"?>
<!-- Generator: Adobe Illustrator 21.1.0, SVG Export Plug-In . SVG Version: 6.00 Build 0)  -->
<svg version="1.1" id="Layer_1" xmlns="http://www.w3.org/2000/svg" xmlns:xlink="http://www.w3.org/1999/xlink" x="0px" y="0px"
	 viewBox="0 0 1232.2 616" style="enable-background:new 0 0 1232.2 616;" xml:space="preserve">
<style type="text/css">
	.st0{fill:#F8C57B;}
	.st1{fill:#D5902D;}
</style>
<title>pyramidKhufu</title>
<g id="Layer_2">
	<polygon class="st0" points="616.2,0 1232.2,616 0.2,616 	"/>
</g>
<g id="Layer_3">
	<polygon class="st1" points="0,616 616,0 421,616 	"/>
</g>
<g id="Layer_2_1_">
	<rect x="471" y="565" class="st1" width="374" height="17"/>
	<rect x="749" y="514" class="st1" width="374" height="17"/>
	<rect x="486" y="458" class="st1" width="293" height="18"/>
	<rect x="927" y="565" class="st1" width="234" height="17"/>
	<rect x="533" y="513" class="st1" width="100" height="17"/>
	<rect x="580" y="411" class="st1" width="374" height="17"/>
	<rect x="497" y="358" class="st1" width="142" height="17"/>
	<rect x="780" y="356" class="st1" width="190" height="18"/>
	<rect x="539" y="303" class="st1" width="374" height="17"/>
	<rect x="838" y="456" class="st1" width="209" height="20"/>
	<rect x="589" y="263" class="st1" width="120" height="18"/>
	<rect x="706" y="214" class="st1" width="120" height="18"/>
	<rect x="569" y="167" class="st1" width="120" height="18"/>
	<rect x="647" y="114" class="st1" width="82" height="17"/>
	<rect x="597" y="74" class="st1" width="67" height="18"/>
</g>
</svg>
