<svg id="Layer_1" data-name="Layer 1" xmlns="http://www.w3.org/2000/svg" viewBox="0 0 1224.07 616.94"><defs><style>.cls-1{fill:none;stroke:#b76a25;stroke-linejoin:round;stroke-width:10px;}.cls-2{fill:#f8c57b;}.cls-3{fill:#d5902d;}</style></defs><g id="Layer_2" data-name="Layer 2"><polygon class="cls-1" points="612.13 5 1219.07 611.94 5.2 611.94 612.13 5"/></g><g id="Layer_3" data-name="Layer 3"><polygon class="cls-1" points="5 611.94 611.94 5 419.81 611.94 5 611.94"/></g><g id="Layer_2-2" data-name="Layer 2"><rect class="cls-1" x="469.07" y="561.69" width="368.5" height="16.75"/><rect class="cls-1" x="742.98" y="511.44" width="368.5" height="16.75"/><rect class="cls-1" x="483.85" y="456.26" width="288.69" height="17.74"/><rect class="cls-1" x="918.36" y="561.69" width="230.56" height="16.75"/><rect class="cls-1" x="530.16" y="510.45" width="98.53" height="16.75"/><rect class="cls-1" x="576.47" y="409.95" width="368.5" height="16.75"/><rect class="cls-1" x="494.69" y="357.73" width="139.91" height="16.75"/><rect class="cls-1" x="773.52" y="355.76" width="187.2" height="17.74"/><rect class="cls-1" x="536.07" y="303.54" width="368.5" height="16.75"/><rect class="cls-1" x="830.67" y="454.29" width="205.92" height="19.71"/><rect class="cls-1" x="585.33" y="264.13" width="118.23" height="17.74"/><rect class="cls-1" x="700.61" y="215.85" width="118.23" height="17.74"/><rect class="cls-1" x="565.63" y="169.54" width="118.23" height="17.74"/><rect class="cls-1" x="642.48" y="117.32" width="80.79" height="16.75"/><rect class="cls-1" x="593.22" y="77.91" width="66.01" height="17.74"/></g><g id="Layer_2-3" data-name="Layer 2"><polygon class="cls-2" points="612.13 5 1219.07 611.94 5.2 611.94 612.13 5"/></g><g id="Layer_3-2" data-name="Layer 3"><polygon class="cls-3" points="5 611.94 611.94 5 419.81 611.94 5 611.94"/></g><g id="Layer_2-4" data-name="Layer 2"><rect class="cls-3" x="469.07" y="561.69" width="368.5" height="16.75"/><rect class="cls-3" x="742.98" y="511.44" width="368.5" height="16.75"/><rect class="cls-3" x="483.85" y="456.26" width="288.69" height="17.74"/><rect class="cls-3" x="918.36" y="561.69" width="230.56" height="16.75"/><rect class="cls-3" x="530.16" y="510.45" width="98.53" height="16.75"/><rect class="cls-3" x="576.47" y="409.95" width="368.5" height="16.75"/><rect class="cls-3" x="494.69" y="357.73" width="139.91" height="16.75"/><rect class="cls-3" x="773.52" y="355.76" width="187.2" height="17.74"/><rect class="cls-3" x="536.07" y="303.54" width="368.5" height="16.75"/><rect class="cls-3" x="830.67" y="454.29" width="205.92" height="19.71"/><rect class="cls-3" x="585.33" y="264.13" width="118.23" height="17.74"/><rect class="cls-3" x="700.61" y="215.85" width="118.23" height="17.74"/><rect class="cls-3" x="565.63" y="169.54" width="118.23" height="17.74"/><rect class="cls-3" x="642.48" y="117.32" width="80.79" height="16.75"/><rect class="cls-3" x="593.22" y="77.91" width="66.01" height="17.74"/></g></svg>