<svg xmlns="http://www.w3.org/2000/svg" viewBox="0 0 1232.16 616"><defs><style>.cls-1{fill:#f8c57b;}.cls-2{fill:#d5902d;}.cls-3{fill:none;stroke:#d5902d;stroke-miterlimit:10;stroke-width:8px;}</style></defs><title>pyramidKhufu</title><g id="Layer_2" data-name="Layer 2"><polygon class="cls-1" points="616.19 0.03 1232.16 616 0.22 616 616.19 0.03"/></g><g id="Layer_3" data-name="Layer 3"><polygon class="cls-2" points="0 616 616 0 421 616 0 616"/></g><g id="Layer_4" data-name="Layer 4"><line class="cls-3" x1="464" y1="596" x2="901" y2="596"/><line class="cls-3" x1="527" y1="571" x2="710" y2="571"/><line class="cls-3" x1="596" y1="540" x2="790" y2="540"/><line class="cls-3" x1="505" y1="508" x2="784" y2="508"/><line class="cls-3" x1="737" y1="473" x2="1060" y2="473"/><line class="cls-3" x1="516" y1="440" x2="762" y2="440"/><line class="cls-3" x1="566" y1="403" x2="694" y2="403"/><line class="cls-3" x1="957" y1="596" x2="1179" y2="596"/><line class="cls-3" x1="795" y1="570" x2="1032" y2="570"/><line class="cls-3" x1="515" y1="369" x2="698" y2="369"/><line class="cls-3" x1="752" y1="336" x2="941" y2="336"/><line class="cls-3" x1="559" y1="300" x2="713" y2="300"/><line class="cls-3" x1="600" y1="265" x2="798" y2="265"/><line class="cls-3" x1="575" y1="231" x2="704" y2="231"/><line class="cls-3" x1="639" y1="201" x2="804" y2="201"/><line class="cls-3" x1="587" y1="166" x2="662" y2="166"/><line class="cls-3" x1="662" y1="133" x2="733" y2="133"/><line class="cls-3" x1="622" y1="98" x2="687" y2="98"/><line class="cls-3" x1="650" y1="63" x2="673" y2="63"/><line class="cls-3" x1="604" y1="34" x2="626" y2="34"/><line class="cls-3" x1="989" y1="539" x2="1074" y2="539"/><line class="cls-3" x1="777" y1="403" x2="1006" y2="403"/><line class="cls-3" x1="799" y1="298" x2="890" y2="298"/><line class="cls-3" x1="855" y1="506" x2="991" y2="506"/><line class="cls-3" x1="825" y1="439" x2="1035" y2="439"/><line class="cls-3" x1="672" y1="336" x2="607" y2="336"/><line class="cls-3" x1="759" y1="367" x2="827" y2="367"/><line class="cls-3" x1="913" y1="368" x2="978" y2="368"/><line class="cls-3" x1="628" y1="474" x2="515" y2="474"/><line class="cls-3" x1="753" y1="230" x2="822" y2="230"/><line class="cls-3" x1="626" y1="132" x2="604" y2="132"/><line class="cls-3" x1="734" y1="165" x2="772" y2="165"/></g></svg>