<svg id="Objects" xmlns="http://www.w3.org/2000/svg" viewBox="0 0 190.45 457.91"><defs><style>.cls-1{fill:#669587;}.cls-2{fill:#88b999;}.cls-3{fill:#6fa4a8;}.cls-4{fill:#526084;}.cls-5{fill:#465577;}</style></defs><polygon class="cls-1" points="98.84 101.4 95.32 101.4 97.25 84.13 98.84 101.4"/><polygon class="cls-1" points="110.03 106.58 107.32 104.33 119.84 92.27 110.03 106.58"/><polygon class="cls-1" points="113.72 114.09 112.5 110.8 129.36 106.58 113.72 114.09"/><polygon class="cls-1" points="114.96 122.16 114.81 118.65 132.15 119.85 114.96 122.16"/><polygon class="cls-1" points="85.3 106.3 88 104.05 75.48 92 85.3 106.3"/><polygon class="cls-1" points="81.68 114.09 82.91 110.8 66.05 106.58 81.68 114.09"/><polygon class="cls-1" points="81.85 122.16 82 118.65 64.66 119.85 81.85 122.16"/><path class="cls-2" d="M99.83,145.1l-5.65-12.62L69.6,161.05l3.32,12.29,5.65-7.42,4.15,19.21,2,22.76,5.65,9.3L75.25,232.54l9.46,27.16-7.47,11,10.3,28.9V413.5h80.27V345.74h5.76V282.41l13.51-14.85,3.1-21.92,13.07-16.83L199,221.5l5.76-9.08-17.94-10.85-7.53,11.74s-5.43.89-12.07-10.74S160.62,184,156.63,180s-10-8.63-12.29-14.28-2.44-19.93-2.44-19.93,2.44-19.93-7.08-25.91-18.16-4.21-24.14,3.54-.44,23-.44,26.35a20.92,20.92,0,0,1-.89,6l-7.75-1.55Z" transform="translate(-26.75 -15.39)"/><path class="cls-3" d="M108.74,127.48s15.14-15.65,31.59,0c-1.11-3.16-2.82-6-5.51-7.66-9.53-6-18.16-4.21-24.14,3.54a12.3,12.3,0,0,0-1.94,4.08Z" transform="translate(-26.75 -15.39)"/><rect class="cls-3" x="28.57" y="35.04" width="32.22" height="3.99"/><rect class="cls-1" x="44.68" y="35.04" width="16.11" height="3.99"/><rect class="cls-2" x="30.89" y="25.74" width="27.68" height="9.3"/><rect class="cls-3" x="44.74" y="25.74" width="13.84" height="9.3"/><polygon class="cls-3" points="34.22 39.03 44.68 49.16 55.47 39.03 34.22 39.03"/><polygon class="cls-2" points="38.04 42.73 40.53 74.13 44.84 80.33 49.38 74.13 51.53 42.73 38.04 42.73"/><path class="cls-2" d="M77.89,63.88a49.67,49.67,0,0,1,5.5,21.43c.33,12.46,9.4,48.78,9.4,48.78L77.37,152l-5.3-57Z" transform="translate(-26.75 -15.39)"/><path class="cls-1" d="M65.35,41.13s-4.67-2.49-3.74-10.63S68.38,20,68.38,20s-1,7.64,3.81,8.3,4.67-10,0-12.95c0,0,6.38.66,9.29,9.8A18.18,18.18,0,0,1,79,41.13Z" transform="translate(-26.75 -15.39)"/><polygon class="cls-1" points="57.96 244.32 114.94 166.48 60.79 284.18 50.49 255.28 57.96 244.32"/><polygon class="cls-3" points="51.82 150.53 72.28 127.93 73.08 129.72 74.7 138.03 82.6 140.34 90.69 150.53 81.88 160.77 82.71 149.15 67.77 149.65 55.47 167.42 51.82 150.53"/><polygon class="cls-1" points="57.96 192.5 69.76 164.48 63.86 202.57 57.96 192.5"/><path class="cls-1" d="M191,244.65h0L171.8,264.89V209a35.58,35.58,0,0,1-4.54-6.4c-6.64-11.63-6.64-18.6-10.63-22.59s-10-8.63-12.29-14.28c-2-4.92-2.37-16.39-2.43-19.26h0L135,136.91l-1.11,18.16-4.65,6.42,2.88,12,12,1.77,4.43,6.65V330.13L124.74,346.4l12.46,9.08-34,17.72,6.31,12.4L87.54,401.55V413.5h80.27V345.74l5.76-1.77V282.41l13.51-14.85,3.1-21.92Z" transform="translate(-26.75 -15.39)"/><polygon class="cls-3" points="76.4 357.81 76.4 291.49 60.79 386.16 82.71 370.21 76.4 357.81"/><polygon class="cls-3" points="97.99 331.01 93.68 251.96 89.93 350.77 110.45 340.1 97.99 331.01"/><polygon class="cls-3" points="76.07 398.12 114.94 362.91 114.94 386.16 126.23 398.12 76.07 398.12"/><path class="cls-1" d="M92.79,134.09s-9.07-36.32-9.4-48.78a49.67,49.67,0,0,0-5.5-21.43L74.55,81.76l13,50.5L77.37,152Z" transform="translate(-26.75 -15.39)"/><polygon class="cls-3" points="105.41 158.06 72.58 195.15 117.37 159.84 105.41 158.06"/><polygon class="cls-1" points="44.74 49.11 55.47 39.03 44.74 39.03 44.74 49.11"/><polygon class="cls-3" points="44.84 80.33 49.38 74.13 51.53 42.73 44.84 42.73 44.84 80.33"/><path class="cls-1" d="M142,135.78a34.31,34.31,0,0,0-1.66-8.26c-3.34-3.09-9.34-7.43-16.5-7-6.44.39-11.75,4-15.09,7a24.33,24.33,0,0,0-.72,8.27C125.42,115.77,141.91,135.69,142,135.78Z" transform="translate(-26.75 -15.39)"/><rect class="cls-2" x="30.34" y="398.12" width="129.77" height="10.63"/><rect class="cls-4" x="13.73" y="408.75" width="162.99" height="29.45"/><rect class="cls-5" y="438.2" width="190.45" height="19.71"/><path class="cls-3" d="M117.43,165.92l11.06,11.67,3.67-4.14-2.88-12-7.56-.77-7-5.32V138.68L109,143a63.5,63.5,0,0,1,1.25,6.8,20.92,20.92,0,0,1-.89,6Z" transform="translate(-26.75 -15.39)"/><polygon class="cls-3" points="172.29 206.12 168.53 202.57 158.56 216.08 162.77 219.41 163.43 230.25 176.5 213.43 172.29 206.12"/><path class="cls-1" d="M116.59,137.55s7.09-8.24,17.27-1.15C133.86,136.4,124.37,133.05,116.59,137.55Z" transform="translate(-26.75 -15.39)"/><rect class="cls-1" x="37.21" y="49.16" width="11.13" height="10.3"/></svg>