<svg id="Objects" xmlns="http://www.w3.org/2000/svg" viewBox="0 0 198.45 465.91"><defs><style>.cls-1{fill:none;stroke:#184656;stroke-linejoin:round;stroke-width:8px;}.cls-2{fill:#669587;}.cls-3{fill:#88b999;}.cls-4{fill:#6fa4a8;}.cls-5{fill:#526084;}.cls-6{fill:#465577;}</style></defs><polygon class="cls-1" points="102.84 105.4 99.32 105.4 101.25 88.13 102.84 105.4"/><polygon class="cls-1" points="114.03 110.58 111.32 108.33 123.84 96.27 114.03 110.58"/><polygon class="cls-1" points="117.72 118.09 116.5 114.8 133.36 110.58 117.72 118.09"/><polygon class="cls-1" points="118.96 126.16 118.81 122.65 136.15 123.85 118.96 126.16"/><polygon class="cls-1" points="89.3 110.3 92 108.05 79.48 96 89.3 110.3"/><polygon class="cls-1" points="85.68 118.09 86.91 114.8 70.05 110.58 85.68 118.09"/><polygon class="cls-1" points="85.85 126.16 86 122.65 68.66 123.85 85.85 126.16"/><path class="cls-1" d="M99.83,145.1l-5.65-12.62L69.6,161.05l3.32,12.29,5.65-7.42,4.15,19.21,2,22.76,5.65,9.3L75.25,232.54l9.46,27.16-7.47,11,10.3,28.9V413.5h80.27V345.74h5.76V282.41l13.51-14.85,3.1-21.92,13.07-16.83L199,221.5l5.76-9.08-17.94-10.85-7.53,11.74s-5.43.89-12.07-10.74S160.62,184,156.63,180s-10-8.63-12.29-14.28-2.44-19.93-2.44-19.93,2.44-19.93-7.08-25.91-18.16-4.21-24.14,3.54-.44,23-.44,26.35a20.92,20.92,0,0,1-.89,6l-7.75-1.55Z" transform="translate(-22.75 -11.39)"/><path class="cls-1" d="M108.74,127.48s15.14-15.65,31.59,0c-1.11-3.16-2.82-6-5.51-7.66-9.53-6-18.16-4.21-24.14,3.54a12.3,12.3,0,0,0-1.94,4.08Z" transform="translate(-22.75 -11.39)"/><rect class="cls-1" x="32.57" y="39.04" width="32.22" height="3.99"/><rect class="cls-1" x="48.68" y="39.04" width="16.11" height="3.99"/><rect class="cls-1" x="34.89" y="29.74" width="27.68" height="9.3"/><rect class="cls-1" x="48.74" y="29.74" width="13.84" height="9.3"/><polygon class="cls-1" points="38.22 43.03 48.68 53.16 59.47 43.03 38.22 43.03"/><polygon class="cls-1" points="42.04 46.73 44.53 78.13 48.84 84.33 53.38 78.13 55.53 46.73 42.04 46.73"/><path class="cls-1" d="M77.89,63.88a49.67,49.67,0,0,1,5.5,21.43c.33,12.46,9.4,48.78,9.4,48.78L77.37,152l-5.3-57Z" transform="translate(-22.75 -11.39)"/><path class="cls-1" d="M65.35,41.13s-4.67-2.49-3.74-10.63S68.38,20,68.38,20s-1,7.64,3.81,8.3,4.67-10,0-12.95c0,0,6.38.66,9.29,9.8A18.18,18.18,0,0,1,79,41.13Z" transform="translate(-22.75 -11.39)"/><polygon class="cls-1" points="61.96 248.32 118.94 170.48 64.79 288.18 54.49 259.28 61.96 248.32"/><polygon class="cls-1" points="55.82 154.53 76.28 131.93 77.08 133.72 78.7 142.03 86.6 144.34 94.69 154.53 85.88 164.77 86.71 153.15 71.77 153.65 59.47 171.42 55.82 154.53"/><polygon class="cls-1" points="61.96 196.5 73.76 168.48 67.86 206.57 61.96 196.5"/><path class="cls-1" d="M191,244.65h0L171.8,264.89V209a35.58,35.58,0,0,1-4.54-6.4c-6.64-11.63-6.64-18.6-10.63-22.59s-10-8.63-12.29-14.28c-2-4.92-2.37-16.39-2.43-19.26h0L135,136.91l-1.11,18.16-4.65,6.42,2.88,12,12,1.77,4.43,6.65V330.13L124.74,346.4l12.46,9.08-34,17.72,6.31,12.4L87.54,401.55V413.5h80.27V345.74l5.76-1.77V282.41l13.51-14.85,3.1-21.92Z" transform="translate(-22.75 -11.39)"/><polygon class="cls-1" points="80.4 361.81 80.4 295.49 64.79 390.16 86.71 374.21 80.4 361.81"/><polygon class="cls-1" points="101.99 335.01 97.68 255.96 93.93 354.77 114.45 344.1 101.99 335.01"/><polygon class="cls-1" points="80.07 402.12 118.94 366.91 118.94 390.16 130.23 402.12 80.07 402.12"/><path class="cls-1" d="M92.79,134.09s-9.07-36.32-9.4-48.78a49.67,49.67,0,0,0-5.5-21.43L74.55,81.76l13,50.5L77.37,152Z" transform="translate(-22.75 -11.39)"/><polygon class="cls-1" points="109.41 162.06 76.58 199.15 121.37 163.84 109.41 162.06"/><polygon class="cls-1" points="48.74 53.11 59.47 43.03 48.74 43.03 48.74 53.11"/><polygon class="cls-1" points="48.84 84.33 53.38 78.13 55.53 46.73 48.84 46.73 48.84 84.33"/><path class="cls-1" d="M142,135.78a34.31,34.31,0,0,0-1.66-8.26c-3.34-3.09-9.34-7.43-16.5-7-6.44.39-11.75,4-15.09,7a24.33,24.33,0,0,0-.72,8.27C125.42,115.77,141.91,135.69,142,135.78Z" transform="translate(-22.75 -11.39)"/><rect class="cls-1" x="34.34" y="402.12" width="129.77" height="10.63"/><rect class="cls-1" x="17.73" y="412.75" width="162.99" height="29.45"/><rect class="cls-1" x="4" y="442.2" width="190.45" height="19.71"/><path class="cls-1" d="M117.43,165.92l11.06,11.67,3.67-4.14-2.88-12-7.56-.77-7-5.32V138.68L109,143a63.5,63.5,0,0,1,1.25,6.8,20.92,20.92,0,0,1-.89,6Z" transform="translate(-22.75 -11.39)"/><polygon class="cls-1" points="176.29 210.12 172.53 206.57 162.56 220.08 166.77 223.41 167.43 234.25 180.5 217.43 176.29 210.12"/><path class="cls-1" d="M116.59,137.55s7.09-8.24,17.27-1.15C133.86,136.4,124.37,133.05,116.59,137.55Z" transform="translate(-22.75 -11.39)"/><rect class="cls-1" x="41.21" y="53.16" width="11.13" height="10.3"/><polygon class="cls-2" points="102.84 105.4 99.32 105.4 101.25 88.13 102.84 105.4"/><polygon class="cls-2" points="114.03 110.58 111.32 108.33 123.84 96.27 114.03 110.58"/><polygon class="cls-2" points="117.72 118.09 116.5 114.8 133.36 110.58 117.72 118.09"/><polygon class="cls-2" points="118.96 126.16 118.81 122.65 136.15 123.85 118.96 126.16"/><polygon class="cls-2" points="89.3 110.3 92 108.05 79.48 96 89.3 110.3"/><polygon class="cls-2" points="85.68 118.09 86.91 114.8 70.05 110.58 85.68 118.09"/><polygon class="cls-2" points="85.85 126.16 86 122.65 68.66 123.85 85.85 126.16"/><path class="cls-3" d="M99.83,145.1l-5.65-12.62L69.6,161.05l3.32,12.29,5.65-7.42,4.15,19.21,2,22.76,5.65,9.3L75.25,232.54l9.46,27.16-7.47,11,10.3,28.9V413.5h80.27V345.74h5.76V282.41l13.51-14.85,3.1-21.92,13.07-16.83L199,221.5l5.76-9.08-17.94-10.85-7.53,11.74s-5.43.89-12.07-10.74S160.62,184,156.63,180s-10-8.63-12.29-14.28-2.44-19.93-2.44-19.93,2.44-19.93-7.08-25.91-18.16-4.21-24.14,3.54-.44,23-.44,26.35a20.92,20.92,0,0,1-.89,6l-7.75-1.55Z" transform="translate(-22.75 -11.39)"/><path class="cls-4" d="M108.74,127.48s15.14-15.65,31.59,0c-1.11-3.16-2.82-6-5.51-7.66-9.53-6-18.16-4.21-24.14,3.54a12.3,12.3,0,0,0-1.94,4.08Z" transform="translate(-22.75 -11.39)"/><rect class="cls-4" x="32.57" y="39.04" width="32.22" height="3.99"/><rect class="cls-2" x="48.68" y="39.04" width="16.11" height="3.99"/><rect class="cls-3" x="34.89" y="29.74" width="27.68" height="9.3"/><rect class="cls-4" x="48.74" y="29.74" width="13.84" height="9.3"/><polygon class="cls-4" points="38.22 43.03 48.68 53.16 59.47 43.03 38.22 43.03"/><polygon class="cls-3" points="42.04 46.73 44.53 78.13 48.84 84.33 53.38 78.13 55.53 46.73 42.04 46.73"/><path class="cls-3" d="M77.89,63.88a49.67,49.67,0,0,1,5.5,21.43c.33,12.46,9.4,48.78,9.4,48.78L77.37,152l-5.3-57Z" transform="translate(-22.75 -11.39)"/><path class="cls-2" d="M65.35,41.13s-4.67-2.49-3.74-10.63S68.38,20,68.38,20s-1,7.64,3.81,8.3,4.67-10,0-12.95c0,0,6.38.66,9.29,9.8A18.18,18.18,0,0,1,79,41.13Z" transform="translate(-22.75 -11.39)"/><polygon class="cls-2" points="61.96 248.32 118.94 170.48 64.79 288.18 54.49 259.28 61.96 248.32"/><polygon class="cls-4" points="55.82 154.53 76.28 131.93 77.08 133.72 78.7 142.03 86.6 144.34 94.69 154.53 85.88 164.77 86.71 153.15 71.77 153.65 59.47 171.42 55.82 154.53"/><polygon class="cls-2" points="61.96 196.5 73.76 168.48 67.86 206.57 61.96 196.5"/><path class="cls-2" d="M191,244.65h0L171.8,264.89V209a35.58,35.58,0,0,1-4.54-6.4c-6.64-11.63-6.64-18.6-10.63-22.59s-10-8.63-12.29-14.28c-2-4.92-2.37-16.39-2.43-19.26h0L135,136.91l-1.11,18.16-4.65,6.42,2.88,12,12,1.77,4.43,6.65V330.13L124.74,346.4l12.46,9.08-34,17.72,6.31,12.4L87.54,401.55V413.5h80.27V345.74l5.76-1.77V282.41l13.51-14.85,3.1-21.92Z" transform="translate(-22.75 -11.39)"/><polygon class="cls-4" points="80.4 361.81 80.4 295.49 64.79 390.16 86.71 374.21 80.4 361.81"/><polygon class="cls-4" points="101.99 335.01 97.68 255.96 93.93 354.77 114.45 344.1 101.99 335.01"/><polygon class="cls-4" points="80.07 402.12 118.94 366.91 118.94 390.16 130.23 402.12 80.07 402.12"/><path class="cls-2" d="M92.79,134.09s-9.07-36.32-9.4-48.78a49.67,49.67,0,0,0-5.5-21.43L74.55,81.76l13,50.5L77.37,152Z" transform="translate(-22.75 -11.39)"/><polygon class="cls-4" points="109.41 162.06 76.58 199.15 121.37 163.84 109.41 162.06"/><polygon class="cls-2" points="48.74 53.11 59.47 43.03 48.74 43.03 48.74 53.11"/><polygon class="cls-4" points="48.84 84.33 53.38 78.13 55.53 46.73 48.84 46.73 48.84 84.33"/><path class="cls-2" d="M142,135.78a34.31,34.31,0,0,0-1.66-8.26c-3.34-3.09-9.34-7.43-16.5-7-6.44.39-11.75,4-15.09,7a24.33,24.33,0,0,0-.72,8.27C125.42,115.77,141.91,135.69,142,135.78Z" transform="translate(-22.75 -11.39)"/><rect class="cls-3" x="34.34" y="402.12" width="129.77" height="10.63"/><rect class="cls-5" x="17.73" y="412.75" width="162.99" height="29.45"/><rect class="cls-6" x="4" y="442.2" width="190.45" height="19.71"/><path class="cls-4" d="M117.43,165.92l11.06,11.67,3.67-4.14-2.88-12-7.56-.77-7-5.32V138.68L109,143a63.5,63.5,0,0,1,1.25,6.8,20.92,20.92,0,0,1-.89,6Z" transform="translate(-22.75 -11.39)"/><polygon class="cls-4" points="176.29 210.12 172.53 206.57 162.56 220.08 166.77 223.41 167.43 234.25 180.5 217.43 176.29 210.12"/><path class="cls-2" d="M116.59,137.55s7.09-8.24,17.27-1.15C133.86,136.4,124.37,133.05,116.59,137.55Z" transform="translate(-22.75 -11.39)"/><rect class="cls-2" x="41.21" y="53.16" width="11.13" height="10.3"/></svg>