<svg id="Layer_2" data-name="Layer 2" xmlns="http://www.w3.org/2000/svg" viewBox="0 0 247.81 937.69"><defs><style>.cls-1{fill:#d5f8f5;}.cls-2{fill:#4aa2b9;}.cls-3{fill:#176e77;}.cls-4{fill:#b1e3ea;}.cls-5{fill:#b5e3ec;}.cls-6{fill:#72b1b8;}.cls-7{fill:#217f89;}.cls-8{fill:#75aeb6;}.cls-9{fill:#d7f7f9;}.cls-10{fill:#d8f8f9;}.cls-11{fill:#93cacd;}.cls-12{fill:#72b0b9;}.cls-13{fill:#b5e0ea;}.cls-14{fill:#5ebccb;}</style></defs><path class="cls-1" d="M116.19,968.3s247.81-.39,247.81,0-.78-16.09-.78-16.09h-247Z" transform="translate(-116.19 -30.62)"/><polygon class="cls-2" points="16.29 921.59 65.93 747.16 72.2 747.16 59.45 692.62 74.56 692.62 58.27 626.5 74.56 626.5 58.27 559.78 73.58 559.78 58.27 495.82 74.56 495.82 59.84 431.27 78.29 431.27 64.36 362.99 78.29 362.99 65.34 297.65 76.59 297.65 62 233.49 121.26 233.49 121.26 921.59 16.29 921.59"/><polygon class="cls-3" points="228.53 921.59 177.8 747.16 171.39 747.16 184.42 692.62 168.98 692.62 185.62 626.5 168.98 626.5 185.62 559.78 169.98 559.78 185.62 495.82 168.98 495.82 184.02 431.27 165.17 431.27 179.41 362.99 165.17 362.99 178.4 297.65 166.91 297.65 181.81 233.49 121.26 233.49 121.26 921.59 228.53 921.59"/><circle class="cls-4" cx="94.38" cy="751.48" r="13.34"/><polygon class="cls-3" points="66.91 775.03 103.8 775.03 81.04 913.55 37.08 913.55 66.91 775.03"/><rect class="cls-5" x="65.14" y="775.03" width="40.03" height="5.1"/><rect class="cls-5" x="63.77" y="785.42" width="40.03" height="5.1"/><rect class="cls-5" x="61.02" y="795.82" width="40.03" height="5.1"/><rect class="cls-5" x="59.85" y="805.05" width="40.03" height="5.1"/><rect class="cls-5" x="56.57" y="815.44" width="40.03" height="5.1"/><rect class="cls-5" x="54.35" y="825.06" width="40.03" height="5.1"/><rect class="cls-5" x="52.78" y="834.67" width="40.03" height="5.1"/><rect class="cls-5" x="50.43" y="845.46" width="40.03" height="5.1"/><rect class="cls-5" x="48.76" y="854.69" width="40.03" height="5.1"/><rect class="cls-5" x="46.4" y="865.67" width="40.03" height="5.1"/><circle class="cls-6" cx="149.68" cy="751.48" r="13.34"/><polygon class="cls-7" points="175.97 776.79 139.09 776.79 161.84 915.31 205.8 915.31 175.97 776.79"/><rect class="cls-8" x="253.9" y="807.41" width="40.03" height="5.1" transform="translate(431.64 1589.3) rotate(-180)"/><rect class="cls-8" x="255.28" y="817.81" width="40.03" height="5.1" transform="translate(434.39 1610.1) rotate(-180)"/><rect class="cls-8" x="258.02" y="828.21" width="40.03" height="5.1" transform="translate(439.88 1630.9) rotate(-180)"/><rect class="cls-8" x="259.2" y="837.43" width="40.03" height="5.1" transform="translate(442.23 1649.34) rotate(-180)"/><rect class="cls-8" x="262.47" y="847.83" width="40.03" height="5.1" transform="translate(448.78 1670.14) rotate(-180)"/><rect class="cls-8" x="264.69" y="857.44" width="40.03" height="5.1" transform="translate(453.22 1689.37) rotate(-180)"/><rect class="cls-8" x="266.26" y="867.06" width="40.03" height="5.1" transform="translate(456.36 1708.6) rotate(-180)"/><rect class="cls-8" x="268.62" y="877.85" width="40.03" height="5.1" transform="translate(461.07 1730.18) rotate(-180)"/><rect class="cls-8" x="270.29" y="887.07" width="40.03" height="5.1" transform="translate(464.41 1748.62) rotate(-180)"/><rect class="cls-8" x="272.64" y="898.06" width="40.03" height="5.1" transform="translate(469.12 1770.6) rotate(-180)"/><rect class="cls-9" x="58.67" y="225.05" width="126.85" height="8.44"/><polygon class="cls-10" points="117.53 0 120.67 0 121.26 225.05 76.59 225.05 90.84 204.06 96.73 203.66 96.73 188.36 103.8 188.36 103.4 146.76 93.2 146.76 92.81 134.99 98.92 134.6 98.92 116.16 106.15 116.16 106.15 81.23 117.53 81.23 117.53 0"/><polygon class="cls-11" points="124.16 0 121.02 0 120.43 225.05 165.1 225.05 150.85 204.06 144.96 203.66 144.96 188.36 137.9 188.36 138.29 146.76 148.49 146.76 148.88 134.99 142.77 134.6 142.77 116.16 135.54 116.16 135.54 81.23 124.16 81.23 124.16 0"/><rect class="cls-12" x="125.77" y="225.05" width="59.75" height="8.44"/><polygon class="cls-13" points="62.59 289.61 123.42 289.61 123.42 297.85 62.59 298.63 62.59 289.61"/><polygon class="cls-12" points="181.69 289.61 181.69 297.65 123.42 297.85 123.42 289.61 181.69 289.61"/><rect class="cls-12" x="124.79" y="354.75" width="58.86" height="8.44"/><rect class="cls-13" x="62.59" y="354.75" width="62.2" height="8.44"/><rect class="cls-13" x="56.31" y="423.03" width="68.48" height="8.44"/><rect class="cls-12" x="124.79" y="423.03" width="64.16" height="8.44"/><polygon class="cls-12" points="124.79 487.19 124.79 496.61 190.32 495.82 190.32 487.97 124.79 487.19"/><polygon class="cls-13" points="54.94 487.97 124.79 487.19 124.79 496.61 54.94 496.61 54.94 487.97"/><rect class="cls-12" x="124.79" y="551.94" width="66.51" height="8.24"/><polygon class="cls-13" points="54.94 551.94 124.79 551.94 124.79 560.18 54.94 559.59 54.94 551.94"/><rect class="cls-12" x="124.79" y="618.84" width="65.53" height="8.04"/><rect class="cls-13" x="54.94" y="618.84" width="69.85" height="8.04"/><rect class="cls-12" x="126.75" y="683.98" width="62.59" height="8.63"/><rect class="cls-13" x="56.31" y="683.98" width="70.44" height="8.63"/><polygon class="cls-14" points="59.87 566.3 66.6 593.9 119.59 560.18 71.47 559.73 59.87 566.3"/><polygon class="cls-14" points="81.18 551.94 121.26 519.51 121.26 551.94 81.18 551.94"/><polygon class="cls-14" points="62.66 443.62 71.13 480.79 121.26 435.93 121.26 431.46 78.29 431.27 62.66 443.62"/><polygon class="cls-14" points="86.92 423.03 121.26 389.57 121.26 423.03 86.92 423.03"/><polygon class="cls-14" points="66.98 255.38 121.26 233.49 121.21 250.07 74.17 287.03 66.98 255.38"/></svg>