<svg id="Layer_2" data-name="Layer 2" xmlns="http://www.w3.org/2000/svg" viewBox="0 0 257.81 947.69"><defs><style>.cls-1{fill:none;stroke:#1b395e;stroke-width:10px;}.cls-2{fill:#d5f8f5;}.cls-3{fill:#4aa2b9;}.cls-4{fill:#176e77;}.cls-5{fill:#b1e3ea;}.cls-6{fill:#b5e3ec;}.cls-7{fill:#72b1b8;}.cls-8{fill:#217f89;}.cls-9{fill:#75aeb6;}.cls-10{fill:#d7f7f9;}.cls-11{fill:#d8f8f9;}.cls-12{fill:#93cacd;}.cls-13{fill:#72b0b9;}.cls-14{fill:#b5e0ea;}.cls-15{fill:#5ebccb;}</style></defs><path class="cls-1" d="M116.19,968.3s247.81-.39,247.81,0-.78-16.09-.78-16.09h-247Z" transform="translate(-111.19 -25.62)"/><path class="cls-1" d="M116.19,968.3s247.81-.39,247.81,0-.78-16.09-.78-16.09h-247Z" transform="translate(-111.19 -25.62)"/><polygon class="cls-1" points="21.29 926.59 70.93 752.16 77.2 752.16 64.45 697.62 79.56 697.62 63.27 631.5 79.56 631.5 63.27 564.78 78.58 564.78 63.27 500.82 79.56 500.82 64.84 436.27 83.29 436.27 69.36 367.99 83.29 367.99 70.34 302.65 81.59 302.65 67 238.49 126.26 238.49 126.26 926.59 21.29 926.59"/><polygon class="cls-1" points="21.29 926.59 70.93 752.16 77.2 752.16 64.45 697.62 79.56 697.62 63.27 631.5 79.56 631.5 63.27 564.78 78.58 564.78 63.27 500.82 79.56 500.82 64.84 436.27 83.29 436.27 69.36 367.99 83.29 367.99 70.34 302.65 81.59 302.65 67 238.49 126.26 238.49 126.26 926.59 21.29 926.59"/><polygon class="cls-1" points="233.53 926.59 182.8 752.16 176.39 752.16 189.42 697.62 173.98 697.62 190.62 631.5 173.98 631.5 190.62 564.78 174.98 564.78 190.62 500.82 173.98 500.82 189.02 436.27 170.17 436.27 184.41 367.99 170.17 367.99 183.4 302.65 171.91 302.65 186.81 238.49 126.26 238.49 126.26 926.59 233.53 926.59"/><polygon class="cls-1" points="233.53 926.59 182.8 752.16 176.39 752.16 189.42 697.62 173.98 697.62 190.62 631.5 173.98 631.5 190.62 564.78 174.98 564.78 190.62 500.82 173.98 500.82 189.02 436.27 170.17 436.27 184.41 367.99 170.17 367.99 183.4 302.65 171.91 302.65 186.81 238.49 126.26 238.49 126.26 926.59 233.53 926.59"/><circle class="cls-1" cx="99.38" cy="756.48" r="13.34"/><circle class="cls-1" cx="99.38" cy="756.48" r="13.34"/><polygon class="cls-1" points="71.91 780.03 108.8 780.03 86.04 918.55 42.08 918.55 71.91 780.03"/><polygon class="cls-1" points="71.91 780.03 108.8 780.03 86.04 918.55 42.08 918.55 71.91 780.03"/><rect class="cls-1" x="70.14" y="780.03" width="40.03" height="5.1"/><rect class="cls-1" x="70.14" y="780.03" width="40.03" height="5.1"/><rect class="cls-1" x="68.77" y="790.42" width="40.03" height="5.1"/><rect class="cls-1" x="68.77" y="790.42" width="40.03" height="5.1"/><rect class="cls-1" x="66.02" y="800.82" width="40.03" height="5.1"/><rect class="cls-1" x="66.02" y="800.82" width="40.03" height="5.1"/><rect class="cls-1" x="64.85" y="810.05" width="40.03" height="5.1"/><rect class="cls-1" x="64.85" y="810.05" width="40.03" height="5.1"/><rect class="cls-1" x="61.57" y="820.44" width="40.03" height="5.1"/><rect class="cls-1" x="61.57" y="820.44" width="40.03" height="5.1"/><rect class="cls-1" x="59.35" y="830.06" width="40.03" height="5.1"/><rect class="cls-1" x="59.35" y="830.06" width="40.03" height="5.1"/><rect class="cls-1" x="57.78" y="839.67" width="40.03" height="5.1"/><rect class="cls-1" x="57.78" y="839.67" width="40.03" height="5.1"/><rect class="cls-1" x="55.43" y="850.46" width="40.03" height="5.1"/><rect class="cls-1" x="55.43" y="850.46" width="40.03" height="5.1"/><rect class="cls-1" x="53.76" y="859.69" width="40.03" height="5.1"/><rect class="cls-1" x="53.76" y="859.69" width="40.03" height="5.1"/><rect class="cls-1" x="51.4" y="870.67" width="40.03" height="5.1"/><rect class="cls-1" x="51.4" y="870.67" width="40.03" height="5.1"/><circle class="cls-1" cx="154.68" cy="756.48" r="13.34"/><circle class="cls-1" cx="154.68" cy="756.48" r="13.34"/><polygon class="cls-1" points="180.97 781.79 144.09 781.79 166.84 920.31 210.8 920.31 180.97 781.79"/><polygon class="cls-1" points="180.97 781.79 144.09 781.79 166.84 920.31 210.8 920.31 180.97 781.79"/><rect class="cls-1" x="142.71" y="781.79" width="40.03" height="5.1"/><rect class="cls-1" x="142.71" y="781.79" width="40.03" height="5.1"/><rect class="cls-1" x="144.08" y="792.19" width="40.03" height="5.1"/><rect class="cls-1" x="144.08" y="792.19" width="40.03" height="5.1"/><rect class="cls-1" x="146.83" y="802.59" width="40.03" height="5.1"/><rect class="cls-1" x="146.83" y="802.59" width="40.03" height="5.1"/><rect class="cls-1" x="148.01" y="811.81" width="40.03" height="5.1"/><rect class="cls-1" x="148.01" y="811.81" width="40.03" height="5.1"/><rect class="cls-1" x="151.28" y="822.21" width="40.03" height="5.1"/><rect class="cls-1" x="151.28" y="822.21" width="40.03" height="5.1"/><rect class="cls-1" x="153.5" y="831.82" width="40.03" height="5.1"/><rect class="cls-1" x="153.5" y="831.82" width="40.03" height="5.1"/><rect class="cls-1" x="155.07" y="841.44" width="40.03" height="5.1"/><rect class="cls-1" x="155.07" y="841.44" width="40.03" height="5.1"/><rect class="cls-1" x="157.43" y="852.23" width="40.03" height="5.1"/><rect class="cls-1" x="157.43" y="852.23" width="40.03" height="5.1"/><rect class="cls-1" x="159.09" y="861.45" width="40.03" height="5.1"/><rect class="cls-1" x="159.09" y="861.45" width="40.03" height="5.1"/><rect class="cls-1" x="161.45" y="872.44" width="40.03" height="5.1"/><rect class="cls-1" x="161.45" y="872.44" width="40.03" height="5.1"/><rect class="cls-1" x="63.67" y="230.05" width="126.85" height="8.44"/><rect class="cls-1" x="63.67" y="230.05" width="126.85" height="8.44"/><polygon class="cls-1" points="122.53 5 125.67 5 126.26 230.05 81.59 230.05 95.84 209.06 101.73 208.66 101.73 193.36 108.8 193.36 108.4 151.76 98.2 151.76 97.81 139.99 103.92 139.6 103.92 121.16 111.15 121.16 111.15 86.23 122.53 86.23 122.53 5"/><polygon class="cls-1" points="122.53 5 125.67 5 126.26 230.05 81.59 230.05 95.84 209.06 101.73 208.66 101.73 193.36 108.8 193.36 108.4 151.76 98.2 151.76 97.81 139.99 103.92 139.6 103.92 121.16 111.15 121.16 111.15 86.23 122.53 86.23 122.53 5"/><polygon class="cls-1" points="129.16 5 126.02 5 125.43 230.05 170.1 230.05 155.85 209.06 149.96 208.66 149.96 193.36 142.9 193.36 143.29 151.76 153.49 151.76 153.88 139.99 147.77 139.6 147.77 121.16 140.54 121.16 140.54 86.23 129.16 86.23 129.16 5"/><polygon class="cls-1" points="129.16 5 126.02 5 125.43 230.05 170.1 230.05 155.85 209.06 149.96 208.66 149.96 193.36 142.9 193.36 143.29 151.76 153.49 151.76 153.88 139.99 147.77 139.6 147.77 121.16 140.54 121.16 140.54 86.23 129.16 86.23 129.16 5"/><rect class="cls-1" x="130.77" y="230.05" width="59.75" height="8.44"/><rect class="cls-1" x="130.77" y="230.05" width="59.75" height="8.44"/><polygon class="cls-1" points="67.59 294.61 128.42 294.61 128.42 302.85 67.59 303.63 67.59 294.61"/><polygon class="cls-1" points="67.59 294.61 128.42 294.61 128.42 302.85 67.59 303.63 67.59 294.61"/><polygon class="cls-1" points="186.69 294.61 186.69 302.65 128.42 302.85 128.42 294.61 186.69 294.61"/><polygon class="cls-1" points="186.69 294.61 186.69 302.65 128.42 302.85 128.42 294.61 186.69 294.61"/><rect class="cls-1" x="129.79" y="359.75" width="58.86" height="8.44"/><rect class="cls-1" x="129.79" y="359.75" width="58.86" height="8.44"/><rect class="cls-1" x="67.59" y="359.75" width="62.2" height="8.44"/><rect class="cls-1" x="67.59" y="359.75" width="62.2" height="8.44"/><rect class="cls-1" x="61.31" y="428.03" width="68.48" height="8.44"/><rect class="cls-1" x="61.31" y="428.03" width="68.48" height="8.44"/><rect class="cls-1" x="129.79" y="428.03" width="64.16" height="8.44"/><rect class="cls-1" x="129.79" y="428.03" width="64.16" height="8.44"/><polygon class="cls-1" points="129.79 492.19 129.79 501.61 195.32 500.82 195.32 492.97 129.79 492.19"/><polygon class="cls-1" points="129.79 492.19 129.79 501.61 195.32 500.82 195.32 492.97 129.79 492.19"/><polygon class="cls-1" points="59.94 492.97 129.79 492.19 129.79 501.61 59.94 501.61 59.94 492.97"/><polygon class="cls-1" points="59.94 492.97 129.79 492.19 129.79 501.61 59.94 501.61 59.94 492.97"/><rect class="cls-1" x="129.79" y="556.94" width="66.51" height="8.24"/><rect class="cls-1" x="129.79" y="556.94" width="66.51" height="8.24"/><polygon class="cls-1" points="59.94 556.94 129.79 556.94 129.79 565.18 59.94 564.59 59.94 556.94"/><polygon class="cls-1" points="59.94 556.94 129.79 556.94 129.79 565.18 59.94 564.59 59.94 556.94"/><rect class="cls-1" x="129.79" y="623.84" width="65.53" height="8.04"/><rect class="cls-1" x="129.79" y="623.84" width="65.53" height="8.04"/><rect class="cls-1" x="59.94" y="623.84" width="69.85" height="8.04"/><rect class="cls-1" x="59.94" y="623.84" width="69.85" height="8.04"/><rect class="cls-1" x="131.75" y="688.98" width="62.59" height="8.63"/><rect class="cls-1" x="131.75" y="688.98" width="62.59" height="8.63"/><rect class="cls-1" x="61.31" y="688.98" width="70.44" height="8.63"/><rect class="cls-1" x="61.31" y="688.98" width="70.44" height="8.63"/><polygon class="cls-1" points="64.86 571.3 71.6 598.9 124.59 565.18 76.47 564.73 64.86 571.3"/><polygon class="cls-1" points="64.86 571.3 71.6 598.9 124.59 565.18 76.47 564.73 64.86 571.3"/><polygon class="cls-1" points="86.18 556.94 126.26 524.51 126.26 556.94 86.18 556.94"/><polygon class="cls-1" points="86.18 556.94 126.26 524.51 126.26 556.94 86.18 556.94"/><polygon class="cls-1" points="67.66 448.62 76.13 485.79 126.26 440.93 126.26 436.46 83.29 436.27 67.66 448.62"/><polygon class="cls-1" points="67.66 448.62 76.13 485.79 126.26 440.93 126.26 436.46 83.29 436.27 67.66 448.62"/><polygon class="cls-1" points="91.92 428.03 126.26 394.57 126.26 428.03 91.92 428.03"/><polygon class="cls-1" points="91.92 428.03 126.26 394.57 126.26 428.03 91.92 428.03"/><polygon class="cls-1" points="71.98 260.38 126.26 238.49 126.21 255.07 79.17 292.03 71.98 260.38"/><polygon class="cls-1" points="71.98 260.38 126.26 238.49 126.21 255.07 79.17 292.03 71.98 260.38"/><path class="cls-2" d="M116.19,968.3s247.81-.39,247.81,0-.78-16.09-.78-16.09h-247Z" transform="translate(-111.19 -25.62)"/><polygon class="cls-3" points="21.29 926.59 70.93 752.16 77.2 752.16 64.45 697.62 79.56 697.62 63.27 631.5 79.56 631.5 63.27 564.78 78.58 564.78 63.27 500.82 79.56 500.82 64.84 436.27 83.29 436.27 69.36 367.99 83.29 367.99 70.34 302.65 81.59 302.65 67 238.49 126.26 238.49 126.26 926.59 21.29 926.59"/><polygon class="cls-4" points="233.53 926.59 182.8 752.16 176.39 752.16 189.42 697.62 173.98 697.62 190.62 631.5 173.98 631.5 190.62 564.78 174.98 564.78 190.62 500.82 173.98 500.82 189.02 436.27 170.17 436.27 184.41 367.99 170.17 367.99 183.4 302.65 171.91 302.65 186.81 238.49 126.26 238.49 126.26 926.59 233.53 926.59"/><circle class="cls-5" cx="99.38" cy="756.48" r="13.34"/><polygon class="cls-4" points="71.91 780.03 108.8 780.03 86.04 918.55 42.08 918.55 71.91 780.03"/><rect class="cls-6" x="70.14" y="780.03" width="40.03" height="5.1"/><rect class="cls-6" x="68.77" y="790.42" width="40.03" height="5.1"/><rect class="cls-6" x="66.02" y="800.82" width="40.03" height="5.1"/><rect class="cls-6" x="64.85" y="810.05" width="40.03" height="5.1"/><rect class="cls-6" x="61.57" y="820.44" width="40.03" height="5.1"/><rect class="cls-6" x="59.35" y="830.06" width="40.03" height="5.1"/><rect class="cls-6" x="57.78" y="839.67" width="40.03" height="5.1"/><rect class="cls-6" x="55.43" y="850.46" width="40.03" height="5.1"/><rect class="cls-6" x="53.76" y="859.69" width="40.03" height="5.1"/><rect class="cls-6" x="51.4" y="870.67" width="40.03" height="5.1"/><circle class="cls-7" cx="154.68" cy="756.48" r="13.34"/><polygon class="cls-8" points="180.97 781.79 144.09 781.79 166.84 920.31 210.8 920.31 180.97 781.79"/><rect class="cls-9" x="142.71" y="781.79" width="40.03" height="5.1"/><rect class="cls-9" x="144.08" y="792.19" width="40.03" height="5.1"/><rect class="cls-9" x="146.83" y="802.59" width="40.03" height="5.1"/><rect class="cls-9" x="148.01" y="811.81" width="40.03" height="5.1"/><rect class="cls-9" x="151.28" y="822.21" width="40.03" height="5.1"/><rect class="cls-9" x="153.5" y="831.82" width="40.03" height="5.1"/><rect class="cls-9" x="155.07" y="841.44" width="40.03" height="5.1"/><rect class="cls-9" x="157.43" y="852.23" width="40.03" height="5.1"/><rect class="cls-9" x="159.09" y="861.45" width="40.03" height="5.1"/><rect class="cls-9" x="161.45" y="872.44" width="40.03" height="5.1"/><rect class="cls-10" x="63.67" y="230.05" width="126.85" height="8.44"/><polygon class="cls-11" points="122.53 5 125.67 5 126.26 230.05 81.59 230.05 95.84 209.06 101.73 208.66 101.73 193.36 108.8 193.36 108.4 151.76 98.2 151.76 97.81 139.99 103.92 139.6 103.92 121.16 111.15 121.16 111.15 86.23 122.53 86.23 122.53 5"/><polygon class="cls-12" points="129.16 5 126.02 5 125.43 230.05 170.1 230.05 155.85 209.06 149.96 208.66 149.96 193.36 142.9 193.36 143.29 151.76 153.49 151.76 153.88 139.99 147.77 139.6 147.77 121.16 140.54 121.16 140.54 86.23 129.16 86.23 129.16 5"/><rect class="cls-13" x="130.77" y="230.05" width="59.75" height="8.44"/><polygon class="cls-14" points="67.59 294.61 128.42 294.61 128.42 302.85 67.59 303.63 67.59 294.61"/><polygon class="cls-13" points="186.69 294.61 186.69 302.65 128.42 302.85 128.42 294.61 186.69 294.61"/><rect class="cls-13" x="129.79" y="359.75" width="58.86" height="8.44"/><rect class="cls-14" x="67.59" y="359.75" width="62.2" height="8.44"/><rect class="cls-14" x="61.31" y="428.03" width="68.48" height="8.44"/><rect class="cls-13" x="129.79" y="428.03" width="64.16" height="8.44"/><polygon class="cls-13" points="129.79 492.19 129.79 501.61 195.32 500.82 195.32 492.97 129.79 492.19"/><polygon class="cls-14" points="59.94 492.97 129.79 492.19 129.79 501.61 59.94 501.61 59.94 492.97"/><rect class="cls-13" x="129.79" y="556.94" width="66.51" height="8.24"/><polygon class="cls-14" points="59.94 556.94 129.79 556.94 129.79 565.18 59.94 564.59 59.94 556.94"/><rect class="cls-13" x="129.79" y="623.84" width="65.53" height="8.04"/><rect class="cls-14" x="59.94" y="623.84" width="69.85" height="8.04"/><rect class="cls-13" x="131.75" y="688.98" width="62.59" height="8.63"/><rect class="cls-14" x="61.31" y="688.98" width="70.44" height="8.63"/><polygon class="cls-15" points="64.86 571.3 71.6 598.9 124.59 565.18 76.47 564.73 64.86 571.3"/><polygon class="cls-15" points="86.18 556.94 126.26 524.51 126.26 556.94 86.18 556.94"/><polygon class="cls-15" points="67.66 448.62 76.13 485.79 126.26 440.93 126.26 436.46 83.29 436.27 67.66 448.62"/><polygon class="cls-15" points="91.92 428.03 126.26 394.57 126.26 428.03 91.92 428.03"/><polygon class="cls-15" points="71.98 260.38 126.26 238.49 126.21 255.07 79.17 292.03 71.98 260.38"/></svg>