<svg xmlns="http://www.w3.org/2000/svg" viewBox="0 0 500 500"><defs><style>.cls-1{fill:#fff;}.cls-2{fill:none;stroke:#5e230e;stroke-width:10px;}.cls-3{fill:#62b257;}.cls-4{fill:#589b4c;}.cls-5{fill:#725033;}.cls-6{fill:#604129;}</style></defs><g id="BACKGROUND"><rect class="cls-1" width="500" height="500"/></g><g id="OBJECTS"><path class="cls-2" d="M367.78,112.55c-7-21.25-26.7-34.76-46.77-34.75-2-6.32-7.94-12.64-12.52-15.32a21.92,21.92,0,0,0-5.18-2.16c-.68-10.19-5.23-19.86-16.11-23.16-4.82-1.47-10.76-1-16.64.67-15.68-22.11-57.21-12.17-75.09,2.06s-28.13,40.53-24.08,63.6a22.08,22.08,0,0,0-11.56,8.09c-4.62,6.41-5.79,16.15-3.23,24.28-13.64,7.81-15.83,29.41-11.75,44.3,5.27,19.21,23.63,27.56,39.51,19.58,2.95,10.73,9.45,19.22,21.9,22.95,14.24,4.28,32.12,3.14,40-10.27,16.67,24.11,57.7,15.66,66.42-13.68,5.67,3.9,16.27.78,21.07-3.07,4.36-3.5,7.31-8.54,7.17-14.24a13.51,13.51,0,0,0-.79-4.19C363,168.67,375.32,135.27,367.78,112.55Z"/><path class="cls-2" d="M362.71,155.83c-15.27,13.82-40.24,15.23-40.24,15.23-3.45,21.28-26.06,14.54-26.06,14.54-30,19.31-38.88-27.13-38.88-27.13-21.95,13-28.86-31.16-28.86-31.16s-24.75,1.2-36.47-40.82c-9.65-34.58,21.26-54,32.52-59.74-11.41,2.57-22.18,7.51-29.25,13.14-17.84,14.2-28.13,40.53-24.08,63.6a22.08,22.08,0,0,0-11.56,8.09c-4.62,6.41-5.79,16.15-3.23,24.28-13.64,7.81-15.83,29.41-11.75,44.3,5.27,19.21,23.63,27.56,39.51,19.58,2.95,10.73,9.45,19.22,21.9,22.95,14.24,4.28,32.12,3.14,40-10.27,16.67,24.11,57.7,15.66,66.42-13.68,5.67,3.9,16.27.78,21.07-3.07,4.36-3.5,7.31-8.54,7.17-14.24a13.51,13.51,0,0,0-.79-4.19C349.8,173.63,357.52,165.59,362.71,155.83Z"/><path class="cls-2" d="M251,236.9c-5.65-6.88-15.22-11.08-24.95-13.24,1.15-8.87-1.32-17.9-10.13-22.24-4.55-2.24-12.64-1.43-19.2,1.53-6.51-13.36-21.94-20.86-37.91-15.72a32,32,0,0,0-20.07,18.49c-6.8,0-13.44,1.17-19.48,5.13-10.08,6.6-13.18,19.72-15.49,30.82-3.41,16.36,1.41,34,13.65,44.37a15.87,15.87,0,0,0-1.91,17.16c4.44,9.6,15,9.84,23,5.42.08,6.13,2.41,12.08,6.77,17.84,8.82,11.66,18.79,14.62,33,12.74,12.21-1.62,24.87-7.37,30.72-18.84a27.87,27.87,0,0,0,2.89-10.62c20.3,1,38.18-17.2,43.67-37.77C258.59,260.78,258.81,246.36,251,236.9Z"/><path class="cls-2" d="M138.78,205.72c-6.8,0-13.44,1.17-19.48,5.13a46.83,46.83,0,0,0-19.58,28.81c-3.41,16.37,5.5,36,17.74,46.38a15.87,15.87,0,0,0-1.91,17.16c4.44,9.6,15,9.84,23,5.42.08,6.13,2.41,12.08,6.77,17.84,8.82,11.66,18.79,14.62,33,12.74,12.21-1.62,24.87-7.37,30.72-18.84a27.87,27.87,0,0,0,2.89-10.62c16,.77,30.4-10.32,38.52-25.09-13.52,1.74-28.29-18.07-28.29-18.07s-.87,22.58-11.29,30.83S187,286.56,187,286.56s-8.66,12.15-26,6.94-12.16-28.65-12.16-28.65-15.63,2.6-28.22-19.11S138.78,205.72,138.78,205.72Z"/><path class="cls-2" d="M229,339.14c-2.14,14.66-4.08,29.35-4.3,44.24-.28,18-2.89,35.05-6.05,52.74C216,450.58,213.51,465.6,216,480.2h56.77c-17.11-44.26-15.3-90.1-14.44-136.75.43-23.26-1.12-45.89-3.62-69-2-18.69-.5-36.14,1.26-54.17a121,121,0,0,1,15.14-33.09c8.4-12.62,18.57-23.23,29.83-33.27,8.2-7.32,18.06-16,21.52-26.8.47-1.47-1.51-2-2.3-1-9.68,12.89-23,20.14-34.59,31,5.14-9.57,9-19.68,9.68-31.27.08-1.31-2.1-1.64-2.32-.31-4.6,28.27-29.12,46.92-42.63,70.85A128.72,128.72,0,0,0,243.68,210c-.24-1.3-.49-2.6-.72-3.89-1.33-7.37-2.58-14.76-3.66-22.18,0-1.3.08-2.59.11-3.89.9-35.26.38-71.15-3.68-106.2a1.14,1.14,0,0,0-2.28,0c-.31,23.16-.39,46.26-1,69.38-5.86-17.45-17.48-32.07-22.85-49.78a1.1,1.1,0,0,0-2.12.58c3.43,18.11,13,34.1,17.59,51.93,3.39,13.34,4.51,26.91,5.52,40.51-1,15.3-2,30.51-.53,45.84,1.7,17.47,5.27,34.66,4.87,52.28a315.6,315.6,0,0,1-3.47,37.11c-8.3-8.78-16.68-17.49-24.91-26.34-4.52-9.14-7.36-18.84-9.37-29.74-3-16.18-5-32.48-13.55-46.87a.41.41,0,0,0-.74.32c3.45,16.36,3.39,38.33,7.6,57.95-8.16-10-16.21-20.25-25.55-28.76-.09-.08-.25,0-.21.11,6.27,17,18.64,33.1,29,47.8A355.92,355.92,0,0,0,229,339.14Z"/><path class="cls-2" d="M229,339.69c-2.14,14.66-4.08,29.35-4.3,44.24-.28,18-2.89,35.05-6.05,52.74-2.59,14.46-5.09,29.48-2.64,44.08h56.77c-17.11-44.26-15.3-90.1-14.44-136.75.43-23.26-1.12-45.89-3.62-69-2-18.69-.5-36.14,1.26-54.17a120.81,120.81,0,0,1,15.14-33.09c8.4-12.62,18.57-23.23,29.83-33.27,8.2-7.32,18.06-16,21.52-26.8.47-1.47-1.51-2-2.3-1-9.68,12.89-23,20.13-34.59,31,5.14-9.57,9-19.68,9.68-31.27.08-1.31-2.1-1.64-2.32-.31-4.6,28.27-29.12,46.92-42.63,70.85a128.72,128.72,0,0,0-6.58,13.54c-.24-1.3-.49-2.6-.72-3.89-1.33-7.37-2.58-14.76-3.66-22.18,0-1.3.08-2.59.11-3.89.9-35.26.38-71.16-3.68-106.2a1.14,1.14,0,0,0-2.28,0c-.31,23.16-.39,46.26-1,69.38C226.63,126.31,215,111.68,209.64,94a1.1,1.1,0,0,0-2.12.58c3.43,18.11,13,34.1,17.59,51.93,3.39,13.34,4.51,26.91,5.52,40.51-1,15.3-2,30.51-.53,45.84,1.7,17.47,5.27,34.66,4.87,52.28a315.79,315.79,0,0,1-3.47,37.11c-8.3-8.78-16.68-17.5-24.91-26.34-4.52-9.14-7.36-18.84-9.37-29.74-3-16.18-5-32.48-13.55-46.87a.41.41,0,0,0-.74.32c3.45,16.36,3.39,38.33,7.6,58-8.16-10-16.21-20.25-25.55-28.77-.09-.07-.25,0-.21.12,6.27,17,18.64,33.1,29,47.8A355.92,355.92,0,0,0,229,339.69Z"/><path class="cls-2" d="M247.91,480.2H216c-2.45-14.6,0-29.62,2.64-44.08,3.16-17.69,5.77-34.73,6.05-52.74.22-14.89,2.16-29.58,4.3-44.24a355.92,355.92,0,0,1-35.13-43c-10.41-14.7-22.78-30.82-29-47.8,0-.12.12-.19.21-.11s19.4,28.55,28.09,37.66l-2.54-8.9c-4.14-19.29-4.17-40.83-7.45-57.1l.59-1.17s5.93,19.85,7.44,31.79,3,35.38,7.6,42.33,7.6,10.86,13.25,15.63,19.1,18.89,19.1,18.89l.44-5.69A315.6,315.6,0,0,0,235,284.57c.4-17.62-3.17-34.81-4.87-52.28-1.49-15.33-.43-30.54.53-45.84-1-13.6-2.13-27.17-5.52-40.51C220.57,128.11,211,112.12,207.52,94a1.11,1.11,0,0,1,.9-1.33,66,66,0,0,0,6.14,18c6.51,12.59,17.8,41.68,17.8,41.68l.13-9.18c.57-23.12.65-46.22,1-69.38,0,0,.87,107.65,3.91,128.49S243,287,243.63,340.4C244.19,385.05,234.59,428.19,247.91,480.2Zm58.7-334.32c-6.95,5.21-25.84,19.32-34.08,30.83s-18.46,27.78-20,36.69,1.2,38.85,1.2,38.85l0,0c.2-10.51,1.13-20.85,2.16-31.39a120.81,120.81,0,0,1,15.14-33.09c8.4-12.62,18.57-23.23,29.83-33.27,8.2-7.32,18.06-16,21.52-26.8a1,1,0,0,0,.05-.37C319.18,132,311.85,142,306.61,145.88Z"/><path class="cls-3" d="M367.78,112.55c-7-21.25-26.7-34.76-46.77-34.75-2-6.32-7.94-12.64-12.52-15.32a21.92,21.92,0,0,0-5.18-2.16c-.68-10.19-5.23-19.86-16.11-23.16-4.82-1.47-10.76-1-16.64.67-15.68-22.11-57.21-12.17-75.09,2.06s-28.13,40.53-24.08,63.6a22.08,22.08,0,0,0-11.56,8.09c-4.62,6.41-5.79,16.15-3.23,24.28-13.64,7.81-15.83,29.41-11.75,44.3,5.27,19.21,23.63,27.56,39.51,19.58,2.95,10.73,9.45,19.22,21.9,22.95,14.24,4.28,32.12,3.14,40-10.27,16.67,24.11,57.7,15.66,66.42-13.68,5.67,3.9,16.27.78,21.07-3.07,4.36-3.5,7.31-8.54,7.17-14.24a13.51,13.51,0,0,0-.79-4.19C363,168.67,375.32,135.27,367.78,112.55Z"/><path class="cls-4" d="M362.71,155.83c-15.27,13.82-40.24,15.23-40.24,15.23-3.45,21.28-26.06,14.54-26.06,14.54-30,19.31-38.88-27.13-38.88-27.13-21.95,13-28.86-31.16-28.86-31.16s-24.75,1.2-36.47-40.82c-9.65-34.58,21.26-54,32.52-59.74-11.41,2.57-22.18,7.51-29.25,13.14-17.84,14.2-28.13,40.53-24.08,63.6a22.08,22.08,0,0,0-11.56,8.09c-4.62,6.41-5.79,16.15-3.23,24.28-13.64,7.81-15.83,29.41-11.75,44.3,5.27,19.21,23.63,27.56,39.51,19.58,2.95,10.73,9.45,19.22,21.9,22.95,14.24,4.28,32.12,3.14,40-10.27,16.67,24.11,57.7,15.66,66.42-13.68,5.67,3.9,16.27.78,21.07-3.07,4.36-3.5,7.31-8.54,7.17-14.24a13.51,13.51,0,0,0-.79-4.19C349.8,173.63,357.52,165.59,362.71,155.83Z"/><path class="cls-3" d="M251,236.9c-5.65-6.88-15.22-11.08-24.95-13.24,1.15-8.87-1.32-17.9-10.13-22.24-4.55-2.24-12.64-1.43-19.2,1.53-6.51-13.36-21.94-20.86-37.91-15.72a32,32,0,0,0-20.07,18.49c-6.8,0-13.44,1.17-19.48,5.13-10.08,6.6-13.18,19.72-15.49,30.82-3.41,16.36,1.41,34,13.65,44.37a15.87,15.87,0,0,0-1.91,17.16c4.44,9.6,15,9.84,23,5.42.08,6.13,2.41,12.08,6.77,17.84,8.82,11.66,18.79,14.62,33,12.74,12.21-1.62,24.87-7.37,30.72-18.84a27.87,27.87,0,0,0,2.89-10.62c20.3,1,38.18-17.2,43.67-37.77C258.59,260.78,258.81,246.36,251,236.9Z"/><path class="cls-4" d="M138.78,205.72c-6.8,0-13.44,1.17-19.48,5.13a46.83,46.83,0,0,0-19.58,28.81c-3.41,16.37,5.5,36,17.74,46.38a15.87,15.87,0,0,0-1.91,17.16c4.44,9.6,15,9.84,23,5.42.08,6.13,2.41,12.08,6.77,17.84,8.82,11.66,18.79,14.62,33,12.74,12.21-1.62,24.87-7.37,30.72-18.84a27.87,27.87,0,0,0,2.89-10.62c16,.77,30.4-10.32,38.52-25.09-13.52,1.74-28.29-18.07-28.29-18.07s-.87,22.58-11.29,30.83S187,286.56,187,286.56s-8.66,12.15-26,6.94-12.16-28.65-12.16-28.65-15.63,2.6-28.22-19.11S138.78,205.72,138.78,205.72Z"/><path class="cls-5" d="M229,339.14c-2.14,14.66-4.08,29.35-4.3,44.24-.28,18-2.89,35.05-6.05,52.74C216,450.58,213.51,465.6,216,480.2h56.77c-17.11-44.26-15.3-90.1-14.44-136.75.43-23.26-1.12-45.89-3.62-69-2-18.69-.5-36.14,1.26-54.17a121,121,0,0,1,15.14-33.09c8.4-12.62,18.57-23.23,29.83-33.27,8.2-7.32,18.06-16,21.52-26.8.47-1.47-1.51-2-2.3-1-9.68,12.89-23,20.14-34.59,31,5.14-9.57,9-19.68,9.68-31.27.08-1.31-2.1-1.64-2.32-.31-4.6,28.27-29.12,46.92-42.63,70.85A128.72,128.72,0,0,0,243.68,210c-.24-1.3-.49-2.6-.72-3.89-1.33-7.37-2.58-14.76-3.66-22.18,0-1.3.08-2.59.11-3.89.9-35.26.38-71.15-3.68-106.2a1.14,1.14,0,0,0-2.28,0c-.31,23.16-.39,46.26-1,69.38-5.86-17.45-17.48-32.07-22.85-49.78a1.1,1.1,0,0,0-2.12.58c3.43,18.11,13,34.1,17.59,51.93,3.39,13.34,4.51,26.91,5.52,40.51-1,15.3-2,30.51-.53,45.84,1.7,17.47,5.27,34.66,4.87,52.28a315.6,315.6,0,0,1-3.47,37.11c-8.3-8.78-16.68-17.49-24.91-26.34-4.52-9.14-7.36-18.84-9.37-29.74-3-16.18-5-32.48-13.55-46.87a.41.41,0,0,0-.74.32c3.45,16.36,3.39,38.33,7.6,57.95-8.16-10-16.21-20.25-25.55-28.76-.09-.08-.25,0-.21.11,6.27,17,18.64,33.1,29,47.8A355.92,355.92,0,0,0,229,339.14Z"/><path class="cls-5" d="M229,339.69c-2.14,14.66-4.08,29.35-4.3,44.24-.28,18-2.89,35.05-6.05,52.74-2.59,14.46-5.09,29.48-2.64,44.08h56.77c-17.11-44.26-15.3-90.1-14.44-136.75.43-23.26-1.12-45.89-3.62-69-2-18.69-.5-36.14,1.26-54.17a120.81,120.81,0,0,1,15.14-33.09c8.4-12.62,18.57-23.23,29.83-33.27,8.2-7.32,18.06-16,21.52-26.8.47-1.47-1.51-2-2.3-1-9.68,12.89-23,20.13-34.59,31,5.14-9.57,9-19.68,9.68-31.27.08-1.31-2.1-1.64-2.32-.31-4.6,28.27-29.12,46.92-42.63,70.85a128.72,128.72,0,0,0-6.58,13.54c-.24-1.3-.49-2.6-.72-3.89-1.33-7.37-2.58-14.76-3.66-22.18,0-1.3.08-2.59.11-3.89.9-35.26.38-71.16-3.68-106.2a1.14,1.14,0,0,0-2.28,0c-.31,23.16-.39,46.26-1,69.38C226.63,126.31,215,111.68,209.64,94a1.1,1.1,0,0,0-2.12.58c3.43,18.11,13,34.1,17.59,51.93,3.39,13.34,4.51,26.91,5.52,40.51-1,15.3-2,30.51-.53,45.84,1.7,17.47,5.27,34.66,4.87,52.28a315.79,315.79,0,0,1-3.47,37.11c-8.3-8.78-16.68-17.5-24.91-26.34-4.52-9.14-7.36-18.84-9.37-29.74-3-16.18-5-32.48-13.55-46.87a.41.41,0,0,0-.74.32c3.45,16.36,3.39,38.33,7.6,58-8.16-10-16.21-20.25-25.55-28.77-.09-.07-.25,0-.21.12,6.27,17,18.64,33.1,29,47.8A355.92,355.92,0,0,0,229,339.69Z"/><path class="cls-6" d="M247.91,480.2H216c-2.45-14.6,0-29.62,2.64-44.08,3.16-17.69,5.77-34.73,6.05-52.74.22-14.89,2.16-29.58,4.3-44.24a355.92,355.92,0,0,1-35.13-43c-10.41-14.7-22.78-30.82-29-47.8,0-.12.12-.19.21-.11s19.4,28.55,28.09,37.66l-2.54-8.9c-4.14-19.29-4.17-40.83-7.45-57.1l.59-1.17s5.93,19.85,7.44,31.79,3,35.38,7.6,42.33,7.6,10.86,13.25,15.63,19.1,18.89,19.1,18.89l.44-5.69A315.6,315.6,0,0,0,235,284.57c.4-17.62-3.17-34.81-4.87-52.28-1.49-15.33-.43-30.54.53-45.84-1-13.6-2.13-27.17-5.52-40.51C220.57,128.11,211,112.12,207.52,94a1.11,1.11,0,0,1,.9-1.33,66,66,0,0,0,6.14,18c6.51,12.59,17.8,41.68,17.8,41.68l.13-9.18c.57-23.12.65-46.22,1-69.38,0,0,.87,107.65,3.91,128.49S243,287,243.63,340.4C244.19,385.05,234.59,428.19,247.91,480.2Zm58.7-334.32c-6.95,5.21-25.84,19.32-34.08,30.83s-18.46,27.78-20,36.69,1.2,38.85,1.2,38.85l0,0c.2-10.51,1.13-20.85,2.16-31.39a120.81,120.81,0,0,1,15.14-33.09c8.4-12.62,18.57-23.23,29.83-33.27,8.2-7.32,18.06-16,21.52-26.8a1,1,0,0,0,.05-.37C319.18,132,311.85,142,306.61,145.88Z"/></g></svg>