<?xml version="1.0" encoding="utf-8"?>
<!-- Generator: Adobe Illustrator 21.1.0, SVG Export Plug-In . SVG Version: 6.00 Build 0)  -->
<svg version="1.1" id="Layer_1" xmlns="http://www.w3.org/2000/svg" xmlns:xlink="http://www.w3.org/1999/xlink" x="0px" y="0px"
	 viewBox="0 0 500 500" style="enable-background:new 0 0 500 500;" xml:space="preserve">
<style type="text/css">
	.st0{fill:none;stroke:#5E230E;stroke-width:10;}
	.st1{fill:#62B257;}
	.st2{fill:#589B4C;}
	.st3{fill:#725033;}
	.st4{fill:#604129;}
</style>
<g id="OBJECTS">
	<path class="st0" d="M367.8,127.6c-7-21.3-26.7-34.8-46.8-34.8c-2-6.3-7.9-12.6-12.5-15.3c-1.6-0.9-3.4-1.7-5.2-2.2
		c-0.7-10.2-5.2-19.9-16.1-23.2c-4.8-1.5-10.8-1-16.6,0.7c-15.7-22.1-57.2-12.2-75.1,2.1s-28.1,40.5-24.1,63.6
		c-4.6,1.4-8.7,4.2-11.6,8.1c-4.6,6.4-5.8,16.2-3.2,24.3c-13.6,7.8-15.8,29.4-11.8,44.3c5.3,19.2,23.6,27.6,39.5,19.6
		c2.9,10.7,9.4,19.2,21.9,22.9c14.2,4.3,32.1,3.1,40-10.3c16.7,24.1,57.7,15.7,66.4-13.7c5.7,3.9,16.3,0.8,21.1-3.1
		c4.4-3.5,7.3-8.5,7.2-14.2c0-1.4-0.3-2.8-0.8-4.2C363,183.7,375.3,150.3,367.8,127.6z"/>
	<path class="st0" d="M362.7,170.8c-15.3,13.8-40.2,15.2-40.2,15.2c-3.5,21.3-26.1,14.5-26.1,14.5c-30,19.3-38.9-27.1-38.9-27.1
		c-21.9,13-28.9-31.2-28.9-31.2s-24.8,1.2-36.5-40.8c-9.6-34.6,21.3-54,32.5-59.7c-11.4,2.6-22.2,7.5-29.3,13.1
		c-17.8,14.2-28.1,40.5-24.1,63.6c-4.6,1.4-8.7,4.2-11.6,8.1c-4.6,6.4-5.8,16.2-3.2,24.3c-13.6,7.8-15.8,29.4-11.8,44.3
		c5.3,19.2,23.6,27.6,39.5,19.6c2.9,10.7,9.4,19.2,21.9,22.9c14.2,4.3,32.1,3.1,40-10.3c16.7,24.1,57.7,15.7,66.4-13.7
		c5.7,3.9,16.3,0.8,21.1-3.1c4.4-3.5,7.3-8.5,7.2-14.2c0-1.4-0.3-2.8-0.8-4.2C349.8,188.6,357.5,180.6,362.7,170.8z"/>
	<path class="st0" d="M251,251.9c-5.6-6.9-15.2-11.1-24.9-13.2c1.1-8.9-1.3-17.9-10.1-22.2c-4.6-2.2-12.6-1.4-19.2,1.5
		c-6.5-13.4-21.9-20.9-37.9-15.7c-9.1,2.9-16.5,9.6-20.1,18.5c-6.8,0-13.4,1.2-19.5,5.1c-10.1,6.6-13.2,19.7-15.5,30.8
		c-3.4,16.4,1.4,34,13.7,44.4c-4,4.8-4.7,11.6-1.9,17.2c4.4,9.6,15,9.8,23,5.4c0.1,6.1,2.4,12.1,6.8,17.8
		c8.8,11.7,18.8,14.6,33,12.7c12.2-1.6,24.9-7.4,30.7-18.8c1.7-3.3,2.6-6.9,2.9-10.6c20.3,1,38.2-17.2,43.7-37.8
		C258.6,275.8,258.8,261.4,251,251.9z"/>
	<path class="st0" d="M138.8,220.7c-6.8,0-13.4,1.2-19.5,5.1c-10,6.7-17,17-19.6,28.8c-3.4,16.4,5.5,36,17.7,46.4
		c-4,4.8-4.7,11.6-1.9,17.2c4.4,9.6,15,9.8,23,5.4c0.1,6.1,2.4,12.1,6.8,17.8c8.8,11.7,18.8,14.6,33,12.7
		c12.2-1.6,24.9-7.4,30.7-18.8c1.7-3.3,2.6-6.9,2.9-10.6c16,0.8,30.4-10.3,38.5-25.1c-13.5,1.7-28.3-18.1-28.3-18.1
		s-0.9,22.6-11.3,30.8S187,301.6,187,301.6s-8.7,12.1-26,6.9s-12.2-28.6-12.2-28.6s-15.6,2.6-28.2-19.1S138.8,220.7,138.8,220.7z"/>
	<path class="st0" d="M229,354.1c-2.1,14.7-4.1,29.4-4.3,44.2c-0.3,18-2.9,35-6.1,52.7c-2.6,14.5-5.1,29.5-2.6,44.1h56.8
		c-17.1-44.3-15.3-90.1-14.4-136.8c0.4-23.3-1.1-45.9-3.6-69c-2-18.7-0.5-36.1,1.3-54.2c3.3-11.7,8.5-22.9,15.1-33.1
		c8.4-12.6,18.6-23.2,29.8-33.3c8.2-7.3,18.1-16,21.5-26.8c0.5-1.5-1.5-2-2.3-1c-9.7,12.9-23,20.1-34.6,31c5.1-9.6,9-19.7,9.7-31.3
		c0.1-1.3-2.1-1.6-2.3-0.3c-4.6,28.3-29.1,46.9-42.6,70.9c-2.5,4.4-4.7,8.9-6.6,13.6c-0.2-1.3-0.5-2.6-0.7-3.9
		c-1.3-7.4-2.6-14.8-3.7-22.2c0-1.3,0.1-2.6,0.1-3.9c0.9-35.3,0.4-71.2-3.7-106.2c0-0.6-0.5-1.1-1.1-1.1s-1.1,0.5-1.1,1.1
		c-0.3,23.2-0.4,46.3-1,69.4c-5.9-17.4-17.5-32.1-22.9-49.8c-0.2-0.6-0.8-0.9-1.4-0.7c-0.5,0.2-0.9,0.7-0.7,1.3
		c3.4,18.1,13,34.1,17.6,51.9c3.4,13.3,4.5,26.9,5.5,40.5c-1,15.3-2,30.5-0.5,45.8c1.7,17.5,5.3,34.7,4.9,52.3
		c-0.4,12.4-1.6,24.8-3.5,37.1c-8.3-8.8-16.7-17.5-24.9-26.3c-4.5-9.1-7.4-18.8-9.4-29.7c-3-16.2-5-32.5-13.6-46.9
		c-0.1-0.2-0.4-0.2-0.6-0.1c-0.1,0.1-0.2,0.3-0.2,0.4c3.4,16.4,3.4,38.3,7.6,58c-8.2-10-16.2-20.3-25.6-28.8c-0.1-0.1-0.3,0-0.2,0.1
		c6.3,17,18.6,33.1,29,47.8C204.3,326.4,216.1,340.8,229,354.1z"/>
	<path class="st0" d="M229,354.7c-2.1,14.7-4.1,29.4-4.3,44.2c-0.3,18-2.9,35-6.1,52.7c-2.6,14.5-5.1,29.5-2.6,44.1h56.8
		c-17.1-44.3-15.3-90.1-14.4-136.8c0.4-23.3-1.1-45.9-3.6-69c-2-18.7-0.5-36.1,1.3-54.2c3.3-11.7,8.5-22.9,15.1-33.1
		c8.4-12.6,18.6-23.2,29.8-33.3c8.2-7.3,18.1-16,21.5-26.8c0.5-1.5-1.5-2-2.3-1c-9.7,12.9-23,20.1-34.6,31c5.1-9.6,9-19.7,9.7-31.3
		c0.1-1.3-2.1-1.6-2.3-0.3c-4.6,28.3-29.1,46.9-42.6,70.9c-2.5,4.4-4.7,8.9-6.6,13.5c-0.2-1.3-0.5-2.6-0.7-3.9
		c-1.3-7.4-2.6-14.8-3.7-22.2c0-1.3,0.1-2.6,0.1-3.9c0.9-35.3,0.4-71.2-3.7-106.2c0-0.6-0.5-1.1-1.1-1.1s-1.1,0.5-1.1,1.1
		c-0.3,23.2-0.4,46.3-1,69.4c-5.9-17.4-17.5-32-22.9-49.7c-0.2-0.6-0.8-0.9-1.4-0.7c-0.5,0.2-0.9,0.7-0.7,1.3
		c3.4,18.1,13,34.1,17.6,51.9c3.4,13.3,4.5,26.9,5.5,40.5c-1,15.3-2,30.5-0.5,45.8c1.7,17.5,5.3,34.7,4.9,52.3
		c-0.4,12.4-1.6,24.8-3.5,37.1c-8.3-8.8-16.7-17.5-24.9-26.3c-4.5-9.1-7.4-18.8-9.4-29.7c-3-16.2-5-32.5-13.6-46.9
		c-0.1-0.2-0.4-0.2-0.6-0.1c-0.1,0.1-0.2,0.3-0.2,0.4c3.4,16.4,3.4,38.3,7.6,58c-8.2-10-16.2-20.3-25.6-28.8c-0.1-0.1-0.3,0-0.2,0.1
		c6.3,17,18.6,33.1,29,47.8C204.4,327,216.2,341.3,229,354.7z"/>
	<path class="st0" d="M247.9,495.2H216c-2.4-14.6,0-29.6,2.6-44.1c3.2-17.7,5.8-34.7,6.1-52.7c0.2-14.9,2.2-29.6,4.3-44.2
		c-12.8-13.4-24.6-27.8-35.1-43c-10.4-14.7-22.8-30.8-29-47.8c0-0.1,0.1-0.2,0.2-0.1c0.1,0.1,19.4,28.5,28.1,37.7l-2.5-8.9
		c-4.1-19.3-4.2-40.8-7.4-57.1l0.6-1.2c0,0,5.9,19.9,7.4,31.8c1.5,11.9,3,35.4,7.6,42.3s7.6,10.9,13.3,15.6s19.1,18.9,19.1,18.9
		l0.4-5.7c1.9-12.3,3-24.7,3.4-37.1c0.4-17.6-3.2-34.8-4.9-52.3c-1.5-15.3-0.4-30.5,0.5-45.8c-1-13.6-2.1-27.2-5.5-40.5
		c-4.6-17.8-14.1-33.8-17.6-51.9c-0.1-0.6,0.3-1.2,0.8-1.3c0,0,0,0,0.1,0c1.2,6.3,3.2,12.3,6.1,18c6.5,12.6,17.8,41.7,17.8,41.7
		l0.1-9.2c0.6-23.1,0.6-46.2,1-69.4c0,0,0.9,107.7,3.9,128.5s5.6,84.7,6.2,138.1C244.2,400,234.6,443.2,247.9,495.2z M306.6,160.9
		c-7,5.2-25.8,19.3-34.1,30.8s-18.5,27.8-20,36.7s1.2,38.8,1.2,38.8l0,0c0.2-10.5,1.1-20.9,2.2-31.4c3.3-11.7,8.5-22.9,15.1-33.1
		c8.4-12.6,18.6-23.2,29.8-33.3c8.2-7.3,18.1-16,21.5-26.8c0-0.1,0.1-0.2,0-0.4C319.2,147,311.9,157,306.6,160.9L306.6,160.9z"/>
	<path class="st1" d="M367.8,127.6c-7-21.3-26.7-34.8-46.8-34.8c-2-6.3-7.9-12.6-12.5-15.3c-1.6-0.9-3.4-1.7-5.2-2.2
		c-0.7-10.2-5.2-19.9-16.1-23.2c-4.8-1.5-10.8-1-16.6,0.7c-15.7-22.1-57.2-12.2-75.1,2.1s-28.1,40.5-24.1,63.6
		c-4.6,1.4-8.7,4.2-11.6,8.1c-4.6,6.4-5.8,16.2-3.2,24.3c-13.6,7.8-15.8,29.4-11.8,44.3c5.3,19.2,23.6,27.6,39.5,19.6
		c2.9,10.7,9.4,19.2,21.9,22.9c14.2,4.3,32.1,3.1,40-10.3c16.7,24.1,57.7,15.7,66.4-13.7c5.7,3.9,16.3,0.8,21.1-3.1
		c4.4-3.5,7.3-8.5,7.2-14.2c0-1.4-0.3-2.8-0.8-4.2C363,183.7,375.3,150.3,367.8,127.6z"/>
	<path class="st2" d="M362.7,170.8c-15.3,13.8-40.2,15.2-40.2,15.2c-3.5,21.3-26.1,14.5-26.1,14.5c-30,19.3-38.9-27.1-38.9-27.1
		c-21.9,13-28.9-31.2-28.9-31.2s-24.8,1.2-36.5-40.8c-9.6-34.6,21.3-54,32.5-59.7c-11.4,2.6-22.2,7.5-29.3,13.1
		c-17.8,14.2-28.1,40.5-24.1,63.6c-4.6,1.4-8.7,4.2-11.6,8.1c-4.6,6.4-5.8,16.2-3.2,24.3c-13.6,7.8-15.8,29.4-11.8,44.3
		c5.3,19.2,23.6,27.6,39.5,19.6c2.9,10.7,9.4,19.2,21.9,22.9c14.2,4.3,32.1,3.1,40-10.3c16.7,24.1,57.7,15.7,66.4-13.7
		c5.7,3.9,16.3,0.8,21.1-3.1c4.4-3.5,7.3-8.5,7.2-14.2c0-1.4-0.3-2.8-0.8-4.2C349.8,188.6,357.5,180.6,362.7,170.8z"/>
	<path class="st1" d="M251,251.9c-5.6-6.9-15.2-11.1-24.9-13.2c1.1-8.9-1.3-17.9-10.1-22.2c-4.6-2.2-12.6-1.4-19.2,1.5
		c-6.5-13.4-21.9-20.9-37.9-15.7c-9.1,2.9-16.5,9.6-20.1,18.5c-6.8,0-13.4,1.2-19.5,5.1c-10.1,6.6-13.2,19.7-15.5,30.8
		c-3.4,16.4,1.4,34,13.7,44.4c-4,4.8-4.7,11.6-1.9,17.2c4.4,9.6,15,9.8,23,5.4c0.1,6.1,2.4,12.1,6.8,17.8
		c8.8,11.7,18.8,14.6,33,12.7c12.2-1.6,24.9-7.4,30.7-18.8c1.7-3.3,2.6-6.9,2.9-10.6c20.3,1,38.2-17.2,43.7-37.8
		C258.6,275.8,258.8,261.4,251,251.9z"/>
	<path class="st2" d="M138.8,220.7c-6.8,0-13.4,1.2-19.5,5.1c-10,6.7-17,17-19.6,28.8c-3.4,16.4,5.5,36,17.7,46.4
		c-4,4.8-4.7,11.6-1.9,17.2c4.4,9.6,15,9.8,23,5.4c0.1,6.1,2.4,12.1,6.8,17.8c8.8,11.7,18.8,14.6,33,12.7
		c12.2-1.6,24.9-7.4,30.7-18.8c1.7-3.3,2.6-6.9,2.9-10.6c16,0.8,30.4-10.3,38.5-25.1c-13.5,1.7-28.3-18.1-28.3-18.1
		s-0.9,22.6-11.3,30.8S187,301.6,187,301.6s-8.7,12.1-26,6.9s-12.2-28.6-12.2-28.6s-15.6,2.6-28.2-19.1S138.8,220.7,138.8,220.7z"/>
	<path class="st3" d="M229,354.1c-2.1,14.7-4.1,29.4-4.3,44.2c-0.3,18-2.9,35-6.1,52.7c-2.6,14.5-5.1,29.5-2.6,44.1h56.8
		c-17.1-44.3-15.3-90.1-14.4-136.8c0.4-23.3-1.1-45.9-3.6-69c-2-18.7-0.5-36.1,1.3-54.2c3.3-11.7,8.5-22.9,15.1-33.1
		c8.4-12.6,18.6-23.2,29.8-33.3c8.2-7.3,18.1-16,21.5-26.8c0.5-1.5-1.5-2-2.3-1c-9.7,12.9-23,20.1-34.6,31c5.1-9.6,9-19.7,9.7-31.3
		c0.1-1.3-2.1-1.6-2.3-0.3c-4.6,28.3-29.1,46.9-42.6,70.9c-2.5,4.4-4.7,8.9-6.6,13.6c-0.2-1.3-0.5-2.6-0.7-3.9
		c-1.3-7.4-2.6-14.8-3.7-22.2c0-1.3,0.1-2.6,0.1-3.9c0.9-35.3,0.4-71.2-3.7-106.2c0-0.6-0.5-1.1-1.1-1.1s-1.1,0.5-1.1,1.1
		c-0.3,23.2-0.4,46.3-1,69.4c-5.9-17.4-17.5-32.1-22.9-49.8c-0.2-0.6-0.8-0.9-1.4-0.7c-0.5,0.2-0.9,0.7-0.7,1.3
		c3.4,18.1,13,34.1,17.6,51.9c3.4,13.3,4.5,26.9,5.5,40.5c-1,15.3-2,30.5-0.5,45.8c1.7,17.5,5.3,34.7,4.9,52.3
		c-0.4,12.4-1.6,24.8-3.5,37.1c-8.3-8.8-16.7-17.5-24.9-26.3c-4.5-9.1-7.4-18.8-9.4-29.7c-3-16.2-5-32.5-13.6-46.9
		c-0.1-0.2-0.4-0.2-0.6-0.1c-0.1,0.1-0.2,0.3-0.2,0.4c3.4,16.4,3.4,38.3,7.6,58c-8.2-10-16.2-20.3-25.6-28.8c-0.1-0.1-0.3,0-0.2,0.1
		c6.3,17,18.6,33.1,29,47.8C204.3,326.4,216.1,340.8,229,354.1z"/>
	<path class="st3" d="M229,354.7c-2.1,14.7-4.1,29.4-4.3,44.2c-0.3,18-2.9,35-6.1,52.7c-2.6,14.5-5.1,29.5-2.6,44.1h56.8
		c-17.1-44.3-15.3-90.1-14.4-136.8c0.4-23.3-1.1-45.9-3.6-69c-2-18.7-0.5-36.1,1.3-54.2c3.3-11.7,8.5-22.9,15.1-33.1
		c8.4-12.6,18.6-23.2,29.8-33.3c8.2-7.3,18.1-16,21.5-26.8c0.5-1.5-1.5-2-2.3-1c-9.7,12.9-23,20.1-34.6,31c5.1-9.6,9-19.7,9.7-31.3
		c0.1-1.3-2.1-1.6-2.3-0.3c-4.6,28.3-29.1,46.9-42.6,70.9c-2.5,4.4-4.7,8.9-6.6,13.5c-0.2-1.3-0.5-2.6-0.7-3.9
		c-1.3-7.4-2.6-14.8-3.7-22.2c0-1.3,0.1-2.6,0.1-3.9c0.9-35.3,0.4-71.2-3.7-106.2c0-0.6-0.5-1.1-1.1-1.1s-1.1,0.5-1.1,1.1
		c-0.3,23.2-0.4,46.3-1,69.4c-5.9-17.4-17.5-32-22.9-49.7c-0.2-0.6-0.8-0.9-1.4-0.7c-0.5,0.2-0.9,0.7-0.7,1.3
		c3.4,18.1,13,34.1,17.6,51.9c3.4,13.3,4.5,26.9,5.5,40.5c-1,15.3-2,30.5-0.5,45.8c1.7,17.5,5.3,34.7,4.9,52.3
		c-0.4,12.4-1.6,24.8-3.5,37.1c-8.3-8.8-16.7-17.5-24.9-26.3c-4.5-9.1-7.4-18.8-9.4-29.7c-3-16.2-5-32.5-13.6-46.9
		c-0.1-0.2-0.4-0.2-0.6-0.1c-0.1,0.1-0.2,0.3-0.2,0.4c3.4,16.4,3.4,38.3,7.6,58c-8.2-10-16.2-20.3-25.6-28.8c-0.1-0.1-0.3,0-0.2,0.1
		c6.3,17,18.6,33.1,29,47.8C204.4,327,216.2,341.3,229,354.7z"/>
	<path class="st4" d="M247.9,495.2H216c-2.4-14.6,0-29.6,2.6-44.1c3.2-17.7,5.8-34.7,6.1-52.7c0.2-14.9,2.2-29.6,4.3-44.2
		c-12.8-13.4-24.6-27.8-35.1-43c-10.4-14.7-22.8-30.8-29-47.8c0-0.1,0.1-0.2,0.2-0.1c0.1,0.1,19.4,28.5,28.1,37.7l-2.5-8.9
		c-4.1-19.3-4.2-40.8-7.4-57.1l0.6-1.2c0,0,5.9,19.9,7.4,31.8c1.5,11.9,3,35.4,7.6,42.3s7.6,10.9,13.3,15.6s19.1,18.9,19.1,18.9
		l0.4-5.7c1.9-12.3,3-24.7,3.4-37.1c0.4-17.6-3.2-34.8-4.9-52.3c-1.5-15.3-0.4-30.5,0.5-45.8c-1-13.6-2.1-27.2-5.5-40.5
		c-4.6-17.8-14.1-33.8-17.6-51.9c-0.1-0.6,0.3-1.2,0.8-1.3c0,0,0,0,0.1,0c1.2,6.3,3.2,12.3,6.1,18c6.5,12.6,17.8,41.7,17.8,41.7
		l0.1-9.2c0.6-23.1,0.6-46.2,1-69.4c0,0,0.9,107.7,3.9,128.5s5.6,84.7,6.2,138.1C244.2,400,234.6,443.2,247.9,495.2z M306.6,160.9
		c-7,5.2-25.8,19.3-34.1,30.8s-18.5,27.8-20,36.7s1.2,38.8,1.2,38.8l0,0c0.2-10.5,1.1-20.9,2.2-31.4c3.3-11.7,8.5-22.9,15.1-33.1
		c8.4-12.6,18.6-23.2,29.8-33.3c8.2-7.3,18.1-16,21.5-26.8c0-0.1,0.1-0.2,0-0.4C319.2,147,311.9,157,306.6,160.9L306.6,160.9z"/>
</g>
</svg>
