<svg xmlns="http://www.w3.org/2000/svg" viewBox="0 0 566.44 911.62"><defs><style>.cls-1{fill:none;stroke:#282828;stroke-linejoin:round;stroke-width:15px;}.cls-2{fill:#1f1d1f;}.cls-3{fill:#eaddd2;}.cls-4{fill:#957c6e;}.cls-5{fill:#c2ad90;}</style></defs><g id="Layer_4" data-name="Layer 4"><polyline class="cls-1" points="230.63 469.79 242.85 454.87 257.34 435.56 271.01 424.3 286.7 400.16 306.82 356.71 322.11 319.29 336.19 284.69 343.83 264.98 347.86 236.01 357.11 221.13 368.78 189.34 372 173.25 389.29 126.18 408.2 77.1 425.1 42.9 440.92 21.98 440.92 38.34 428.86 46.93 436.9 44.78 435.02 52.02 419.74 79.38 406.59 107.81 400.69 122.03 418.39 90.11 440.92 47.2 458.36 21.98 473.11 7.5 473.11 16.89 468.28 28.42 458.63 31.91 466.14 31.64 453.26 55.51 445.48 60.6 451.65 58.73 417.86 117.73 457.29 55.24 480.08 27.35 500.47 7.5 497.25 23.86 493.76 24.13 495.91 26.01 491.08 35.93 483.3 39.15 487.59 40.76 454.07 85.01 494.83 40.22 512 26.27 521.92 20.11 517.36 35.66 510.66 37.27 513.34 39.69 502.34 55.24 485.98 75.89 465.6 98.69 482.23 83.14 508.51 61.14 526.75 48.8 540.7 42.63 539.63 48.27 535.6 54.7 529.7 57.12 533.46 57.92 525.14 66.51 508.51 82.33 489.74 99.5 473.38 113.44 471.77 117.73 483.57 111.03 507.98 94.94 527.56 83.4 543.11 75.89 556.52 72.14 550.89 81.26 543.65 83.67 547.67 85.28 539.89 92.25 533.99 92.25 536.67 94.4 534.26 97.08 523 97.35 530.24 99.5 523.26 105.66 511.19 113.98 498.86 124.97 521.92 113.71 541.5 105.13 555.18 100.03 558.94 100.3 556.25 106.74 547.13 115.05 534.53 124.71 521.12 134.36 513.34 138.65 512.27 141.6 524.34 139.46 535.87 135.7 543.11 135.44 546.06 138.39 543.11 146.16 535.87 152.33 530.24 156.62 530.24 159.31 537.48 158.77 542.31 160.38 543.38 164.13 542.31 169.23 538.55 173.25 536.67 174.86 538.28 178.88 535.87 184.79 534.26 189.61 529.97 192.83 528.9 200.07 528.9 206.51 532.12 207.85 540.16 212.95 540.43 223.14 538.28 227.43 532.38 229.31 520.31 230.92 506.9 233.33 501.27 235.21 501.54 247.28 514.95 248.35 527.02 250.76 532.65 254.25 534.8 260.69 533.19 267.13 528.9 269.54 524.87 271.95 531.04 273.03 531.58 276.78 529.7 282.14 526.21 284.02 523.53 286.97 524.07 291 524.34 295.56 521.65 299.04 524.07 303.33 525.95 310.04 525.95 313.79 523.53 316.48 518.97 319.43 520.31 324.52 519.51 329.89 516.56 332.84 514.68 333.91 516.29 336.59 516.83 341.69 513.88 345.44 509.59 347.86 510.66 353.22 508.25 357.78 505.29 358.85 507.71 363.41 507.98 368.24 504.76 374.14 499.93 376.02 501 381.92 501 387.82 497.52 389.96 493.76 392.11 494.83 398.01 494.57 402.3 490.27 404.98 492.15 409.01 490.54 417.59 485.71 419.47 479.81 420.27 481.96 425.37 481.16 431.27 478.2 435.29 469.35 435.56 464.53 442 467.21 446.29 483.57 440.39 494.03 439.31 495.37 445.48 496.44 452.99 499.13 452.99 498.86 466.14 509.85 474.45 507.98 479.37 502.88 481.69 497.25 484.91 511.19 488.67 512.8 494.3 518.44 498.32 517.63 502.88 514.68 504.22 516.56 509.85 511.19 512.8 513.61 517.36 514.14 524.34 510.93 528.36 519.24 539.09 519.24 542.58 515.22 544.18 518.17 547.4 516.56 549.01 513.88 550.09 511.19 554.38 516.02 561.35 515.75 565.11 512 569.66 507.17 569.66 507.98 573.69 503.69 574.76 505.29 577.44 502.88 579.32 499.66 579.32 498.32 582 496.98 582 496.71 589.78 494.83 593.53 494.83 595.68 492.69 597.02 488.93 597.02 487.59 599.43 481.16 599.43 480.89 603.19 478.2 609.09 472.31 610.7 469.35 610.7 466.94 612.58 463.45 612.58 458.36 608.82 456.48 612.58 455.41 617.67 449.77 620.89 445.75 620.89 445.48 627.06 443.34 629.21 437.71 634.57 432.88 634.57 427.51 631.62 421.61 626.52 421.35 629.21 419.2 631.35 415.71 634.57 411.96 632.16 404.18 620.36 395.87 601.58 389.96 585.22 386.48 585.49 382.19 587.37 381.92 590.85 379.77 591.92 382.19 595.95 384.33 598.9 384.33 602.92 381.11 606.41 377.09 608.29 379.77 612.85 380.31 617.67 378.16 621.97 372.26 625.99 370.65 627.87 374.41 631.62 373.07 637.52 368.78 641.54 364.75 643.15 362.07 644.49 363.14 647.98 360.73 652 356.71 652 358.58 659.78 356.71 664.07 352.15 667.29 346.78 668.63 346.78 673.73 342.49 677.75 336.06 677.75 339 681.77 339.54 685.53 337.66 690.09 333.11 691.97 328.81 691.97 329.08 697.33 328.81 701.89 325.33 704.3 319.16 704.3 321.04 712.08 320.23 716.11 314.87 719.06 309.77 719.06 310.04 723.88 307.36 723.88 303.33 725.23 303.06 730.59 299.31 736.76 296.63 741.85 290.46 743.73 287.51 743.73 287.24 749.1 284.56 754.19 280.54 755.53 273.56 756.61 271.42 756.61 271.42 760.9 268.47 764.12 262.57 765.99 255.32 764.65 245.94 760.09 242.18 764.38 238.16 767.33 248.62 784.5 247.81 790.94 244.33 795.5 237.89 798.71 231.72 796.3 227.97 794.96 226.36 798.71 221.53 799.79 217.24 799.79 217.24 806.49 216.17 811.86 211.88 814.54 207.58 817.76 198.2 817.76 196.32 824.46 191.22 828.49 186.4 830.63 179.42 825.53 179.42 838.68 175.4 846.46 170.03 849.94 164.4 845.92 157.7 833.31 143.75 803.27 141.87 822.85 140.53 830.36 135.7 836 135.7 865.77 123.63 856.11 133.83 867.91 133.29 877.3 131.41 874.62 131.14 892.32 129 895 128.73 901.17 125.24 904.12 120.95 899.83 115.86 882.66 113.71 820.44 111.03 810.78 111.03 818.83 107.54 820.44 109.69 822.32 108.61 833.85 105.13 857.18 101.91 875.42 96.55 891.25 91.99 890.17 94.94 894.46 93.33 900.37 88.5 904.12 85.01 896.07 82.6 879.45 85.01 846.99 89.03 812.66 77.77 855.04 73.21 868.98 68.11 878.64 63.29 878.37 67.04 882.39 63.29 887.76 58.19 893.66 55.51 893.12 54.44 879.71 55.51 859.06 61.95 834.92 69.19 811.32 60.34 829.83 52.29 845.11 48.54 853.97 45.32 855.04 46.93 857.18 43.98 861.74 38.88 865.77 34.05 870.06 28.96 872.2 28.96 859.06 34.59 838.95 47.2 812.93 59.26 787.99 48 801.13 41.03 809.98 37 808.37 38.08 811.86 34.32 816.42 26.54 820.98 20.64 824.46 20.64 819.9 24.4 808.64 31.64 799.79 25.47 803.81 20.64 808.1 10.45 808.91 7.5 808.1 9.11 802.47 21.18 788.25 47.46 764.12 70.8 734.61 83.94 717.45 116.12 675.07 135.17 653.08 164.94 611.5 198.2 561.62 219.12 525.41 222.05 508.68 230.63 469.79"/><polyline class="cls-1" points="230.63 469.79 242.85 454.87 257.34 435.56 271.01 424.3 286.7 400.16 306.82 356.71 322.11 319.29 336.19 284.69 343.83 264.98 347.86 236.01 357.11 221.13 368.78 189.34 372 173.25 389.29 126.18 408.2 77.1 425.1 42.9 440.92 21.98 440.92 38.34 428.86 46.93 436.9 44.78 435.02 52.02 419.74 79.38 406.59 107.81 400.69 122.03 418.39 90.11 440.92 47.2 458.36 21.98 473.11 7.5 473.11 16.89 468.28 28.42 458.63 31.91 466.14 31.64 453.26 55.51 445.48 60.6 451.65 58.73 417.86 117.73 457.29 55.24 480.08 27.35 500.47 7.5 497.25 23.86 493.76 24.13 495.91 26.01 491.08 35.93 483.3 39.15 487.59 40.76 454.07 85.01 494.83 40.22 512 26.27 521.92 20.11 517.36 35.66 510.66 37.27 513.34 39.69 502.34 55.24 485.98 75.89 465.6 98.69 482.23 83.14 508.51 61.14 526.75 48.8 540.7 42.63 539.63 48.27 535.6 54.7 529.7 57.12 533.46 57.92 525.14 66.51 508.51 82.33 489.74 99.5 473.38 113.44 471.77 117.73 483.57 111.03 507.98 94.94 527.56 83.4 543.11 75.89 556.52 72.14 550.89 81.26 543.65 83.67 547.67 85.28 539.89 92.25 533.99 92.25 536.67 94.4 534.26 97.08 523 97.35 530.24 99.5 523.26 105.66 511.19 113.98 498.86 124.97 521.92 113.71 541.5 105.13 555.18 100.03 558.94 100.3 556.25 106.74 547.13 115.05 534.53 124.71 521.12 134.36 513.34 138.65 512.27 141.6 524.34 139.46 535.87 135.7 543.11 135.44 546.06 138.39 543.11 146.16 535.87 152.33 530.24 156.62 530.24 159.31 537.48 158.77 542.31 160.38 543.38 164.13 542.31 169.23 538.55 173.25 536.67 174.86 538.28 178.88 535.87 184.79 534.26 189.61 529.97 192.83 528.9 200.07 528.9 206.51 532.12 207.85 540.16 212.95 540.43 223.14 538.28 227.43 532.38 229.31 520.31 230.92 506.9 233.33 501.27 235.21 501.54 247.28 514.95 248.35 527.02 250.76 532.65 254.25 534.8 260.69 533.19 267.13 528.9 269.54 524.87 271.95 531.04 273.03 531.58 276.78 529.7 282.14 526.21 284.02 523.53 286.97 524.07 291 524.34 295.56 521.65 299.04 524.07 303.33 525.95 310.04 525.95 313.79 523.53 316.48 518.97 319.43 520.31 324.52 519.51 329.89 516.56 332.84 514.68 333.91 516.29 336.59 516.83 341.69 513.88 345.44 509.59 347.86 510.66 353.22 508.25 357.78 505.29 358.85 507.71 363.41 507.98 368.24 504.76 374.14 499.93 376.02 501 381.92 501 387.82 497.52 389.96 493.76 392.11 494.83 398.01 494.57 402.3 490.27 404.98 492.15 409.01 490.54 417.59 485.71 419.47 479.81 420.27 481.96 425.37 481.16 431.27 478.2 435.29 469.35 435.56 464.53 442 467.21 446.29 483.57 440.39 494.03 439.31 495.37 445.48 496.44 452.99 499.13 452.99 498.86 466.14 509.85 474.45 507.98 479.37 502.88 481.69 497.25 484.91 511.19 488.67 512.8 494.3 518.44 498.32 517.63 502.88 514.68 504.22 516.56 509.85 511.19 512.8 513.61 517.36 514.14 524.34 510.93 528.36 519.24 539.09 519.24 542.58 515.22 544.18 518.17 547.4 516.56 549.01 513.88 550.09 511.19 554.38 516.02 561.35 515.75 565.11 512 569.66 507.17 569.66 507.98 573.69 503.69 574.76 505.29 577.44 502.88 579.32 499.66 579.32 498.32 582 496.98 582 496.71 589.78 494.83 593.53 494.83 595.68 492.69 597.02 488.93 597.02 487.59 599.43 481.16 599.43 480.89 603.19 478.2 609.09 472.31 610.7 469.35 610.7 466.94 612.58 463.45 612.58 458.36 608.82 456.48 612.58 455.41 617.67 449.77 620.89 445.75 620.89 445.48 627.06 443.34 629.21 437.71 634.57 432.88 634.57 427.51 631.62 421.61 626.52 421.35 629.21 419.2 631.35 415.71 634.57 411.96 632.16 404.18 620.36 395.87 601.58 389.96 585.22 386.48 585.49 382.19 587.37 381.92 590.85 379.77 591.92 382.19 595.95 384.33 598.9 384.33 602.92 381.11 606.41 377.09 608.29 379.77 612.85 380.31 617.67 378.16 621.97 372.26 625.99 370.65 627.87 374.41 631.62 373.07 637.52 368.78 641.54 364.75 643.15 362.07 644.49 363.14 647.98 360.73 652 356.71 652 358.58 659.78 356.71 664.07 352.15 667.29 346.78 668.63 346.78 673.73 342.49 677.75 336.06 677.75 339 681.77 339.54 685.53 337.66 690.09 333.11 691.97 328.81 691.97 329.08 697.33 328.81 701.89 325.33 704.3 319.16 704.3 321.04 712.08 320.23 716.11 314.87 719.06 309.77 719.06 310.04 723.88 307.36 723.88 303.33 725.23 303.06 730.59 299.31 736.76 296.63 741.85 290.46 743.73 287.51 743.73 287.24 749.1 284.56 754.19 280.54 755.53 273.56 756.61 271.42 756.61 271.42 760.9 268.47 764.12 262.57 765.99 255.32 764.65 245.94 760.09 242.18 764.38 238.16 767.33 248.62 784.5 247.81 790.94 244.33 795.5 237.89 798.71 231.72 796.3 227.97 794.96 226.36 798.71 221.53 799.79 217.24 799.79 217.24 806.49 216.17 811.86 211.88 814.54 207.58 817.76 198.2 817.76 196.32 824.46 191.22 828.49 186.4 830.63 179.42 825.53 179.42 838.68 175.4 846.46 170.03 849.94 164.4 845.92 157.7 833.31 143.75 803.27 141.87 822.85 140.53 830.36 135.7 836 135.7 865.77 123.63 856.11 133.83 867.91 133.29 877.3 131.41 874.62 131.14 892.32 129 895 128.73 901.17 125.24 904.12 120.95 899.83 115.86 882.66 113.71 820.44 111.03 810.78 111.03 818.83 107.54 820.44 109.69 822.32 108.61 833.85 105.13 857.18 101.91 875.42 96.55 891.25 91.99 890.17 94.94 894.46 93.33 900.37 88.5 904.12 85.01 896.07 82.6 879.45 85.01 846.99 89.03 812.66 77.77 855.04 73.21 868.98 68.11 878.64 63.29 878.37 67.04 882.39 63.29 887.76 58.19 893.66 55.51 893.12 54.44 879.71 55.51 859.06 61.95 834.92 69.19 811.32 60.34 829.83 52.29 845.11 48.54 853.97 45.32 855.04 46.93 857.18 43.98 861.74 38.88 865.77 34.05 870.06 28.96 872.2 28.96 859.06 34.59 838.95 47.2 812.93 59.26 787.99 48 801.13 41.03 809.98 37 808.37 38.08 811.86 34.32 816.42 26.54 820.98 20.64 824.46 20.64 819.9 24.4 808.64 31.64 799.79 25.47 803.81 20.64 808.1 10.45 808.91 7.5 808.1 9.11 802.47 21.18 788.25 47.46 764.12 70.8 734.61 83.94 717.45 116.12 675.07 135.17 653.08 164.94 611.5 198.2 561.62 219.12 525.41 222.05 508.68 230.63 469.79"/><polygon class="cls-1" points="175.94 500.47 172.18 492.42 172.18 486.25 176.87 482.23 191.16 477.2 201.01 473.78 217.91 469.56 226.56 468.35 232.79 470.56 244.06 476.8 254.52 484.41 263.17 487.06 267.8 484.41 269 487.86 266.99 498.92 256.33 515.82 252.31 524.87 249.29 526.68 239.63 519.04 230.58 511.6 224.35 508.78 214.89 508.38 207.65 505.16 202.42 501.74 196.99 499.13 191.36 497.52 183.91 495.91 180.09 495.91 177.28 497.52 175.94 500.47"/><polygon class="cls-1" points="175.94 500.47 172.18 492.42 172.18 486.25 176.87 482.23 191.16 477.2 201.01 473.78 217.91 469.56 226.56 468.35 232.79 470.56 244.06 476.8 254.52 484.41 263.17 487.06 267.8 484.41 269 487.86 266.99 498.92 256.33 515.82 252.31 524.87 249.29 526.68 239.63 519.04 230.58 511.6 224.35 508.78 214.89 508.38 207.65 505.16 202.42 501.74 196.99 499.13 191.36 497.52 183.91 495.91 180.09 495.91 177.28 497.52 175.94 500.47"/><polygon class="cls-1" points="175.94 500.47 173.52 491.88 175.94 485.18 185.32 481.42 208.12 473.65 225.55 470.69 243.25 479.37 257.34 488.26 268.3 491.72 266.99 498.92 256.33 515.82 252.31 524.87 236.82 512.4 229.98 508.38 224.35 508.78 214.89 508.38 207.65 505.16 202.42 501.74 196.99 499.13 191.36 497.52 183.91 495.91 180.09 495.91 177.28 497.52 175.94 500.47"/><polygon class="cls-1" points="230.63 469.79 242.85 454.87 257.34 435.56 271.01 424.3 286.7 400.16 306.82 356.71 343.83 264.98 339.81 284.29 322.51 331.36 306.02 372.4 291.53 404.58 274.23 428.32 259.35 439.18 245.67 458.49 234.98 471.77 230.63 469.79"/><polygon class="cls-1" points="222.05 508.68 219.12 525.41 198.2 561.62 164.94 611.5 135.17 653.08 116.12 675.07 136.24 658.71 161.45 622.77 185.05 589.51 214.02 544.45 225.82 522.46 224.35 508.78 222.05 508.68"/><polygon class="cls-1" points="264.98 526.68 287.23 543.38 314.37 550.83 325.33 553.84 384.06 561.89 446.82 566.71 417.86 560.28 384.06 557.06 343.83 551.43 295.56 540.97 264.98 526.68"/><polygon class="cls-1" points="421.88 552.23 435.56 559.47 489.47 559.47 442 546.7 421.88 552.23"/><polygon class="cls-1" points="434.76 532.92 446.82 542.58 493.49 553.09 455.68 526.68 434.76 532.92"/><polygon class="cls-1" points="244.06 476.8 276.25 468.35 292.34 485.45 279.46 497.78 269 487.86 263.17 487.06 254.52 484.41 244.06 476.8"/><path class="cls-1" d="M617.83,446l-5.63-12.07h13.68s7.24-24.14,8.85-26.55-5.63-14.48-5.63-14.48h12.07l24.94-39.43,8-59.54,4-39.43,6.44,11.27v66l-12.88,51.5-23.33,18.51-13.68,26.55-6.44,12.07Z" transform="translate(-300.55 -28.96)"/><polygon class="cls-1" points="244.06 543.38 230.63 553.09 230.63 566.71 220.59 586.83 206.24 586.83 206.24 608.55 192.92 631.89 150.72 675.07 181.3 656.03 207.85 631.08 225.82 594.88 244.06 579.59 244.06 543.38"/><polyline class="cls-2" points="230.63 469.79 242.85 454.87 257.34 435.56 271.01 424.3 286.7 400.16 306.82 356.71 322.11 319.29 336.19 284.69 343.83 264.98 347.86 236.01 357.11 221.13 368.78 189.34 372 173.25 389.29 126.18 408.2 77.1 425.1 42.9 440.92 21.98 440.92 38.34 428.86 46.93 436.9 44.78 435.02 52.02 419.74 79.38 406.59 107.81 400.69 122.03 418.39 90.11 440.92 47.2 458.36 21.98 473.11 7.5 473.11 16.89 468.28 28.42 458.63 31.91 466.14 31.64 453.26 55.51 445.48 60.6 451.65 58.73 417.86 117.73 457.29 55.24 480.08 27.35 500.47 7.5 497.25 23.86 493.76 24.13 495.91 26.01 491.08 35.93 483.3 39.15 487.59 40.76 454.07 85.01 494.83 40.22 512 26.27 521.92 20.11 517.36 35.66 510.66 37.27 513.34 39.69 502.34 55.24 485.98 75.89 465.6 98.69 482.23 83.14 508.51 61.14 526.75 48.8 540.7 42.63 539.63 48.27 535.6 54.7 529.7 57.12 533.46 57.92 525.14 66.51 508.51 82.33 489.74 99.5 473.38 113.44 471.77 117.73 483.57 111.03 507.98 94.94 527.56 83.4 543.11 75.89 556.52 72.14 550.89 81.26 543.65 83.67 547.67 85.28 539.89 92.25 533.99 92.25 536.67 94.4 534.26 97.08 523 97.35 530.24 99.5 523.26 105.66 511.19 113.98 498.86 124.97 521.92 113.71 541.5 105.13 555.18 100.03 558.94 100.3 556.25 106.74 547.13 115.05 534.53 124.71 521.12 134.36 513.34 138.65 512.27 141.6 524.34 139.46 535.87 135.7 543.11 135.44 546.06 138.39 543.11 146.16 535.87 152.33 530.24 156.62 530.24 159.31 537.48 158.77 542.31 160.38 543.38 164.13 542.31 169.23 538.55 173.25 536.67 174.86 538.28 178.88 535.87 184.79 534.26 189.61 529.97 192.83 528.9 200.07 528.9 206.51 532.12 207.85 540.16 212.95 540.43 223.14 538.28 227.43 532.38 229.31 520.31 230.92 506.9 233.33 501.27 235.21 501.54 247.28 514.95 248.35 527.02 250.76 532.65 254.25 534.8 260.69 533.19 267.13 528.9 269.54 524.87 271.95 531.04 273.03 531.58 276.78 529.7 282.14 526.21 284.02 523.53 286.97 524.07 291 524.34 295.56 521.65 299.04 524.07 303.33 525.95 310.04 525.95 313.79 523.53 316.48 518.97 319.43 520.31 324.52 519.51 329.89 516.56 332.84 514.68 333.91 516.29 336.59 516.83 341.69 513.88 345.44 509.59 347.86 510.66 353.22 508.25 357.78 505.29 358.85 507.71 363.41 507.98 368.24 504.76 374.14 499.93 376.02 501 381.92 501 387.82 497.52 389.96 493.76 392.11 494.83 398.01 494.57 402.3 490.27 404.98 492.15 409.01 490.54 417.59 485.71 419.47 479.81 420.27 481.96 425.37 481.16 431.27 478.2 435.29 469.35 435.56 464.53 442 467.21 446.29 483.57 440.39 494.03 439.31 495.37 445.48 496.44 452.99 499.13 452.99 498.86 466.14 509.85 474.45 507.98 479.37 502.88 481.69 497.25 484.91 511.19 488.67 512.8 494.3 518.44 498.32 517.63 502.88 514.68 504.22 516.56 509.85 511.19 512.8 513.61 517.36 514.14 524.34 510.93 528.36 519.24 539.09 519.24 542.58 515.22 544.18 518.17 547.4 516.56 549.01 513.88 550.09 511.19 554.38 516.02 561.35 515.75 565.11 512 569.66 507.17 569.66 507.98 573.69 503.69 574.76 505.29 577.44 502.88 579.32 499.66 579.32 498.32 582 496.98 582 496.71 589.78 494.83 593.53 494.83 595.68 492.69 597.02 488.93 597.02 487.59 599.43 481.16 599.43 480.89 603.19 478.2 609.09 472.31 610.7 469.35 610.7 466.94 612.58 463.45 612.58 458.36 608.82 456.48 612.58 455.41 617.67 449.77 620.89 445.75 620.89 445.48 627.06 443.34 629.21 437.71 634.57 432.88 634.57 427.51 631.62 421.61 626.52 421.35 629.21 419.2 631.35 415.71 634.57 411.96 632.16 404.18 620.36 395.87 601.58 389.96 585.22 386.48 585.49 382.19 587.37 381.92 590.85 379.77 591.92 382.19 595.95 384.33 598.9 384.33 602.92 381.11 606.41 377.09 608.29 379.77 612.85 380.31 617.67 378.16 621.97 372.26 625.99 370.65 627.87 374.41 631.62 373.07 637.52 368.78 641.54 364.75 643.15 362.07 644.49 363.14 647.98 360.73 652 356.71 652 358.58 659.78 356.71 664.07 352.15 667.29 346.78 668.63 346.78 673.73 342.49 677.75 336.06 677.75 339 681.77 339.54 685.53 337.66 690.09 333.11 691.97 328.81 691.97 329.08 697.33 328.81 701.89 325.33 704.3 319.16 704.3 321.04 712.08 320.23 716.11 314.87 719.06 309.77 719.06 310.04 723.88 307.36 723.88 303.33 725.23 303.06 730.59 299.31 736.76 296.63 741.85 290.46 743.73 287.51 743.73 287.24 749.1 284.56 754.19 280.54 755.53 273.56 756.61 271.42 756.61 271.42 760.9 268.47 764.12 262.57 765.99 255.32 764.65 245.94 760.09 242.18 764.38 238.16 767.33 248.62 784.5 247.81 790.94 244.33 795.5 237.89 798.71 231.72 796.3 227.97 794.96 226.36 798.71 221.53 799.79 217.24 799.79 217.24 806.49 216.17 811.86 211.88 814.54 207.58 817.76 198.2 817.76 196.32 824.46 191.22 828.49 186.4 830.63 179.42 825.53 179.42 838.68 175.4 846.46 170.03 849.94 164.4 845.92 157.7 833.31 143.75 803.27 141.87 822.85 140.53 830.36 135.7 836 135.7 865.77 123.63 856.11 133.83 867.91 133.29 877.3 131.41 874.62 131.14 892.32 129 895 128.73 901.17 125.24 904.12 120.95 899.83 115.86 882.66 113.71 820.44 111.03 810.78 111.03 818.83 107.54 820.44 109.69 822.32 108.61 833.85 105.13 857.18 101.91 875.42 96.55 891.25 91.99 890.17 94.94 894.46 93.33 900.37 88.5 904.12 85.01 896.07 82.6 879.45 85.01 846.99 89.03 812.66 77.77 855.04 73.21 868.98 68.11 878.64 63.29 878.37 67.04 882.39 63.29 887.76 58.19 893.66 55.51 893.12 54.44 879.71 55.51 859.06 61.95 834.92 69.19 811.32 60.34 829.83 52.29 845.11 48.54 853.97 45.32 855.04 46.93 857.18 43.98 861.74 38.88 865.77 34.05 870.06 28.96 872.2 28.96 859.06 34.59 838.95 47.2 812.93 59.26 787.99 48 801.13 41.03 809.98 37 808.37 38.08 811.86 34.32 816.42 26.54 820.98 20.64 824.46 20.64 819.9 24.4 808.64 31.64 799.79 25.47 803.81 20.64 808.1 10.45 808.91 7.5 808.1 9.11 802.47 21.18 788.25 47.46 764.12 70.8 734.61 83.94 717.45 116.12 675.07 135.17 653.08 164.94 611.5 198.2 561.62 219.12 525.41 222.05 508.68 230.63 469.79"/><polygon class="cls-3" points="175.94 500.47 172.18 492.42 172.18 486.25 176.87 482.23 191.16 477.2 201.01 473.78 217.91 469.56 226.56 468.35 232.79 470.56 244.06 476.8 254.52 484.41 263.17 487.06 267.8 484.41 269 487.86 266.99 498.92 256.33 515.82 252.31 524.87 249.29 526.68 239.63 519.04 230.58 511.6 224.35 508.78 214.89 508.38 207.65 505.16 202.42 501.74 196.99 499.13 191.36 497.52 183.91 495.91 180.09 495.91 177.28 497.52 175.94 500.47"/><polygon class="cls-4" points="175.94 500.47 173.52 491.88 175.94 485.18 185.32 481.42 208.12 473.65 225.55 470.69 243.25 479.37 257.34 488.26 268.3 491.72 266.99 498.92 256.33 515.82 252.31 524.87 236.82 512.4 229.98 508.38 224.35 508.78 214.89 508.38 207.65 505.16 202.42 501.74 196.99 499.13 191.36 497.52 183.91 495.91 180.09 495.91 177.28 497.52 175.94 500.47"/><polygon class="cls-5" points="230.63 469.79 242.85 454.87 257.34 435.56 271.01 424.3 286.7 400.16 306.82 356.71 343.83 264.98 339.81 284.29 322.51 331.36 306.02 372.4 291.53 404.58 274.23 428.32 259.35 439.18 245.67 458.49 234.98 471.77 230.63 469.79"/><polygon class="cls-5" points="222.05 508.68 219.12 525.41 198.2 561.62 164.94 611.5 135.17 653.08 116.12 675.07 136.24 658.71 161.45 622.77 185.05 589.51 214.02 544.45 225.82 522.46 224.35 508.78 222.05 508.68"/><polygon class="cls-5" points="264.98 526.68 287.23 543.38 314.37 550.83 325.33 553.84 384.06 561.89 446.82 566.71 417.86 560.28 384.06 557.06 343.83 551.43 295.56 540.97 264.98 526.68"/><polygon class="cls-5" points="421.88 552.23 435.56 559.47 489.47 559.47 442 546.7 421.88 552.23"/><polygon class="cls-5" points="434.76 532.92 446.82 542.58 493.49 553.09 455.68 526.68 434.76 532.92"/><polygon class="cls-5" points="244.06 476.8 276.25 468.35 292.34 485.45 279.46 497.78 269 487.86 263.17 487.06 254.52 484.41 244.06 476.8"/><path class="cls-5" d="M617.83,446l-5.63-12.07h13.68s7.24-24.14,8.85-26.55-5.63-14.48-5.63-14.48h12.07l24.94-39.43,8-59.54,4-39.43,6.44,11.27v66l-12.88,51.5-23.33,18.51-13.68,26.55-6.44,12.07Z" transform="translate(-300.55 -28.96)"/><polygon class="cls-5" points="244.06 543.38 230.63 553.09 230.63 566.71 220.59 586.83 206.24 586.83 206.24 608.55 192.92 631.89 150.72 675.07 181.3 656.03 207.85 631.08 225.82 594.88 244.06 579.59 244.06 543.38"/></g></svg>