<svg xmlns="http://www.w3.org/2000/svg" viewBox="0 0 551.44 896.62"><defs><style>.cls-1{fill:#1f1d1f;}.cls-2{fill:#eaddd2;}.cls-3{fill:#957c6e;}.cls-4{fill:#c2ad90;}</style></defs><g id="Layer_3" data-name="Layer 3"><polyline class="cls-1" points="223.13 462.29 235.35 447.37 249.84 428.06 263.51 416.8 279.2 392.66 299.32 349.21 314.61 311.79 328.69 277.19 336.33 257.48 340.36 228.51 349.61 213.63 361.28 181.84 364.5 165.75 381.79 118.68 400.7 69.6 417.6 35.4 433.42 14.48 433.42 30.84 421.36 39.43 429.4 37.28 427.52 44.52 412.24 71.88 399.09 100.31 393.19 114.53 410.89 82.61 433.42 39.7 450.86 14.48 465.61 0 465.61 9.39 460.78 20.92 451.13 24.41 458.64 24.14 445.76 48.01 437.98 53.1 444.15 51.23 410.36 110.23 449.79 47.74 472.58 19.85 492.97 0 489.75 16.36 486.26 16.63 488.41 18.51 483.58 28.43 475.8 31.65 480.09 33.26 446.57 77.51 487.33 32.72 504.5 18.77 514.42 12.61 509.86 28.16 503.16 29.77 505.84 32.19 494.84 47.74 478.48 68.39 458.1 91.19 474.73 75.64 501.01 53.64 519.25 41.3 533.2 35.13 532.13 40.77 528.1 47.2 522.2 49.62 525.96 50.42 517.64 59.01 501.01 74.83 482.24 92 465.88 105.94 464.27 110.23 476.07 103.53 500.48 87.44 520.06 75.9 535.61 68.39 549.02 64.64 543.39 73.76 536.15 76.17 540.17 77.78 532.39 84.75 526.49 84.75 529.17 86.9 526.76 89.58 515.5 89.85 522.74 92 515.76 98.16 503.69 106.48 491.36 117.47 514.42 106.21 534 97.63 547.68 92.53 551.44 92.8 548.75 99.24 539.63 107.55 527.03 117.21 513.62 126.86 505.84 131.15 504.77 134.1 516.84 131.96 528.37 128.2 535.61 127.94 538.56 130.89 535.61 138.66 528.37 144.83 522.74 149.12 522.74 151.81 529.98 151.27 534.81 152.88 535.88 156.63 534.81 161.73 531.05 165.75 529.17 167.36 530.78 171.38 528.37 177.29 526.76 182.11 522.47 185.33 521.4 192.57 521.4 199.01 524.62 200.35 532.66 205.45 532.93 215.64 530.78 219.93 524.88 221.81 512.81 223.42 499.4 225.83 493.77 227.71 494.04 239.78 507.45 240.85 519.52 243.26 525.15 246.75 527.3 253.19 525.69 259.63 521.4 262.04 517.37 264.45 523.54 265.53 524.08 269.28 522.2 274.64 518.71 276.52 516.03 279.47 516.57 283.5 516.84 288.06 514.15 291.54 516.57 295.83 518.45 302.54 518.45 306.29 516.03 308.98 511.47 311.93 512.81 317.02 512.01 322.39 509.06 325.34 507.18 326.41 508.79 329.09 509.33 334.19 506.38 337.94 502.09 340.36 503.16 345.72 500.75 350.28 497.79 351.35 500.21 355.91 500.48 360.74 497.26 366.64 492.43 368.52 493.5 374.42 493.5 380.32 490.02 382.46 486.26 384.61 487.33 390.51 487.07 394.8 482.77 397.48 484.65 401.51 483.04 410.09 478.21 411.97 472.31 412.77 474.46 417.87 473.66 423.77 470.7 427.79 461.85 428.06 457.03 434.5 459.71 438.79 476.07 432.89 486.53 431.81 487.87 437.98 488.94 445.49 491.63 445.49 491.36 458.64 502.35 466.95 500.48 471.87 495.38 474.19 489.75 477.41 503.69 481.17 505.3 486.8 510.94 490.82 510.13 495.38 507.18 496.72 509.06 502.35 503.69 505.3 506.11 509.86 506.64 516.84 503.43 520.86 511.74 531.59 511.74 535.08 507.72 536.68 510.67 539.9 509.06 541.51 506.38 542.59 503.69 546.88 508.52 553.85 508.25 557.61 504.5 562.16 499.67 562.16 500.48 566.19 496.19 567.26 497.79 569.94 495.38 571.82 492.16 571.82 490.82 574.5 489.48 574.5 489.21 582.28 487.33 586.03 487.33 588.18 485.19 589.52 481.43 589.52 480.09 591.93 473.66 591.93 473.39 595.69 470.7 601.59 464.81 603.2 461.85 603.2 459.44 605.08 455.95 605.08 450.86 601.32 448.98 605.08 447.91 610.17 442.27 613.39 438.25 613.39 437.98 619.56 435.84 621.71 430.21 627.07 425.38 627.07 420.01 624.12 414.11 619.02 413.85 621.71 411.7 623.85 408.21 627.07 404.46 624.66 396.68 612.86 388.37 594.08 382.46 577.72 378.98 577.99 374.69 579.87 374.42 583.35 372.27 584.42 374.69 588.45 376.83 591.4 376.83 595.42 373.61 598.91 369.59 600.79 372.27 605.35 372.81 610.17 370.66 614.47 364.76 618.49 363.15 620.37 366.91 624.12 365.57 630.02 361.28 634.04 357.25 635.65 354.57 636.99 355.64 640.48 353.23 644.5 349.21 644.5 351.08 652.28 349.21 656.57 344.65 659.79 339.28 661.13 339.28 666.23 334.99 670.25 328.56 670.25 331.5 674.27 332.04 678.03 330.16 682.59 325.61 684.47 321.31 684.47 321.58 689.83 321.31 694.39 317.83 696.8 311.66 696.8 313.54 704.58 312.73 708.61 307.37 711.56 302.27 711.56 302.54 716.38 299.86 716.38 295.83 717.73 295.56 723.09 291.81 729.26 289.13 734.35 282.96 736.23 280.01 736.23 279.74 741.6 277.06 746.69 273.04 748.03 266.06 749.11 263.92 749.11 263.92 753.4 260.97 756.62 255.07 758.49 247.82 757.15 238.44 752.59 234.68 756.88 230.66 759.83 241.12 777 240.31 783.44 236.83 788 230.39 791.21 224.22 788.8 220.47 787.46 218.86 791.21 214.03 792.29 209.74 792.29 209.74 798.99 208.67 804.36 204.38 807.04 200.08 810.26 190.7 810.26 188.82 816.96 183.72 820.99 178.9 823.13 171.92 818.03 171.92 831.18 167.9 838.96 162.53 842.44 156.9 838.42 150.2 825.81 136.25 795.77 134.37 815.35 133.03 822.86 128.2 828.5 128.2 858.27 116.13 848.61 126.33 860.41 125.79 869.8 123.91 867.12 123.64 884.82 121.5 887.5 121.23 893.67 117.74 896.62 113.45 892.33 108.36 875.16 106.21 812.94 103.53 803.28 103.53 811.33 100.04 812.94 102.19 814.82 101.11 826.35 97.63 849.68 94.41 867.92 89.05 883.75 84.49 882.67 87.44 886.96 85.83 892.87 81 896.62 77.51 888.57 75.1 871.95 77.51 839.49 81.53 805.16 70.27 847.54 65.71 861.48 60.62 871.14 55.79 870.87 59.54 874.89 55.79 880.26 50.69 886.16 48.01 885.62 46.94 872.21 48.01 851.56 54.45 827.42 61.69 803.82 52.84 822.33 44.79 837.61 41.04 846.47 37.82 847.54 39.43 849.68 36.48 854.24 31.38 858.27 26.55 862.56 21.46 864.7 21.46 851.56 27.09 831.45 39.7 805.43 51.76 780.49 40.5 793.63 33.53 802.48 29.5 800.87 30.58 804.36 26.82 808.92 19.04 813.48 13.14 816.96 13.14 812.4 16.9 801.14 24.14 792.29 17.97 796.31 13.14 800.6 2.95 801.41 0 800.6 1.61 794.97 13.68 780.75 39.96 756.62 63.3 727.11 76.44 709.95 108.62 667.57 127.67 645.58 157.44 604 190.7 554.12 211.62 517.91 214.55 501.18 223.13 462.29"/></g><g id="Layer_2" data-name="Layer 2"><polygon class="cls-2" points="168.44 492.97 164.68 484.92 164.68 478.75 169.37 474.73 183.66 469.7 193.51 466.28 210.41 462.06 219.06 460.85 225.29 463.06 236.56 469.3 247.02 476.91 255.67 479.56 260.3 476.91 261.5 480.36 259.49 491.42 248.83 508.32 244.81 517.37 241.79 519.18 232.13 511.54 223.08 504.1 216.85 501.28 207.39 500.88 200.15 497.66 194.92 494.24 189.49 491.63 183.86 490.02 176.41 488.41 172.59 488.41 169.78 490.02 168.44 492.97"/></g><g id="Layer_4" data-name="Layer 4"><polygon class="cls-3" points="168.44 492.97 166.02 484.38 168.44 477.68 177.82 473.92 200.62 466.15 218.05 463.19 235.75 471.87 249.84 480.76 260.8 484.22 259.49 491.42 248.83 508.32 244.81 517.37 229.32 504.9 222.48 500.88 216.85 501.28 207.39 500.88 200.15 497.66 194.92 494.24 189.49 491.63 183.86 490.02 176.41 488.41 172.59 488.41 169.78 490.02 168.44 492.97"/><polygon class="cls-4" points="223.13 462.29 235.35 447.37 249.84 428.06 263.51 416.8 279.2 392.66 299.32 349.21 336.33 257.48 332.31 276.79 315.01 323.86 298.52 364.9 284.03 397.08 266.73 420.82 251.85 431.68 238.17 450.99 227.48 464.27 223.13 462.29"/><polygon class="cls-4" points="214.55 501.18 211.62 517.91 190.7 554.12 157.44 604 127.67 645.58 108.62 667.57 128.74 651.21 153.95 615.27 177.55 582.01 206.52 536.95 218.32 514.96 216.85 501.28 214.55 501.18"/><polygon class="cls-4" points="257.48 519.18 279.73 535.88 306.87 543.33 317.83 546.34 376.56 554.39 439.32 559.21 410.36 552.78 376.56 549.56 336.33 543.93 288.06 533.47 257.48 519.18"/><polygon class="cls-4" points="414.38 544.73 428.06 551.97 481.97 551.97 434.5 539.2 414.38 544.73"/><polygon class="cls-4" points="427.26 525.42 439.32 535.08 485.99 545.59 448.18 519.18 427.26 525.42"/><polygon class="cls-4" points="236.56 469.3 268.75 460.85 284.84 477.95 271.96 490.28 261.5 480.36 255.67 479.56 247.02 476.91 236.56 469.3"/><path class="cls-4" d="M617.83,446l-5.63-12.07h13.68s7.24-24.14,8.85-26.55-5.63-14.48-5.63-14.48h12.07l24.94-39.43,8-59.54,4-39.43,6.44,11.27v66l-12.88,51.5-23.33,18.51-13.68,26.55-6.44,12.07Z" transform="translate(-308.05 -36.46)"/><polygon class="cls-4" points="236.56 535.88 223.13 545.59 223.13 559.21 213.09 579.33 198.74 579.33 198.74 601.05 185.42 624.39 143.22 667.57 173.8 648.53 200.35 623.58 218.32 587.38 236.56 572.09 236.56 535.88"/></g></svg>